  0
SECTION
  2
BLOCKS
  0
ENDSEC
  0
SECTION
  2
ENTITIES
  0
LINE
  8
0
 10
-5.5
 20
-70.2332
 11
-4.58402
 21
-71.2902
  0
LINE
  8
0
 10
-4.58402
 20
-71.2902
 11
-2.9079
 21
-72.3674
  0
LINE
  8
0
 10
-2.9079
 20
-72.3674
 11
-0.996203
 21
-72.9288
  0
LINE
  8
0
 10
-0.996203
 20
-72.9288
 11
0.996203
 21
-72.9288
  0
LINE
  8
0
 10
0.996203
 20
-72.9288
 11
2.9079
 21
-72.3674
  0
LINE
  8
0
 10
2.9079
 20
-72.3674
 11
4.58402
 21
-71.2902
  0
LINE
  8
0
 10
4.58402
 20
-71.2902
 11
5.5
 21
-70.2332
  0
LINE
  8
0
 10
5.5
 20
-70.2332
 11
5.5
 21
-61.7668
  0
LINE
  8
0
 10
5.5
 20
-61.7668
 11
4.58402
 21
-60.7098
  0
LINE
  8
0
 10
4.58402
 20
-60.7098
 11
2.9079
 21
-59.6326
  0
LINE
  8
0
 10
2.9079
 20
-59.6326
 11
0.996203
 21
-59.0712
  0
LINE
  8
0
 10
0.996203
 20
-59.0712
 11
-0.996203
 21
-59.0712
  0
LINE
  8
0
 10
-0.996203
 20
-59.0712
 11
-2.9079
 21
-59.6326
  0
LINE
  8
0
 10
-2.9079
 20
-59.6326
 11
-4.58402
 21
-60.7098
  0
LINE
  8
0
 10
-4.58402
 20
-60.7098
 11
-5.5
 21
-61.7668
  0
LINE
  8
0
 10
-5.5
 20
-61.7668
 11
-5.5
 21
-70.2332
  0
LINE
  8
0
 10
-5
 20
-69.75
 11
-5
 21
-62.25
  0
LINE
  8
0
 10
-5
 20
-62.25
 11
-1.5
 21
-62.25
  0
LINE
  8
0
 10
-1.5
 20
-62.25
 11
-1.5
 21
-69.75
  0
LINE
  8
0
 10
-1.5
 20
-69.75
 11
-5
 21
-69.75
  0
LINE
  8
0
 10
1.5
 20
-69.75
 11
1.5
 21
-62.25
  0
LINE
  8
0
 10
1.5
 20
-62.25
 11
5
 21
-62.25
  0
LINE
  8
0
 10
5
 20
-62.25
 11
5
 21
-69.75
  0
LINE
  8
0
 10
5
 20
-69.75
 11
1.5
 21
-69.75
  0
LINE
  8
0
 10
-5.5
 20
-54.2332
 11
-4.58402
 21
-55.2902
  0
LINE
  8
0
 10
-4.58402
 20
-55.2902
 11
-2.9079
 21
-56.3674
  0
LINE
  8
0
 10
-2.9079
 20
-56.3674
 11
-0.996203
 21
-56.9288
  0
LINE
  8
0
 10
-0.996203
 20
-56.9288
 11
0.996203
 21
-56.9288
  0
LINE
  8
0
 10
0.996203
 20
-56.9288
 11
2.9079
 21
-56.3674
  0
LINE
  8
0
 10
2.9079
 20
-56.3674
 11
4.58402
 21
-55.2902
  0
LINE
  8
0
 10
4.58402
 20
-55.2902
 11
5.5
 21
-54.2332
  0
LINE
  8
0
 10
5.5
 20
-54.2332
 11
5.5
 21
-45.7668
  0
LINE
  8
0
 10
5.5
 20
-45.7668
 11
4.58402
 21
-44.7098
  0
LINE
  8
0
 10
4.58402
 20
-44.7098
 11
2.9079
 21
-43.6326
  0
LINE
  8
0
 10
2.9079
 20
-43.6326
 11
0.996203
 21
-43.0712
  0
LINE
  8
0
 10
0.996203
 20
-43.0712
 11
-0.996203
 21
-43.0712
  0
LINE
  8
0
 10
-0.996203
 20
-43.0712
 11
-2.9079
 21
-43.6326
  0
LINE
  8
0
 10
-2.9079
 20
-43.6326
 11
-4.58402
 21
-44.7098
  0
LINE
  8
0
 10
-4.58402
 20
-44.7098
 11
-5.5
 21
-45.7668
  0
LINE
  8
0
 10
-5.5
 20
-45.7668
 11
-5.5
 21
-54.2332
  0
LINE
  8
0
 10
-5
 20
-53.75
 11
-5
 21
-46.25
  0
LINE
  8
0
 10
-5
 20
-46.25
 11
-1.5
 21
-46.25
  0
LINE
  8
0
 10
-1.5
 20
-46.25
 11
-1.5
 21
-53.75
  0
LINE
  8
0
 10
-1.5
 20
-53.75
 11
-5
 21
-53.75
  0
LINE
  8
0
 10
1.5
 20
-53.75
 11
1.5
 21
-46.25
  0
LINE
  8
0
 10
1.5
 20
-46.25
 11
5
 21
-46.25
  0
LINE
  8
0
 10
5
 20
-46.25
 11
5
 21
-53.75
  0
LINE
  8
0
 10
5
 20
-53.75
 11
1.5
 21
-53.75
  0
LINE
  8
0
 10
-5.5
 20
-39.2332
 11
-4.58402
 21
-40.2902
  0
LINE
  8
0
 10
-4.58402
 20
-40.2902
 11
-2.9079
 21
-41.3674
  0
LINE
  8
0
 10
-2.9079
 20
-41.3674
 11
-0.996203
 21
-41.9288
  0
LINE
  8
0
 10
-0.996203
 20
-41.9288
 11
0.996203
 21
-41.9288
  0
LINE
  8
0
 10
0.996203
 20
-41.9288
 11
2.9079
 21
-41.3674
  0
LINE
  8
0
 10
2.9079
 20
-41.3674
 11
4.58402
 21
-40.2902
  0
LINE
  8
0
 10
4.58402
 20
-40.2902
 11
5.5
 21
-39.2332
  0
LINE
  8
0
 10
5.5
 20
-39.2332
 11
5.5
 21
-30.7668
  0
LINE
  8
0
 10
5.5
 20
-30.7668
 11
4.58402
 21
-29.7098
  0
LINE
  8
0
 10
4.58402
 20
-29.7098
 11
2.9079
 21
-28.6326
  0
LINE
  8
0
 10
2.9079
 20
-28.6326
 11
0.996203
 21
-28.0712
  0
LINE
  8
0
 10
0.996203
 20
-28.0712
 11
-0.996203
 21
-28.0712
  0
LINE
  8
0
 10
-0.996203
 20
-28.0712
 11
-2.9079
 21
-28.6326
  0
LINE
  8
0
 10
-2.9079
 20
-28.6326
 11
-4.58402
 21
-29.7098
  0
LINE
  8
0
 10
-4.58402
 20
-29.7098
 11
-5.5
 21
-30.7668
  0
LINE
  8
0
 10
-5.5
 20
-30.7668
 11
-5.5
 21
-39.2332
  0
LINE
  8
0
 10
-5
 20
-38.75
 11
-5
 21
-31.25
  0
LINE
  8
0
 10
-5
 20
-31.25
 11
-1.5
 21
-31.25
  0
LINE
  8
0
 10
-1.5
 20
-31.25
 11
-1.5
 21
-38.75
  0
LINE
  8
0
 10
-1.5
 20
-38.75
 11
-5
 21
-38.75
  0
LINE
  8
0
 10
1.5
 20
-38.75
 11
1.5
 21
-31.25
  0
LINE
  8
0
 10
1.5
 20
-31.25
 11
5
 21
-31.25
  0
LINE
  8
0
 10
5
 20
-31.25
 11
5
 21
-38.75
  0
LINE
  8
0
 10
5
 20
-38.75
 11
1.5
 21
-38.75
  0
LINE
  8
0
 10
-5.5
 20
-19.2332
 11
-4.58402
 21
-20.2902
  0
LINE
  8
0
 10
-4.58402
 20
-20.2902
 11
-2.9079
 21
-21.3674
  0
LINE
  8
0
 10
-2.9079
 20
-21.3674
 11
-0.996203
 21
-21.9288
  0
LINE
  8
0
 10
-0.996203
 20
-21.9288
 11
0.996203
 21
-21.9288
  0
LINE
  8
0
 10
0.996203
 20
-21.9288
 11
2.9079
 21
-21.3674
  0
LINE
  8
0
 10
2.9079
 20
-21.3674
 11
4.58402
 21
-20.2902
  0
LINE
  8
0
 10
4.58402
 20
-20.2902
 11
5.5
 21
-19.2332
  0
LINE
  8
0
 10
5.5
 20
-19.2332
 11
5.5
 21
-10.7668
  0
LINE
  8
0
 10
5.5
 20
-10.7668
 11
4.58402
 21
-9.70975
  0
LINE
  8
0
 10
4.58402
 20
-9.70975
 11
2.9079
 21
-8.63258
  0
LINE
  8
0
 10
2.9079
 20
-8.63258
 11
0.996203
 21
-8.07125
  0
LINE
  8
0
 10
0.996203
 20
-8.07125
 11
-0.996203
 21
-8.07125
  0
LINE
  8
0
 10
-0.996203
 20
-8.07125
 11
-2.9079
 21
-8.63258
  0
LINE
  8
0
 10
-2.9079
 20
-8.63258
 11
-4.58402
 21
-9.70975
  0
LINE
  8
0
 10
-4.58402
 20
-9.70975
 11
-5.5
 21
-10.7668
  0
LINE
  8
0
 10
-5.5
 20
-10.7668
 11
-5.5
 21
-19.2332
  0
LINE
  8
0
 10
-5
 20
-18.75
 11
-5
 21
-11.25
  0
LINE
  8
0
 10
-5
 20
-11.25
 11
-1.5
 21
-11.25
  0
LINE
  8
0
 10
-1.5
 20
-11.25
 11
-1.5
 21
-18.75
  0
LINE
  8
0
 10
-1.5
 20
-18.75
 11
-5
 21
-18.75
  0
LINE
  8
0
 10
1.5
 20
-18.75
 11
1.5
 21
-11.25
  0
LINE
  8
0
 10
1.5
 20
-11.25
 11
5
 21
-11.25
  0
LINE
  8
0
 10
5
 20
-11.25
 11
5
 21
-18.75
  0
LINE
  8
0
 10
5
 20
-18.75
 11
1.5
 21
-18.75
  0
LINE
  8
0
 10
7.81753
 20
-73
 11
9.5
 21
-73
  0
LINE
  8
0
 10
9.5
 20
-73
 11
9.5
 21
-50
  0
LINE
  8
0
 10
9.5
 20
-50
 11
20.5
 21
-50
  0
LINE
  8
0
 10
20.5
 20
-50
 11
20.5
 21
-73
  0
LINE
  8
0
 10
20.5
 20
-73
 11
22.25
 21
-73
  0
LINE
  8
0
 10
22.25
 20
-73
 11
22
 21
0
  0
LINE
  8
0
 10
22
 20
0
 11
16.5
 21
0
  0
LINE
  8
0
 10
16.5
 20
0
 11
16.5
 21
-35
  0
LINE
  8
0
 10
16.5
 20
-35
 11
13.5
 21
-35
  0
LINE
  8
0
 10
13.5
 20
-35
 11
13.5
 21
0
  0
LINE
  8
0
 10
13.5
 20
0
 11
8.0652
 21
0
  0
LINE
  8
0
 10
8.0652
 20
0
 11
7.81753
 21
-73
  0
LINE
  8
0
 10
27.8175
 20
-70
 11
33.5
 21
-70
  0
LINE
  8
0
 10
33.5
 20
-70
 11
33.5
 21
-35
  0
LINE
  8
0
 10
33.5
 20
-35
 11
36.5
 21
-35
  0
LINE
  8
0
 10
36.5
 20
-35
 11
36.5
 21
-70
  0
LINE
  8
0
 10
36.5
 20
-70
 11
42.25
 21
-70
  0
LINE
  8
0
 10
42.25
 20
-70
 11
42
 21
0
  0
LINE
  8
0
 10
42
 20
0
 11
28.0652
 21
0
  0
LINE
  8
0
 10
28.0652
 20
0
 11
27.8175
 21
-70
  0
ENDSEC
  0
SECTION
  2
OBJECTS
  0
DICTIONARY
  0
ENDSEC
  0
EOF
