  0
SECTION
  2
BLOCKS
  0
ENDSEC
  0
SECTION
  2
ENTITIES
  0
LINE
  8
0
 10
1
 20
18
 11
1.00987
 21
17.686
  0
LINE
  8
0
 10
1.00987
 20
17.686
 11
1.03943
 21
17.3733
  0
LINE
  8
0
 10
1.03943
 20
17.3733
 11
1.08856
 21
17.0631
  0
LINE
  8
0
 10
1.08856
 20
17.0631
 11
1.15708
 21
16.7566
  0
LINE
  8
0
 10
1.15708
 20
16.7566
 11
1.24472
 21
16.4549
  0
LINE
  8
0
 10
1.24472
 20
16.4549
 11
1.35112
 21
16.1594
  0
LINE
  8
0
 10
1.35112
 20
16.1594
 11
1.47587
 21
15.8711
  0
LINE
  8
0
 10
1.47587
 20
15.8711
 11
1.61847
 21
15.5912
  0
LINE
  8
0
 10
1.61847
 20
15.5912
 11
1.77836
 21
15.3209
  0
LINE
  8
0
 10
1.77836
 20
15.3209
 11
1.95492
 21
15.0611
  0
LINE
  8
0
 10
1.95492
 20
15.0611
 11
2.14743
 21
14.8129
  0
LINE
  8
0
 10
2.14743
 20
14.8129
 11
2.35516
 21
14.5773
  0
LINE
  8
0
 10
2.35516
 20
14.5773
 11
2.57726
 21
14.3552
  0
LINE
  8
0
 10
2.57726
 20
14.3552
 11
2.81288
 21
14.1474
  0
LINE
  8
0
 10
2.81288
 20
14.1474
 11
3.06107
 21
13.9549
  0
LINE
  8
0
 10
3.06107
 20
13.9549
 11
3.32087
 21
13.7784
  0
LINE
  8
0
 10
3.32087
 20
13.7784
 11
3.59123
 21
13.6185
  0
LINE
  8
0
 10
3.59123
 20
13.6185
 11
3.8711
 21
13.4759
  0
LINE
  8
0
 10
3.8711
 20
13.4759
 11
4.15938
 21
13.3511
  0
LINE
  8
0
 10
4.15938
 20
13.3511
 11
4.45492
 21
13.2447
  0
LINE
  8
0
 10
4.45492
 20
13.2447
 11
4.75655
 21
13.1571
  0
LINE
  8
0
 10
4.75655
 20
13.1571
 11
5.06309
 21
13.0886
  0
LINE
  8
0
 10
5.06309
 20
13.0886
 11
5.37333
 21
13.0394
  0
LINE
  8
0
 10
5.37333
 20
13.0394
 11
5.68605
 21
13.0099
  0
LINE
  8
0
 10
5.68605
 20
13.0099
 11
6
 21
13
  0
LINE
  8
0
 10
6
 20
13
 11
6.31395
 21
13.0099
  0
LINE
  8
0
 10
6.31395
 20
13.0099
 11
6.62667
 21
13.0394
  0
LINE
  8
0
 10
6.62667
 20
13.0394
 11
6.93691
 21
13.0886
  0
LINE
  8
0
 10
6.93691
 20
13.0886
 11
7.24345
 21
13.1571
  0
LINE
  8
0
 10
7.24345
 20
13.1571
 11
7.54508
 21
13.2447
  0
LINE
  8
0
 10
7.54508
 20
13.2447
 11
7.84062
 21
13.3511
  0
LINE
  8
0
 10
7.84062
 20
13.3511
 11
8.1289
 21
13.4759
  0
LINE
  8
0
 10
8.1289
 20
13.4759
 11
8.40877
 21
13.6185
  0
LINE
  8
0
 10
8.40877
 20
13.6185
 11
8.67913
 21
13.7784
  0
LINE
  8
0
 10
8.67913
 20
13.7784
 11
8.93893
 21
13.9549
  0
LINE
  8
0
 10
8.93893
 20
13.9549
 11
9.18712
 21
14.1474
  0
LINE
  8
0
 10
9.18712
 20
14.1474
 11
9.42274
 21
14.3552
  0
LINE
  8
0
 10
9.42274
 20
14.3552
 11
9.64484
 21
14.5773
  0
LINE
  8
0
 10
9.64484
 20
14.5773
 11
9.85257
 21
14.8129
  0
LINE
  8
0
 10
9.85257
 20
14.8129
 11
10.0451
 21
15.0611
  0
LINE
  8
0
 10
10.0451
 20
15.0611
 11
10.2216
 21
15.3209
  0
LINE
  8
0
 10
10.2216
 20
15.3209
 11
10.3815
 21
15.5912
  0
LINE
  8
0
 10
10.3815
 20
15.5912
 11
10.4499
 21
15.7253
  0
LINE
  8
0
 10
10.4499
 20
15.7253
 11
10.571
 21
15.4453
  0
LINE
  8
0
 10
10.571
 20
15.4453
 11
10.7422
 21
15.1095
  0
LINE
  8
0
 10
10.7422
 20
15.1095
 11
10.934
 21
14.785
  0
LINE
  8
0
 10
10.934
 20
14.785
 11
11.1459
 21
14.4733
  0
LINE
  8
0
 10
11.1459
 20
14.4733
 11
11.3769
 21
14.1755
  0
LINE
  8
0
 10
11.3769
 20
14.1755
 11
11.6262
 21
13.8927
  0
LINE
  8
0
 10
11.6262
 20
13.8927
 11
11.8927
 21
13.6262
  0
LINE
  8
0
 10
11.8927
 20
13.6262
 11
12.1755
 21
13.3769
  0
LINE
  8
0
 10
12.1755
 20
13.3769
 11
12.4733
 21
13.1459
  0
LINE
  8
0
 10
12.4733
 20
13.1459
 11
12.785
 21
12.934
  0
LINE
  8
0
 10
12.785
 20
12.934
 11
13.1095
 21
12.7422
  0
LINE
  8
0
 10
13.1095
 20
12.7422
 11
13.4453
 21
12.571
  0
LINE
  8
0
 10
13.4453
 20
12.571
 11
13.7913
 21
12.4213
  0
LINE
  8
0
 10
13.7913
 20
12.4213
 11
14.1459
 21
12.2937
  0
LINE
  8
0
 10
14.1459
 20
12.2937
 11
14.5079
 21
12.1885
  0
LINE
  8
0
 10
14.5079
 20
12.1885
 11
14.8757
 21
12.1063
  0
LINE
  8
0
 10
14.8757
 20
12.1063
 11
15.248
 21
12.0473
  0
LINE
  8
0
 10
15.248
 20
12.0473
 11
15.6233
 21
12.0118
  0
LINE
  8
0
 10
15.6233
 20
12.0118
 11
16
 21
12
  0
LINE
  8
0
 10
16
 20
12
 11
16.3767
 21
12.0118
  0
LINE
  8
0
 10
16.3767
 20
12.0118
 11
16.752
 21
12.0473
  0
LINE
  8
0
 10
16.752
 20
12.0473
 11
17.1243
 21
12.1063
  0
LINE
  8
0
 10
17.1243
 20
12.1063
 11
17.4921
 21
12.1885
  0
LINE
  8
0
 10
17.4921
 20
12.1885
 11
17.8541
 21
12.2937
  0
LINE
  8
0
 10
17.8541
 20
12.2937
 11
18.2087
 21
12.4213
  0
LINE
  8
0
 10
18.2087
 20
12.4213
 11
18.5547
 21
12.571
  0
LINE
  8
0
 10
18.5547
 20
12.571
 11
18.8905
 21
12.7422
  0
LINE
  8
0
 10
18.8905
 20
12.7422
 11
19.215
 21
12.934
  0
LINE
  8
0
 10
19.215
 20
12.934
 11
19.5267
 21
13.1459
  0
LINE
  8
0
 10
19.5267
 20
13.1459
 11
19.8245
 21
13.3769
  0
LINE
  8
0
 10
19.8245
 20
13.3769
 11
20.1073
 21
13.6262
  0
LINE
  8
0
 10
20.1073
 20
13.6262
 11
20.3738
 21
13.8927
  0
LINE
  8
0
 10
20.3738
 20
13.8927
 11
20.6231
 21
14.1755
  0
LINE
  8
0
 10
20.6231
 20
14.1755
 11
20.8541
 21
14.4733
  0
LINE
  8
0
 10
20.8541
 20
14.4733
 11
21.066
 21
14.785
  0
LINE
  8
0
 10
21.066
 20
14.785
 11
21.2578
 21
15.1095
  0
LINE
  8
0
 10
21.2578
 20
15.1095
 11
21.429
 21
15.4453
  0
LINE
  8
0
 10
21.429
 20
15.4453
 11
21.5787
 21
15.7913
  0
LINE
  8
0
 10
21.5787
 20
15.7913
 11
21.7063
 21
16.1459
  0
LINE
  8
0
 10
21.7063
 20
16.1459
 11
21.8092
 21
16.5
  0
LINE
  8
0
 10
21.8092
 20
16.5
 11
22.1908
 21
16.5
  0
LINE
  8
0
 10
22.1908
 20
16.5
 11
22.2937
 21
16.1459
  0
LINE
  8
0
 10
22.2937
 20
16.1459
 11
22.4213
 21
15.7913
  0
LINE
  8
0
 10
22.4213
 20
15.7913
 11
22.571
 21
15.4453
  0
LINE
  8
0
 10
22.571
 20
15.4453
 11
22.7422
 21
15.1095
  0
LINE
  8
0
 10
22.7422
 20
15.1095
 11
22.934
 21
14.785
  0
LINE
  8
0
 10
22.934
 20
14.785
 11
23.1459
 21
14.4733
  0
LINE
  8
0
 10
23.1459
 20
14.4733
 11
23.3769
 21
14.1755
  0
LINE
  8
0
 10
23.3769
 20
14.1755
 11
23.6262
 21
13.8927
  0
LINE
  8
0
 10
23.6262
 20
13.8927
 11
23.8927
 21
13.6262
  0
LINE
  8
0
 10
23.8927
 20
13.6262
 11
24.1755
 21
13.3769
  0
LINE
  8
0
 10
24.1755
 20
13.3769
 11
24.4733
 21
13.1459
  0
LINE
  8
0
 10
24.4733
 20
13.1459
 11
24.785
 21
12.934
  0
LINE
  8
0
 10
24.785
 20
12.934
 11
25.1095
 21
12.7422
  0
LINE
  8
0
 10
25.1095
 20
12.7422
 11
25.4453
 21
12.571
  0
LINE
  8
0
 10
25.4453
 20
12.571
 11
25.7913
 21
12.4213
  0
LINE
  8
0
 10
25.7913
 20
12.4213
 11
26.1459
 21
12.2937
  0
LINE
  8
0
 10
26.1459
 20
12.2937
 11
26.5079
 21
12.1885
  0
LINE
  8
0
 10
26.5079
 20
12.1885
 11
26.8757
 21
12.1063
  0
LINE
  8
0
 10
26.8757
 20
12.1063
 11
27.248
 21
12.0473
  0
LINE
  8
0
 10
27.248
 20
12.0473
 11
27.6233
 21
12.0118
  0
LINE
  8
0
 10
27.6233
 20
12.0118
 11
28
 21
12
  0
LINE
  8
0
 10
28
 20
12
 11
28.3767
 21
12.0118
  0
LINE
  8
0
 10
28.3767
 20
12.0118
 11
28.752
 21
12.0473
  0
LINE
  8
0
 10
28.752
 20
12.0473
 11
29.1243
 21
12.1063
  0
LINE
  8
0
 10
29.1243
 20
12.1063
 11
29.4921
 21
12.1885
  0
LINE
  8
0
 10
29.4921
 20
12.1885
 11
29.8541
 21
12.2937
  0
LINE
  8
0
 10
29.8541
 20
12.2937
 11
30.2087
 21
12.4213
  0
LINE
  8
0
 10
30.2087
 20
12.4213
 11
30.5547
 21
12.571
  0
LINE
  8
0
 10
30.5547
 20
12.571
 11
30.8905
 21
12.7422
  0
LINE
  8
0
 10
30.8905
 20
12.7422
 11
31.215
 21
12.934
  0
LINE
  8
0
 10
31.215
 20
12.934
 11
31.5267
 21
13.1459
  0
LINE
  8
0
 10
31.5267
 20
13.1459
 11
31.8245
 21
13.3769
  0
LINE
  8
0
 10
31.8245
 20
13.3769
 11
32.1073
 21
13.6262
  0
LINE
  8
0
 10
32.1073
 20
13.6262
 11
32.3738
 21
13.8927
  0
LINE
  8
0
 10
32.3738
 20
13.8927
 11
32.6231
 21
14.1755
  0
LINE
  8
0
 10
32.6231
 20
14.1755
 11
32.8541
 21
14.4733
  0
LINE
  8
0
 10
32.8541
 20
14.4733
 11
33.066
 21
14.785
  0
LINE
  8
0
 10
33.066
 20
14.785
 11
33.2578
 21
15.1095
  0
LINE
  8
0
 10
33.2578
 20
15.1095
 11
33.429
 21
15.4453
  0
LINE
  8
0
 10
33.429
 20
15.4453
 11
33.5787
 21
15.7913
  0
LINE
  8
0
 10
33.5787
 20
15.7913
 11
33.7063
 21
16.1459
  0
LINE
  8
0
 10
33.7063
 20
16.1459
 11
33.8092
 21
16.5
  0
LINE
  8
0
 10
33.8092
 20
16.5
 11
34.1908
 21
16.5
  0
LINE
  8
0
 10
34.1908
 20
16.5
 11
34.2937
 21
16.1459
  0
LINE
  8
0
 10
34.2937
 20
16.1459
 11
34.4213
 21
15.7913
  0
LINE
  8
0
 10
34.4213
 20
15.7913
 11
34.571
 21
15.4453
  0
LINE
  8
0
 10
34.571
 20
15.4453
 11
34.7422
 21
15.1095
  0
LINE
  8
0
 10
34.7422
 20
15.1095
 11
34.934
 21
14.785
  0
LINE
  8
0
 10
34.934
 20
14.785
 11
35.1459
 21
14.4733
  0
LINE
  8
0
 10
35.1459
 20
14.4733
 11
35.3769
 21
14.1755
  0
LINE
  8
0
 10
35.3769
 20
14.1755
 11
35.6262
 21
13.8927
  0
LINE
  8
0
 10
35.6262
 20
13.8927
 11
35.8927
 21
13.6262
  0
LINE
  8
0
 10
35.8927
 20
13.6262
 11
36.1755
 21
13.3769
  0
LINE
  8
0
 10
36.1755
 20
13.3769
 11
36.4733
 21
13.1459
  0
LINE
  8
0
 10
36.4733
 20
13.1459
 11
36.785
 21
12.934
  0
LINE
  8
0
 10
36.785
 20
12.934
 11
37.1095
 21
12.7422
  0
LINE
  8
0
 10
37.1095
 20
12.7422
 11
37.4453
 21
12.571
  0
LINE
  8
0
 10
37.4453
 20
12.571
 11
37.7913
 21
12.4213
  0
LINE
  8
0
 10
37.7913
 20
12.4213
 11
38.1459
 21
12.2937
  0
LINE
  8
0
 10
38.1459
 20
12.2937
 11
38.5079
 21
12.1885
  0
LINE
  8
0
 10
38.5079
 20
12.1885
 11
38.8757
 21
12.1063
  0
LINE
  8
0
 10
38.8757
 20
12.1063
 11
39.248
 21
12.0473
  0
LINE
  8
0
 10
39.248
 20
12.0473
 11
39.6233
 21
12.0118
  0
LINE
  8
0
 10
39.6233
 20
12.0118
 11
40
 21
12
  0
LINE
  8
0
 10
40
 20
12
 11
40.3767
 21
12.0118
  0
LINE
  8
0
 10
40.3767
 20
12.0118
 11
40.752
 21
12.0473
  0
LINE
  8
0
 10
40.752
 20
12.0473
 11
41.1243
 21
12.1063
  0
LINE
  8
0
 10
41.1243
 20
12.1063
 11
41.4921
 21
12.1885
  0
LINE
  8
0
 10
41.4921
 20
12.1885
 11
41.8541
 21
12.2937
  0
LINE
  8
0
 10
41.8541
 20
12.2937
 11
42.2087
 21
12.4213
  0
LINE
  8
0
 10
42.2087
 20
12.4213
 11
42.5547
 21
12.571
  0
LINE
  8
0
 10
42.5547
 20
12.571
 11
42.8905
 21
12.7422
  0
LINE
  8
0
 10
42.8905
 20
12.7422
 11
43.215
 21
12.934
  0
LINE
  8
0
 10
43.215
 20
12.934
 11
43.5267
 21
13.1459
  0
LINE
  8
0
 10
43.5267
 20
13.1459
 11
43.8245
 21
13.3769
  0
LINE
  8
0
 10
43.8245
 20
13.3769
 11
44.1073
 21
13.6262
  0
LINE
  8
0
 10
44.1073
 20
13.6262
 11
44.3738
 21
13.8927
  0
LINE
  8
0
 10
44.3738
 20
13.8927
 11
44.6231
 21
14.1755
  0
LINE
  8
0
 10
44.6231
 20
14.1755
 11
44.8541
 21
14.4733
  0
LINE
  8
0
 10
44.8541
 20
14.4733
 11
45.066
 21
14.785
  0
LINE
  8
0
 10
45.066
 20
14.785
 11
45.2578
 21
15.1095
  0
LINE
  8
0
 10
45.2578
 20
15.1095
 11
45.429
 21
15.4453
  0
LINE
  8
0
 10
45.429
 20
15.4453
 11
45.5787
 21
15.7913
  0
LINE
  8
0
 10
45.5787
 20
15.7913
 11
45.7063
 21
16.1459
  0
LINE
  8
0
 10
45.7063
 20
16.1459
 11
45.8092
 21
16.5
  0
LINE
  8
0
 10
45.8092
 20
16.5
 11
46.1908
 21
16.5
  0
LINE
  8
0
 10
46.1908
 20
16.5
 11
46.2937
 21
16.1459
  0
LINE
  8
0
 10
46.2937
 20
16.1459
 11
46.4213
 21
15.7913
  0
LINE
  8
0
 10
46.4213
 20
15.7913
 11
46.571
 21
15.4453
  0
LINE
  8
0
 10
46.571
 20
15.4453
 11
46.7422
 21
15.1095
  0
LINE
  8
0
 10
46.7422
 20
15.1095
 11
46.934
 21
14.785
  0
LINE
  8
0
 10
46.934
 20
14.785
 11
47.1459
 21
14.4733
  0
LINE
  8
0
 10
47.1459
 20
14.4733
 11
47.3769
 21
14.1755
  0
LINE
  8
0
 10
47.3769
 20
14.1755
 11
47.6262
 21
13.8927
  0
LINE
  8
0
 10
47.6262
 20
13.8927
 11
47.8927
 21
13.6262
  0
LINE
  8
0
 10
47.8927
 20
13.6262
 11
48.1755
 21
13.3769
  0
LINE
  8
0
 10
48.1755
 20
13.3769
 11
48.4733
 21
13.1459
  0
LINE
  8
0
 10
48.4733
 20
13.1459
 11
48.785
 21
12.934
  0
LINE
  8
0
 10
48.785
 20
12.934
 11
49.1095
 21
12.7422
  0
LINE
  8
0
 10
49.1095
 20
12.7422
 11
49.4453
 21
12.571
  0
LINE
  8
0
 10
49.4453
 20
12.571
 11
49.7913
 21
12.4213
  0
LINE
  8
0
 10
49.7913
 20
12.4213
 11
50.1459
 21
12.2937
  0
LINE
  8
0
 10
50.1459
 20
12.2937
 11
50.5079
 21
12.1885
  0
LINE
  8
0
 10
50.5079
 20
12.1885
 11
50.8757
 21
12.1063
  0
LINE
  8
0
 10
50.8757
 20
12.1063
 11
51.248
 21
12.0473
  0
LINE
  8
0
 10
51.248
 20
12.0473
 11
51.6233
 21
12.0118
  0
LINE
  8
0
 10
51.6233
 20
12.0118
 11
52
 21
12
  0
LINE
  8
0
 10
52
 20
12
 11
52.3767
 21
12.0118
  0
LINE
  8
0
 10
52.3767
 20
12.0118
 11
52.752
 21
12.0473
  0
LINE
  8
0
 10
52.752
 20
12.0473
 11
53.1243
 21
12.1063
  0
LINE
  8
0
 10
53.1243
 20
12.1063
 11
53.4921
 21
12.1885
  0
LINE
  8
0
 10
53.4921
 20
12.1885
 11
53.8541
 21
12.2937
  0
LINE
  8
0
 10
53.8541
 20
12.2937
 11
54.2087
 21
12.4213
  0
LINE
  8
0
 10
54.2087
 20
12.4213
 11
54.5547
 21
12.571
  0
LINE
  8
0
 10
54.5547
 20
12.571
 11
54.8905
 21
12.7422
  0
LINE
  8
0
 10
54.8905
 20
12.7422
 11
55.215
 21
12.934
  0
LINE
  8
0
 10
55.215
 20
12.934
 11
55.5267
 21
13.1459
  0
LINE
  8
0
 10
55.5267
 20
13.1459
 11
55.8245
 21
13.3769
  0
LINE
  8
0
 10
55.8245
 20
13.3769
 11
56.1073
 21
13.6262
  0
LINE
  8
0
 10
56.1073
 20
13.6262
 11
56.3738
 21
13.8927
  0
LINE
  8
0
 10
56.3738
 20
13.8927
 11
56.6231
 21
14.1755
  0
LINE
  8
0
 10
56.6231
 20
14.1755
 11
56.8541
 21
14.4733
  0
LINE
  8
0
 10
56.8541
 20
14.4733
 11
57.066
 21
14.785
  0
LINE
  8
0
 10
57.066
 20
14.785
 11
57.2578
 21
15.1095
  0
LINE
  8
0
 10
57.2578
 20
15.1095
 11
57.429
 21
15.4453
  0
LINE
  8
0
 10
57.429
 20
15.4453
 11
57.5787
 21
15.7913
  0
LINE
  8
0
 10
57.5787
 20
15.7913
 11
57.7063
 21
16.1459
  0
LINE
  8
0
 10
57.7063
 20
16.1459
 11
57.8092
 21
16.5
  0
LINE
  8
0
 10
57.8092
 20
16.5
 11
58.1908
 21
16.5
  0
LINE
  8
0
 10
58.1908
 20
16.5
 11
58.2937
 21
16.1459
  0
LINE
  8
0
 10
58.2937
 20
16.1459
 11
58.4213
 21
15.7913
  0
LINE
  8
0
 10
58.4213
 20
15.7913
 11
58.571
 21
15.4453
  0
LINE
  8
0
 10
58.571
 20
15.4453
 11
58.7422
 21
15.1095
  0
LINE
  8
0
 10
58.7422
 20
15.1095
 11
58.934
 21
14.785
  0
LINE
  8
0
 10
58.934
 20
14.785
 11
59.1459
 21
14.4733
  0
LINE
  8
0
 10
59.1459
 20
14.4733
 11
59.3769
 21
14.1755
  0
LINE
  8
0
 10
59.3769
 20
14.1755
 11
59.6262
 21
13.8927
  0
LINE
  8
0
 10
59.6262
 20
13.8927
 11
59.8927
 21
13.6262
  0
LINE
  8
0
 10
59.8927
 20
13.6262
 11
60.1755
 21
13.3769
  0
LINE
  8
0
 10
60.1755
 20
13.3769
 11
60.4733
 21
13.1459
  0
LINE
  8
0
 10
60.4733
 20
13.1459
 11
60.785
 21
12.934
  0
LINE
  8
0
 10
60.785
 20
12.934
 11
61.1095
 21
12.7422
  0
LINE
  8
0
 10
61.1095
 20
12.7422
 11
61.4453
 21
12.571
  0
LINE
  8
0
 10
61.4453
 20
12.571
 11
61.7913
 21
12.4213
  0
LINE
  8
0
 10
61.7913
 20
12.4213
 11
62.1459
 21
12.2937
  0
LINE
  8
0
 10
62.1459
 20
12.2937
 11
62.5079
 21
12.1885
  0
LINE
  8
0
 10
62.5079
 20
12.1885
 11
62.8757
 21
12.1063
  0
LINE
  8
0
 10
62.8757
 20
12.1063
 11
63.248
 21
12.0473
  0
LINE
  8
0
 10
63.248
 20
12.0473
 11
63.6233
 21
12.0118
  0
LINE
  8
0
 10
63.6233
 20
12.0118
 11
64
 21
12
  0
LINE
  8
0
 10
64
 20
12
 11
64.3767
 21
12.0118
  0
LINE
  8
0
 10
64.3767
 20
12.0118
 11
64.752
 21
12.0473
  0
LINE
  8
0
 10
64.752
 20
12.0473
 11
65.1243
 21
12.1063
  0
LINE
  8
0
 10
65.1243
 20
12.1063
 11
65.4921
 21
12.1885
  0
LINE
  8
0
 10
65.4921
 20
12.1885
 11
65.8541
 21
12.2937
  0
LINE
  8
0
 10
65.8541
 20
12.2937
 11
66.2087
 21
12.4213
  0
LINE
  8
0
 10
66.2087
 20
12.4213
 11
66.5547
 21
12.571
  0
LINE
  8
0
 10
66.5547
 20
12.571
 11
66.8905
 21
12.7422
  0
LINE
  8
0
 10
66.8905
 20
12.7422
 11
67.215
 21
12.934
  0
LINE
  8
0
 10
67.215
 20
12.934
 11
67.5267
 21
13.1459
  0
LINE
  8
0
 10
67.5267
 20
13.1459
 11
67.8245
 21
13.3769
  0
LINE
  8
0
 10
67.8245
 20
13.3769
 11
68.1073
 21
13.6262
  0
LINE
  8
0
 10
68.1073
 20
13.6262
 11
68.3738
 21
13.8927
  0
LINE
  8
0
 10
68.3738
 20
13.8927
 11
68.6231
 21
14.1755
  0
LINE
  8
0
 10
68.6231
 20
14.1755
 11
68.8541
 21
14.4733
  0
LINE
  8
0
 10
68.8541
 20
14.4733
 11
69.066
 21
14.785
  0
LINE
  8
0
 10
69.066
 20
14.785
 11
69.2578
 21
15.1095
  0
LINE
  8
0
 10
69.2578
 20
15.1095
 11
69.429
 21
15.4453
  0
LINE
  8
0
 10
69.429
 20
15.4453
 11
69.5787
 21
15.7913
  0
LINE
  8
0
 10
69.5787
 20
15.7913
 11
69.7063
 21
16.1459
  0
LINE
  8
0
 10
69.7063
 20
16.1459
 11
69.8092
 21
16.5
  0
LINE
  8
0
 10
69.8092
 20
16.5
 11
70.1908
 21
16.5
  0
LINE
  8
0
 10
70.1908
 20
16.5
 11
70.2937
 21
16.1459
  0
LINE
  8
0
 10
70.2937
 20
16.1459
 11
70.4213
 21
15.7913
  0
LINE
  8
0
 10
70.4213
 20
15.7913
 11
70.571
 21
15.4453
  0
LINE
  8
0
 10
70.571
 20
15.4453
 11
70.7422
 21
15.1095
  0
LINE
  8
0
 10
70.7422
 20
15.1095
 11
70.934
 21
14.785
  0
LINE
  8
0
 10
70.934
 20
14.785
 11
71.1459
 21
14.4733
  0
LINE
  8
0
 10
71.1459
 20
14.4733
 11
71.3769
 21
14.1755
  0
LINE
  8
0
 10
71.3769
 20
14.1755
 11
71.6262
 21
13.8927
  0
LINE
  8
0
 10
71.6262
 20
13.8927
 11
71.8927
 21
13.6262
  0
LINE
  8
0
 10
71.8927
 20
13.6262
 11
72.1755
 21
13.3769
  0
LINE
  8
0
 10
72.1755
 20
13.3769
 11
72.4733
 21
13.1459
  0
LINE
  8
0
 10
72.4733
 20
13.1459
 11
72.785
 21
12.934
  0
LINE
  8
0
 10
72.785
 20
12.934
 11
73.1095
 21
12.7422
  0
LINE
  8
0
 10
73.1095
 20
12.7422
 11
73.4453
 21
12.571
  0
LINE
  8
0
 10
73.4453
 20
12.571
 11
73.7913
 21
12.4213
  0
LINE
  8
0
 10
73.7913
 20
12.4213
 11
74.1459
 21
12.2937
  0
LINE
  8
0
 10
74.1459
 20
12.2937
 11
74.5079
 21
12.1885
  0
LINE
  8
0
 10
74.5079
 20
12.1885
 11
74.8757
 21
12.1063
  0
LINE
  8
0
 10
74.8757
 20
12.1063
 11
75.248
 21
12.0473
  0
LINE
  8
0
 10
75.248
 20
12.0473
 11
75.6233
 21
12.0118
  0
LINE
  8
0
 10
75.6233
 20
12.0118
 11
76
 21
12
  0
LINE
  8
0
 10
76
 20
12
 11
76.3767
 21
12.0118
  0
LINE
  8
0
 10
76.3767
 20
12.0118
 11
76.752
 21
12.0473
  0
LINE
  8
0
 10
76.752
 20
12.0473
 11
77.1243
 21
12.1063
  0
LINE
  8
0
 10
77.1243
 20
12.1063
 11
77.4921
 21
12.1885
  0
LINE
  8
0
 10
77.4921
 20
12.1885
 11
77.8541
 21
12.2937
  0
LINE
  8
0
 10
77.8541
 20
12.2937
 11
78.2087
 21
12.4213
  0
LINE
  8
0
 10
78.2087
 20
12.4213
 11
78.5547
 21
12.571
  0
LINE
  8
0
 10
78.5547
 20
12.571
 11
78.8905
 21
12.7422
  0
LINE
  8
0
 10
78.8905
 20
12.7422
 11
79.215
 21
12.934
  0
LINE
  8
0
 10
79.215
 20
12.934
 11
79.5267
 21
13.1459
  0
LINE
  8
0
 10
79.5267
 20
13.1459
 11
79.8245
 21
13.3769
  0
LINE
  8
0
 10
79.8245
 20
13.3769
 11
80.1073
 21
13.6262
  0
LINE
  8
0
 10
80.1073
 20
13.6262
 11
80.3738
 21
13.8927
  0
LINE
  8
0
 10
80.3738
 20
13.8927
 11
80.6231
 21
14.1755
  0
LINE
  8
0
 10
80.6231
 20
14.1755
 11
80.8541
 21
14.4733
  0
LINE
  8
0
 10
80.8541
 20
14.4733
 11
81.066
 21
14.785
  0
LINE
  8
0
 10
81.066
 20
14.785
 11
81.2578
 21
15.1095
  0
LINE
  8
0
 10
81.2578
 20
15.1095
 11
81.429
 21
15.4453
  0
LINE
  8
0
 10
81.429
 20
15.4453
 11
81.5787
 21
15.7913
  0
LINE
  8
0
 10
81.5787
 20
15.7913
 11
81.7063
 21
16.1459
  0
LINE
  8
0
 10
81.7063
 20
16.1459
 11
81.8092
 21
16.5
  0
LINE
  8
0
 10
81.8092
 20
16.5
 11
82.1908
 21
16.5
  0
LINE
  8
0
 10
82.1908
 20
16.5
 11
82.2937
 21
16.1459
  0
LINE
  8
0
 10
82.2937
 20
16.1459
 11
82.4213
 21
15.7913
  0
LINE
  8
0
 10
82.4213
 20
15.7913
 11
82.571
 21
15.4453
  0
LINE
  8
0
 10
82.571
 20
15.4453
 11
82.7422
 21
15.1095
  0
LINE
  8
0
 10
82.7422
 20
15.1095
 11
82.934
 21
14.785
  0
LINE
  8
0
 10
82.934
 20
14.785
 11
83.1459
 21
14.4733
  0
LINE
  8
0
 10
83.1459
 20
14.4733
 11
83.3769
 21
14.1755
  0
LINE
  8
0
 10
83.3769
 20
14.1755
 11
83.6262
 21
13.8927
  0
LINE
  8
0
 10
83.6262
 20
13.8927
 11
83.8927
 21
13.6262
  0
LINE
  8
0
 10
83.8927
 20
13.6262
 11
84.1755
 21
13.3769
  0
LINE
  8
0
 10
84.1755
 20
13.3769
 11
84.4733
 21
13.1459
  0
LINE
  8
0
 10
84.4733
 20
13.1459
 11
84.785
 21
12.934
  0
LINE
  8
0
 10
84.785
 20
12.934
 11
85.1095
 21
12.7422
  0
LINE
  8
0
 10
85.1095
 20
12.7422
 11
85.4453
 21
12.571
  0
LINE
  8
0
 10
85.4453
 20
12.571
 11
85.7913
 21
12.4213
  0
LINE
  8
0
 10
85.7913
 20
12.4213
 11
86.1459
 21
12.2937
  0
LINE
  8
0
 10
86.1459
 20
12.2937
 11
86.5079
 21
12.1885
  0
LINE
  8
0
 10
86.5079
 20
12.1885
 11
86.8757
 21
12.1063
  0
LINE
  8
0
 10
86.8757
 20
12.1063
 11
87.248
 21
12.0473
  0
LINE
  8
0
 10
87.248
 20
12.0473
 11
87.6233
 21
12.0118
  0
LINE
  8
0
 10
87.6233
 20
12.0118
 11
88
 21
12
  0
LINE
  8
0
 10
88
 20
12
 11
88.3767
 21
12.0118
  0
LINE
  8
0
 10
88.3767
 20
12.0118
 11
88.752
 21
12.0473
  0
LINE
  8
0
 10
88.752
 20
12.0473
 11
89.1243
 21
12.1063
  0
LINE
  8
0
 10
89.1243
 20
12.1063
 11
89.4921
 21
12.1885
  0
LINE
  8
0
 10
89.4921
 20
12.1885
 11
89.8541
 21
12.2937
  0
LINE
  8
0
 10
89.8541
 20
12.2937
 11
90.2087
 21
12.4213
  0
LINE
  8
0
 10
90.2087
 20
12.4213
 11
90.5547
 21
12.571
  0
LINE
  8
0
 10
90.5547
 20
12.571
 11
90.8905
 21
12.7422
  0
LINE
  8
0
 10
90.8905
 20
12.7422
 11
91.215
 21
12.934
  0
LINE
  8
0
 10
91.215
 20
12.934
 11
91.5267
 21
13.1459
  0
LINE
  8
0
 10
91.5267
 20
13.1459
 11
91.8245
 21
13.3769
  0
LINE
  8
0
 10
91.8245
 20
13.3769
 11
92.1073
 21
13.6262
  0
LINE
  8
0
 10
92.1073
 20
13.6262
 11
92.3738
 21
13.8927
  0
LINE
  8
0
 10
92.3738
 20
13.8927
 11
92.6231
 21
14.1755
  0
LINE
  8
0
 10
92.6231
 20
14.1755
 11
92.8541
 21
14.4733
  0
LINE
  8
0
 10
92.8541
 20
14.4733
 11
93.066
 21
14.785
  0
LINE
  8
0
 10
93.066
 20
14.785
 11
93.2578
 21
15.1095
  0
LINE
  8
0
 10
93.2578
 20
15.1095
 11
93.429
 21
15.4453
  0
LINE
  8
0
 10
93.429
 20
15.4453
 11
93.5787
 21
15.7913
  0
LINE
  8
0
 10
93.5787
 20
15.7913
 11
93.7063
 21
16.1459
  0
LINE
  8
0
 10
93.7063
 20
16.1459
 11
93.8092
 21
16.5
  0
LINE
  8
0
 10
93.8092
 20
16.5
 11
94.1908
 21
16.5
  0
LINE
  8
0
 10
94.1908
 20
16.5
 11
94.2937
 21
16.1459
  0
LINE
  8
0
 10
94.2937
 20
16.1459
 11
94.4213
 21
15.7913
  0
LINE
  8
0
 10
94.4213
 20
15.7913
 11
94.571
 21
15.4453
  0
LINE
  8
0
 10
94.571
 20
15.4453
 11
94.7422
 21
15.1095
  0
LINE
  8
0
 10
94.7422
 20
15.1095
 11
94.934
 21
14.785
  0
LINE
  8
0
 10
94.934
 20
14.785
 11
95.1459
 21
14.4733
  0
LINE
  8
0
 10
95.1459
 20
14.4733
 11
95.3769
 21
14.1755
  0
LINE
  8
0
 10
95.3769
 20
14.1755
 11
95.6262
 21
13.8927
  0
LINE
  8
0
 10
95.6262
 20
13.8927
 11
95.8927
 21
13.6262
  0
LINE
  8
0
 10
95.8927
 20
13.6262
 11
96.1755
 21
13.3769
  0
LINE
  8
0
 10
96.1755
 20
13.3769
 11
96.4733
 21
13.1459
  0
LINE
  8
0
 10
96.4733
 20
13.1459
 11
96.785
 21
12.934
  0
LINE
  8
0
 10
96.785
 20
12.934
 11
97.1095
 21
12.7422
  0
LINE
  8
0
 10
97.1095
 20
12.7422
 11
97.4453
 21
12.571
  0
LINE
  8
0
 10
97.4453
 20
12.571
 11
97.7913
 21
12.4213
  0
LINE
  8
0
 10
97.7913
 20
12.4213
 11
98.1459
 21
12.2937
  0
LINE
  8
0
 10
98.1459
 20
12.2937
 11
98.5079
 21
12.1885
  0
LINE
  8
0
 10
98.5079
 20
12.1885
 11
98.8757
 21
12.1063
  0
LINE
  8
0
 10
98.8757
 20
12.1063
 11
99.248
 21
12.0473
  0
LINE
  8
0
 10
99.248
 20
12.0473
 11
99.6233
 21
12.0118
  0
LINE
  8
0
 10
99.6233
 20
12.0118
 11
100
 21
12
  0
LINE
  8
0
 10
100
 20
12
 11
100.377
 21
12.0118
  0
LINE
  8
0
 10
100.377
 20
12.0118
 11
100.752
 21
12.0473
  0
LINE
  8
0
 10
100.752
 20
12.0473
 11
101.124
 21
12.1063
  0
LINE
  8
0
 10
101.124
 20
12.1063
 11
101.492
 21
12.1885
  0
LINE
  8
0
 10
101.492
 20
12.1885
 11
101.854
 21
12.2937
  0
LINE
  8
0
 10
101.854
 20
12.2937
 11
102.209
 21
12.4213
  0
LINE
  8
0
 10
102.209
 20
12.4213
 11
102.555
 21
12.571
  0
LINE
  8
0
 10
102.555
 20
12.571
 11
102.604
 21
12.5961
  0
LINE
  8
0
 10
102.604
 20
12.5961
 11
103.673
 21
11.5273
  0
LINE
  8
0
 10
103.673
 20
11.5273
 11
103.445
 21
11.429
  0
LINE
  8
0
 10
103.445
 20
11.429
 11
103.109
 21
11.2578
  0
LINE
  8
0
 10
103.109
 20
11.2578
 11
102.785
 21
11.066
  0
LINE
  8
0
 10
102.785
 20
11.066
 11
102.473
 21
10.8541
  0
LINE
  8
0
 10
102.473
 20
10.8541
 11
102.175
 21
10.6231
  0
LINE
  8
0
 10
102.175
 20
10.6231
 11
101.893
 21
10.3738
  0
LINE
  8
0
 10
101.893
 20
10.3738
 11
101.626
 21
10.1073
  0
LINE
  8
0
 10
101.626
 20
10.1073
 11
101.377
 21
9.82454
  0
LINE
  8
0
 10
101.377
 20
9.82454
 11
101.146
 21
9.52671
  0
LINE
  8
0
 10
101.146
 20
9.52671
 11
100.934
 21
9.21496
  0
LINE
  8
0
 10
100.934
 20
9.21496
 11
100.742
 21
8.89052
  0
LINE
  8
0
 10
100.742
 20
8.89052
 11
100.571
 21
8.55468
  0
LINE
  8
0
 10
100.571
 20
8.55468
 11
100.421
 21
8.20875
  0
LINE
  8
0
 10
100.421
 20
8.20875
 11
100.294
 21
7.8541
  0
LINE
  8
0
 10
100.294
 20
7.8541
 11
100.191
 21
7.5
  0
LINE
  8
0
 10
100.191
 20
7.5
 11
99.8092
 21
7.5
  0
LINE
  8
0
 10
99.8092
 20
7.5
 11
99.7063
 21
7.8541
  0
LINE
  8
0
 10
99.7063
 20
7.8541
 11
99.5787
 21
8.20875
  0
LINE
  8
0
 10
99.5787
 20
8.20875
 11
99.429
 21
8.55468
  0
LINE
  8
0
 10
99.429
 20
8.55468
 11
99.2578
 21
8.89052
  0
LINE
  8
0
 10
99.2578
 20
8.89052
 11
99.066
 21
9.21496
  0
LINE
  8
0
 10
99.066
 20
9.21496
 11
98.8541
 21
9.52671
  0
LINE
  8
0
 10
98.8541
 20
9.52671
 11
98.6231
 21
9.82454
  0
LINE
  8
0
 10
98.6231
 20
9.82454
 11
98.3738
 21
10.1073
  0
LINE
  8
0
 10
98.3738
 20
10.1073
 11
98.1073
 21
10.3738
  0
LINE
  8
0
 10
98.1073
 20
10.3738
 11
97.8245
 21
10.6231
  0
LINE
  8
0
 10
97.8245
 20
10.6231
 11
97.5267
 21
10.8541
  0
LINE
  8
0
 10
97.5267
 20
10.8541
 11
97.215
 21
11.066
  0
LINE
  8
0
 10
97.215
 20
11.066
 11
96.8905
 21
11.2578
  0
LINE
  8
0
 10
96.8905
 20
11.2578
 11
96.5547
 21
11.429
  0
LINE
  8
0
 10
96.5547
 20
11.429
 11
96.2087
 21
11.5787
  0
LINE
  8
0
 10
96.2087
 20
11.5787
 11
95.8541
 21
11.7063
  0
LINE
  8
0
 10
95.8541
 20
11.7063
 11
95.4921
 21
11.8115
  0
LINE
  8
0
 10
95.4921
 20
11.8115
 11
95.1243
 21
11.8937
  0
LINE
  8
0
 10
95.1243
 20
11.8937
 11
94.752
 21
11.9527
  0
LINE
  8
0
 10
94.752
 20
11.9527
 11
94.3767
 21
11.9882
  0
LINE
  8
0
 10
94.3767
 20
11.9882
 11
94
 21
12
  0
LINE
  8
0
 10
94
 20
12
 11
93.6233
 21
11.9882
  0
LINE
  8
0
 10
93.6233
 20
11.9882
 11
93.248
 21
11.9527
  0
LINE
  8
0
 10
93.248
 20
11.9527
 11
92.8757
 21
11.8937
  0
LINE
  8
0
 10
92.8757
 20
11.8937
 11
92.5079
 21
11.8115
  0
LINE
  8
0
 10
92.5079
 20
11.8115
 11
92.1459
 21
11.7063
  0
LINE
  8
0
 10
92.1459
 20
11.7063
 11
91.7913
 21
11.5787
  0
LINE
  8
0
 10
91.7913
 20
11.5787
 11
91.4453
 21
11.429
  0
LINE
  8
0
 10
91.4453
 20
11.429
 11
91.1095
 21
11.2578
  0
LINE
  8
0
 10
91.1095
 20
11.2578
 11
90.785
 21
11.066
  0
LINE
  8
0
 10
90.785
 20
11.066
 11
90.4733
 21
10.8541
  0
LINE
  8
0
 10
90.4733
 20
10.8541
 11
90.1755
 21
10.6231
  0
LINE
  8
0
 10
90.1755
 20
10.6231
 11
89.8927
 21
10.3738
  0
LINE
  8
0
 10
89.8927
 20
10.3738
 11
89.6262
 21
10.1073
  0
LINE
  8
0
 10
89.6262
 20
10.1073
 11
89.3769
 21
9.82454
  0
LINE
  8
0
 10
89.3769
 20
9.82454
 11
89.1459
 21
9.52671
  0
LINE
  8
0
 10
89.1459
 20
9.52671
 11
88.934
 21
9.21496
  0
LINE
  8
0
 10
88.934
 20
9.21496
 11
88.7422
 21
8.89052
  0
LINE
  8
0
 10
88.7422
 20
8.89052
 11
88.571
 21
8.55468
  0
LINE
  8
0
 10
88.571
 20
8.55468
 11
88.4213
 21
8.20875
  0
LINE
  8
0
 10
88.4213
 20
8.20875
 11
88.2937
 21
7.8541
  0
LINE
  8
0
 10
88.2937
 20
7.8541
 11
88.1908
 21
7.5
  0
LINE
  8
0
 10
88.1908
 20
7.5
 11
87.8092
 21
7.5
  0
LINE
  8
0
 10
87.8092
 20
7.5
 11
87.7063
 21
7.8541
  0
LINE
  8
0
 10
87.7063
 20
7.8541
 11
87.5787
 21
8.20875
  0
LINE
  8
0
 10
87.5787
 20
8.20875
 11
87.429
 21
8.55468
  0
LINE
  8
0
 10
87.429
 20
8.55468
 11
87.2578
 21
8.89052
  0
LINE
  8
0
 10
87.2578
 20
8.89052
 11
87.066
 21
9.21496
  0
LINE
  8
0
 10
87.066
 20
9.21496
 11
86.8541
 21
9.52671
  0
LINE
  8
0
 10
86.8541
 20
9.52671
 11
86.6231
 21
9.82454
  0
LINE
  8
0
 10
86.6231
 20
9.82454
 11
86.3738
 21
10.1073
  0
LINE
  8
0
 10
86.3738
 20
10.1073
 11
86.1073
 21
10.3738
  0
LINE
  8
0
 10
86.1073
 20
10.3738
 11
85.8245
 21
10.6231
  0
LINE
  8
0
 10
85.8245
 20
10.6231
 11
85.5267
 21
10.8541
  0
LINE
  8
0
 10
85.5267
 20
10.8541
 11
85.215
 21
11.066
  0
LINE
  8
0
 10
85.215
 20
11.066
 11
84.8905
 21
11.2578
  0
LINE
  8
0
 10
84.8905
 20
11.2578
 11
84.5547
 21
11.429
  0
LINE
  8
0
 10
84.5547
 20
11.429
 11
84.2087
 21
11.5787
  0
LINE
  8
0
 10
84.2087
 20
11.5787
 11
83.8541
 21
11.7063
  0
LINE
  8
0
 10
83.8541
 20
11.7063
 11
83.4921
 21
11.8115
  0
LINE
  8
0
 10
83.4921
 20
11.8115
 11
83.1243
 21
11.8937
  0
LINE
  8
0
 10
83.1243
 20
11.8937
 11
82.752
 21
11.9527
  0
LINE
  8
0
 10
82.752
 20
11.9527
 11
82.3767
 21
11.9882
  0
LINE
  8
0
 10
82.3767
 20
11.9882
 11
82
 21
12
  0
LINE
  8
0
 10
82
 20
12
 11
81.6233
 21
11.9882
  0
LINE
  8
0
 10
81.6233
 20
11.9882
 11
81.248
 21
11.9527
  0
LINE
  8
0
 10
81.248
 20
11.9527
 11
80.8757
 21
11.8937
  0
LINE
  8
0
 10
80.8757
 20
11.8937
 11
80.5079
 21
11.8115
  0
LINE
  8
0
 10
80.5079
 20
11.8115
 11
80.1459
 21
11.7063
  0
LINE
  8
0
 10
80.1459
 20
11.7063
 11
79.7913
 21
11.5787
  0
LINE
  8
0
 10
79.7913
 20
11.5787
 11
79.4453
 21
11.429
  0
LINE
  8
0
 10
79.4453
 20
11.429
 11
79.1095
 21
11.2578
  0
LINE
  8
0
 10
79.1095
 20
11.2578
 11
78.785
 21
11.066
  0
LINE
  8
0
 10
78.785
 20
11.066
 11
78.4733
 21
10.8541
  0
LINE
  8
0
 10
78.4733
 20
10.8541
 11
78.1755
 21
10.6231
  0
LINE
  8
0
 10
78.1755
 20
10.6231
 11
77.8927
 21
10.3738
  0
LINE
  8
0
 10
77.8927
 20
10.3738
 11
77.6262
 21
10.1073
  0
LINE
  8
0
 10
77.6262
 20
10.1073
 11
77.3769
 21
9.82454
  0
LINE
  8
0
 10
77.3769
 20
9.82454
 11
77.1459
 21
9.52671
  0
LINE
  8
0
 10
77.1459
 20
9.52671
 11
76.934
 21
9.21496
  0
LINE
  8
0
 10
76.934
 20
9.21496
 11
76.7422
 21
8.89052
  0
LINE
  8
0
 10
76.7422
 20
8.89052
 11
76.571
 21
8.55468
  0
LINE
  8
0
 10
76.571
 20
8.55468
 11
76.4213
 21
8.20875
  0
LINE
  8
0
 10
76.4213
 20
8.20875
 11
76.2937
 21
7.8541
  0
LINE
  8
0
 10
76.2937
 20
7.8541
 11
76.1908
 21
7.5
  0
LINE
  8
0
 10
76.1908
 20
7.5
 11
75.8092
 21
7.5
  0
LINE
  8
0
 10
75.8092
 20
7.5
 11
75.7063
 21
7.8541
  0
LINE
  8
0
 10
75.7063
 20
7.8541
 11
75.5787
 21
8.20875
  0
LINE
  8
0
 10
75.5787
 20
8.20875
 11
75.429
 21
8.55468
  0
LINE
  8
0
 10
75.429
 20
8.55468
 11
75.2578
 21
8.89052
  0
LINE
  8
0
 10
75.2578
 20
8.89052
 11
75.066
 21
9.21496
  0
LINE
  8
0
 10
75.066
 20
9.21496
 11
74.8541
 21
9.52671
  0
LINE
  8
0
 10
74.8541
 20
9.52671
 11
74.6231
 21
9.82454
  0
LINE
  8
0
 10
74.6231
 20
9.82454
 11
74.3738
 21
10.1073
  0
LINE
  8
0
 10
74.3738
 20
10.1073
 11
74.1073
 21
10.3738
  0
LINE
  8
0
 10
74.1073
 20
10.3738
 11
73.8245
 21
10.6231
  0
LINE
  8
0
 10
73.8245
 20
10.6231
 11
73.5267
 21
10.8541
  0
LINE
  8
0
 10
73.5267
 20
10.8541
 11
73.215
 21
11.066
  0
LINE
  8
0
 10
73.215
 20
11.066
 11
72.8905
 21
11.2578
  0
LINE
  8
0
 10
72.8905
 20
11.2578
 11
72.5547
 21
11.429
  0
LINE
  8
0
 10
72.5547
 20
11.429
 11
72.2087
 21
11.5787
  0
LINE
  8
0
 10
72.2087
 20
11.5787
 11
71.8541
 21
11.7063
  0
LINE
  8
0
 10
71.8541
 20
11.7063
 11
71.4921
 21
11.8115
  0
LINE
  8
0
 10
71.4921
 20
11.8115
 11
71.1243
 21
11.8937
  0
LINE
  8
0
 10
71.1243
 20
11.8937
 11
70.752
 21
11.9527
  0
LINE
  8
0
 10
70.752
 20
11.9527
 11
70.3767
 21
11.9882
  0
LINE
  8
0
 10
70.3767
 20
11.9882
 11
70
 21
12
  0
LINE
  8
0
 10
70
 20
12
 11
69.6233
 21
11.9882
  0
LINE
  8
0
 10
69.6233
 20
11.9882
 11
69.248
 21
11.9527
  0
LINE
  8
0
 10
69.248
 20
11.9527
 11
68.8757
 21
11.8937
  0
LINE
  8
0
 10
68.8757
 20
11.8937
 11
68.5079
 21
11.8115
  0
LINE
  8
0
 10
68.5079
 20
11.8115
 11
68.1459
 21
11.7063
  0
LINE
  8
0
 10
68.1459
 20
11.7063
 11
67.7913
 21
11.5787
  0
LINE
  8
0
 10
67.7913
 20
11.5787
 11
67.4453
 21
11.429
  0
LINE
  8
0
 10
67.4453
 20
11.429
 11
67.1095
 21
11.2578
  0
LINE
  8
0
 10
67.1095
 20
11.2578
 11
66.785
 21
11.066
  0
LINE
  8
0
 10
66.785
 20
11.066
 11
66.4733
 21
10.8541
  0
LINE
  8
0
 10
66.4733
 20
10.8541
 11
66.1755
 21
10.6231
  0
LINE
  8
0
 10
66.1755
 20
10.6231
 11
65.8927
 21
10.3738
  0
LINE
  8
0
 10
65.8927
 20
10.3738
 11
65.6262
 21
10.1073
  0
LINE
  8
0
 10
65.6262
 20
10.1073
 11
65.3769
 21
9.82454
  0
LINE
  8
0
 10
65.3769
 20
9.82454
 11
65.1459
 21
9.52671
  0
LINE
  8
0
 10
65.1459
 20
9.52671
 11
64.934
 21
9.21496
  0
LINE
  8
0
 10
64.934
 20
9.21496
 11
64.7422
 21
8.89052
  0
LINE
  8
0
 10
64.7422
 20
8.89052
 11
64.571
 21
8.55468
  0
LINE
  8
0
 10
64.571
 20
8.55468
 11
64.4213
 21
8.20875
  0
LINE
  8
0
 10
64.4213
 20
8.20875
 11
64.2937
 21
7.8541
  0
LINE
  8
0
 10
64.2937
 20
7.8541
 11
64.1908
 21
7.5
  0
LINE
  8
0
 10
64.1908
 20
7.5
 11
63.8092
 21
7.5
  0
LINE
  8
0
 10
63.8092
 20
7.5
 11
63.7063
 21
7.8541
  0
LINE
  8
0
 10
63.7063
 20
7.8541
 11
63.5787
 21
8.20875
  0
LINE
  8
0
 10
63.5787
 20
8.20875
 11
63.429
 21
8.55468
  0
LINE
  8
0
 10
63.429
 20
8.55468
 11
63.2578
 21
8.89052
  0
LINE
  8
0
 10
63.2578
 20
8.89052
 11
63.066
 21
9.21496
  0
LINE
  8
0
 10
63.066
 20
9.21496
 11
62.8541
 21
9.52671
  0
LINE
  8
0
 10
62.8541
 20
9.52671
 11
62.6231
 21
9.82454
  0
LINE
  8
0
 10
62.6231
 20
9.82454
 11
62.3738
 21
10.1073
  0
LINE
  8
0
 10
62.3738
 20
10.1073
 11
62.1073
 21
10.3738
  0
LINE
  8
0
 10
62.1073
 20
10.3738
 11
61.8245
 21
10.6231
  0
LINE
  8
0
 10
61.8245
 20
10.6231
 11
61.5267
 21
10.8541
  0
LINE
  8
0
 10
61.5267
 20
10.8541
 11
61.215
 21
11.066
  0
LINE
  8
0
 10
61.215
 20
11.066
 11
60.8905
 21
11.2578
  0
LINE
  8
0
 10
60.8905
 20
11.2578
 11
60.5547
 21
11.429
  0
LINE
  8
0
 10
60.5547
 20
11.429
 11
60.2087
 21
11.5787
  0
LINE
  8
0
 10
60.2087
 20
11.5787
 11
59.8541
 21
11.7063
  0
LINE
  8
0
 10
59.8541
 20
11.7063
 11
59.4921
 21
11.8115
  0
LINE
  8
0
 10
59.4921
 20
11.8115
 11
59.1243
 21
11.8937
  0
LINE
  8
0
 10
59.1243
 20
11.8937
 11
58.752
 21
11.9527
  0
LINE
  8
0
 10
58.752
 20
11.9527
 11
58.3767
 21
11.9882
  0
LINE
  8
0
 10
58.3767
 20
11.9882
 11
58
 21
12
  0
LINE
  8
0
 10
58
 20
12
 11
57.6233
 21
11.9882
  0
LINE
  8
0
 10
57.6233
 20
11.9882
 11
57.248
 21
11.9527
  0
LINE
  8
0
 10
57.248
 20
11.9527
 11
56.8757
 21
11.8937
  0
LINE
  8
0
 10
56.8757
 20
11.8937
 11
56.5079
 21
11.8115
  0
LINE
  8
0
 10
56.5079
 20
11.8115
 11
56.1459
 21
11.7063
  0
LINE
  8
0
 10
56.1459
 20
11.7063
 11
55.7913
 21
11.5787
  0
LINE
  8
0
 10
55.7913
 20
11.5787
 11
55.4453
 21
11.429
  0
LINE
  8
0
 10
55.4453
 20
11.429
 11
55.1095
 21
11.2578
  0
LINE
  8
0
 10
55.1095
 20
11.2578
 11
54.785
 21
11.066
  0
LINE
  8
0
 10
54.785
 20
11.066
 11
54.4733
 21
10.8541
  0
LINE
  8
0
 10
54.4733
 20
10.8541
 11
54.1755
 21
10.6231
  0
LINE
  8
0
 10
54.1755
 20
10.6231
 11
53.8927
 21
10.3738
  0
LINE
  8
0
 10
53.8927
 20
10.3738
 11
53.6262
 21
10.1073
  0
LINE
  8
0
 10
53.6262
 20
10.1073
 11
53.3769
 21
9.82454
  0
LINE
  8
0
 10
53.3769
 20
9.82454
 11
53.1459
 21
9.52671
  0
LINE
  8
0
 10
53.1459
 20
9.52671
 11
52.934
 21
9.21496
  0
LINE
  8
0
 10
52.934
 20
9.21496
 11
52.7422
 21
8.89052
  0
LINE
  8
0
 10
52.7422
 20
8.89052
 11
52.571
 21
8.55468
  0
LINE
  8
0
 10
52.571
 20
8.55468
 11
52.4213
 21
8.20875
  0
LINE
  8
0
 10
52.4213
 20
8.20875
 11
52.2937
 21
7.8541
  0
LINE
  8
0
 10
52.2937
 20
7.8541
 11
52.1908
 21
7.5
  0
LINE
  8
0
 10
52.1908
 20
7.5
 11
51.8092
 21
7.5
  0
LINE
  8
0
 10
51.8092
 20
7.5
 11
51.7063
 21
7.8541
  0
LINE
  8
0
 10
51.7063
 20
7.8541
 11
51.5787
 21
8.20875
  0
LINE
  8
0
 10
51.5787
 20
8.20875
 11
51.429
 21
8.55468
  0
LINE
  8
0
 10
51.429
 20
8.55468
 11
51.2578
 21
8.89052
  0
LINE
  8
0
 10
51.2578
 20
8.89052
 11
51.066
 21
9.21496
  0
LINE
  8
0
 10
51.066
 20
9.21496
 11
50.8541
 21
9.52671
  0
LINE
  8
0
 10
50.8541
 20
9.52671
 11
50.6231
 21
9.82454
  0
LINE
  8
0
 10
50.6231
 20
9.82454
 11
50.3738
 21
10.1073
  0
LINE
  8
0
 10
50.3738
 20
10.1073
 11
50.1073
 21
10.3738
  0
LINE
  8
0
 10
50.1073
 20
10.3738
 11
49.8245
 21
10.6231
  0
LINE
  8
0
 10
49.8245
 20
10.6231
 11
49.5267
 21
10.8541
  0
LINE
  8
0
 10
49.5267
 20
10.8541
 11
49.215
 21
11.066
  0
LINE
  8
0
 10
49.215
 20
11.066
 11
48.8905
 21
11.2578
  0
LINE
  8
0
 10
48.8905
 20
11.2578
 11
48.5547
 21
11.429
  0
LINE
  8
0
 10
48.5547
 20
11.429
 11
48.2087
 21
11.5787
  0
LINE
  8
0
 10
48.2087
 20
11.5787
 11
47.8541
 21
11.7063
  0
LINE
  8
0
 10
47.8541
 20
11.7063
 11
47.4921
 21
11.8115
  0
LINE
  8
0
 10
47.4921
 20
11.8115
 11
47.1243
 21
11.8937
  0
LINE
  8
0
 10
47.1243
 20
11.8937
 11
46.752
 21
11.9527
  0
LINE
  8
0
 10
46.752
 20
11.9527
 11
46.3767
 21
11.9882
  0
LINE
  8
0
 10
46.3767
 20
11.9882
 11
46
 21
12
  0
LINE
  8
0
 10
46
 20
12
 11
45.6233
 21
11.9882
  0
LINE
  8
0
 10
45.6233
 20
11.9882
 11
45.248
 21
11.9527
  0
LINE
  8
0
 10
45.248
 20
11.9527
 11
44.8757
 21
11.8937
  0
LINE
  8
0
 10
44.8757
 20
11.8937
 11
44.5079
 21
11.8115
  0
LINE
  8
0
 10
44.5079
 20
11.8115
 11
44.1459
 21
11.7063
  0
LINE
  8
0
 10
44.1459
 20
11.7063
 11
43.7913
 21
11.5787
  0
LINE
  8
0
 10
43.7913
 20
11.5787
 11
43.4453
 21
11.429
  0
LINE
  8
0
 10
43.4453
 20
11.429
 11
43.1095
 21
11.2578
  0
LINE
  8
0
 10
43.1095
 20
11.2578
 11
42.785
 21
11.066
  0
LINE
  8
0
 10
42.785
 20
11.066
 11
42.4733
 21
10.8541
  0
LINE
  8
0
 10
42.4733
 20
10.8541
 11
42.1755
 21
10.6231
  0
LINE
  8
0
 10
42.1755
 20
10.6231
 11
41.8927
 21
10.3738
  0
LINE
  8
0
 10
41.8927
 20
10.3738
 11
41.6262
 21
10.1073
  0
LINE
  8
0
 10
41.6262
 20
10.1073
 11
41.3769
 21
9.82454
  0
LINE
  8
0
 10
41.3769
 20
9.82454
 11
41.1459
 21
9.52671
  0
LINE
  8
0
 10
41.1459
 20
9.52671
 11
40.934
 21
9.21496
  0
LINE
  8
0
 10
40.934
 20
9.21496
 11
40.7422
 21
8.89052
  0
LINE
  8
0
 10
40.7422
 20
8.89052
 11
40.571
 21
8.55468
  0
LINE
  8
0
 10
40.571
 20
8.55468
 11
40.4213
 21
8.20875
  0
LINE
  8
0
 10
40.4213
 20
8.20875
 11
40.2937
 21
7.8541
  0
LINE
  8
0
 10
40.2937
 20
7.8541
 11
40.1908
 21
7.5
  0
LINE
  8
0
 10
40.1908
 20
7.5
 11
39.8092
 21
7.5
  0
LINE
  8
0
 10
39.8092
 20
7.5
 11
39.7063
 21
7.8541
  0
LINE
  8
0
 10
39.7063
 20
7.8541
 11
39.5787
 21
8.20875
  0
LINE
  8
0
 10
39.5787
 20
8.20875
 11
39.429
 21
8.55468
  0
LINE
  8
0
 10
39.429
 20
8.55468
 11
39.2578
 21
8.89052
  0
LINE
  8
0
 10
39.2578
 20
8.89052
 11
39.066
 21
9.21496
  0
LINE
  8
0
 10
39.066
 20
9.21496
 11
38.8541
 21
9.52671
  0
LINE
  8
0
 10
38.8541
 20
9.52671
 11
38.6231
 21
9.82454
  0
LINE
  8
0
 10
38.6231
 20
9.82454
 11
38.3738
 21
10.1073
  0
LINE
  8
0
 10
38.3738
 20
10.1073
 11
38.1073
 21
10.3738
  0
LINE
  8
0
 10
38.1073
 20
10.3738
 11
37.8245
 21
10.6231
  0
LINE
  8
0
 10
37.8245
 20
10.6231
 11
37.5267
 21
10.8541
  0
LINE
  8
0
 10
37.5267
 20
10.8541
 11
37.215
 21
11.066
  0
LINE
  8
0
 10
37.215
 20
11.066
 11
36.8905
 21
11.2578
  0
LINE
  8
0
 10
36.8905
 20
11.2578
 11
36.5547
 21
11.429
  0
LINE
  8
0
 10
36.5547
 20
11.429
 11
36.2087
 21
11.5787
  0
LINE
  8
0
 10
36.2087
 20
11.5787
 11
35.8541
 21
11.7063
  0
LINE
  8
0
 10
35.8541
 20
11.7063
 11
35.4921
 21
11.8115
  0
LINE
  8
0
 10
35.4921
 20
11.8115
 11
35.1243
 21
11.8937
  0
LINE
  8
0
 10
35.1243
 20
11.8937
 11
34.752
 21
11.9527
  0
LINE
  8
0
 10
34.752
 20
11.9527
 11
34.3767
 21
11.9882
  0
LINE
  8
0
 10
34.3767
 20
11.9882
 11
34
 21
12
  0
LINE
  8
0
 10
34
 20
12
 11
33.6233
 21
11.9882
  0
LINE
  8
0
 10
33.6233
 20
11.9882
 11
33.248
 21
11.9527
  0
LINE
  8
0
 10
33.248
 20
11.9527
 11
32.8757
 21
11.8937
  0
LINE
  8
0
 10
32.8757
 20
11.8937
 11
32.5079
 21
11.8115
  0
LINE
  8
0
 10
32.5079
 20
11.8115
 11
32.1459
 21
11.7063
  0
LINE
  8
0
 10
32.1459
 20
11.7063
 11
31.7913
 21
11.5787
  0
LINE
  8
0
 10
31.7913
 20
11.5787
 11
31.4453
 21
11.429
  0
LINE
  8
0
 10
31.4453
 20
11.429
 11
31.1095
 21
11.2578
  0
LINE
  8
0
 10
31.1095
 20
11.2578
 11
30.785
 21
11.066
  0
LINE
  8
0
 10
30.785
 20
11.066
 11
30.4733
 21
10.8541
  0
LINE
  8
0
 10
30.4733
 20
10.8541
 11
30.1755
 21
10.6231
  0
LINE
  8
0
 10
30.1755
 20
10.6231
 11
29.8927
 21
10.3738
  0
LINE
  8
0
 10
29.8927
 20
10.3738
 11
29.6262
 21
10.1073
  0
LINE
  8
0
 10
29.6262
 20
10.1073
 11
29.3769
 21
9.82454
  0
LINE
  8
0
 10
29.3769
 20
9.82454
 11
29.1459
 21
9.52671
  0
LINE
  8
0
 10
29.1459
 20
9.52671
 11
28.934
 21
9.21496
  0
LINE
  8
0
 10
28.934
 20
9.21496
 11
28.7422
 21
8.89052
  0
LINE
  8
0
 10
28.7422
 20
8.89052
 11
28.571
 21
8.55468
  0
LINE
  8
0
 10
28.571
 20
8.55468
 11
28.4213
 21
8.20875
  0
LINE
  8
0
 10
28.4213
 20
8.20875
 11
28.2937
 21
7.8541
  0
LINE
  8
0
 10
28.2937
 20
7.8541
 11
28.1908
 21
7.5
  0
LINE
  8
0
 10
28.1908
 20
7.5
 11
27.8092
 21
7.5
  0
LINE
  8
0
 10
27.8092
 20
7.5
 11
27.7063
 21
7.8541
  0
LINE
  8
0
 10
27.7063
 20
7.8541
 11
27.5787
 21
8.20875
  0
LINE
  8
0
 10
27.5787
 20
8.20875
 11
27.429
 21
8.55468
  0
LINE
  8
0
 10
27.429
 20
8.55468
 11
27.2578
 21
8.89052
  0
LINE
  8
0
 10
27.2578
 20
8.89052
 11
27.066
 21
9.21496
  0
LINE
  8
0
 10
27.066
 20
9.21496
 11
26.8541
 21
9.52671
  0
LINE
  8
0
 10
26.8541
 20
9.52671
 11
26.6231
 21
9.82454
  0
LINE
  8
0
 10
26.6231
 20
9.82454
 11
26.3738
 21
10.1073
  0
LINE
  8
0
 10
26.3738
 20
10.1073
 11
26.1073
 21
10.3738
  0
LINE
  8
0
 10
26.1073
 20
10.3738
 11
25.8245
 21
10.6231
  0
LINE
  8
0
 10
25.8245
 20
10.6231
 11
25.5267
 21
10.8541
  0
LINE
  8
0
 10
25.5267
 20
10.8541
 11
25.215
 21
11.066
  0
LINE
  8
0
 10
25.215
 20
11.066
 11
24.8905
 21
11.2578
  0
LINE
  8
0
 10
24.8905
 20
11.2578
 11
24.5547
 21
11.429
  0
LINE
  8
0
 10
24.5547
 20
11.429
 11
24.2087
 21
11.5787
  0
LINE
  8
0
 10
24.2087
 20
11.5787
 11
23.8541
 21
11.7063
  0
LINE
  8
0
 10
23.8541
 20
11.7063
 11
23.4921
 21
11.8115
  0
LINE
  8
0
 10
23.4921
 20
11.8115
 11
23.1243
 21
11.8937
  0
LINE
  8
0
 10
23.1243
 20
11.8937
 11
22.752
 21
11.9527
  0
LINE
  8
0
 10
22.752
 20
11.9527
 11
22.3767
 21
11.9882
  0
LINE
  8
0
 10
22.3767
 20
11.9882
 11
22
 21
12
  0
LINE
  8
0
 10
22
 20
12
 11
21.6233
 21
11.9882
  0
LINE
  8
0
 10
21.6233
 20
11.9882
 11
21.248
 21
11.9527
  0
LINE
  8
0
 10
21.248
 20
11.9527
 11
20.8757
 21
11.8937
  0
LINE
  8
0
 10
20.8757
 20
11.8937
 11
20.5079
 21
11.8115
  0
LINE
  8
0
 10
20.5079
 20
11.8115
 11
20.1459
 21
11.7063
  0
LINE
  8
0
 10
20.1459
 20
11.7063
 11
19.7913
 21
11.5787
  0
LINE
  8
0
 10
19.7913
 20
11.5787
 11
19.4453
 21
11.429
  0
LINE
  8
0
 10
19.4453
 20
11.429
 11
19.1095
 21
11.2578
  0
LINE
  8
0
 10
19.1095
 20
11.2578
 11
18.785
 21
11.066
  0
LINE
  8
0
 10
18.785
 20
11.066
 11
18.4733
 21
10.8541
  0
LINE
  8
0
 10
18.4733
 20
10.8541
 11
18.1755
 21
10.6231
  0
LINE
  8
0
 10
18.1755
 20
10.6231
 11
17.8927
 21
10.3738
  0
LINE
  8
0
 10
17.8927
 20
10.3738
 11
17.6262
 21
10.1073
  0
LINE
  8
0
 10
17.6262
 20
10.1073
 11
17.3769
 21
9.82454
  0
LINE
  8
0
 10
17.3769
 20
9.82454
 11
17.1459
 21
9.52671
  0
LINE
  8
0
 10
17.1459
 20
9.52671
 11
16.934
 21
9.21496
  0
LINE
  8
0
 10
16.934
 20
9.21496
 11
16.7422
 21
8.89052
  0
LINE
  8
0
 10
16.7422
 20
8.89052
 11
16.571
 21
8.55468
  0
LINE
  8
0
 10
16.571
 20
8.55468
 11
16.4499
 21
8.27466
  0
LINE
  8
0
 10
16.4499
 20
8.27466
 11
16.3815
 21
8.40877
  0
LINE
  8
0
 10
16.3815
 20
8.40877
 11
16.2216
 21
8.67913
  0
LINE
  8
0
 10
16.2216
 20
8.67913
 11
16.0451
 21
8.93893
  0
LINE
  8
0
 10
16.0451
 20
8.93893
 11
15.8526
 21
9.18712
  0
LINE
  8
0
 10
15.8526
 20
9.18712
 11
15.6448
 21
9.42274
  0
LINE
  8
0
 10
15.6448
 20
9.42274
 11
15.4227
 21
9.64484
  0
LINE
  8
0
 10
15.4227
 20
9.64484
 11
15.1871
 21
9.85257
  0
LINE
  8
0
 10
15.1871
 20
9.85257
 11
14.9389
 21
10.0451
  0
LINE
  8
0
 10
14.9389
 20
10.0451
 11
14.6791
 21
10.2216
  0
LINE
  8
0
 10
14.6791
 20
10.2216
 11
14.4088
 21
10.3815
  0
LINE
  8
0
 10
14.4088
 20
10.3815
 11
14.1289
 21
10.5241
  0
LINE
  8
0
 10
14.1289
 20
10.5241
 11
13.8406
 21
10.6489
  0
LINE
  8
0
 10
13.8406
 20
10.6489
 11
13.5451
 21
10.7553
  0
LINE
  8
0
 10
13.5451
 20
10.7553
 11
13.2434
 21
10.8429
  0
LINE
  8
0
 10
13.2434
 20
10.8429
 11
12.9369
 21
10.9114
  0
LINE
  8
0
 10
12.9369
 20
10.9114
 11
12.6267
 21
10.9606
  0
LINE
  8
0
 10
12.6267
 20
10.9606
 11
12.314
 21
10.9901
  0
LINE
  8
0
 10
12.314
 20
10.9901
 11
12
 21
11
  0
LINE
  8
0
 10
12
 20
11
 11
11.686
 21
10.9901
  0
LINE
  8
0
 10
11.686
 20
10.9901
 11
11.3733
 21
10.9606
  0
LINE
  8
0
 10
11.3733
 20
10.9606
 11
11.0631
 21
10.9114
  0
LINE
  8
0
 10
11.0631
 20
10.9114
 11
10.7566
 21
10.8429
  0
LINE
  8
0
 10
10.7566
 20
10.8429
 11
10.4549
 21
10.7553
  0
LINE
  8
0
 10
10.4549
 20
10.7553
 11
10.1594
 21
10.6489
  0
LINE
  8
0
 10
10.1594
 20
10.6489
 11
9.8711
 21
10.5241
  0
LINE
  8
0
 10
9.8711
 20
10.5241
 11
9.59123
 21
10.3815
  0
LINE
  8
0
 10
9.59123
 20
10.3815
 11
9.32087
 21
10.2216
  0
LINE
  8
0
 10
9.32087
 20
10.2216
 11
9.06107
 21
10.0451
  0
LINE
  8
0
 10
9.06107
 20
10.0451
 11
8.81288
 21
9.85257
  0
LINE
  8
0
 10
8.81288
 20
9.85257
 11
8.57726
 21
9.64484
  0
LINE
  8
0
 10
8.57726
 20
9.64484
 11
8.35516
 21
9.42274
  0
LINE
  8
0
 10
8.35516
 20
9.42274
 11
8.14743
 21
9.18712
  0
LINE
  8
0
 10
8.14743
 20
9.18712
 11
7.95492
 21
8.93893
  0
LINE
  8
0
 10
7.95492
 20
8.93893
 11
7.77836
 21
8.67913
  0
LINE
  8
0
 10
7.77836
 20
8.67913
 11
7.61847
 21
8.40877
  0
LINE
  8
0
 10
7.61847
 20
8.40877
 11
7.47587
 21
8.1289
  0
LINE
  8
0
 10
7.47587
 20
8.1289
 11
7.35112
 21
7.84062
  0
LINE
  8
0
 10
7.35112
 20
7.84062
 11
7.24472
 21
7.54508
  0
LINE
  8
0
 10
7.24472
 20
7.54508
 11
7.15708
 21
7.24345
  0
LINE
  8
0
 10
7.15708
 20
7.24345
 11
7.08856
 21
6.93691
  0
LINE
  8
0
 10
7.08856
 20
6.93691
 11
7.03943
 21
6.62667
  0
LINE
  8
0
 10
7.03943
 20
6.62667
 11
7.00987
 21
6.31395
  0
LINE
  8
0
 10
7.00987
 20
6.31395
 11
7
 21
6
  0
LINE
  8
0
 10
7
 20
6
 11
7.00987
 21
5.68605
  0
LINE
  8
0
 10
7.00987
 20
5.68605
 11
7.03943
 21
5.37333
  0
LINE
  8
0
 10
7.03943
 20
5.37333
 11
7.08856
 21
5.06309
  0
LINE
  8
0
 10
7.08856
 20
5.06309
 11
7.15708
 21
4.75655
  0
LINE
  8
0
 10
7.15708
 20
4.75655
 11
7.24472
 21
4.45492
  0
LINE
  8
0
 10
7.24472
 20
4.45492
 11
7.35112
 21
4.15938
  0
LINE
  8
0
 10
7.35112
 20
4.15938
 11
7.47587
 21
3.8711
  0
LINE
  8
0
 10
7.47587
 20
3.8711
 11
7.61847
 21
3.59123
  0
LINE
  8
0
 10
7.61847
 20
3.59123
 11
7.77836
 21
3.32087
  0
LINE
  8
0
 10
7.77836
 20
3.32087
 11
7.95492
 21
3.06107
  0
LINE
  8
0
 10
7.95492
 20
3.06107
 11
8.14743
 21
2.81288
  0
LINE
  8
0
 10
8.14743
 20
2.81288
 11
8.35516
 21
2.57726
  0
LINE
  8
0
 10
8.35516
 20
2.57726
 11
8.57726
 21
2.35516
  0
LINE
  8
0
 10
8.57726
 20
2.35516
 11
8.81288
 21
2.14743
  0
LINE
  8
0
 10
8.81288
 20
2.14743
 11
9.06107
 21
1.95492
  0
LINE
  8
0
 10
9.06107
 20
1.95492
 11
9.32087
 21
1.77836
  0
LINE
  8
0
 10
9.32087
 20
1.77836
 11
9.59123
 21
1.61847
  0
LINE
  8
0
 10
9.59123
 20
1.61847
 11
9.8711
 21
1.47587
  0
LINE
  8
0
 10
9.8711
 20
1.47587
 11
10.1594
 21
1.35112
  0
LINE
  8
0
 10
10.1594
 20
1.35112
 11
10.4549
 21
1.24472
  0
LINE
  8
0
 10
10.4549
 20
1.24472
 11
10.7566
 21
1.15708
  0
LINE
  8
0
 10
10.7566
 20
1.15708
 11
11.0631
 21
1.08856
  0
LINE
  8
0
 10
11.0631
 20
1.08856
 11
11.3733
 21
1.03943
  0
LINE
  8
0
 10
11.3733
 20
1.03943
 11
11.686
 21
1.00987
  0
LINE
  8
0
 10
11.686
 20
1.00987
 11
12
 21
1
  0
LINE
  8
0
 10
12
 20
1
 11
12.314
 21
1.00987
  0
LINE
  8
0
 10
12.314
 20
1.00987
 11
12.6267
 21
1.03943
  0
LINE
  8
0
 10
12.6267
 20
1.03943
 11
12.9369
 21
1.08856
  0
LINE
  8
0
 10
12.9369
 20
1.08856
 11
13.2434
 21
1.15708
  0
LINE
  8
0
 10
13.2434
 20
1.15708
 11
13.5451
 21
1.24472
  0
LINE
  8
0
 10
13.5451
 20
1.24472
 11
13.8406
 21
1.35112
  0
LINE
  8
0
 10
13.8406
 20
1.35112
 11
14.1289
 21
1.47587
  0
LINE
  8
0
 10
14.1289
 20
1.47587
 11
14.4088
 21
1.61847
  0
LINE
  8
0
 10
14.4088
 20
1.61847
 11
14.6791
 21
1.77836
  0
LINE
  8
0
 10
14.6791
 20
1.77836
 11
14.9389
 21
1.95492
  0
LINE
  8
0
 10
14.9389
 20
1.95492
 11
15.1871
 21
2.14743
  0
LINE
  8
0
 10
15.1871
 20
2.14743
 11
15.4227
 21
2.35516
  0
LINE
  8
0
 10
15.4227
 20
2.35516
 11
15.6448
 21
2.57726
  0
LINE
  8
0
 10
15.6448
 20
2.57726
 11
15.8526
 21
2.81288
  0
LINE
  8
0
 10
15.8526
 20
2.81288
 11
16.0451
 21
3.06107
  0
LINE
  8
0
 10
16.0451
 20
3.06107
 11
16.2216
 21
3.32087
  0
LINE
  8
0
 10
16.2216
 20
3.32087
 11
16.3815
 21
3.59123
  0
LINE
  8
0
 10
16.3815
 20
3.59123
 11
16.4499
 21
3.72534
  0
LINE
  8
0
 10
16.4499
 20
3.72534
 11
16.571
 21
3.44532
  0
LINE
  8
0
 10
16.571
 20
3.44532
 11
16.7422
 21
3.10948
  0
LINE
  8
0
 10
16.7422
 20
3.10948
 11
16.934
 21
2.78504
  0
LINE
  8
0
 10
16.934
 20
2.78504
 11
17.1459
 21
2.47329
  0
LINE
  8
0
 10
17.1459
 20
2.47329
 11
17.3769
 21
2.17546
  0
LINE
  8
0
 10
17.3769
 20
2.17546
 11
17.6262
 21
1.89272
  0
LINE
  8
0
 10
17.6262
 20
1.89272
 11
17.8927
 21
1.62619
  0
LINE
  8
0
 10
17.8927
 20
1.62619
 11
18.1755
 21
1.37692
  0
LINE
  8
0
 10
18.1755
 20
1.37692
 11
18.4733
 21
1.1459
  0
LINE
  8
0
 10
18.4733
 20
1.1459
 11
18.785
 21
0.934033
  0
LINE
  8
0
 10
18.785
 20
0.934033
 11
19.1095
 21
0.742161
  0
LINE
  8
0
 10
19.1095
 20
0.742161
 11
19.4453
 21
0.571038
  0
LINE
  8
0
 10
19.4453
 20
0.571038
 11
19.7913
 21
0.421342
  0
LINE
  8
0
 10
19.7913
 20
0.421342
 11
20.1459
 21
0.293661
  0
LINE
  8
0
 10
20.1459
 20
0.293661
 11
20.5079
 21
0.188501
  0
LINE
  8
0
 10
20.5079
 20
0.188501
 11
20.8757
 21
0.106277
  0
LINE
  8
0
 10
20.8757
 20
0.106277
 11
21.248
 21
0.0473127
  0
LINE
  8
0
 10
21.248
 20
0.0473127
 11
21.6233
 21
0.0118399
  0
LINE
  8
0
 10
21.6233
 20
0.0118399
 11
22
 21
0
  0
LINE
  8
0
 10
22
 20
0
 11
22.3767
 21
0.0118399
  0
LINE
  8
0
 10
22.3767
 20
0.0118399
 11
22.752
 21
0.0473127
  0
LINE
  8
0
 10
22.752
 20
0.0473127
 11
23.1243
 21
0.106277
  0
LINE
  8
0
 10
23.1243
 20
0.106277
 11
23.4921
 21
0.188501
  0
LINE
  8
0
 10
23.4921
 20
0.188501
 11
23.8541
 21
0.293661
  0
LINE
  8
0
 10
23.8541
 20
0.293661
 11
24.2087
 21
0.421342
  0
LINE
  8
0
 10
24.2087
 20
0.421342
 11
24.5547
 21
0.571038
  0
LINE
  8
0
 10
24.5547
 20
0.571038
 11
24.8905
 21
0.742161
  0
LINE
  8
0
 10
24.8905
 20
0.742161
 11
25.215
 21
0.934033
  0
LINE
  8
0
 10
25.215
 20
0.934033
 11
25.5267
 21
1.1459
  0
LINE
  8
0
 10
25.5267
 20
1.1459
 11
25.8245
 21
1.37692
  0
LINE
  8
0
 10
25.8245
 20
1.37692
 11
26.1073
 21
1.62619
  0
LINE
  8
0
 10
26.1073
 20
1.62619
 11
26.3738
 21
1.89272
  0
LINE
  8
0
 10
26.3738
 20
1.89272
 11
26.6231
 21
2.17546
  0
LINE
  8
0
 10
26.6231
 20
2.17546
 11
26.8541
 21
2.47329
  0
LINE
  8
0
 10
26.8541
 20
2.47329
 11
27.066
 21
2.78504
  0
LINE
  8
0
 10
27.066
 20
2.78504
 11
27.2578
 21
3.10948
  0
LINE
  8
0
 10
27.2578
 20
3.10948
 11
27.429
 21
3.44532
  0
LINE
  8
0
 10
27.429
 20
3.44532
 11
27.5787
 21
3.79125
  0
LINE
  8
0
 10
27.5787
 20
3.79125
 11
27.7063
 21
4.1459
  0
LINE
  8
0
 10
27.7063
 20
4.1459
 11
27.8092
 21
4.5
  0
LINE
  8
0
 10
27.8092
 20
4.5
 11
28.1908
 21
4.5
  0
LINE
  8
0
 10
28.1908
 20
4.5
 11
28.2937
 21
4.1459
  0
LINE
  8
0
 10
28.2937
 20
4.1459
 11
28.4213
 21
3.79125
  0
LINE
  8
0
 10
28.4213
 20
3.79125
 11
28.571
 21
3.44532
  0
LINE
  8
0
 10
28.571
 20
3.44532
 11
28.7422
 21
3.10948
  0
LINE
  8
0
 10
28.7422
 20
3.10948
 11
28.934
 21
2.78504
  0
LINE
  8
0
 10
28.934
 20
2.78504
 11
29.1459
 21
2.47329
  0
LINE
  8
0
 10
29.1459
 20
2.47329
 11
29.3769
 21
2.17546
  0
LINE
  8
0
 10
29.3769
 20
2.17546
 11
29.6262
 21
1.89272
  0
LINE
  8
0
 10
29.6262
 20
1.89272
 11
29.8927
 21
1.62619
  0
LINE
  8
0
 10
29.8927
 20
1.62619
 11
30.1755
 21
1.37692
  0
LINE
  8
0
 10
30.1755
 20
1.37692
 11
30.4733
 21
1.1459
  0
LINE
  8
0
 10
30.4733
 20
1.1459
 11
30.785
 21
0.934033
  0
LINE
  8
0
 10
30.785
 20
0.934033
 11
31.1095
 21
0.742161
  0
LINE
  8
0
 10
31.1095
 20
0.742161
 11
31.4453
 21
0.571038
  0
LINE
  8
0
 10
31.4453
 20
0.571038
 11
31.7913
 21
0.421342
  0
LINE
  8
0
 10
31.7913
 20
0.421342
 11
32.1459
 21
0.293661
  0
LINE
  8
0
 10
32.1459
 20
0.293661
 11
32.5079
 21
0.188501
  0
LINE
  8
0
 10
32.5079
 20
0.188501
 11
32.8757
 21
0.106277
  0
LINE
  8
0
 10
32.8757
 20
0.106277
 11
33.248
 21
0.0473127
  0
LINE
  8
0
 10
33.248
 20
0.0473127
 11
33.6233
 21
0.0118399
  0
LINE
  8
0
 10
33.6233
 20
0.0118399
 11
34
 21
0
  0
LINE
  8
0
 10
34
 20
0
 11
34.3767
 21
0.0118399
  0
LINE
  8
0
 10
34.3767
 20
0.0118399
 11
34.752
 21
0.0473127
  0
LINE
  8
0
 10
34.752
 20
0.0473127
 11
35.1243
 21
0.106277
  0
LINE
  8
0
 10
35.1243
 20
0.106277
 11
35.4921
 21
0.188501
  0
LINE
  8
0
 10
35.4921
 20
0.188501
 11
35.8541
 21
0.293661
  0
LINE
  8
0
 10
35.8541
 20
0.293661
 11
36.2087
 21
0.421342
  0
LINE
  8
0
 10
36.2087
 20
0.421342
 11
36.5547
 21
0.571038
  0
LINE
  8
0
 10
36.5547
 20
0.571038
 11
36.8905
 21
0.742161
  0
LINE
  8
0
 10
36.8905
 20
0.742161
 11
37.215
 21
0.934033
  0
LINE
  8
0
 10
37.215
 20
0.934033
 11
37.5267
 21
1.1459
  0
LINE
  8
0
 10
37.5267
 20
1.1459
 11
37.8245
 21
1.37692
  0
LINE
  8
0
 10
37.8245
 20
1.37692
 11
38.1073
 21
1.62619
  0
LINE
  8
0
 10
38.1073
 20
1.62619
 11
38.3738
 21
1.89272
  0
LINE
  8
0
 10
38.3738
 20
1.89272
 11
38.6231
 21
2.17546
  0
LINE
  8
0
 10
38.6231
 20
2.17546
 11
38.8541
 21
2.47329
  0
LINE
  8
0
 10
38.8541
 20
2.47329
 11
39.066
 21
2.78504
  0
LINE
  8
0
 10
39.066
 20
2.78504
 11
39.2578
 21
3.10948
  0
LINE
  8
0
 10
39.2578
 20
3.10948
 11
39.429
 21
3.44532
  0
LINE
  8
0
 10
39.429
 20
3.44532
 11
39.5787
 21
3.79125
  0
LINE
  8
0
 10
39.5787
 20
3.79125
 11
39.7063
 21
4.1459
  0
LINE
  8
0
 10
39.7063
 20
4.1459
 11
39.8092
 21
4.5
  0
LINE
  8
0
 10
39.8092
 20
4.5
 11
40.1908
 21
4.5
  0
LINE
  8
0
 10
40.1908
 20
4.5
 11
40.2937
 21
4.1459
  0
LINE
  8
0
 10
40.2937
 20
4.1459
 11
40.4213
 21
3.79125
  0
LINE
  8
0
 10
40.4213
 20
3.79125
 11
40.571
 21
3.44532
  0
LINE
  8
0
 10
40.571
 20
3.44532
 11
40.7422
 21
3.10948
  0
LINE
  8
0
 10
40.7422
 20
3.10948
 11
40.934
 21
2.78504
  0
LINE
  8
0
 10
40.934
 20
2.78504
 11
41.1459
 21
2.47329
  0
LINE
  8
0
 10
41.1459
 20
2.47329
 11
41.3769
 21
2.17546
  0
LINE
  8
0
 10
41.3769
 20
2.17546
 11
41.6262
 21
1.89272
  0
LINE
  8
0
 10
41.6262
 20
1.89272
 11
41.8927
 21
1.62619
  0
LINE
  8
0
 10
41.8927
 20
1.62619
 11
42.1755
 21
1.37692
  0
LINE
  8
0
 10
42.1755
 20
1.37692
 11
42.4733
 21
1.1459
  0
LINE
  8
0
 10
42.4733
 20
1.1459
 11
42.785
 21
0.934033
  0
LINE
  8
0
 10
42.785
 20
0.934033
 11
43.1095
 21
0.742161
  0
LINE
  8
0
 10
43.1095
 20
0.742161
 11
43.4453
 21
0.571038
  0
LINE
  8
0
 10
43.4453
 20
0.571038
 11
43.7913
 21
0.421342
  0
LINE
  8
0
 10
43.7913
 20
0.421342
 11
44.1459
 21
0.293661
  0
LINE
  8
0
 10
44.1459
 20
0.293661
 11
44.5079
 21
0.188501
  0
LINE
  8
0
 10
44.5079
 20
0.188501
 11
44.8757
 21
0.106277
  0
LINE
  8
0
 10
44.8757
 20
0.106277
 11
45.248
 21
0.0473127
  0
LINE
  8
0
 10
45.248
 20
0.0473127
 11
45.6233
 21
0.0118399
  0
LINE
  8
0
 10
45.6233
 20
0.0118399
 11
46
 21
0
  0
LINE
  8
0
 10
46
 20
0
 11
46.3767
 21
0.0118399
  0
LINE
  8
0
 10
46.3767
 20
0.0118399
 11
46.752
 21
0.0473127
  0
LINE
  8
0
 10
46.752
 20
0.0473127
 11
47.1243
 21
0.106277
  0
LINE
  8
0
 10
47.1243
 20
0.106277
 11
47.4921
 21
0.188501
  0
LINE
  8
0
 10
47.4921
 20
0.188501
 11
47.8541
 21
0.293661
  0
LINE
  8
0
 10
47.8541
 20
0.293661
 11
48.2087
 21
0.421342
  0
LINE
  8
0
 10
48.2087
 20
0.421342
 11
48.5547
 21
0.571038
  0
LINE
  8
0
 10
48.5547
 20
0.571038
 11
48.8905
 21
0.742161
  0
LINE
  8
0
 10
48.8905
 20
0.742161
 11
49.215
 21
0.934033
  0
LINE
  8
0
 10
49.215
 20
0.934033
 11
49.5267
 21
1.1459
  0
LINE
  8
0
 10
49.5267
 20
1.1459
 11
49.8245
 21
1.37692
  0
LINE
  8
0
 10
49.8245
 20
1.37692
 11
50.1073
 21
1.62619
  0
LINE
  8
0
 10
50.1073
 20
1.62619
 11
50.3738
 21
1.89272
  0
LINE
  8
0
 10
50.3738
 20
1.89272
 11
50.6231
 21
2.17546
  0
LINE
  8
0
 10
50.6231
 20
2.17546
 11
50.8541
 21
2.47329
  0
LINE
  8
0
 10
50.8541
 20
2.47329
 11
51.066
 21
2.78504
  0
LINE
  8
0
 10
51.066
 20
2.78504
 11
51.2578
 21
3.10948
  0
LINE
  8
0
 10
51.2578
 20
3.10948
 11
51.429
 21
3.44532
  0
LINE
  8
0
 10
51.429
 20
3.44532
 11
51.5787
 21
3.79125
  0
LINE
  8
0
 10
51.5787
 20
3.79125
 11
51.7063
 21
4.1459
  0
LINE
  8
0
 10
51.7063
 20
4.1459
 11
51.8092
 21
4.5
  0
LINE
  8
0
 10
51.8092
 20
4.5
 11
52.1908
 21
4.5
  0
LINE
  8
0
 10
52.1908
 20
4.5
 11
52.2937
 21
4.1459
  0
LINE
  8
0
 10
52.2937
 20
4.1459
 11
52.4213
 21
3.79125
  0
LINE
  8
0
 10
52.4213
 20
3.79125
 11
52.571
 21
3.44532
  0
LINE
  8
0
 10
52.571
 20
3.44532
 11
52.7422
 21
3.10948
  0
LINE
  8
0
 10
52.7422
 20
3.10948
 11
52.934
 21
2.78504
  0
LINE
  8
0
 10
52.934
 20
2.78504
 11
53.1459
 21
2.47329
  0
LINE
  8
0
 10
53.1459
 20
2.47329
 11
53.3769
 21
2.17546
  0
LINE
  8
0
 10
53.3769
 20
2.17546
 11
53.6262
 21
1.89272
  0
LINE
  8
0
 10
53.6262
 20
1.89272
 11
53.8927
 21
1.62619
  0
LINE
  8
0
 10
53.8927
 20
1.62619
 11
54.1755
 21
1.37692
  0
LINE
  8
0
 10
54.1755
 20
1.37692
 11
54.4733
 21
1.1459
  0
LINE
  8
0
 10
54.4733
 20
1.1459
 11
54.785
 21
0.934033
  0
LINE
  8
0
 10
54.785
 20
0.934033
 11
55.1095
 21
0.742161
  0
LINE
  8
0
 10
55.1095
 20
0.742161
 11
55.4453
 21
0.571038
  0
LINE
  8
0
 10
55.4453
 20
0.571038
 11
55.7913
 21
0.421342
  0
LINE
  8
0
 10
55.7913
 20
0.421342
 11
56.1459
 21
0.293661
  0
LINE
  8
0
 10
56.1459
 20
0.293661
 11
56.5079
 21
0.188501
  0
LINE
  8
0
 10
56.5079
 20
0.188501
 11
56.8757
 21
0.106277
  0
LINE
  8
0
 10
56.8757
 20
0.106277
 11
57.248
 21
0.0473127
  0
LINE
  8
0
 10
57.248
 20
0.0473127
 11
57.6233
 21
0.0118399
  0
LINE
  8
0
 10
57.6233
 20
0.0118399
 11
58
 21
0
  0
LINE
  8
0
 10
58
 20
0
 11
58.3767
 21
0.0118399
  0
LINE
  8
0
 10
58.3767
 20
0.0118399
 11
58.752
 21
0.0473127
  0
LINE
  8
0
 10
58.752
 20
0.0473127
 11
59.1243
 21
0.106277
  0
LINE
  8
0
 10
59.1243
 20
0.106277
 11
59.4921
 21
0.188501
  0
LINE
  8
0
 10
59.4921
 20
0.188501
 11
59.8541
 21
0.293661
  0
LINE
  8
0
 10
59.8541
 20
0.293661
 11
60.2087
 21
0.421342
  0
LINE
  8
0
 10
60.2087
 20
0.421342
 11
60.5547
 21
0.571038
  0
LINE
  8
0
 10
60.5547
 20
0.571038
 11
60.8905
 21
0.742161
  0
LINE
  8
0
 10
60.8905
 20
0.742161
 11
61.215
 21
0.934033
  0
LINE
  8
0
 10
61.215
 20
0.934033
 11
61.5267
 21
1.1459
  0
LINE
  8
0
 10
61.5267
 20
1.1459
 11
61.8245
 21
1.37692
  0
LINE
  8
0
 10
61.8245
 20
1.37692
 11
62.1073
 21
1.62619
  0
LINE
  8
0
 10
62.1073
 20
1.62619
 11
62.3738
 21
1.89272
  0
LINE
  8
0
 10
62.3738
 20
1.89272
 11
62.6231
 21
2.17546
  0
LINE
  8
0
 10
62.6231
 20
2.17546
 11
62.8541
 21
2.47329
  0
LINE
  8
0
 10
62.8541
 20
2.47329
 11
63.066
 21
2.78504
  0
LINE
  8
0
 10
63.066
 20
2.78504
 11
63.2578
 21
3.10948
  0
LINE
  8
0
 10
63.2578
 20
3.10948
 11
63.429
 21
3.44532
  0
LINE
  8
0
 10
63.429
 20
3.44532
 11
63.5787
 21
3.79125
  0
LINE
  8
0
 10
63.5787
 20
3.79125
 11
63.7063
 21
4.1459
  0
LINE
  8
0
 10
63.7063
 20
4.1459
 11
63.8092
 21
4.5
  0
LINE
  8
0
 10
63.8092
 20
4.5
 11
64.1908
 21
4.5
  0
LINE
  8
0
 10
64.1908
 20
4.5
 11
64.2937
 21
4.1459
  0
LINE
  8
0
 10
64.2937
 20
4.1459
 11
64.4213
 21
3.79125
  0
LINE
  8
0
 10
64.4213
 20
3.79125
 11
64.571
 21
3.44532
  0
LINE
  8
0
 10
64.571
 20
3.44532
 11
64.7422
 21
3.10948
  0
LINE
  8
0
 10
64.7422
 20
3.10948
 11
64.934
 21
2.78504
  0
LINE
  8
0
 10
64.934
 20
2.78504
 11
65.1459
 21
2.47329
  0
LINE
  8
0
 10
65.1459
 20
2.47329
 11
65.3769
 21
2.17546
  0
LINE
  8
0
 10
65.3769
 20
2.17546
 11
65.6262
 21
1.89272
  0
LINE
  8
0
 10
65.6262
 20
1.89272
 11
65.8927
 21
1.62619
  0
LINE
  8
0
 10
65.8927
 20
1.62619
 11
66.1755
 21
1.37692
  0
LINE
  8
0
 10
66.1755
 20
1.37692
 11
66.4733
 21
1.1459
  0
LINE
  8
0
 10
66.4733
 20
1.1459
 11
66.785
 21
0.934033
  0
LINE
  8
0
 10
66.785
 20
0.934033
 11
67.1095
 21
0.742161
  0
LINE
  8
0
 10
67.1095
 20
0.742161
 11
67.4453
 21
0.571038
  0
LINE
  8
0
 10
67.4453
 20
0.571038
 11
67.7913
 21
0.421342
  0
LINE
  8
0
 10
67.7913
 20
0.421342
 11
68.1459
 21
0.293661
  0
LINE
  8
0
 10
68.1459
 20
0.293661
 11
68.5079
 21
0.188501
  0
LINE
  8
0
 10
68.5079
 20
0.188501
 11
68.8757
 21
0.106277
  0
LINE
  8
0
 10
68.8757
 20
0.106277
 11
69.248
 21
0.0473127
  0
LINE
  8
0
 10
69.248
 20
0.0473127
 11
69.6233
 21
0.0118399
  0
LINE
  8
0
 10
69.6233
 20
0.0118399
 11
70
 21
0
  0
LINE
  8
0
 10
70
 20
0
 11
70.3767
 21
0.0118399
  0
LINE
  8
0
 10
70.3767
 20
0.0118399
 11
70.752
 21
0.0473127
  0
LINE
  8
0
 10
70.752
 20
0.0473127
 11
71.1243
 21
0.106277
  0
LINE
  8
0
 10
71.1243
 20
0.106277
 11
71.4921
 21
0.188501
  0
LINE
  8
0
 10
71.4921
 20
0.188501
 11
71.8541
 21
0.293661
  0
LINE
  8
0
 10
71.8541
 20
0.293661
 11
72.2087
 21
0.421342
  0
LINE
  8
0
 10
72.2087
 20
0.421342
 11
72.5547
 21
0.571038
  0
LINE
  8
0
 10
72.5547
 20
0.571038
 11
72.8905
 21
0.742161
  0
LINE
  8
0
 10
72.8905
 20
0.742161
 11
73.215
 21
0.934033
  0
LINE
  8
0
 10
73.215
 20
0.934033
 11
73.5267
 21
1.1459
  0
LINE
  8
0
 10
73.5267
 20
1.1459
 11
73.8245
 21
1.37692
  0
LINE
  8
0
 10
73.8245
 20
1.37692
 11
74.1073
 21
1.62619
  0
LINE
  8
0
 10
74.1073
 20
1.62619
 11
74.3738
 21
1.89272
  0
LINE
  8
0
 10
74.3738
 20
1.89272
 11
74.6231
 21
2.17546
  0
LINE
  8
0
 10
74.6231
 20
2.17546
 11
74.8541
 21
2.47329
  0
LINE
  8
0
 10
74.8541
 20
2.47329
 11
75.066
 21
2.78504
  0
LINE
  8
0
 10
75.066
 20
2.78504
 11
75.2578
 21
3.10948
  0
LINE
  8
0
 10
75.2578
 20
3.10948
 11
75.429
 21
3.44532
  0
LINE
  8
0
 10
75.429
 20
3.44532
 11
75.5787
 21
3.79125
  0
LINE
  8
0
 10
75.5787
 20
3.79125
 11
75.7063
 21
4.1459
  0
LINE
  8
0
 10
75.7063
 20
4.1459
 11
75.8092
 21
4.5
  0
LINE
  8
0
 10
75.8092
 20
4.5
 11
76.1908
 21
4.5
  0
LINE
  8
0
 10
76.1908
 20
4.5
 11
76.2937
 21
4.1459
  0
LINE
  8
0
 10
76.2937
 20
4.1459
 11
76.4213
 21
3.79125
  0
LINE
  8
0
 10
76.4213
 20
3.79125
 11
76.571
 21
3.44532
  0
LINE
  8
0
 10
76.571
 20
3.44532
 11
76.7422
 21
3.10948
  0
LINE
  8
0
 10
76.7422
 20
3.10948
 11
76.934
 21
2.78504
  0
LINE
  8
0
 10
76.934
 20
2.78504
 11
77.1459
 21
2.47329
  0
LINE
  8
0
 10
77.1459
 20
2.47329
 11
77.3769
 21
2.17546
  0
LINE
  8
0
 10
77.3769
 20
2.17546
 11
77.6262
 21
1.89272
  0
LINE
  8
0
 10
77.6262
 20
1.89272
 11
77.8927
 21
1.62619
  0
LINE
  8
0
 10
77.8927
 20
1.62619
 11
78.1755
 21
1.37692
  0
LINE
  8
0
 10
78.1755
 20
1.37692
 11
78.4733
 21
1.1459
  0
LINE
  8
0
 10
78.4733
 20
1.1459
 11
78.785
 21
0.934033
  0
LINE
  8
0
 10
78.785
 20
0.934033
 11
79.1095
 21
0.742161
  0
LINE
  8
0
 10
79.1095
 20
0.742161
 11
79.4453
 21
0.571038
  0
LINE
  8
0
 10
79.4453
 20
0.571038
 11
79.7913
 21
0.421342
  0
LINE
  8
0
 10
79.7913
 20
0.421342
 11
80.1459
 21
0.293661
  0
LINE
  8
0
 10
80.1459
 20
0.293661
 11
80.5079
 21
0.188501
  0
LINE
  8
0
 10
80.5079
 20
0.188501
 11
80.8757
 21
0.106277
  0
LINE
  8
0
 10
80.8757
 20
0.106277
 11
81.248
 21
0.0473127
  0
LINE
  8
0
 10
81.248
 20
0.0473127
 11
81.6233
 21
0.0118399
  0
LINE
  8
0
 10
81.6233
 20
0.0118399
 11
82
 21
0
  0
LINE
  8
0
 10
82
 20
0
 11
82.3767
 21
0.0118399
  0
LINE
  8
0
 10
82.3767
 20
0.0118399
 11
82.752
 21
0.0473127
  0
LINE
  8
0
 10
82.752
 20
0.0473127
 11
83.1243
 21
0.106277
  0
LINE
  8
0
 10
83.1243
 20
0.106277
 11
83.4921
 21
0.188501
  0
LINE
  8
0
 10
83.4921
 20
0.188501
 11
83.8541
 21
0.293661
  0
LINE
  8
0
 10
83.8541
 20
0.293661
 11
84.2087
 21
0.421342
  0
LINE
  8
0
 10
84.2087
 20
0.421342
 11
84.5547
 21
0.571038
  0
LINE
  8
0
 10
84.5547
 20
0.571038
 11
84.8905
 21
0.742161
  0
LINE
  8
0
 10
84.8905
 20
0.742161
 11
85.215
 21
0.934033
  0
LINE
  8
0
 10
85.215
 20
0.934033
 11
85.5267
 21
1.1459
  0
LINE
  8
0
 10
85.5267
 20
1.1459
 11
85.8245
 21
1.37692
  0
LINE
  8
0
 10
85.8245
 20
1.37692
 11
86.1073
 21
1.62619
  0
LINE
  8
0
 10
86.1073
 20
1.62619
 11
86.3738
 21
1.89272
  0
LINE
  8
0
 10
86.3738
 20
1.89272
 11
86.6231
 21
2.17546
  0
LINE
  8
0
 10
86.6231
 20
2.17546
 11
86.8541
 21
2.47329
  0
LINE
  8
0
 10
86.8541
 20
2.47329
 11
87.066
 21
2.78504
  0
LINE
  8
0
 10
87.066
 20
2.78504
 11
87.2578
 21
3.10948
  0
LINE
  8
0
 10
87.2578
 20
3.10948
 11
87.429
 21
3.44532
  0
LINE
  8
0
 10
87.429
 20
3.44532
 11
87.5787
 21
3.79125
  0
LINE
  8
0
 10
87.5787
 20
3.79125
 11
87.7063
 21
4.1459
  0
LINE
  8
0
 10
87.7063
 20
4.1459
 11
87.8092
 21
4.5
  0
LINE
  8
0
 10
87.8092
 20
4.5
 11
88.1908
 21
4.5
  0
LINE
  8
0
 10
88.1908
 20
4.5
 11
88.2937
 21
4.1459
  0
LINE
  8
0
 10
88.2937
 20
4.1459
 11
88.4213
 21
3.79125
  0
LINE
  8
0
 10
88.4213
 20
3.79125
 11
88.571
 21
3.44532
  0
LINE
  8
0
 10
88.571
 20
3.44532
 11
88.7422
 21
3.10948
  0
LINE
  8
0
 10
88.7422
 20
3.10948
 11
88.934
 21
2.78504
  0
LINE
  8
0
 10
88.934
 20
2.78504
 11
89.1459
 21
2.47329
  0
LINE
  8
0
 10
89.1459
 20
2.47329
 11
89.3769
 21
2.17546
  0
LINE
  8
0
 10
89.3769
 20
2.17546
 11
89.6262
 21
1.89272
  0
LINE
  8
0
 10
89.6262
 20
1.89272
 11
89.8927
 21
1.62619
  0
LINE
  8
0
 10
89.8927
 20
1.62619
 11
90.1755
 21
1.37692
  0
LINE
  8
0
 10
90.1755
 20
1.37692
 11
90.4733
 21
1.1459
  0
LINE
  8
0
 10
90.4733
 20
1.1459
 11
90.785
 21
0.934033
  0
LINE
  8
0
 10
90.785
 20
0.934033
 11
91.1095
 21
0.742161
  0
LINE
  8
0
 10
91.1095
 20
0.742161
 11
91.4453
 21
0.571038
  0
LINE
  8
0
 10
91.4453
 20
0.571038
 11
91.7913
 21
0.421342
  0
LINE
  8
0
 10
91.7913
 20
0.421342
 11
92.1459
 21
0.293661
  0
LINE
  8
0
 10
92.1459
 20
0.293661
 11
92.5079
 21
0.188501
  0
LINE
  8
0
 10
92.5079
 20
0.188501
 11
92.8757
 21
0.106277
  0
LINE
  8
0
 10
92.8757
 20
0.106277
 11
93.248
 21
0.0473127
  0
LINE
  8
0
 10
93.248
 20
0.0473127
 11
93.6233
 21
0.0118399
  0
LINE
  8
0
 10
93.6233
 20
0.0118399
 11
94
 21
0
  0
LINE
  8
0
 10
94
 20
0
 11
94.3767
 21
0.0118399
  0
LINE
  8
0
 10
94.3767
 20
0.0118399
 11
94.752
 21
0.0473127
  0
LINE
  8
0
 10
94.752
 20
0.0473127
 11
95.1243
 21
0.106277
  0
LINE
  8
0
 10
95.1243
 20
0.106277
 11
95.4921
 21
0.188501
  0
LINE
  8
0
 10
95.4921
 20
0.188501
 11
95.8541
 21
0.293661
  0
LINE
  8
0
 10
95.8541
 20
0.293661
 11
96.2087
 21
0.421342
  0
LINE
  8
0
 10
96.2087
 20
0.421342
 11
96.5547
 21
0.571038
  0
LINE
  8
0
 10
96.5547
 20
0.571038
 11
96.8905
 21
0.742161
  0
LINE
  8
0
 10
96.8905
 20
0.742161
 11
97.215
 21
0.934033
  0
LINE
  8
0
 10
97.215
 20
0.934033
 11
97.5267
 21
1.1459
  0
LINE
  8
0
 10
97.5267
 20
1.1459
 11
97.8245
 21
1.37692
  0
LINE
  8
0
 10
97.8245
 20
1.37692
 11
98.1073
 21
1.62619
  0
LINE
  8
0
 10
98.1073
 20
1.62619
 11
98.3738
 21
1.89272
  0
LINE
  8
0
 10
98.3738
 20
1.89272
 11
98.6231
 21
2.17546
  0
LINE
  8
0
 10
98.6231
 20
2.17546
 11
98.8541
 21
2.47329
  0
LINE
  8
0
 10
98.8541
 20
2.47329
 11
99.066
 21
2.78504
  0
LINE
  8
0
 10
99.066
 20
2.78504
 11
99.2578
 21
3.10948
  0
LINE
  8
0
 10
99.2578
 20
3.10948
 11
99.429
 21
3.44532
  0
LINE
  8
0
 10
99.429
 20
3.44532
 11
99.5787
 21
3.79125
  0
LINE
  8
0
 10
99.5787
 20
3.79125
 11
99.7063
 21
4.1459
  0
LINE
  8
0
 10
99.7063
 20
4.1459
 11
99.8092
 21
4.5
  0
LINE
  8
0
 10
99.8092
 20
4.5
 11
100.191
 21
4.5
  0
LINE
  8
0
 10
100.191
 20
4.5
 11
100.294
 21
4.1459
  0
LINE
  8
0
 10
100.294
 20
4.1459
 11
100.421
 21
3.79125
  0
LINE
  8
0
 10
100.421
 20
3.79125
 11
100.571
 21
3.44532
  0
LINE
  8
0
 10
100.571
 20
3.44532
 11
100.742
 21
3.10948
  0
LINE
  8
0
 10
100.742
 20
3.10948
 11
100.934
 21
2.78504
  0
LINE
  8
0
 10
100.934
 20
2.78504
 11
101.146
 21
2.47329
  0
LINE
  8
0
 10
101.146
 20
2.47329
 11
101.377
 21
2.17546
  0
LINE
  8
0
 10
101.377
 20
2.17546
 11
101.626
 21
1.89272
  0
LINE
  8
0
 10
101.626
 20
1.89272
 11
101.893
 21
1.62619
  0
LINE
  8
0
 10
101.893
 20
1.62619
 11
102.175
 21
1.37692
  0
LINE
  8
0
 10
102.175
 20
1.37692
 11
102.473
 21
1.1459
  0
LINE
  8
0
 10
102.473
 20
1.1459
 11
102.785
 21
0.934033
  0
LINE
  8
0
 10
102.785
 20
0.934033
 11
103.109
 21
0.742161
  0
LINE
  8
0
 10
103.109
 20
0.742161
 11
103.445
 21
0.571038
  0
LINE
  8
0
 10
103.445
 20
0.571038
 11
103.791
 21
0.421342
  0
LINE
  8
0
 10
103.791
 20
0.421342
 11
104.146
 21
0.293661
  0
LINE
  8
0
 10
104.146
 20
0.293661
 11
104.508
 21
0.188501
  0
LINE
  8
0
 10
104.508
 20
0.188501
 11
104.876
 21
0.106277
  0
LINE
  8
0
 10
104.876
 20
0.106277
 11
105.248
 21
0.0473127
  0
LINE
  8
0
 10
105.248
 20
0.0473127
 11
105.623
 21
0.0118399
  0
LINE
  8
0
 10
105.623
 20
0.0118399
 11
106
 21
0
  0
LINE
  8
0
 10
106
 20
0
 11
106.377
 21
0.0118399
  0
LINE
  8
0
 10
106.377
 20
0.0118399
 11
106.752
 21
0.0473127
  0
LINE
  8
0
 10
106.752
 20
0.0473127
 11
107.124
 21
0.106277
  0
LINE
  8
0
 10
107.124
 20
0.106277
 11
107.492
 21
0.188501
  0
LINE
  8
0
 10
107.492
 20
0.188501
 11
107.854
 21
0.293661
  0
LINE
  8
0
 10
107.854
 20
0.293661
 11
108.209
 21
0.421342
  0
LINE
  8
0
 10
108.209
 20
0.421342
 11
108.555
 21
0.571038
  0
LINE
  8
0
 10
108.555
 20
0.571038
 11
108.891
 21
0.742161
  0
LINE
  8
0
 10
108.891
 20
0.742161
 11
109.215
 21
0.934033
  0
LINE
  8
0
 10
109.215
 20
0.934033
 11
109.527
 21
1.1459
  0
LINE
  8
0
 10
109.527
 20
1.1459
 11
109.825
 21
1.37692
  0
LINE
  8
0
 10
109.825
 20
1.37692
 11
110.107
 21
1.62619
  0
LINE
  8
0
 10
110.107
 20
1.62619
 11
110.374
 21
1.89272
  0
LINE
  8
0
 10
110.374
 20
1.89272
 11
110.623
 21
2.17546
  0
LINE
  8
0
 10
110.623
 20
2.17546
 11
110.854
 21
2.47329
  0
LINE
  8
0
 10
110.854
 20
2.47329
 11
111.066
 21
2.78504
  0
LINE
  8
0
 10
111.066
 20
2.78504
 11
111.258
 21
3.10948
  0
LINE
  8
0
 10
111.258
 20
3.10948
 11
111.429
 21
3.44532
  0
LINE
  8
0
 10
111.429
 20
3.44532
 11
111.579
 21
3.79125
  0
LINE
  8
0
 10
111.579
 20
3.79125
 11
111.706
 21
4.1459
  0
LINE
  8
0
 10
111.706
 20
4.1459
 11
111.811
 21
4.50786
  0
LINE
  8
0
 10
111.811
 20
4.50786
 11
111.894
 21
4.87571
  0
LINE
  8
0
 10
111.894
 20
4.87571
 11
111.953
 21
5.248
  0
LINE
  8
0
 10
111.953
 20
5.248
 11
111.988
 21
5.62326
  0
LINE
  8
0
 10
111.988
 20
5.62326
 11
112
 21
6
  0
LINE
  8
0
 10
112
 20
6
 11
111.988
 21
6.37674
  0
LINE
  8
0
 10
111.988
 20
6.37674
 11
111.953
 21
6.752
  0
LINE
  8
0
 10
111.953
 20
6.752
 11
111.894
 21
7.12429
  0
LINE
  8
0
 10
111.894
 20
7.12429
 11
111.811
 21
7.49214
  0
LINE
  8
0
 10
111.811
 20
7.49214
 11
111.706
 21
7.8541
  0
LINE
  8
0
 10
111.706
 20
7.8541
 11
111.579
 21
8.20875
  0
LINE
  8
0
 10
111.579
 20
8.20875
 11
111.429
 21
8.55468
  0
LINE
  8
0
 10
111.429
 20
8.55468
 11
111.258
 21
8.89052
  0
LINE
  8
0
 10
111.258
 20
8.89052
 11
111.066
 21
9.21496
  0
LINE
  8
0
 10
111.066
 20
9.21496
 11
110.854
 21
9.52671
  0
LINE
  8
0
 10
110.854
 20
9.52671
 11
110.623
 21
9.82454
  0
LINE
  8
0
 10
110.623
 20
9.82454
 11
110.374
 21
10.1073
  0
LINE
  8
0
 10
110.374
 20
10.1073
 11
110.107
 21
10.3738
  0
LINE
  8
0
 10
110.107
 20
10.3738
 11
109.825
 21
10.6231
  0
LINE
  8
0
 10
109.825
 20
10.6231
 11
109.527
 21
10.8541
  0
LINE
  8
0
 10
109.527
 20
10.8541
 11
109.215
 21
11.066
  0
LINE
  8
0
 10
109.215
 20
11.066
 11
108.891
 21
11.2578
  0
LINE
  8
0
 10
108.891
 20
11.2578
 11
108.555
 21
11.429
  0
LINE
  8
0
 10
108.555
 20
11.429
 11
108.209
 21
11.5787
  0
LINE
  8
0
 10
108.209
 20
11.5787
 11
107.854
 21
11.7063
  0
LINE
  8
0
 10
107.854
 20
11.7063
 11
107.492
 21
11.8115
  0
LINE
  8
0
 10
107.492
 20
11.8115
 11
107.124
 21
11.8937
  0
LINE
  8
0
 10
107.124
 20
11.8937
 11
106.925
 21
11.9252
  0
LINE
  8
0
 10
106.925
 20
11.9252
 11
107.787
 21
12.787
  0
LINE
  8
0
 10
107.787
 20
12.787
 11
105.328
 21
15.2464
  0
LINE
  8
0
 10
105.328
 20
15.2464
 11
105.429
 21
15.4453
  0
LINE
  8
0
 10
105.429
 20
15.4453
 11
105.579
 21
15.7913
  0
LINE
  8
0
 10
105.579
 20
15.7913
 11
105.706
 21
16.1459
  0
LINE
  8
0
 10
105.706
 20
16.1459
 11
105.811
 21
16.5079
  0
LINE
  8
0
 10
105.811
 20
16.5079
 11
105.894
 21
16.8757
  0
LINE
  8
0
 10
105.894
 20
16.8757
 11
105.953
 21
17.248
  0
LINE
  8
0
 10
105.953
 20
17.248
 11
105.988
 21
17.6233
  0
LINE
  8
0
 10
105.988
 20
17.6233
 11
106
 21
18
  0
LINE
  8
0
 10
106
 20
18
 11
105.988
 21
18.3767
  0
LINE
  8
0
 10
105.988
 20
18.3767
 11
105.953
 21
18.752
  0
LINE
  8
0
 10
105.953
 20
18.752
 11
105.894
 21
19.1243
  0
LINE
  8
0
 10
105.894
 20
19.1243
 11
105.811
 21
19.4921
  0
LINE
  8
0
 10
105.811
 20
19.4921
 11
105.706
 21
19.8541
  0
LINE
  8
0
 10
105.706
 20
19.8541
 11
105.579
 21
20.2087
  0
LINE
  8
0
 10
105.579
 20
20.2087
 11
105.429
 21
20.5547
  0
LINE
  8
0
 10
105.429
 20
20.5547
 11
105.258
 21
20.8905
  0
LINE
  8
0
 10
105.258
 20
20.8905
 11
105.066
 21
21.215
  0
LINE
  8
0
 10
105.066
 20
21.215
 11
104.854
 21
21.5267
  0
LINE
  8
0
 10
104.854
 20
21.5267
 11
104.623
 21
21.8245
  0
LINE
  8
0
 10
104.623
 20
21.8245
 11
104.374
 21
22.1073
  0
LINE
  8
0
 10
104.374
 20
22.1073
 11
104.107
 21
22.3738
  0
LINE
  8
0
 10
104.107
 20
22.3738
 11
103.825
 21
22.6231
  0
LINE
  8
0
 10
103.825
 20
22.6231
 11
103.527
 21
22.8541
  0
LINE
  8
0
 10
103.527
 20
22.8541
 11
103.215
 21
23.066
  0
LINE
  8
0
 10
103.215
 20
23.066
 11
102.891
 21
23.2578
  0
LINE
  8
0
 10
102.891
 20
23.2578
 11
102.555
 21
23.429
  0
LINE
  8
0
 10
102.555
 20
23.429
 11
102.209
 21
23.5787
  0
LINE
  8
0
 10
102.209
 20
23.5787
 11
101.854
 21
23.7063
  0
LINE
  8
0
 10
101.854
 20
23.7063
 11
101.492
 21
23.8115
  0
LINE
  8
0
 10
101.492
 20
23.8115
 11
101.124
 21
23.8937
  0
LINE
  8
0
 10
101.124
 20
23.8937
 11
100.752
 21
23.9527
  0
LINE
  8
0
 10
100.752
 20
23.9527
 11
100.377
 21
23.9882
  0
LINE
  8
0
 10
100.377
 20
23.9882
 11
100
 21
24
  0
LINE
  8
0
 10
100
 20
24
 11
99.6233
 21
23.9882
  0
LINE
  8
0
 10
99.6233
 20
23.9882
 11
99.248
 21
23.9527
  0
LINE
  8
0
 10
99.248
 20
23.9527
 11
98.8757
 21
23.8937
  0
LINE
  8
0
 10
98.8757
 20
23.8937
 11
98.5079
 21
23.8115
  0
LINE
  8
0
 10
98.5079
 20
23.8115
 11
98.1459
 21
23.7063
  0
LINE
  8
0
 10
98.1459
 20
23.7063
 11
97.7913
 21
23.5787
  0
LINE
  8
0
 10
97.7913
 20
23.5787
 11
97.4453
 21
23.429
  0
LINE
  8
0
 10
97.4453
 20
23.429
 11
97.1095
 21
23.2578
  0
LINE
  8
0
 10
97.1095
 20
23.2578
 11
96.785
 21
23.066
  0
LINE
  8
0
 10
96.785
 20
23.066
 11
96.4733
 21
22.8541
  0
LINE
  8
0
 10
96.4733
 20
22.8541
 11
96.1755
 21
22.6231
  0
LINE
  8
0
 10
96.1755
 20
22.6231
 11
95.8927
 21
22.3738
  0
LINE
  8
0
 10
95.8927
 20
22.3738
 11
95.6262
 21
22.1073
  0
LINE
  8
0
 10
95.6262
 20
22.1073
 11
95.3769
 21
21.8245
  0
LINE
  8
0
 10
95.3769
 20
21.8245
 11
95.1459
 21
21.5267
  0
LINE
  8
0
 10
95.1459
 20
21.5267
 11
94.934
 21
21.215
  0
LINE
  8
0
 10
94.934
 20
21.215
 11
94.7422
 21
20.8905
  0
LINE
  8
0
 10
94.7422
 20
20.8905
 11
94.571
 21
20.5547
  0
LINE
  8
0
 10
94.571
 20
20.5547
 11
94.4213
 21
20.2087
  0
LINE
  8
0
 10
94.4213
 20
20.2087
 11
94.2937
 21
19.8541
  0
LINE
  8
0
 10
94.2937
 20
19.8541
 11
94.1908
 21
19.5
  0
LINE
  8
0
 10
94.1908
 20
19.5
 11
93.8092
 21
19.5
  0
LINE
  8
0
 10
93.8092
 20
19.5
 11
93.7063
 21
19.8541
  0
LINE
  8
0
 10
93.7063
 20
19.8541
 11
93.5787
 21
20.2087
  0
LINE
  8
0
 10
93.5787
 20
20.2087
 11
93.429
 21
20.5547
  0
LINE
  8
0
 10
93.429
 20
20.5547
 11
93.2578
 21
20.8905
  0
LINE
  8
0
 10
93.2578
 20
20.8905
 11
93.066
 21
21.215
  0
LINE
  8
0
 10
93.066
 20
21.215
 11
92.8541
 21
21.5267
  0
LINE
  8
0
 10
92.8541
 20
21.5267
 11
92.6231
 21
21.8245
  0
LINE
  8
0
 10
92.6231
 20
21.8245
 11
92.3738
 21
22.1073
  0
LINE
  8
0
 10
92.3738
 20
22.1073
 11
92.1073
 21
22.3738
  0
LINE
  8
0
 10
92.1073
 20
22.3738
 11
91.8245
 21
22.6231
  0
LINE
  8
0
 10
91.8245
 20
22.6231
 11
91.5267
 21
22.8541
  0
LINE
  8
0
 10
91.5267
 20
22.8541
 11
91.215
 21
23.066
  0
LINE
  8
0
 10
91.215
 20
23.066
 11
90.8905
 21
23.2578
  0
LINE
  8
0
 10
90.8905
 20
23.2578
 11
90.5547
 21
23.429
  0
LINE
  8
0
 10
90.5547
 20
23.429
 11
90.2087
 21
23.5787
  0
LINE
  8
0
 10
90.2087
 20
23.5787
 11
89.8541
 21
23.7063
  0
LINE
  8
0
 10
89.8541
 20
23.7063
 11
89.4921
 21
23.8115
  0
LINE
  8
0
 10
89.4921
 20
23.8115
 11
89.1243
 21
23.8937
  0
LINE
  8
0
 10
89.1243
 20
23.8937
 11
88.752
 21
23.9527
  0
LINE
  8
0
 10
88.752
 20
23.9527
 11
88.3767
 21
23.9882
  0
LINE
  8
0
 10
88.3767
 20
23.9882
 11
88
 21
24
  0
LINE
  8
0
 10
88
 20
24
 11
87.6233
 21
23.9882
  0
LINE
  8
0
 10
87.6233
 20
23.9882
 11
87.248
 21
23.9527
  0
LINE
  8
0
 10
87.248
 20
23.9527
 11
86.8757
 21
23.8937
  0
LINE
  8
0
 10
86.8757
 20
23.8937
 11
86.5079
 21
23.8115
  0
LINE
  8
0
 10
86.5079
 20
23.8115
 11
86.1459
 21
23.7063
  0
LINE
  8
0
 10
86.1459
 20
23.7063
 11
85.7913
 21
23.5787
  0
LINE
  8
0
 10
85.7913
 20
23.5787
 11
85.4453
 21
23.429
  0
LINE
  8
0
 10
85.4453
 20
23.429
 11
85.1095
 21
23.2578
  0
LINE
  8
0
 10
85.1095
 20
23.2578
 11
84.785
 21
23.066
  0
LINE
  8
0
 10
84.785
 20
23.066
 11
84.4733
 21
22.8541
  0
LINE
  8
0
 10
84.4733
 20
22.8541
 11
84.1755
 21
22.6231
  0
LINE
  8
0
 10
84.1755
 20
22.6231
 11
83.8927
 21
22.3738
  0
LINE
  8
0
 10
83.8927
 20
22.3738
 11
83.6262
 21
22.1073
  0
LINE
  8
0
 10
83.6262
 20
22.1073
 11
83.3769
 21
21.8245
  0
LINE
  8
0
 10
83.3769
 20
21.8245
 11
83.1459
 21
21.5267
  0
LINE
  8
0
 10
83.1459
 20
21.5267
 11
82.934
 21
21.215
  0
LINE
  8
0
 10
82.934
 20
21.215
 11
82.7422
 21
20.8905
  0
LINE
  8
0
 10
82.7422
 20
20.8905
 11
82.571
 21
20.5547
  0
LINE
  8
0
 10
82.571
 20
20.5547
 11
82.4213
 21
20.2087
  0
LINE
  8
0
 10
82.4213
 20
20.2087
 11
82.2937
 21
19.8541
  0
LINE
  8
0
 10
82.2937
 20
19.8541
 11
82.1908
 21
19.5
  0
LINE
  8
0
 10
82.1908
 20
19.5
 11
81.8092
 21
19.5
  0
LINE
  8
0
 10
81.8092
 20
19.5
 11
81.7063
 21
19.8541
  0
LINE
  8
0
 10
81.7063
 20
19.8541
 11
81.5787
 21
20.2087
  0
LINE
  8
0
 10
81.5787
 20
20.2087
 11
81.429
 21
20.5547
  0
LINE
  8
0
 10
81.429
 20
20.5547
 11
81.2578
 21
20.8905
  0
LINE
  8
0
 10
81.2578
 20
20.8905
 11
81.066
 21
21.215
  0
LINE
  8
0
 10
81.066
 20
21.215
 11
80.8541
 21
21.5267
  0
LINE
  8
0
 10
80.8541
 20
21.5267
 11
80.6231
 21
21.8245
  0
LINE
  8
0
 10
80.6231
 20
21.8245
 11
80.3738
 21
22.1073
  0
LINE
  8
0
 10
80.3738
 20
22.1073
 11
80.1073
 21
22.3738
  0
LINE
  8
0
 10
80.1073
 20
22.3738
 11
79.8245
 21
22.6231
  0
LINE
  8
0
 10
79.8245
 20
22.6231
 11
79.5267
 21
22.8541
  0
LINE
  8
0
 10
79.5267
 20
22.8541
 11
79.215
 21
23.066
  0
LINE
  8
0
 10
79.215
 20
23.066
 11
78.8905
 21
23.2578
  0
LINE
  8
0
 10
78.8905
 20
23.2578
 11
78.5547
 21
23.429
  0
LINE
  8
0
 10
78.5547
 20
23.429
 11
78.2087
 21
23.5787
  0
LINE
  8
0
 10
78.2087
 20
23.5787
 11
77.8541
 21
23.7063
  0
LINE
  8
0
 10
77.8541
 20
23.7063
 11
77.4921
 21
23.8115
  0
LINE
  8
0
 10
77.4921
 20
23.8115
 11
77.1243
 21
23.8937
  0
LINE
  8
0
 10
77.1243
 20
23.8937
 11
76.752
 21
23.9527
  0
LINE
  8
0
 10
76.752
 20
23.9527
 11
76.3767
 21
23.9882
  0
LINE
  8
0
 10
76.3767
 20
23.9882
 11
76
 21
24
  0
LINE
  8
0
 10
76
 20
24
 11
75.6233
 21
23.9882
  0
LINE
  8
0
 10
75.6233
 20
23.9882
 11
75.248
 21
23.9527
  0
LINE
  8
0
 10
75.248
 20
23.9527
 11
74.8757
 21
23.8937
  0
LINE
  8
0
 10
74.8757
 20
23.8937
 11
74.5079
 21
23.8115
  0
LINE
  8
0
 10
74.5079
 20
23.8115
 11
74.1459
 21
23.7063
  0
LINE
  8
0
 10
74.1459
 20
23.7063
 11
73.7913
 21
23.5787
  0
LINE
  8
0
 10
73.7913
 20
23.5787
 11
73.4453
 21
23.429
  0
LINE
  8
0
 10
73.4453
 20
23.429
 11
73.1095
 21
23.2578
  0
LINE
  8
0
 10
73.1095
 20
23.2578
 11
72.785
 21
23.066
  0
LINE
  8
0
 10
72.785
 20
23.066
 11
72.4733
 21
22.8541
  0
LINE
  8
0
 10
72.4733
 20
22.8541
 11
72.1755
 21
22.6231
  0
LINE
  8
0
 10
72.1755
 20
22.6231
 11
71.8927
 21
22.3738
  0
LINE
  8
0
 10
71.8927
 20
22.3738
 11
71.6262
 21
22.1073
  0
LINE
  8
0
 10
71.6262
 20
22.1073
 11
71.3769
 21
21.8245
  0
LINE
  8
0
 10
71.3769
 20
21.8245
 11
71.1459
 21
21.5267
  0
LINE
  8
0
 10
71.1459
 20
21.5267
 11
70.934
 21
21.215
  0
LINE
  8
0
 10
70.934
 20
21.215
 11
70.7422
 21
20.8905
  0
LINE
  8
0
 10
70.7422
 20
20.8905
 11
70.571
 21
20.5547
  0
LINE
  8
0
 10
70.571
 20
20.5547
 11
70.4213
 21
20.2087
  0
LINE
  8
0
 10
70.4213
 20
20.2087
 11
70.2937
 21
19.8541
  0
LINE
  8
0
 10
70.2937
 20
19.8541
 11
70.1908
 21
19.5
  0
LINE
  8
0
 10
70.1908
 20
19.5
 11
69.8092
 21
19.5
  0
LINE
  8
0
 10
69.8092
 20
19.5
 11
69.7063
 21
19.8541
  0
LINE
  8
0
 10
69.7063
 20
19.8541
 11
69.5787
 21
20.2087
  0
LINE
  8
0
 10
69.5787
 20
20.2087
 11
69.429
 21
20.5547
  0
LINE
  8
0
 10
69.429
 20
20.5547
 11
69.2578
 21
20.8905
  0
LINE
  8
0
 10
69.2578
 20
20.8905
 11
69.066
 21
21.215
  0
LINE
  8
0
 10
69.066
 20
21.215
 11
68.8541
 21
21.5267
  0
LINE
  8
0
 10
68.8541
 20
21.5267
 11
68.6231
 21
21.8245
  0
LINE
  8
0
 10
68.6231
 20
21.8245
 11
68.3738
 21
22.1073
  0
LINE
  8
0
 10
68.3738
 20
22.1073
 11
68.1073
 21
22.3738
  0
LINE
  8
0
 10
68.1073
 20
22.3738
 11
67.8245
 21
22.6231
  0
LINE
  8
0
 10
67.8245
 20
22.6231
 11
67.5267
 21
22.8541
  0
LINE
  8
0
 10
67.5267
 20
22.8541
 11
67.215
 21
23.066
  0
LINE
  8
0
 10
67.215
 20
23.066
 11
66.8905
 21
23.2578
  0
LINE
  8
0
 10
66.8905
 20
23.2578
 11
66.5547
 21
23.429
  0
LINE
  8
0
 10
66.5547
 20
23.429
 11
66.2087
 21
23.5787
  0
LINE
  8
0
 10
66.2087
 20
23.5787
 11
65.8541
 21
23.7063
  0
LINE
  8
0
 10
65.8541
 20
23.7063
 11
65.4921
 21
23.8115
  0
LINE
  8
0
 10
65.4921
 20
23.8115
 11
65.1243
 21
23.8937
  0
LINE
  8
0
 10
65.1243
 20
23.8937
 11
64.752
 21
23.9527
  0
LINE
  8
0
 10
64.752
 20
23.9527
 11
64.3767
 21
23.9882
  0
LINE
  8
0
 10
64.3767
 20
23.9882
 11
64
 21
24
  0
LINE
  8
0
 10
64
 20
24
 11
63.6233
 21
23.9882
  0
LINE
  8
0
 10
63.6233
 20
23.9882
 11
63.248
 21
23.9527
  0
LINE
  8
0
 10
63.248
 20
23.9527
 11
62.8757
 21
23.8937
  0
LINE
  8
0
 10
62.8757
 20
23.8937
 11
62.5079
 21
23.8115
  0
LINE
  8
0
 10
62.5079
 20
23.8115
 11
62.1459
 21
23.7063
  0
LINE
  8
0
 10
62.1459
 20
23.7063
 11
61.7913
 21
23.5787
  0
LINE
  8
0
 10
61.7913
 20
23.5787
 11
61.4453
 21
23.429
  0
LINE
  8
0
 10
61.4453
 20
23.429
 11
61.1095
 21
23.2578
  0
LINE
  8
0
 10
61.1095
 20
23.2578
 11
60.785
 21
23.066
  0
LINE
  8
0
 10
60.785
 20
23.066
 11
60.4733
 21
22.8541
  0
LINE
  8
0
 10
60.4733
 20
22.8541
 11
60.1755
 21
22.6231
  0
LINE
  8
0
 10
60.1755
 20
22.6231
 11
59.8927
 21
22.3738
  0
LINE
  8
0
 10
59.8927
 20
22.3738
 11
59.6262
 21
22.1073
  0
LINE
  8
0
 10
59.6262
 20
22.1073
 11
59.3769
 21
21.8245
  0
LINE
  8
0
 10
59.3769
 20
21.8245
 11
59.1459
 21
21.5267
  0
LINE
  8
0
 10
59.1459
 20
21.5267
 11
58.934
 21
21.215
  0
LINE
  8
0
 10
58.934
 20
21.215
 11
58.7422
 21
20.8905
  0
LINE
  8
0
 10
58.7422
 20
20.8905
 11
58.571
 21
20.5547
  0
LINE
  8
0
 10
58.571
 20
20.5547
 11
58.4213
 21
20.2087
  0
LINE
  8
0
 10
58.4213
 20
20.2087
 11
58.2937
 21
19.8541
  0
LINE
  8
0
 10
58.2937
 20
19.8541
 11
58.1908
 21
19.5
  0
LINE
  8
0
 10
58.1908
 20
19.5
 11
57.8092
 21
19.5
  0
LINE
  8
0
 10
57.8092
 20
19.5
 11
57.7063
 21
19.8541
  0
LINE
  8
0
 10
57.7063
 20
19.8541
 11
57.5787
 21
20.2087
  0
LINE
  8
0
 10
57.5787
 20
20.2087
 11
57.429
 21
20.5547
  0
LINE
  8
0
 10
57.429
 20
20.5547
 11
57.2578
 21
20.8905
  0
LINE
  8
0
 10
57.2578
 20
20.8905
 11
57.066
 21
21.215
  0
LINE
  8
0
 10
57.066
 20
21.215
 11
56.8541
 21
21.5267
  0
LINE
  8
0
 10
56.8541
 20
21.5267
 11
56.6231
 21
21.8245
  0
LINE
  8
0
 10
56.6231
 20
21.8245
 11
56.3738
 21
22.1073
  0
LINE
  8
0
 10
56.3738
 20
22.1073
 11
56.1073
 21
22.3738
  0
LINE
  8
0
 10
56.1073
 20
22.3738
 11
55.8245
 21
22.6231
  0
LINE
  8
0
 10
55.8245
 20
22.6231
 11
55.5267
 21
22.8541
  0
LINE
  8
0
 10
55.5267
 20
22.8541
 11
55.215
 21
23.066
  0
LINE
  8
0
 10
55.215
 20
23.066
 11
54.8905
 21
23.2578
  0
LINE
  8
0
 10
54.8905
 20
23.2578
 11
54.5547
 21
23.429
  0
LINE
  8
0
 10
54.5547
 20
23.429
 11
54.2087
 21
23.5787
  0
LINE
  8
0
 10
54.2087
 20
23.5787
 11
53.8541
 21
23.7063
  0
LINE
  8
0
 10
53.8541
 20
23.7063
 11
53.4921
 21
23.8115
  0
LINE
  8
0
 10
53.4921
 20
23.8115
 11
53.1243
 21
23.8937
  0
LINE
  8
0
 10
53.1243
 20
23.8937
 11
52.752
 21
23.9527
  0
LINE
  8
0
 10
52.752
 20
23.9527
 11
52.3767
 21
23.9882
  0
LINE
  8
0
 10
52.3767
 20
23.9882
 11
52
 21
24
  0
LINE
  8
0
 10
52
 20
24
 11
51.6233
 21
23.9882
  0
LINE
  8
0
 10
51.6233
 20
23.9882
 11
51.248
 21
23.9527
  0
LINE
  8
0
 10
51.248
 20
23.9527
 11
50.8757
 21
23.8937
  0
LINE
  8
0
 10
50.8757
 20
23.8937
 11
50.5079
 21
23.8115
  0
LINE
  8
0
 10
50.5079
 20
23.8115
 11
50.1459
 21
23.7063
  0
LINE
  8
0
 10
50.1459
 20
23.7063
 11
49.7913
 21
23.5787
  0
LINE
  8
0
 10
49.7913
 20
23.5787
 11
49.4453
 21
23.429
  0
LINE
  8
0
 10
49.4453
 20
23.429
 11
49.1095
 21
23.2578
  0
LINE
  8
0
 10
49.1095
 20
23.2578
 11
48.785
 21
23.066
  0
LINE
  8
0
 10
48.785
 20
23.066
 11
48.4733
 21
22.8541
  0
LINE
  8
0
 10
48.4733
 20
22.8541
 11
48.1755
 21
22.6231
  0
LINE
  8
0
 10
48.1755
 20
22.6231
 11
47.8927
 21
22.3738
  0
LINE
  8
0
 10
47.8927
 20
22.3738
 11
47.6262
 21
22.1073
  0
LINE
  8
0
 10
47.6262
 20
22.1073
 11
47.3769
 21
21.8245
  0
LINE
  8
0
 10
47.3769
 20
21.8245
 11
47.1459
 21
21.5267
  0
LINE
  8
0
 10
47.1459
 20
21.5267
 11
46.934
 21
21.215
  0
LINE
  8
0
 10
46.934
 20
21.215
 11
46.7422
 21
20.8905
  0
LINE
  8
0
 10
46.7422
 20
20.8905
 11
46.571
 21
20.5547
  0
LINE
  8
0
 10
46.571
 20
20.5547
 11
46.4213
 21
20.2087
  0
LINE
  8
0
 10
46.4213
 20
20.2087
 11
46.2937
 21
19.8541
  0
LINE
  8
0
 10
46.2937
 20
19.8541
 11
46.1908
 21
19.5
  0
LINE
  8
0
 10
46.1908
 20
19.5
 11
45.8092
 21
19.5
  0
LINE
  8
0
 10
45.8092
 20
19.5
 11
45.7063
 21
19.8541
  0
LINE
  8
0
 10
45.7063
 20
19.8541
 11
45.5787
 21
20.2087
  0
LINE
  8
0
 10
45.5787
 20
20.2087
 11
45.429
 21
20.5547
  0
LINE
  8
0
 10
45.429
 20
20.5547
 11
45.2578
 21
20.8905
  0
LINE
  8
0
 10
45.2578
 20
20.8905
 11
45.066
 21
21.215
  0
LINE
  8
0
 10
45.066
 20
21.215
 11
44.8541
 21
21.5267
  0
LINE
  8
0
 10
44.8541
 20
21.5267
 11
44.6231
 21
21.8245
  0
LINE
  8
0
 10
44.6231
 20
21.8245
 11
44.3738
 21
22.1073
  0
LINE
  8
0
 10
44.3738
 20
22.1073
 11
44.1073
 21
22.3738
  0
LINE
  8
0
 10
44.1073
 20
22.3738
 11
43.8245
 21
22.6231
  0
LINE
  8
0
 10
43.8245
 20
22.6231
 11
43.5267
 21
22.8541
  0
LINE
  8
0
 10
43.5267
 20
22.8541
 11
43.215
 21
23.066
  0
LINE
  8
0
 10
43.215
 20
23.066
 11
42.8905
 21
23.2578
  0
LINE
  8
0
 10
42.8905
 20
23.2578
 11
42.5547
 21
23.429
  0
LINE
  8
0
 10
42.5547
 20
23.429
 11
42.2087
 21
23.5787
  0
LINE
  8
0
 10
42.2087
 20
23.5787
 11
41.8541
 21
23.7063
  0
LINE
  8
0
 10
41.8541
 20
23.7063
 11
41.4921
 21
23.8115
  0
LINE
  8
0
 10
41.4921
 20
23.8115
 11
41.1243
 21
23.8937
  0
LINE
  8
0
 10
41.1243
 20
23.8937
 11
40.752
 21
23.9527
  0
LINE
  8
0
 10
40.752
 20
23.9527
 11
40.3767
 21
23.9882
  0
LINE
  8
0
 10
40.3767
 20
23.9882
 11
40
 21
24
  0
LINE
  8
0
 10
40
 20
24
 11
39.6233
 21
23.9882
  0
LINE
  8
0
 10
39.6233
 20
23.9882
 11
39.248
 21
23.9527
  0
LINE
  8
0
 10
39.248
 20
23.9527
 11
38.8757
 21
23.8937
  0
LINE
  8
0
 10
38.8757
 20
23.8937
 11
38.5079
 21
23.8115
  0
LINE
  8
0
 10
38.5079
 20
23.8115
 11
38.1459
 21
23.7063
  0
LINE
  8
0
 10
38.1459
 20
23.7063
 11
37.7913
 21
23.5787
  0
LINE
  8
0
 10
37.7913
 20
23.5787
 11
37.4453
 21
23.429
  0
LINE
  8
0
 10
37.4453
 20
23.429
 11
37.1095
 21
23.2578
  0
LINE
  8
0
 10
37.1095
 20
23.2578
 11
36.785
 21
23.066
  0
LINE
  8
0
 10
36.785
 20
23.066
 11
36.4733
 21
22.8541
  0
LINE
  8
0
 10
36.4733
 20
22.8541
 11
36.1755
 21
22.6231
  0
LINE
  8
0
 10
36.1755
 20
22.6231
 11
35.8927
 21
22.3738
  0
LINE
  8
0
 10
35.8927
 20
22.3738
 11
35.6262
 21
22.1073
  0
LINE
  8
0
 10
35.6262
 20
22.1073
 11
35.3769
 21
21.8245
  0
LINE
  8
0
 10
35.3769
 20
21.8245
 11
35.1459
 21
21.5267
  0
LINE
  8
0
 10
35.1459
 20
21.5267
 11
34.934
 21
21.215
  0
LINE
  8
0
 10
34.934
 20
21.215
 11
34.7422
 21
20.8905
  0
LINE
  8
0
 10
34.7422
 20
20.8905
 11
34.571
 21
20.5547
  0
LINE
  8
0
 10
34.571
 20
20.5547
 11
34.4213
 21
20.2087
  0
LINE
  8
0
 10
34.4213
 20
20.2087
 11
34.2937
 21
19.8541
  0
LINE
  8
0
 10
34.2937
 20
19.8541
 11
34.1908
 21
19.5
  0
LINE
  8
0
 10
34.1908
 20
19.5
 11
33.8092
 21
19.5
  0
LINE
  8
0
 10
33.8092
 20
19.5
 11
33.7063
 21
19.8541
  0
LINE
  8
0
 10
33.7063
 20
19.8541
 11
33.5787
 21
20.2087
  0
LINE
  8
0
 10
33.5787
 20
20.2087
 11
33.429
 21
20.5547
  0
LINE
  8
0
 10
33.429
 20
20.5547
 11
33.2578
 21
20.8905
  0
LINE
  8
0
 10
33.2578
 20
20.8905
 11
33.066
 21
21.215
  0
LINE
  8
0
 10
33.066
 20
21.215
 11
32.8541
 21
21.5267
  0
LINE
  8
0
 10
32.8541
 20
21.5267
 11
32.6231
 21
21.8245
  0
LINE
  8
0
 10
32.6231
 20
21.8245
 11
32.3738
 21
22.1073
  0
LINE
  8
0
 10
32.3738
 20
22.1073
 11
32.1073
 21
22.3738
  0
LINE
  8
0
 10
32.1073
 20
22.3738
 11
31.8245
 21
22.6231
  0
LINE
  8
0
 10
31.8245
 20
22.6231
 11
31.5267
 21
22.8541
  0
LINE
  8
0
 10
31.5267
 20
22.8541
 11
31.215
 21
23.066
  0
LINE
  8
0
 10
31.215
 20
23.066
 11
30.8905
 21
23.2578
  0
LINE
  8
0
 10
30.8905
 20
23.2578
 11
30.5547
 21
23.429
  0
LINE
  8
0
 10
30.5547
 20
23.429
 11
30.2087
 21
23.5787
  0
LINE
  8
0
 10
30.2087
 20
23.5787
 11
29.8541
 21
23.7063
  0
LINE
  8
0
 10
29.8541
 20
23.7063
 11
29.4921
 21
23.8115
  0
LINE
  8
0
 10
29.4921
 20
23.8115
 11
29.1243
 21
23.8937
  0
LINE
  8
0
 10
29.1243
 20
23.8937
 11
28.752
 21
23.9527
  0
LINE
  8
0
 10
28.752
 20
23.9527
 11
28.3767
 21
23.9882
  0
LINE
  8
0
 10
28.3767
 20
23.9882
 11
28
 21
24
  0
LINE
  8
0
 10
28
 20
24
 11
27.6233
 21
23.9882
  0
LINE
  8
0
 10
27.6233
 20
23.9882
 11
27.248
 21
23.9527
  0
LINE
  8
0
 10
27.248
 20
23.9527
 11
26.8757
 21
23.8937
  0
LINE
  8
0
 10
26.8757
 20
23.8937
 11
26.5079
 21
23.8115
  0
LINE
  8
0
 10
26.5079
 20
23.8115
 11
26.1459
 21
23.7063
  0
LINE
  8
0
 10
26.1459
 20
23.7063
 11
25.7913
 21
23.5787
  0
LINE
  8
0
 10
25.7913
 20
23.5787
 11
25.4453
 21
23.429
  0
LINE
  8
0
 10
25.4453
 20
23.429
 11
25.1095
 21
23.2578
  0
LINE
  8
0
 10
25.1095
 20
23.2578
 11
24.785
 21
23.066
  0
LINE
  8
0
 10
24.785
 20
23.066
 11
24.4733
 21
22.8541
  0
LINE
  8
0
 10
24.4733
 20
22.8541
 11
24.1755
 21
22.6231
  0
LINE
  8
0
 10
24.1755
 20
22.6231
 11
23.8927
 21
22.3738
  0
LINE
  8
0
 10
23.8927
 20
22.3738
 11
23.6262
 21
22.1073
  0
LINE
  8
0
 10
23.6262
 20
22.1073
 11
23.3769
 21
21.8245
  0
LINE
  8
0
 10
23.3769
 20
21.8245
 11
23.1459
 21
21.5267
  0
LINE
  8
0
 10
23.1459
 20
21.5267
 11
22.934
 21
21.215
  0
LINE
  8
0
 10
22.934
 20
21.215
 11
22.7422
 21
20.8905
  0
LINE
  8
0
 10
22.7422
 20
20.8905
 11
22.571
 21
20.5547
  0
LINE
  8
0
 10
22.571
 20
20.5547
 11
22.4213
 21
20.2087
  0
LINE
  8
0
 10
22.4213
 20
20.2087
 11
22.2937
 21
19.8541
  0
LINE
  8
0
 10
22.2937
 20
19.8541
 11
22.1908
 21
19.5
  0
LINE
  8
0
 10
22.1908
 20
19.5
 11
21.8092
 21
19.5
  0
LINE
  8
0
 10
21.8092
 20
19.5
 11
21.7063
 21
19.8541
  0
LINE
  8
0
 10
21.7063
 20
19.8541
 11
21.5787
 21
20.2087
  0
LINE
  8
0
 10
21.5787
 20
20.2087
 11
21.429
 21
20.5547
  0
LINE
  8
0
 10
21.429
 20
20.5547
 11
21.2578
 21
20.8905
  0
LINE
  8
0
 10
21.2578
 20
20.8905
 11
21.066
 21
21.215
  0
LINE
  8
0
 10
21.066
 20
21.215
 11
20.8541
 21
21.5267
  0
LINE
  8
0
 10
20.8541
 20
21.5267
 11
20.6231
 21
21.8245
  0
LINE
  8
0
 10
20.6231
 20
21.8245
 11
20.3738
 21
22.1073
  0
LINE
  8
0
 10
20.3738
 20
22.1073
 11
20.1073
 21
22.3738
  0
LINE
  8
0
 10
20.1073
 20
22.3738
 11
19.8245
 21
22.6231
  0
LINE
  8
0
 10
19.8245
 20
22.6231
 11
19.5267
 21
22.8541
  0
LINE
  8
0
 10
19.5267
 20
22.8541
 11
19.215
 21
23.066
  0
LINE
  8
0
 10
19.215
 20
23.066
 11
18.8905
 21
23.2578
  0
LINE
  8
0
 10
18.8905
 20
23.2578
 11
18.5547
 21
23.429
  0
LINE
  8
0
 10
18.5547
 20
23.429
 11
18.2087
 21
23.5787
  0
LINE
  8
0
 10
18.2087
 20
23.5787
 11
17.8541
 21
23.7063
  0
LINE
  8
0
 10
17.8541
 20
23.7063
 11
17.4921
 21
23.8115
  0
LINE
  8
0
 10
17.4921
 20
23.8115
 11
17.1243
 21
23.8937
  0
LINE
  8
0
 10
17.1243
 20
23.8937
 11
16.752
 21
23.9527
  0
LINE
  8
0
 10
16.752
 20
23.9527
 11
16.3767
 21
23.9882
  0
LINE
  8
0
 10
16.3767
 20
23.9882
 11
16
 21
24
  0
LINE
  8
0
 10
16
 20
24
 11
15.6233
 21
23.9882
  0
LINE
  8
0
 10
15.6233
 20
23.9882
 11
15.248
 21
23.9527
  0
LINE
  8
0
 10
15.248
 20
23.9527
 11
14.8757
 21
23.8937
  0
LINE
  8
0
 10
14.8757
 20
23.8937
 11
14.5079
 21
23.8115
  0
LINE
  8
0
 10
14.5079
 20
23.8115
 11
14.1459
 21
23.7063
  0
LINE
  8
0
 10
14.1459
 20
23.7063
 11
13.7913
 21
23.5787
  0
LINE
  8
0
 10
13.7913
 20
23.5787
 11
13.4453
 21
23.429
  0
LINE
  8
0
 10
13.4453
 20
23.429
 11
13.1095
 21
23.2578
  0
LINE
  8
0
 10
13.1095
 20
23.2578
 11
12.785
 21
23.066
  0
LINE
  8
0
 10
12.785
 20
23.066
 11
12.4733
 21
22.8541
  0
LINE
  8
0
 10
12.4733
 20
22.8541
 11
12.1755
 21
22.6231
  0
LINE
  8
0
 10
12.1755
 20
22.6231
 11
11.8927
 21
22.3738
  0
LINE
  8
0
 10
11.8927
 20
22.3738
 11
11.6262
 21
22.1073
  0
LINE
  8
0
 10
11.6262
 20
22.1073
 11
11.3769
 21
21.8245
  0
LINE
  8
0
 10
11.3769
 20
21.8245
 11
11.1459
 21
21.5267
  0
LINE
  8
0
 10
11.1459
 20
21.5267
 11
10.934
 21
21.215
  0
LINE
  8
0
 10
10.934
 20
21.215
 11
10.7422
 21
20.8905
  0
LINE
  8
0
 10
10.7422
 20
20.8905
 11
10.571
 21
20.5547
  0
LINE
  8
0
 10
10.571
 20
20.5547
 11
10.4499
 21
20.2747
  0
LINE
  8
0
 10
10.4499
 20
20.2747
 11
10.3815
 21
20.4088
  0
LINE
  8
0
 10
10.3815
 20
20.4088
 11
10.2216
 21
20.6791
  0
LINE
  8
0
 10
10.2216
 20
20.6791
 11
10.0451
 21
20.9389
  0
LINE
  8
0
 10
10.0451
 20
20.9389
 11
9.85257
 21
21.1871
  0
LINE
  8
0
 10
9.85257
 20
21.1871
 11
9.64484
 21
21.4227
  0
LINE
  8
0
 10
9.64484
 20
21.4227
 11
9.42274
 21
21.6448
  0
LINE
  8
0
 10
9.42274
 20
21.6448
 11
9.18712
 21
21.8526
  0
LINE
  8
0
 10
9.18712
 20
21.8526
 11
8.93893
 21
22.0451
  0
LINE
  8
0
 10
8.93893
 20
22.0451
 11
8.67913
 21
22.2216
  0
LINE
  8
0
 10
8.67913
 20
22.2216
 11
8.40877
 21
22.3815
  0
LINE
  8
0
 10
8.40877
 20
22.3815
 11
8.1289
 21
22.5241
  0
LINE
  8
0
 10
8.1289
 20
22.5241
 11
7.84062
 21
22.6489
  0
LINE
  8
0
 10
7.84062
 20
22.6489
 11
7.54508
 21
22.7553
  0
LINE
  8
0
 10
7.54508
 20
22.7553
 11
7.24345
 21
22.8429
  0
LINE
  8
0
 10
7.24345
 20
22.8429
 11
6.93691
 21
22.9114
  0
LINE
  8
0
 10
6.93691
 20
22.9114
 11
6.62667
 21
22.9606
  0
LINE
  8
0
 10
6.62667
 20
22.9606
 11
6.31395
 21
22.9901
  0
LINE
  8
0
 10
6.31395
 20
22.9901
 11
6
 21
23
  0
LINE
  8
0
 10
6
 20
23
 11
5.68605
 21
22.9901
  0
LINE
  8
0
 10
5.68605
 20
22.9901
 11
5.37333
 21
22.9606
  0
LINE
  8
0
 10
5.37333
 20
22.9606
 11
5.06309
 21
22.9114
  0
LINE
  8
0
 10
5.06309
 20
22.9114
 11
4.75655
 21
22.8429
  0
LINE
  8
0
 10
4.75655
 20
22.8429
 11
4.45492
 21
22.7553
  0
LINE
  8
0
 10
4.45492
 20
22.7553
 11
4.15938
 21
22.6489
  0
LINE
  8
0
 10
4.15938
 20
22.6489
 11
3.8711
 21
22.5241
  0
LINE
  8
0
 10
3.8711
 20
22.5241
 11
3.59123
 21
22.3815
  0
LINE
  8
0
 10
3.59123
 20
22.3815
 11
3.32087
 21
22.2216
  0
LINE
  8
0
 10
3.32087
 20
22.2216
 11
3.06107
 21
22.0451
  0
LINE
  8
0
 10
3.06107
 20
22.0451
 11
2.81288
 21
21.8526
  0
LINE
  8
0
 10
2.81288
 20
21.8526
 11
2.57726
 21
21.6448
  0
LINE
  8
0
 10
2.57726
 20
21.6448
 11
2.35516
 21
21.4227
  0
LINE
  8
0
 10
2.35516
 20
21.4227
 11
2.14743
 21
21.1871
  0
LINE
  8
0
 10
2.14743
 20
21.1871
 11
1.95492
 21
20.9389
  0
LINE
  8
0
 10
1.95492
 20
20.9389
 11
1.77836
 21
20.6791
  0
LINE
  8
0
 10
1.77836
 20
20.6791
 11
1.61847
 21
20.4088
  0
LINE
  8
0
 10
1.61847
 20
20.4088
 11
1.47587
 21
20.1289
  0
LINE
  8
0
 10
1.47587
 20
20.1289
 11
1.35112
 21
19.8406
  0
LINE
  8
0
 10
1.35112
 20
19.8406
 11
1.24472
 21
19.5451
  0
LINE
  8
0
 10
1.24472
 20
19.5451
 11
1.15708
 21
19.2434
  0
LINE
  8
0
 10
1.15708
 20
19.2434
 11
1.08856
 21
18.9369
  0
LINE
  8
0
 10
1.08856
 20
18.9369
 11
1.03943
 21
18.6267
  0
LINE
  8
0
 10
1.03943
 20
18.6267
 11
1.00987
 21
18.314
  0
LINE
  8
0
 10
1.00987
 20
18.314
 11
1
 21
18
  0
LINE
  8
0
 10
4.26897
 20
17
 11
7
 21
17
  0
LINE
  8
0
 10
7
 20
17
 11
7
 21
19
  0
LINE
  8
0
 10
7
 20
19
 11
4.26897
 21
19
  0
LINE
  8
0
 10
4.26897
 20
19
 11
4.31135
 21
19.0717
  0
LINE
  8
0
 10
4.31135
 20
19.0717
 11
4.38197
 21
19.1756
  0
LINE
  8
0
 10
4.38197
 20
19.1756
 11
4.45897
 21
19.2748
  0
LINE
  8
0
 10
4.45897
 20
19.2748
 11
4.54206
 21
19.3691
  0
LINE
  8
0
 10
4.54206
 20
19.3691
 11
4.63091
 21
19.4579
  0
LINE
  8
0
 10
4.63091
 20
19.4579
 11
4.72515
 21
19.541
  0
LINE
  8
0
 10
4.72515
 20
19.541
 11
4.82443
 21
19.618
  0
LINE
  8
0
 10
4.82443
 20
19.618
 11
4.92835
 21
19.6887
  0
LINE
  8
0
 10
4.92835
 20
19.6887
 11
5.03649
 21
19.7526
  0
LINE
  8
0
 10
5.03649
 20
19.7526
 11
5.14844
 21
19.8097
  0
LINE
  8
0
 10
5.14844
 20
19.8097
 11
5.26375
 21
19.8596
  0
LINE
  8
0
 10
5.26375
 20
19.8596
 11
5.38197
 21
19.9021
  0
LINE
  8
0
 10
5.38197
 20
19.9021
 11
5.50262
 21
19.9372
  0
LINE
  8
0
 10
5.50262
 20
19.9372
 11
5.62524
 21
19.9646
  0
LINE
  8
0
 10
5.62524
 20
19.9646
 11
5.74933
 21
19.9842
  0
LINE
  8
0
 10
5.74933
 20
19.9842
 11
5.87442
 21
19.9961
  0
LINE
  8
0
 10
5.87442
 20
19.9961
 11
6
 21
20
  0
LINE
  8
0
 10
6
 20
20
 11
6.12558
 21
19.9961
  0
LINE
  8
0
 10
6.12558
 20
19.9961
 11
6.25067
 21
19.9842
  0
LINE
  8
0
 10
6.25067
 20
19.9842
 11
6.37476
 21
19.9646
  0
LINE
  8
0
 10
6.37476
 20
19.9646
 11
6.49738
 21
19.9372
  0
LINE
  8
0
 10
6.49738
 20
19.9372
 11
6.61803
 21
19.9021
  0
LINE
  8
0
 10
6.61803
 20
19.9021
 11
6.73625
 21
19.8596
  0
LINE
  8
0
 10
6.73625
 20
19.8596
 11
6.85156
 21
19.8097
  0
LINE
  8
0
 10
6.85156
 20
19.8097
 11
6.96351
 21
19.7526
  0
LINE
  8
0
 10
6.96351
 20
19.7526
 11
7.07165
 21
19.6887
  0
LINE
  8
0
 10
7.07165
 20
19.6887
 11
7.17557
 21
19.618
  0
LINE
  8
0
 10
7.17557
 20
19.618
 11
7.27485
 21
19.541
  0
LINE
  8
0
 10
7.27485
 20
19.541
 11
7.36909
 21
19.4579
  0
LINE
  8
0
 10
7.36909
 20
19.4579
 11
7.45794
 21
19.3691
  0
LINE
  8
0
 10
7.45794
 20
19.3691
 11
7.54103
 21
19.2748
  0
LINE
  8
0
 10
7.54103
 20
19.2748
 11
7.61803
 21
19.1756
  0
LINE
  8
0
 10
7.61803
 20
19.1756
 11
7.68865
 21
19.0717
  0
LINE
  8
0
 10
7.68865
 20
19.0717
 11
7.75261
 21
18.9635
  0
LINE
  8
0
 10
7.75261
 20
18.9635
 11
7.80965
 21
18.8516
  0
LINE
  8
0
 10
7.80965
 20
18.8516
 11
7.85955
 21
18.7362
  0
LINE
  8
0
 10
7.85955
 20
18.7362
 11
7.90211
 21
18.618
  0
LINE
  8
0
 10
7.90211
 20
18.618
 11
7.93717
 21
18.4974
  0
LINE
  8
0
 10
7.93717
 20
18.4974
 11
7.96457
 21
18.3748
  0
LINE
  8
0
 10
7.96457
 20
18.3748
 11
7.98423
 21
18.2507
  0
LINE
  8
0
 10
7.98423
 20
18.2507
 11
7.99605
 21
18.1256
  0
LINE
  8
0
 10
7.99605
 20
18.1256
 11
8
 21
18
  0
LINE
  8
0
 10
8
 20
18
 11
7.99605
 21
17.8744
  0
LINE
  8
0
 10
7.99605
 20
17.8744
 11
7.98423
 21
17.7493
  0
LINE
  8
0
 10
7.98423
 20
17.7493
 11
7.96457
 21
17.6252
  0
LINE
  8
0
 10
7.96457
 20
17.6252
 11
7.93717
 21
17.5026
  0
LINE
  8
0
 10
7.93717
 20
17.5026
 11
7.90211
 21
17.382
  0
LINE
  8
0
 10
7.90211
 20
17.382
 11
7.85955
 21
17.2638
  0
LINE
  8
0
 10
7.85955
 20
17.2638
 11
7.80965
 21
17.1484
  0
LINE
  8
0
 10
7.80965
 20
17.1484
 11
7.75261
 21
17.0365
  0
LINE
  8
0
 10
7.75261
 20
17.0365
 11
7.68865
 21
16.9283
  0
LINE
  8
0
 10
7.68865
 20
16.9283
 11
7.61803
 21
16.8244
  0
LINE
  8
0
 10
7.61803
 20
16.8244
 11
7.54103
 21
16.7252
  0
LINE
  8
0
 10
7.54103
 20
16.7252
 11
7.45794
 21
16.6309
  0
LINE
  8
0
 10
7.45794
 20
16.6309
 11
7.36909
 21
16.5421
  0
LINE
  8
0
 10
7.36909
 20
16.5421
 11
7.27485
 21
16.459
  0
LINE
  8
0
 10
7.27485
 20
16.459
 11
7.17557
 21
16.382
  0
LINE
  8
0
 10
7.17557
 20
16.382
 11
7.07165
 21
16.3113
  0
LINE
  8
0
 10
7.07165
 20
16.3113
 11
6.96351
 21
16.2474
  0
LINE
  8
0
 10
6.96351
 20
16.2474
 11
6.85156
 21
16.1903
  0
LINE
  8
0
 10
6.85156
 20
16.1903
 11
6.73625
 21
16.1404
  0
LINE
  8
0
 10
6.73625
 20
16.1404
 11
6.61803
 21
16.0979
  0
LINE
  8
0
 10
6.61803
 20
16.0979
 11
6.49738
 21
16.0628
  0
LINE
  8
0
 10
6.49738
 20
16.0628
 11
6.37476
 21
16.0354
  0
LINE
  8
0
 10
6.37476
 20
16.0354
 11
6.25067
 21
16.0158
  0
LINE
  8
0
 10
6.25067
 20
16.0158
 11
6.12558
 21
16.0039
  0
LINE
  8
0
 10
6.12558
 20
16.0039
 11
6
 21
16
  0
LINE
  8
0
 10
6
 20
16
 11
5.87442
 21
16.0039
  0
LINE
  8
0
 10
5.87442
 20
16.0039
 11
5.74933
 21
16.0158
  0
LINE
  8
0
 10
5.74933
 20
16.0158
 11
5.62524
 21
16.0354
  0
LINE
  8
0
 10
5.62524
 20
16.0354
 11
5.50262
 21
16.0628
  0
LINE
  8
0
 10
5.50262
 20
16.0628
 11
5.38197
 21
16.0979
  0
LINE
  8
0
 10
5.38197
 20
16.0979
 11
5.26375
 21
16.1404
  0
LINE
  8
0
 10
5.26375
 20
16.1404
 11
5.14844
 21
16.1903
  0
LINE
  8
0
 10
5.14844
 20
16.1903
 11
5.03649
 21
16.2474
  0
LINE
  8
0
 10
5.03649
 20
16.2474
 11
4.92835
 21
16.3113
  0
LINE
  8
0
 10
4.92835
 20
16.3113
 11
4.82443
 21
16.382
  0
LINE
  8
0
 10
4.82443
 20
16.382
 11
4.72515
 21
16.459
  0
LINE
  8
0
 10
4.72515
 20
16.459
 11
4.63091
 21
16.5421
  0
LINE
  8
0
 10
4.63091
 20
16.5421
 11
4.54206
 21
16.6309
  0
LINE
  8
0
 10
4.54206
 20
16.6309
 11
4.45897
 21
16.7252
  0
LINE
  8
0
 10
4.45897
 20
16.7252
 11
4.38197
 21
16.8244
  0
LINE
  8
0
 10
4.38197
 20
16.8244
 11
4.31135
 21
16.9283
  0
LINE
  8
0
 10
4.31135
 20
16.9283
 11
4.26897
 21
17
  0
LINE
  8
0
 10
10.269
 20
5
 11
13
 21
5
  0
LINE
  8
0
 10
13
 20
5
 11
13
 21
7
  0
LINE
  8
0
 10
13
 20
7
 11
10.269
 21
7
  0
LINE
  8
0
 10
10.269
 20
7
 11
10.3113
 21
7.07165
  0
LINE
  8
0
 10
10.3113
 20
7.07165
 11
10.382
 21
7.17557
  0
LINE
  8
0
 10
10.382
 20
7.17557
 11
10.459
 21
7.27485
  0
LINE
  8
0
 10
10.459
 20
7.27485
 11
10.5421
 21
7.36909
  0
LINE
  8
0
 10
10.5421
 20
7.36909
 11
10.6309
 21
7.45794
  0
LINE
  8
0
 10
10.6309
 20
7.45794
 11
10.7252
 21
7.54103
  0
LINE
  8
0
 10
10.7252
 20
7.54103
 11
10.8244
 21
7.61803
  0
LINE
  8
0
 10
10.8244
 20
7.61803
 11
10.9283
 21
7.68865
  0
LINE
  8
0
 10
10.9283
 20
7.68865
 11
11.0365
 21
7.75261
  0
LINE
  8
0
 10
11.0365
 20
7.75261
 11
11.1484
 21
7.80965
  0
LINE
  8
0
 10
11.1484
 20
7.80965
 11
11.2638
 21
7.85955
  0
LINE
  8
0
 10
11.2638
 20
7.85955
 11
11.382
 21
7.90211
  0
LINE
  8
0
 10
11.382
 20
7.90211
 11
11.5026
 21
7.93717
  0
LINE
  8
0
 10
11.5026
 20
7.93717
 11
11.6252
 21
7.96457
  0
LINE
  8
0
 10
11.6252
 20
7.96457
 11
11.7493
 21
7.98423
  0
LINE
  8
0
 10
11.7493
 20
7.98423
 11
11.8744
 21
7.99605
  0
LINE
  8
0
 10
11.8744
 20
7.99605
 11
12
 21
8
  0
LINE
  8
0
 10
12
 20
8
 11
12.1256
 21
7.99605
  0
LINE
  8
0
 10
12.1256
 20
7.99605
 11
12.2507
 21
7.98423
  0
LINE
  8
0
 10
12.2507
 20
7.98423
 11
12.3748
 21
7.96457
  0
LINE
  8
0
 10
12.3748
 20
7.96457
 11
12.4974
 21
7.93717
  0
LINE
  8
0
 10
12.4974
 20
7.93717
 11
12.618
 21
7.90211
  0
LINE
  8
0
 10
12.618
 20
7.90211
 11
12.7362
 21
7.85955
  0
LINE
  8
0
 10
12.7362
 20
7.85955
 11
12.8516
 21
7.80965
  0
LINE
  8
0
 10
12.8516
 20
7.80965
 11
12.9635
 21
7.75261
  0
LINE
  8
0
 10
12.9635
 20
7.75261
 11
13.0717
 21
7.68865
  0
LINE
  8
0
 10
13.0717
 20
7.68865
 11
13.1756
 21
7.61803
  0
LINE
  8
0
 10
13.1756
 20
7.61803
 11
13.2748
 21
7.54103
  0
LINE
  8
0
 10
13.2748
 20
7.54103
 11
13.3691
 21
7.45794
  0
LINE
  8
0
 10
13.3691
 20
7.45794
 11
13.4579
 21
7.36909
  0
LINE
  8
0
 10
13.4579
 20
7.36909
 11
13.541
 21
7.27485
  0
LINE
  8
0
 10
13.541
 20
7.27485
 11
13.618
 21
7.17557
  0
LINE
  8
0
 10
13.618
 20
7.17557
 11
13.6887
 21
7.07165
  0
LINE
  8
0
 10
13.6887
 20
7.07165
 11
13.7526
 21
6.96351
  0
LINE
  8
0
 10
13.7526
 20
6.96351
 11
13.8097
 21
6.85156
  0
LINE
  8
0
 10
13.8097
 20
6.85156
 11
13.8596
 21
6.73625
  0
LINE
  8
0
 10
13.8596
 20
6.73625
 11
13.9021
 21
6.61803
  0
LINE
  8
0
 10
13.9021
 20
6.61803
 11
13.9372
 21
6.49738
  0
LINE
  8
0
 10
13.9372
 20
6.49738
 11
13.9646
 21
6.37476
  0
LINE
  8
0
 10
13.9646
 20
6.37476
 11
13.9842
 21
6.25067
  0
LINE
  8
0
 10
13.9842
 20
6.25067
 11
13.9961
 21
6.12558
  0
LINE
  8
0
 10
13.9961
 20
6.12558
 11
14
 21
6
  0
LINE
  8
0
 10
14
 20
6
 11
13.9961
 21
5.87442
  0
LINE
  8
0
 10
13.9961
 20
5.87442
 11
13.9842
 21
5.74933
  0
LINE
  8
0
 10
13.9842
 20
5.74933
 11
13.9646
 21
5.62524
  0
LINE
  8
0
 10
13.9646
 20
5.62524
 11
13.9372
 21
5.50262
  0
LINE
  8
0
 10
13.9372
 20
5.50262
 11
13.9021
 21
5.38197
  0
LINE
  8
0
 10
13.9021
 20
5.38197
 11
13.8596
 21
5.26375
  0
LINE
  8
0
 10
13.8596
 20
5.26375
 11
13.8097
 21
5.14844
  0
LINE
  8
0
 10
13.8097
 20
5.14844
 11
13.7526
 21
5.03649
  0
LINE
  8
0
 10
13.7526
 20
5.03649
 11
13.6887
 21
4.92835
  0
LINE
  8
0
 10
13.6887
 20
4.92835
 11
13.618
 21
4.82443
  0
LINE
  8
0
 10
13.618
 20
4.82443
 11
13.541
 21
4.72515
  0
LINE
  8
0
 10
13.541
 20
4.72515
 11
13.4579
 21
4.63091
  0
LINE
  8
0
 10
13.4579
 20
4.63091
 11
13.3691
 21
4.54206
  0
LINE
  8
0
 10
13.3691
 20
4.54206
 11
13.2748
 21
4.45897
  0
LINE
  8
0
 10
13.2748
 20
4.45897
 11
13.1756
 21
4.38197
  0
LINE
  8
0
 10
13.1756
 20
4.38197
 11
13.0717
 21
4.31135
  0
LINE
  8
0
 10
13.0717
 20
4.31135
 11
12.9635
 21
4.24739
  0
LINE
  8
0
 10
12.9635
 20
4.24739
 11
12.8516
 21
4.19035
  0
LINE
  8
0
 10
12.8516
 20
4.19035
 11
12.7362
 21
4.14045
  0
LINE
  8
0
 10
12.7362
 20
4.14045
 11
12.618
 21
4.09789
  0
LINE
  8
0
 10
12.618
 20
4.09789
 11
12.4974
 21
4.06283
  0
LINE
  8
0
 10
12.4974
 20
4.06283
 11
12.3748
 21
4.03543
  0
LINE
  8
0
 10
12.3748
 20
4.03543
 11
12.2507
 21
4.01577
  0
LINE
  8
0
 10
12.2507
 20
4.01577
 11
12.1256
 21
4.00395
  0
LINE
  8
0
 10
12.1256
 20
4.00395
 11
12
 21
4
  0
LINE
  8
0
 10
12
 20
4
 11
11.8744
 21
4.00395
  0
LINE
  8
0
 10
11.8744
 20
4.00395
 11
11.7493
 21
4.01577
  0
LINE
  8
0
 10
11.7493
 20
4.01577
 11
11.6252
 21
4.03543
  0
LINE
  8
0
 10
11.6252
 20
4.03543
 11
11.5026
 21
4.06283
  0
LINE
  8
0
 10
11.5026
 20
4.06283
 11
11.382
 21
4.09789
  0
LINE
  8
0
 10
11.382
 20
4.09789
 11
11.2638
 21
4.14045
  0
LINE
  8
0
 10
11.2638
 20
4.14045
 11
11.1484
 21
4.19035
  0
LINE
  8
0
 10
11.1484
 20
4.19035
 11
11.0365
 21
4.24739
  0
LINE
  8
0
 10
11.0365
 20
4.24739
 11
10.9283
 21
4.31135
  0
LINE
  8
0
 10
10.9283
 20
4.31135
 11
10.8244
 21
4.38197
  0
LINE
  8
0
 10
10.8244
 20
4.38197
 11
10.7252
 21
4.45897
  0
LINE
  8
0
 10
10.7252
 20
4.45897
 11
10.6309
 21
4.54206
  0
LINE
  8
0
 10
10.6309
 20
4.54206
 11
10.5421
 21
4.63091
  0
LINE
  8
0
 10
10.5421
 20
4.63091
 11
10.459
 21
4.72515
  0
LINE
  8
0
 10
10.459
 20
4.72515
 11
10.382
 21
4.82443
  0
LINE
  8
0
 10
10.382
 20
4.82443
 11
10.3113
 21
4.92835
  0
LINE
  8
0
 10
10.3113
 20
4.92835
 11
10.269
 21
5
  0
LINE
  8
0
 10
13
 20
18
 11
13.0059
 21
18.1884
  0
LINE
  8
0
 10
13.0059
 20
18.1884
 11
13.0237
 21
18.376
  0
LINE
  8
0
 10
13.0237
 20
18.376
 11
13.0531
 21
18.5621
  0
LINE
  8
0
 10
13.0531
 20
18.5621
 11
13.0943
 21
18.7461
  0
LINE
  8
0
 10
13.0943
 20
18.7461
 11
13.1468
 21
18.9271
  0
LINE
  8
0
 10
13.1468
 20
18.9271
 11
13.2107
 21
19.1044
  0
LINE
  8
0
 10
13.2107
 20
19.1044
 11
13.2855
 21
19.2773
  0
LINE
  8
0
 10
13.2855
 20
19.2773
 11
13.3711
 21
19.4453
  0
LINE
  8
0
 10
13.3711
 20
19.4453
 11
13.467
 21
19.6075
  0
LINE
  8
0
 10
13.467
 20
19.6075
 11
13.5729
 21
19.7634
  0
LINE
  8
0
 10
13.5729
 20
19.7634
 11
13.6885
 21
19.9123
  0
LINE
  8
0
 10
13.6885
 20
19.9123
 11
13.8131
 21
20.0536
  0
LINE
  8
0
 10
13.8131
 20
20.0536
 11
13.9464
 21
20.1869
  0
LINE
  8
0
 10
13.9464
 20
20.1869
 11
14.0877
 21
20.3115
  0
LINE
  8
0
 10
14.0877
 20
20.3115
 11
14.2366
 21
20.4271
  0
LINE
  8
0
 10
14.2366
 20
20.4271
 11
14.3925
 21
20.533
  0
LINE
  8
0
 10
14.3925
 20
20.533
 11
14.5547
 21
20.6289
  0
LINE
  8
0
 10
14.5547
 20
20.6289
 11
14.7227
 21
20.7145
  0
LINE
  8
0
 10
14.7227
 20
20.7145
 11
14.8956
 21
20.7893
  0
LINE
  8
0
 10
14.8956
 20
20.7893
 11
15
 21
20.8269
  0
LINE
  8
0
 10
15
 20
20.8269
 11
15
 21
20
  0
LINE
  8
0
 10
15
 20
20
 11
17
 21
20
  0
LINE
  8
0
 10
17
 20
20
 11
17
 21
20.8269
  0
LINE
  8
0
 10
17
 20
20.8269
 11
17.1044
 21
20.7893
  0
LINE
  8
0
 10
17.1044
 20
20.7893
 11
17.2773
 21
20.7145
  0
LINE
  8
0
 10
17.2773
 20
20.7145
 11
17.4453
 21
20.6289
  0
LINE
  8
0
 10
17.4453
 20
20.6289
 11
17.6075
 21
20.533
  0
LINE
  8
0
 10
17.6075
 20
20.533
 11
17.7634
 21
20.4271
  0
LINE
  8
0
 10
17.7634
 20
20.4271
 11
17.9123
 21
20.3115
  0
LINE
  8
0
 10
17.9123
 20
20.3115
 11
18.0536
 21
20.1869
  0
LINE
  8
0
 10
18.0536
 20
20.1869
 11
18.1869
 21
20.0536
  0
LINE
  8
0
 10
18.1869
 20
20.0536
 11
18.3115
 21
19.9123
  0
LINE
  8
0
 10
18.3115
 20
19.9123
 11
18.4271
 21
19.7634
  0
LINE
  8
0
 10
18.4271
 20
19.7634
 11
18.533
 21
19.6075
  0
LINE
  8
0
 10
18.533
 20
19.6075
 11
18.6289
 21
19.4453
  0
LINE
  8
0
 10
18.6289
 20
19.4453
 11
18.7145
 21
19.2773
  0
LINE
  8
0
 10
18.7145
 20
19.2773
 11
18.7893
 21
19.1044
  0
LINE
  8
0
 10
18.7893
 20
19.1044
 11
18.8532
 21
18.9271
  0
LINE
  8
0
 10
18.8532
 20
18.9271
 11
18.861
 21
18.9
  0
LINE
  8
0
 10
18.861
 20
18.9
 11
14
 21
18.9
  0
LINE
  8
0
 10
14
 20
18.9
 11
14
 21
17.1
  0
LINE
  8
0
 10
14
 20
17.1
 11
18.861
 21
17.1
  0
LINE
  8
0
 10
18.861
 20
17.1
 11
18.8532
 21
17.0729
  0
LINE
  8
0
 10
18.8532
 20
17.0729
 11
18.7893
 21
16.8956
  0
LINE
  8
0
 10
18.7893
 20
16.8956
 11
18.7145
 21
16.7227
  0
LINE
  8
0
 10
18.7145
 20
16.7227
 11
18.6289
 21
16.5547
  0
LINE
  8
0
 10
18.6289
 20
16.5547
 11
18.533
 21
16.3925
  0
LINE
  8
0
 10
18.533
 20
16.3925
 11
18.4271
 21
16.2366
  0
LINE
  8
0
 10
18.4271
 20
16.2366
 11
18.3115
 21
16.0877
  0
LINE
  8
0
 10
18.3115
 20
16.0877
 11
18.1869
 21
15.9464
  0
LINE
  8
0
 10
18.1869
 20
15.9464
 11
18.0536
 21
15.8131
  0
LINE
  8
0
 10
18.0536
 20
15.8131
 11
17.9123
 21
15.6885
  0
LINE
  8
0
 10
17.9123
 20
15.6885
 11
17.7634
 21
15.5729
  0
LINE
  8
0
 10
17.7634
 20
15.5729
 11
17.6075
 21
15.467
  0
LINE
  8
0
 10
17.6075
 20
15.467
 11
17.4453
 21
15.3711
  0
LINE
  8
0
 10
17.4453
 20
15.3711
 11
17.2773
 21
15.2855
  0
LINE
  8
0
 10
17.2773
 20
15.2855
 11
17.1044
 21
15.2107
  0
LINE
  8
0
 10
17.1044
 20
15.2107
 11
17
 21
15.1731
  0
LINE
  8
0
 10
17
 20
15.1731
 11
17
 21
16
  0
LINE
  8
0
 10
17
 20
16
 11
15
 21
16
  0
LINE
  8
0
 10
15
 20
16
 11
15
 21
15.1731
  0
LINE
  8
0
 10
15
 20
15.1731
 11
14.8956
 21
15.2107
  0
LINE
  8
0
 10
14.8956
 20
15.2107
 11
14.7227
 21
15.2855
  0
LINE
  8
0
 10
14.7227
 20
15.2855
 11
14.5547
 21
15.3711
  0
LINE
  8
0
 10
14.5547
 20
15.3711
 11
14.3925
 21
15.467
  0
LINE
  8
0
 10
14.3925
 20
15.467
 11
14.2366
 21
15.5729
  0
LINE
  8
0
 10
14.2366
 20
15.5729
 11
14.0877
 21
15.6885
  0
LINE
  8
0
 10
14.0877
 20
15.6885
 11
13.9464
 21
15.8131
  0
LINE
  8
0
 10
13.9464
 20
15.8131
 11
13.8131
 21
15.9464
  0
LINE
  8
0
 10
13.8131
 20
15.9464
 11
13.6885
 21
16.0877
  0
LINE
  8
0
 10
13.6885
 20
16.0877
 11
13.5729
 21
16.2366
  0
LINE
  8
0
 10
13.5729
 20
16.2366
 11
13.467
 21
16.3925
  0
LINE
  8
0
 10
13.467
 20
16.3925
 11
13.3711
 21
16.5547
  0
LINE
  8
0
 10
13.3711
 20
16.5547
 11
13.2855
 21
16.7227
  0
LINE
  8
0
 10
13.2855
 20
16.7227
 11
13.2107
 21
16.8956
  0
LINE
  8
0
 10
13.2107
 20
16.8956
 11
13.1468
 21
17.0729
  0
LINE
  8
0
 10
13.1468
 20
17.0729
 11
13.0943
 21
17.2539
  0
LINE
  8
0
 10
13.0943
 20
17.2539
 11
13.0531
 21
17.4379
  0
LINE
  8
0
 10
13.0531
 20
17.4379
 11
13.0237
 21
17.624
  0
LINE
  8
0
 10
13.0237
 20
17.624
 11
13.0059
 21
17.8116
  0
LINE
  8
0
 10
13.0059
 20
17.8116
 11
13
 21
18
  0
LINE
  8
0
 10
19
 20
6
 11
19.0059
 21
6.18837
  0
LINE
  8
0
 10
19.0059
 20
6.18837
 11
19.0237
 21
6.376
  0
LINE
  8
0
 10
19.0237
 20
6.376
 11
19.0531
 21
6.56214
  0
LINE
  8
0
 10
19.0531
 20
6.56214
 11
19.0943
 21
6.74607
  0
LINE
  8
0
 10
19.0943
 20
6.74607
 11
19.1468
 21
6.92705
  0
LINE
  8
0
 10
19.1468
 20
6.92705
 11
19.2107
 21
7.10437
  0
LINE
  8
0
 10
19.2107
 20
7.10437
 11
19.2855
 21
7.27734
  0
LINE
  8
0
 10
19.2855
 20
7.27734
 11
19.3711
 21
7.44526
  0
LINE
  8
0
 10
19.3711
 20
7.44526
 11
19.467
 21
7.60748
  0
LINE
  8
0
 10
19.467
 20
7.60748
 11
19.5729
 21
7.76336
  0
LINE
  8
0
 10
19.5729
 20
7.76336
 11
19.6885
 21
7.91227
  0
LINE
  8
0
 10
19.6885
 20
7.91227
 11
19.8131
 21
8.05364
  0
LINE
  8
0
 10
19.8131
 20
8.05364
 11
19.9464
 21
8.18691
  0
LINE
  8
0
 10
19.9464
 20
8.18691
 11
20.0877
 21
8.31154
  0
LINE
  8
0
 10
20.0877
 20
8.31154
 11
20.2366
 21
8.42705
  0
LINE
  8
0
 10
20.2366
 20
8.42705
 11
20.3925
 21
8.53298
  0
LINE
  8
0
 10
20.3925
 20
8.53298
 11
20.5547
 21
8.62892
  0
LINE
  8
0
 10
20.5547
 20
8.62892
 11
20.7227
 21
8.71448
  0
LINE
  8
0
 10
20.7227
 20
8.71448
 11
20.8956
 21
8.78933
  0
LINE
  8
0
 10
20.8956
 20
8.78933
 11
21
 21
8.82691
  0
LINE
  8
0
 10
21
 20
8.82691
 11
21
 21
8
  0
LINE
  8
0
 10
21
 20
8
 11
23
 21
8
  0
LINE
  8
0
 10
23
 20
8
 11
23
 21
8.82691
  0
LINE
  8
0
 10
23
 20
8.82691
 11
23.1044
 21
8.78933
  0
LINE
  8
0
 10
23.1044
 20
8.78933
 11
23.2773
 21
8.71448
  0
LINE
  8
0
 10
23.2773
 20
8.71448
 11
23.4453
 21
8.62892
  0
LINE
  8
0
 10
23.4453
 20
8.62892
 11
23.6075
 21
8.53298
  0
LINE
  8
0
 10
23.6075
 20
8.53298
 11
23.7634
 21
8.42705
  0
LINE
  8
0
 10
23.7634
 20
8.42705
 11
23.9123
 21
8.31154
  0
LINE
  8
0
 10
23.9123
 20
8.31154
 11
24.0536
 21
8.18691
  0
LINE
  8
0
 10
24.0536
 20
8.18691
 11
24.1869
 21
8.05364
  0
LINE
  8
0
 10
24.1869
 20
8.05364
 11
24.3115
 21
7.91227
  0
LINE
  8
0
 10
24.3115
 20
7.91227
 11
24.4271
 21
7.76336
  0
LINE
  8
0
 10
24.4271
 20
7.76336
 11
24.533
 21
7.60748
  0
LINE
  8
0
 10
24.533
 20
7.60748
 11
24.6289
 21
7.44526
  0
LINE
  8
0
 10
24.6289
 20
7.44526
 11
24.7145
 21
7.27734
  0
LINE
  8
0
 10
24.7145
 20
7.27734
 11
24.7893
 21
7.10437
  0
LINE
  8
0
 10
24.7893
 20
7.10437
 11
24.8532
 21
6.92705
  0
LINE
  8
0
 10
24.8532
 20
6.92705
 11
24.861
 21
6.9
  0
LINE
  8
0
 10
24.861
 20
6.9
 11
20
 21
6.9
  0
LINE
  8
0
 10
20
 20
6.9
 11
20
 21
5.1
  0
LINE
  8
0
 10
20
 20
5.1
 11
24.861
 21
5.1
  0
LINE
  8
0
 10
24.861
 20
5.1
 11
24.8532
 21
5.07295
  0
LINE
  8
0
 10
24.8532
 20
5.07295
 11
24.7893
 21
4.89563
  0
LINE
  8
0
 10
24.7893
 20
4.89563
 11
24.7145
 21
4.72266
  0
LINE
  8
0
 10
24.7145
 20
4.72266
 11
24.6289
 21
4.55474
  0
LINE
  8
0
 10
24.6289
 20
4.55474
 11
24.533
 21
4.39252
  0
LINE
  8
0
 10
24.533
 20
4.39252
 11
24.4271
 21
4.23664
  0
LINE
  8
0
 10
24.4271
 20
4.23664
 11
24.3115
 21
4.08773
  0
LINE
  8
0
 10
24.3115
 20
4.08773
 11
24.1869
 21
3.94636
  0
LINE
  8
0
 10
24.1869
 20
3.94636
 11
24.0536
 21
3.81309
  0
LINE
  8
0
 10
24.0536
 20
3.81309
 11
23.9123
 21
3.68846
  0
LINE
  8
0
 10
23.9123
 20
3.68846
 11
23.7634
 21
3.57295
  0
LINE
  8
0
 10
23.7634
 20
3.57295
 11
23.6075
 21
3.46702
  0
LINE
  8
0
 10
23.6075
 20
3.46702
 11
23.4453
 21
3.37108
  0
LINE
  8
0
 10
23.4453
 20
3.37108
 11
23.2773
 21
3.28552
  0
LINE
  8
0
 10
23.2773
 20
3.28552
 11
23.1044
 21
3.21067
  0
LINE
  8
0
 10
23.1044
 20
3.21067
 11
23
 21
3.17309
  0
LINE
  8
0
 10
23
 20
3.17309
 11
23
 21
4
  0
LINE
  8
0
 10
23
 20
4
 11
21
 21
4
  0
LINE
  8
0
 10
21
 20
4
 11
21
 21
3.17309
  0
LINE
  8
0
 10
21
 20
3.17309
 11
20.8956
 21
3.21067
  0
LINE
  8
0
 10
20.8956
 20
3.21067
 11
20.7227
 21
3.28552
  0
LINE
  8
0
 10
20.7227
 20
3.28552
 11
20.5547
 21
3.37108
  0
LINE
  8
0
 10
20.5547
 20
3.37108
 11
20.3925
 21
3.46702
  0
LINE
  8
0
 10
20.3925
 20
3.46702
 11
20.2366
 21
3.57295
  0
LINE
  8
0
 10
20.2366
 20
3.57295
 11
20.0877
 21
3.68846
  0
LINE
  8
0
 10
20.0877
 20
3.68846
 11
19.9464
 21
3.81309
  0
LINE
  8
0
 10
19.9464
 20
3.81309
 11
19.8131
 21
3.94636
  0
LINE
  8
0
 10
19.8131
 20
3.94636
 11
19.6885
 21
4.08773
  0
LINE
  8
0
 10
19.6885
 20
4.08773
 11
19.5729
 21
4.23664
  0
LINE
  8
0
 10
19.5729
 20
4.23664
 11
19.467
 21
4.39252
  0
LINE
  8
0
 10
19.467
 20
4.39252
 11
19.3711
 21
4.55474
  0
LINE
  8
0
 10
19.3711
 20
4.55474
 11
19.2855
 21
4.72266
  0
LINE
  8
0
 10
19.2855
 20
4.72266
 11
19.2107
 21
4.89563
  0
LINE
  8
0
 10
19.2107
 20
4.89563
 11
19.1468
 21
5.07295
  0
LINE
  8
0
 10
19.1468
 20
5.07295
 11
19.0943
 21
5.25393
  0
LINE
  8
0
 10
19.0943
 20
5.25393
 11
19.0531
 21
5.43786
  0
LINE
  8
0
 10
19.0531
 20
5.43786
 11
19.0237
 21
5.624
  0
LINE
  8
0
 10
19.0237
 20
5.624
 11
19.0059
 21
5.81163
  0
LINE
  8
0
 10
19.0059
 20
5.81163
 11
19
 21
6
  0
LINE
  8
0
 10
25
 20
18
 11
25.0059
 21
18.1884
  0
LINE
  8
0
 10
25.0059
 20
18.1884
 11
25.0237
 21
18.376
  0
LINE
  8
0
 10
25.0237
 20
18.376
 11
25.0531
 21
18.5621
  0
LINE
  8
0
 10
25.0531
 20
18.5621
 11
25.0943
 21
18.7461
  0
LINE
  8
0
 10
25.0943
 20
18.7461
 11
25.1468
 21
18.9271
  0
LINE
  8
0
 10
25.1468
 20
18.9271
 11
25.2107
 21
19.1044
  0
LINE
  8
0
 10
25.2107
 20
19.1044
 11
25.2855
 21
19.2773
  0
LINE
  8
0
 10
25.2855
 20
19.2773
 11
25.3711
 21
19.4453
  0
LINE
  8
0
 10
25.3711
 20
19.4453
 11
25.467
 21
19.6075
  0
LINE
  8
0
 10
25.467
 20
19.6075
 11
25.5729
 21
19.7634
  0
LINE
  8
0
 10
25.5729
 20
19.7634
 11
25.6885
 21
19.9123
  0
LINE
  8
0
 10
25.6885
 20
19.9123
 11
25.8131
 21
20.0536
  0
LINE
  8
0
 10
25.8131
 20
20.0536
 11
25.9464
 21
20.1869
  0
LINE
  8
0
 10
25.9464
 20
20.1869
 11
26.0877
 21
20.3115
  0
LINE
  8
0
 10
26.0877
 20
20.3115
 11
26.2366
 21
20.4271
  0
LINE
  8
0
 10
26.2366
 20
20.4271
 11
26.3925
 21
20.533
  0
LINE
  8
0
 10
26.3925
 20
20.533
 11
26.5547
 21
20.6289
  0
LINE
  8
0
 10
26.5547
 20
20.6289
 11
26.7227
 21
20.7145
  0
LINE
  8
0
 10
26.7227
 20
20.7145
 11
26.8956
 21
20.7893
  0
LINE
  8
0
 10
26.8956
 20
20.7893
 11
27
 21
20.8269
  0
LINE
  8
0
 10
27
 20
20.8269
 11
27
 21
20
  0
LINE
  8
0
 10
27
 20
20
 11
29
 21
20
  0
LINE
  8
0
 10
29
 20
20
 11
29
 21
20.8269
  0
LINE
  8
0
 10
29
 20
20.8269
 11
29.1044
 21
20.7893
  0
LINE
  8
0
 10
29.1044
 20
20.7893
 11
29.2773
 21
20.7145
  0
LINE
  8
0
 10
29.2773
 20
20.7145
 11
29.4453
 21
20.6289
  0
LINE
  8
0
 10
29.4453
 20
20.6289
 11
29.6075
 21
20.533
  0
LINE
  8
0
 10
29.6075
 20
20.533
 11
29.7634
 21
20.4271
  0
LINE
  8
0
 10
29.7634
 20
20.4271
 11
29.9123
 21
20.3115
  0
LINE
  8
0
 10
29.9123
 20
20.3115
 11
30.0536
 21
20.1869
  0
LINE
  8
0
 10
30.0536
 20
20.1869
 11
30.1869
 21
20.0536
  0
LINE
  8
0
 10
30.1869
 20
20.0536
 11
30.3115
 21
19.9123
  0
LINE
  8
0
 10
30.3115
 20
19.9123
 11
30.4271
 21
19.7634
  0
LINE
  8
0
 10
30.4271
 20
19.7634
 11
30.533
 21
19.6075
  0
LINE
  8
0
 10
30.533
 20
19.6075
 11
30.6289
 21
19.4453
  0
LINE
  8
0
 10
30.6289
 20
19.4453
 11
30.7145
 21
19.2773
  0
LINE
  8
0
 10
30.7145
 20
19.2773
 11
30.7893
 21
19.1044
  0
LINE
  8
0
 10
30.7893
 20
19.1044
 11
30.8532
 21
18.9271
  0
LINE
  8
0
 10
30.8532
 20
18.9271
 11
30.861
 21
18.9
  0
LINE
  8
0
 10
30.861
 20
18.9
 11
26
 21
18.9
  0
LINE
  8
0
 10
26
 20
18.9
 11
26
 21
17.1
  0
LINE
  8
0
 10
26
 20
17.1
 11
30.861
 21
17.1
  0
LINE
  8
0
 10
30.861
 20
17.1
 11
30.8532
 21
17.0729
  0
LINE
  8
0
 10
30.8532
 20
17.0729
 11
30.7893
 21
16.8956
  0
LINE
  8
0
 10
30.7893
 20
16.8956
 11
30.7145
 21
16.7227
  0
LINE
  8
0
 10
30.7145
 20
16.7227
 11
30.6289
 21
16.5547
  0
LINE
  8
0
 10
30.6289
 20
16.5547
 11
30.533
 21
16.3925
  0
LINE
  8
0
 10
30.533
 20
16.3925
 11
30.4271
 21
16.2366
  0
LINE
  8
0
 10
30.4271
 20
16.2366
 11
30.3115
 21
16.0877
  0
LINE
  8
0
 10
30.3115
 20
16.0877
 11
30.1869
 21
15.9464
  0
LINE
  8
0
 10
30.1869
 20
15.9464
 11
30.0536
 21
15.8131
  0
LINE
  8
0
 10
30.0536
 20
15.8131
 11
29.9123
 21
15.6885
  0
LINE
  8
0
 10
29.9123
 20
15.6885
 11
29.7634
 21
15.5729
  0
LINE
  8
0
 10
29.7634
 20
15.5729
 11
29.6075
 21
15.467
  0
LINE
  8
0
 10
29.6075
 20
15.467
 11
29.4453
 21
15.3711
  0
LINE
  8
0
 10
29.4453
 20
15.3711
 11
29.2773
 21
15.2855
  0
LINE
  8
0
 10
29.2773
 20
15.2855
 11
29.1044
 21
15.2107
  0
LINE
  8
0
 10
29.1044
 20
15.2107
 11
29
 21
15.1731
  0
LINE
  8
0
 10
29
 20
15.1731
 11
29
 21
16
  0
LINE
  8
0
 10
29
 20
16
 11
27
 21
16
  0
LINE
  8
0
 10
27
 20
16
 11
27
 21
15.1731
  0
LINE
  8
0
 10
27
 20
15.1731
 11
26.8956
 21
15.2107
  0
LINE
  8
0
 10
26.8956
 20
15.2107
 11
26.7227
 21
15.2855
  0
LINE
  8
0
 10
26.7227
 20
15.2855
 11
26.5547
 21
15.3711
  0
LINE
  8
0
 10
26.5547
 20
15.3711
 11
26.3925
 21
15.467
  0
LINE
  8
0
 10
26.3925
 20
15.467
 11
26.2366
 21
15.5729
  0
LINE
  8
0
 10
26.2366
 20
15.5729
 11
26.0877
 21
15.6885
  0
LINE
  8
0
 10
26.0877
 20
15.6885
 11
25.9464
 21
15.8131
  0
LINE
  8
0
 10
25.9464
 20
15.8131
 11
25.8131
 21
15.9464
  0
LINE
  8
0
 10
25.8131
 20
15.9464
 11
25.6885
 21
16.0877
  0
LINE
  8
0
 10
25.6885
 20
16.0877
 11
25.5729
 21
16.2366
  0
LINE
  8
0
 10
25.5729
 20
16.2366
 11
25.467
 21
16.3925
  0
LINE
  8
0
 10
25.467
 20
16.3925
 11
25.3711
 21
16.5547
  0
LINE
  8
0
 10
25.3711
 20
16.5547
 11
25.2855
 21
16.7227
  0
LINE
  8
0
 10
25.2855
 20
16.7227
 11
25.2107
 21
16.8956
  0
LINE
  8
0
 10
25.2107
 20
16.8956
 11
25.1468
 21
17.0729
  0
LINE
  8
0
 10
25.1468
 20
17.0729
 11
25.0943
 21
17.2539
  0
LINE
  8
0
 10
25.0943
 20
17.2539
 11
25.0531
 21
17.4379
  0
LINE
  8
0
 10
25.0531
 20
17.4379
 11
25.0237
 21
17.624
  0
LINE
  8
0
 10
25.0237
 20
17.624
 11
25.0059
 21
17.8116
  0
LINE
  8
0
 10
25.0059
 20
17.8116
 11
25
 21
18
  0
LINE
  8
0
 10
31
 20
6
 11
31.0059
 21
6.18837
  0
LINE
  8
0
 10
31.0059
 20
6.18837
 11
31.0237
 21
6.376
  0
LINE
  8
0
 10
31.0237
 20
6.376
 11
31.0531
 21
6.56214
  0
LINE
  8
0
 10
31.0531
 20
6.56214
 11
31.0943
 21
6.74607
  0
LINE
  8
0
 10
31.0943
 20
6.74607
 11
31.1468
 21
6.92705
  0
LINE
  8
0
 10
31.1468
 20
6.92705
 11
31.2107
 21
7.10437
  0
LINE
  8
0
 10
31.2107
 20
7.10437
 11
31.2855
 21
7.27734
  0
LINE
  8
0
 10
31.2855
 20
7.27734
 11
31.3711
 21
7.44526
  0
LINE
  8
0
 10
31.3711
 20
7.44526
 11
31.467
 21
7.60748
  0
LINE
  8
0
 10
31.467
 20
7.60748
 11
31.5729
 21
7.76336
  0
LINE
  8
0
 10
31.5729
 20
7.76336
 11
31.6885
 21
7.91227
  0
LINE
  8
0
 10
31.6885
 20
7.91227
 11
31.8131
 21
8.05364
  0
LINE
  8
0
 10
31.8131
 20
8.05364
 11
31.9464
 21
8.18691
  0
LINE
  8
0
 10
31.9464
 20
8.18691
 11
32.0877
 21
8.31154
  0
LINE
  8
0
 10
32.0877
 20
8.31154
 11
32.2366
 21
8.42705
  0
LINE
  8
0
 10
32.2366
 20
8.42705
 11
32.3925
 21
8.53298
  0
LINE
  8
0
 10
32.3925
 20
8.53298
 11
32.5547
 21
8.62892
  0
LINE
  8
0
 10
32.5547
 20
8.62892
 11
32.7227
 21
8.71448
  0
LINE
  8
0
 10
32.7227
 20
8.71448
 11
32.8956
 21
8.78933
  0
LINE
  8
0
 10
32.8956
 20
8.78933
 11
33
 21
8.82691
  0
LINE
  8
0
 10
33
 20
8.82691
 11
33
 21
8
  0
LINE
  8
0
 10
33
 20
8
 11
35
 21
8
  0
LINE
  8
0
 10
35
 20
8
 11
35
 21
8.82691
  0
LINE
  8
0
 10
35
 20
8.82691
 11
35.1044
 21
8.78933
  0
LINE
  8
0
 10
35.1044
 20
8.78933
 11
35.2773
 21
8.71448
  0
LINE
  8
0
 10
35.2773
 20
8.71448
 11
35.4453
 21
8.62892
  0
LINE
  8
0
 10
35.4453
 20
8.62892
 11
35.6075
 21
8.53298
  0
LINE
  8
0
 10
35.6075
 20
8.53298
 11
35.7634
 21
8.42705
  0
LINE
  8
0
 10
35.7634
 20
8.42705
 11
35.9123
 21
8.31154
  0
LINE
  8
0
 10
35.9123
 20
8.31154
 11
36.0536
 21
8.18691
  0
LINE
  8
0
 10
36.0536
 20
8.18691
 11
36.1869
 21
8.05364
  0
LINE
  8
0
 10
36.1869
 20
8.05364
 11
36.3115
 21
7.91227
  0
LINE
  8
0
 10
36.3115
 20
7.91227
 11
36.4271
 21
7.76336
  0
LINE
  8
0
 10
36.4271
 20
7.76336
 11
36.533
 21
7.60748
  0
LINE
  8
0
 10
36.533
 20
7.60748
 11
36.6289
 21
7.44526
  0
LINE
  8
0
 10
36.6289
 20
7.44526
 11
36.7145
 21
7.27734
  0
LINE
  8
0
 10
36.7145
 20
7.27734
 11
36.7893
 21
7.10437
  0
LINE
  8
0
 10
36.7893
 20
7.10437
 11
36.8532
 21
6.92705
  0
LINE
  8
0
 10
36.8532
 20
6.92705
 11
36.861
 21
6.9
  0
LINE
  8
0
 10
36.861
 20
6.9
 11
32
 21
6.9
  0
LINE
  8
0
 10
32
 20
6.9
 11
32
 21
5.1
  0
LINE
  8
0
 10
32
 20
5.1
 11
36.861
 21
5.1
  0
LINE
  8
0
 10
36.861
 20
5.1
 11
36.8532
 21
5.07295
  0
LINE
  8
0
 10
36.8532
 20
5.07295
 11
36.7893
 21
4.89563
  0
LINE
  8
0
 10
36.7893
 20
4.89563
 11
36.7145
 21
4.72266
  0
LINE
  8
0
 10
36.7145
 20
4.72266
 11
36.6289
 21
4.55474
  0
LINE
  8
0
 10
36.6289
 20
4.55474
 11
36.533
 21
4.39252
  0
LINE
  8
0
 10
36.533
 20
4.39252
 11
36.4271
 21
4.23664
  0
LINE
  8
0
 10
36.4271
 20
4.23664
 11
36.3115
 21
4.08773
  0
LINE
  8
0
 10
36.3115
 20
4.08773
 11
36.1869
 21
3.94636
  0
LINE
  8
0
 10
36.1869
 20
3.94636
 11
36.0536
 21
3.81309
  0
LINE
  8
0
 10
36.0536
 20
3.81309
 11
35.9123
 21
3.68846
  0
LINE
  8
0
 10
35.9123
 20
3.68846
 11
35.7634
 21
3.57295
  0
LINE
  8
0
 10
35.7634
 20
3.57295
 11
35.6075
 21
3.46702
  0
LINE
  8
0
 10
35.6075
 20
3.46702
 11
35.4453
 21
3.37108
  0
LINE
  8
0
 10
35.4453
 20
3.37108
 11
35.2773
 21
3.28552
  0
LINE
  8
0
 10
35.2773
 20
3.28552
 11
35.1044
 21
3.21067
  0
LINE
  8
0
 10
35.1044
 20
3.21067
 11
35
 21
3.17309
  0
LINE
  8
0
 10
35
 20
3.17309
 11
35
 21
4
  0
LINE
  8
0
 10
35
 20
4
 11
33
 21
4
  0
LINE
  8
0
 10
33
 20
4
 11
33
 21
3.17309
  0
LINE
  8
0
 10
33
 20
3.17309
 11
32.8956
 21
3.21067
  0
LINE
  8
0
 10
32.8956
 20
3.21067
 11
32.7227
 21
3.28552
  0
LINE
  8
0
 10
32.7227
 20
3.28552
 11
32.5547
 21
3.37108
  0
LINE
  8
0
 10
32.5547
 20
3.37108
 11
32.3925
 21
3.46702
  0
LINE
  8
0
 10
32.3925
 20
3.46702
 11
32.2366
 21
3.57295
  0
LINE
  8
0
 10
32.2366
 20
3.57295
 11
32.0877
 21
3.68846
  0
LINE
  8
0
 10
32.0877
 20
3.68846
 11
31.9464
 21
3.81309
  0
LINE
  8
0
 10
31.9464
 20
3.81309
 11
31.8131
 21
3.94636
  0
LINE
  8
0
 10
31.8131
 20
3.94636
 11
31.6885
 21
4.08773
  0
LINE
  8
0
 10
31.6885
 20
4.08773
 11
31.5729
 21
4.23664
  0
LINE
  8
0
 10
31.5729
 20
4.23664
 11
31.467
 21
4.39252
  0
LINE
  8
0
 10
31.467
 20
4.39252
 11
31.3711
 21
4.55474
  0
LINE
  8
0
 10
31.3711
 20
4.55474
 11
31.2855
 21
4.72266
  0
LINE
  8
0
 10
31.2855
 20
4.72266
 11
31.2107
 21
4.89563
  0
LINE
  8
0
 10
31.2107
 20
4.89563
 11
31.1468
 21
5.07295
  0
LINE
  8
0
 10
31.1468
 20
5.07295
 11
31.0943
 21
5.25393
  0
LINE
  8
0
 10
31.0943
 20
5.25393
 11
31.0531
 21
5.43786
  0
LINE
  8
0
 10
31.0531
 20
5.43786
 11
31.0237
 21
5.624
  0
LINE
  8
0
 10
31.0237
 20
5.624
 11
31.0059
 21
5.81163
  0
LINE
  8
0
 10
31.0059
 20
5.81163
 11
31
 21
6
  0
LINE
  8
0
 10
37
 20
18
 11
37.0059
 21
18.1884
  0
LINE
  8
0
 10
37.0059
 20
18.1884
 11
37.0237
 21
18.376
  0
LINE
  8
0
 10
37.0237
 20
18.376
 11
37.0531
 21
18.5621
  0
LINE
  8
0
 10
37.0531
 20
18.5621
 11
37.0943
 21
18.7461
  0
LINE
  8
0
 10
37.0943
 20
18.7461
 11
37.1468
 21
18.9271
  0
LINE
  8
0
 10
37.1468
 20
18.9271
 11
37.2107
 21
19.1044
  0
LINE
  8
0
 10
37.2107
 20
19.1044
 11
37.2855
 21
19.2773
  0
LINE
  8
0
 10
37.2855
 20
19.2773
 11
37.3711
 21
19.4453
  0
LINE
  8
0
 10
37.3711
 20
19.4453
 11
37.467
 21
19.6075
  0
LINE
  8
0
 10
37.467
 20
19.6075
 11
37.5729
 21
19.7634
  0
LINE
  8
0
 10
37.5729
 20
19.7634
 11
37.6885
 21
19.9123
  0
LINE
  8
0
 10
37.6885
 20
19.9123
 11
37.8131
 21
20.0536
  0
LINE
  8
0
 10
37.8131
 20
20.0536
 11
37.9464
 21
20.1869
  0
LINE
  8
0
 10
37.9464
 20
20.1869
 11
38.0877
 21
20.3115
  0
LINE
  8
0
 10
38.0877
 20
20.3115
 11
38.2366
 21
20.4271
  0
LINE
  8
0
 10
38.2366
 20
20.4271
 11
38.3925
 21
20.533
  0
LINE
  8
0
 10
38.3925
 20
20.533
 11
38.5547
 21
20.6289
  0
LINE
  8
0
 10
38.5547
 20
20.6289
 11
38.7227
 21
20.7145
  0
LINE
  8
0
 10
38.7227
 20
20.7145
 11
38.8956
 21
20.7893
  0
LINE
  8
0
 10
38.8956
 20
20.7893
 11
39
 21
20.8269
  0
LINE
  8
0
 10
39
 20
20.8269
 11
39
 21
20
  0
LINE
  8
0
 10
39
 20
20
 11
41
 21
20
  0
LINE
  8
0
 10
41
 20
20
 11
41
 21
20.8269
  0
LINE
  8
0
 10
41
 20
20.8269
 11
41.1044
 21
20.7893
  0
LINE
  8
0
 10
41.1044
 20
20.7893
 11
41.2773
 21
20.7145
  0
LINE
  8
0
 10
41.2773
 20
20.7145
 11
41.4453
 21
20.6289
  0
LINE
  8
0
 10
41.4453
 20
20.6289
 11
41.6075
 21
20.533
  0
LINE
  8
0
 10
41.6075
 20
20.533
 11
41.7634
 21
20.4271
  0
LINE
  8
0
 10
41.7634
 20
20.4271
 11
41.9123
 21
20.3115
  0
LINE
  8
0
 10
41.9123
 20
20.3115
 11
42.0536
 21
20.1869
  0
LINE
  8
0
 10
42.0536
 20
20.1869
 11
42.1869
 21
20.0536
  0
LINE
  8
0
 10
42.1869
 20
20.0536
 11
42.3115
 21
19.9123
  0
LINE
  8
0
 10
42.3115
 20
19.9123
 11
42.4271
 21
19.7634
  0
LINE
  8
0
 10
42.4271
 20
19.7634
 11
42.533
 21
19.6075
  0
LINE
  8
0
 10
42.533
 20
19.6075
 11
42.6289
 21
19.4453
  0
LINE
  8
0
 10
42.6289
 20
19.4453
 11
42.7145
 21
19.2773
  0
LINE
  8
0
 10
42.7145
 20
19.2773
 11
42.7893
 21
19.1044
  0
LINE
  8
0
 10
42.7893
 20
19.1044
 11
42.8532
 21
18.9271
  0
LINE
  8
0
 10
42.8532
 20
18.9271
 11
42.861
 21
18.9
  0
LINE
  8
0
 10
42.861
 20
18.9
 11
38
 21
18.9
  0
LINE
  8
0
 10
38
 20
18.9
 11
38
 21
17.1
  0
LINE
  8
0
 10
38
 20
17.1
 11
42.861
 21
17.1
  0
LINE
  8
0
 10
42.861
 20
17.1
 11
42.8532
 21
17.0729
  0
LINE
  8
0
 10
42.8532
 20
17.0729
 11
42.7893
 21
16.8956
  0
LINE
  8
0
 10
42.7893
 20
16.8956
 11
42.7145
 21
16.7227
  0
LINE
  8
0
 10
42.7145
 20
16.7227
 11
42.6289
 21
16.5547
  0
LINE
  8
0
 10
42.6289
 20
16.5547
 11
42.533
 21
16.3925
  0
LINE
  8
0
 10
42.533
 20
16.3925
 11
42.4271
 21
16.2366
  0
LINE
  8
0
 10
42.4271
 20
16.2366
 11
42.3115
 21
16.0877
  0
LINE
  8
0
 10
42.3115
 20
16.0877
 11
42.1869
 21
15.9464
  0
LINE
  8
0
 10
42.1869
 20
15.9464
 11
42.0536
 21
15.8131
  0
LINE
  8
0
 10
42.0536
 20
15.8131
 11
41.9123
 21
15.6885
  0
LINE
  8
0
 10
41.9123
 20
15.6885
 11
41.7634
 21
15.5729
  0
LINE
  8
0
 10
41.7634
 20
15.5729
 11
41.6075
 21
15.467
  0
LINE
  8
0
 10
41.6075
 20
15.467
 11
41.4453
 21
15.3711
  0
LINE
  8
0
 10
41.4453
 20
15.3711
 11
41.2773
 21
15.2855
  0
LINE
  8
0
 10
41.2773
 20
15.2855
 11
41.1044
 21
15.2107
  0
LINE
  8
0
 10
41.1044
 20
15.2107
 11
41
 21
15.1731
  0
LINE
  8
0
 10
41
 20
15.1731
 11
41
 21
16
  0
LINE
  8
0
 10
41
 20
16
 11
39
 21
16
  0
LINE
  8
0
 10
39
 20
16
 11
39
 21
15.1731
  0
LINE
  8
0
 10
39
 20
15.1731
 11
38.8956
 21
15.2107
  0
LINE
  8
0
 10
38.8956
 20
15.2107
 11
38.7227
 21
15.2855
  0
LINE
  8
0
 10
38.7227
 20
15.2855
 11
38.5547
 21
15.3711
  0
LINE
  8
0
 10
38.5547
 20
15.3711
 11
38.3925
 21
15.467
  0
LINE
  8
0
 10
38.3925
 20
15.467
 11
38.2366
 21
15.5729
  0
LINE
  8
0
 10
38.2366
 20
15.5729
 11
38.0877
 21
15.6885
  0
LINE
  8
0
 10
38.0877
 20
15.6885
 11
37.9464
 21
15.8131
  0
LINE
  8
0
 10
37.9464
 20
15.8131
 11
37.8131
 21
15.9464
  0
LINE
  8
0
 10
37.8131
 20
15.9464
 11
37.6885
 21
16.0877
  0
LINE
  8
0
 10
37.6885
 20
16.0877
 11
37.5729
 21
16.2366
  0
LINE
  8
0
 10
37.5729
 20
16.2366
 11
37.467
 21
16.3925
  0
LINE
  8
0
 10
37.467
 20
16.3925
 11
37.3711
 21
16.5547
  0
LINE
  8
0
 10
37.3711
 20
16.5547
 11
37.2855
 21
16.7227
  0
LINE
  8
0
 10
37.2855
 20
16.7227
 11
37.2107
 21
16.8956
  0
LINE
  8
0
 10
37.2107
 20
16.8956
 11
37.1468
 21
17.0729
  0
LINE
  8
0
 10
37.1468
 20
17.0729
 11
37.0943
 21
17.2539
  0
LINE
  8
0
 10
37.0943
 20
17.2539
 11
37.0531
 21
17.4379
  0
LINE
  8
0
 10
37.0531
 20
17.4379
 11
37.0237
 21
17.624
  0
LINE
  8
0
 10
37.0237
 20
17.624
 11
37.0059
 21
17.8116
  0
LINE
  8
0
 10
37.0059
 20
17.8116
 11
37
 21
18
  0
LINE
  8
0
 10
43
 20
6
 11
43.0059
 21
6.18837
  0
LINE
  8
0
 10
43.0059
 20
6.18837
 11
43.0237
 21
6.376
  0
LINE
  8
0
 10
43.0237
 20
6.376
 11
43.0531
 21
6.56214
  0
LINE
  8
0
 10
43.0531
 20
6.56214
 11
43.0943
 21
6.74607
  0
LINE
  8
0
 10
43.0943
 20
6.74607
 11
43.1468
 21
6.92705
  0
LINE
  8
0
 10
43.1468
 20
6.92705
 11
43.2107
 21
7.10437
  0
LINE
  8
0
 10
43.2107
 20
7.10437
 11
43.2855
 21
7.27734
  0
LINE
  8
0
 10
43.2855
 20
7.27734
 11
43.3711
 21
7.44526
  0
LINE
  8
0
 10
43.3711
 20
7.44526
 11
43.467
 21
7.60748
  0
LINE
  8
0
 10
43.467
 20
7.60748
 11
43.5729
 21
7.76336
  0
LINE
  8
0
 10
43.5729
 20
7.76336
 11
43.6885
 21
7.91227
  0
LINE
  8
0
 10
43.6885
 20
7.91227
 11
43.8131
 21
8.05364
  0
LINE
  8
0
 10
43.8131
 20
8.05364
 11
43.9464
 21
8.18691
  0
LINE
  8
0
 10
43.9464
 20
8.18691
 11
44.0877
 21
8.31154
  0
LINE
  8
0
 10
44.0877
 20
8.31154
 11
44.2366
 21
8.42705
  0
LINE
  8
0
 10
44.2366
 20
8.42705
 11
44.3925
 21
8.53298
  0
LINE
  8
0
 10
44.3925
 20
8.53298
 11
44.5547
 21
8.62892
  0
LINE
  8
0
 10
44.5547
 20
8.62892
 11
44.7227
 21
8.71448
  0
LINE
  8
0
 10
44.7227
 20
8.71448
 11
44.8956
 21
8.78933
  0
LINE
  8
0
 10
44.8956
 20
8.78933
 11
45
 21
8.82691
  0
LINE
  8
0
 10
45
 20
8.82691
 11
45
 21
8
  0
LINE
  8
0
 10
45
 20
8
 11
47
 21
8
  0
LINE
  8
0
 10
47
 20
8
 11
47
 21
8.82691
  0
LINE
  8
0
 10
47
 20
8.82691
 11
47.1044
 21
8.78933
  0
LINE
  8
0
 10
47.1044
 20
8.78933
 11
47.2773
 21
8.71448
  0
LINE
  8
0
 10
47.2773
 20
8.71448
 11
47.4453
 21
8.62892
  0
LINE
  8
0
 10
47.4453
 20
8.62892
 11
47.6075
 21
8.53298
  0
LINE
  8
0
 10
47.6075
 20
8.53298
 11
47.7634
 21
8.42705
  0
LINE
  8
0
 10
47.7634
 20
8.42705
 11
47.9123
 21
8.31154
  0
LINE
  8
0
 10
47.9123
 20
8.31154
 11
48.0536
 21
8.18691
  0
LINE
  8
0
 10
48.0536
 20
8.18691
 11
48.1869
 21
8.05364
  0
LINE
  8
0
 10
48.1869
 20
8.05364
 11
48.3115
 21
7.91227
  0
LINE
  8
0
 10
48.3115
 20
7.91227
 11
48.4271
 21
7.76336
  0
LINE
  8
0
 10
48.4271
 20
7.76336
 11
48.533
 21
7.60748
  0
LINE
  8
0
 10
48.533
 20
7.60748
 11
48.6289
 21
7.44526
  0
LINE
  8
0
 10
48.6289
 20
7.44526
 11
48.7145
 21
7.27734
  0
LINE
  8
0
 10
48.7145
 20
7.27734
 11
48.7893
 21
7.10437
  0
LINE
  8
0
 10
48.7893
 20
7.10437
 11
48.8532
 21
6.92705
  0
LINE
  8
0
 10
48.8532
 20
6.92705
 11
48.861
 21
6.9
  0
LINE
  8
0
 10
48.861
 20
6.9
 11
44
 21
6.9
  0
LINE
  8
0
 10
44
 20
6.9
 11
44
 21
5.1
  0
LINE
  8
0
 10
44
 20
5.1
 11
48.861
 21
5.1
  0
LINE
  8
0
 10
48.861
 20
5.1
 11
48.8532
 21
5.07295
  0
LINE
  8
0
 10
48.8532
 20
5.07295
 11
48.7893
 21
4.89563
  0
LINE
  8
0
 10
48.7893
 20
4.89563
 11
48.7145
 21
4.72266
  0
LINE
  8
0
 10
48.7145
 20
4.72266
 11
48.6289
 21
4.55474
  0
LINE
  8
0
 10
48.6289
 20
4.55474
 11
48.533
 21
4.39252
  0
LINE
  8
0
 10
48.533
 20
4.39252
 11
48.4271
 21
4.23664
  0
LINE
  8
0
 10
48.4271
 20
4.23664
 11
48.3115
 21
4.08773
  0
LINE
  8
0
 10
48.3115
 20
4.08773
 11
48.1869
 21
3.94636
  0
LINE
  8
0
 10
48.1869
 20
3.94636
 11
48.0536
 21
3.81309
  0
LINE
  8
0
 10
48.0536
 20
3.81309
 11
47.9123
 21
3.68846
  0
LINE
  8
0
 10
47.9123
 20
3.68846
 11
47.7634
 21
3.57295
  0
LINE
  8
0
 10
47.7634
 20
3.57295
 11
47.6075
 21
3.46702
  0
LINE
  8
0
 10
47.6075
 20
3.46702
 11
47.4453
 21
3.37108
  0
LINE
  8
0
 10
47.4453
 20
3.37108
 11
47.2773
 21
3.28552
  0
LINE
  8
0
 10
47.2773
 20
3.28552
 11
47.1044
 21
3.21067
  0
LINE
  8
0
 10
47.1044
 20
3.21067
 11
47
 21
3.17309
  0
LINE
  8
0
 10
47
 20
3.17309
 11
47
 21
4
  0
LINE
  8
0
 10
47
 20
4
 11
45
 21
4
  0
LINE
  8
0
 10
45
 20
4
 11
45
 21
3.17309
  0
LINE
  8
0
 10
45
 20
3.17309
 11
44.8956
 21
3.21067
  0
LINE
  8
0
 10
44.8956
 20
3.21067
 11
44.7227
 21
3.28552
  0
LINE
  8
0
 10
44.7227
 20
3.28552
 11
44.5547
 21
3.37108
  0
LINE
  8
0
 10
44.5547
 20
3.37108
 11
44.3925
 21
3.46702
  0
LINE
  8
0
 10
44.3925
 20
3.46702
 11
44.2366
 21
3.57295
  0
LINE
  8
0
 10
44.2366
 20
3.57295
 11
44.0877
 21
3.68846
  0
LINE
  8
0
 10
44.0877
 20
3.68846
 11
43.9464
 21
3.81309
  0
LINE
  8
0
 10
43.9464
 20
3.81309
 11
43.8131
 21
3.94636
  0
LINE
  8
0
 10
43.8131
 20
3.94636
 11
43.6885
 21
4.08773
  0
LINE
  8
0
 10
43.6885
 20
4.08773
 11
43.5729
 21
4.23664
  0
LINE
  8
0
 10
43.5729
 20
4.23664
 11
43.467
 21
4.39252
  0
LINE
  8
0
 10
43.467
 20
4.39252
 11
43.3711
 21
4.55474
  0
LINE
  8
0
 10
43.3711
 20
4.55474
 11
43.2855
 21
4.72266
  0
LINE
  8
0
 10
43.2855
 20
4.72266
 11
43.2107
 21
4.89563
  0
LINE
  8
0
 10
43.2107
 20
4.89563
 11
43.1468
 21
5.07295
  0
LINE
  8
0
 10
43.1468
 20
5.07295
 11
43.0943
 21
5.25393
  0
LINE
  8
0
 10
43.0943
 20
5.25393
 11
43.0531
 21
5.43786
  0
LINE
  8
0
 10
43.0531
 20
5.43786
 11
43.0237
 21
5.624
  0
LINE
  8
0
 10
43.0237
 20
5.624
 11
43.0059
 21
5.81163
  0
LINE
  8
0
 10
43.0059
 20
5.81163
 11
43
 21
6
  0
LINE
  8
0
 10
49
 20
18
 11
49.0059
 21
18.1884
  0
LINE
  8
0
 10
49.0059
 20
18.1884
 11
49.0237
 21
18.376
  0
LINE
  8
0
 10
49.0237
 20
18.376
 11
49.0531
 21
18.5621
  0
LINE
  8
0
 10
49.0531
 20
18.5621
 11
49.0943
 21
18.7461
  0
LINE
  8
0
 10
49.0943
 20
18.7461
 11
49.1468
 21
18.9271
  0
LINE
  8
0
 10
49.1468
 20
18.9271
 11
49.2107
 21
19.1044
  0
LINE
  8
0
 10
49.2107
 20
19.1044
 11
49.2855
 21
19.2773
  0
LINE
  8
0
 10
49.2855
 20
19.2773
 11
49.3711
 21
19.4453
  0
LINE
  8
0
 10
49.3711
 20
19.4453
 11
49.467
 21
19.6075
  0
LINE
  8
0
 10
49.467
 20
19.6075
 11
49.5729
 21
19.7634
  0
LINE
  8
0
 10
49.5729
 20
19.7634
 11
49.6885
 21
19.9123
  0
LINE
  8
0
 10
49.6885
 20
19.9123
 11
49.8131
 21
20.0536
  0
LINE
  8
0
 10
49.8131
 20
20.0536
 11
49.9464
 21
20.1869
  0
LINE
  8
0
 10
49.9464
 20
20.1869
 11
50.0877
 21
20.3115
  0
LINE
  8
0
 10
50.0877
 20
20.3115
 11
50.2366
 21
20.4271
  0
LINE
  8
0
 10
50.2366
 20
20.4271
 11
50.3925
 21
20.533
  0
LINE
  8
0
 10
50.3925
 20
20.533
 11
50.5547
 21
20.6289
  0
LINE
  8
0
 10
50.5547
 20
20.6289
 11
50.7227
 21
20.7145
  0
LINE
  8
0
 10
50.7227
 20
20.7145
 11
50.8956
 21
20.7893
  0
LINE
  8
0
 10
50.8956
 20
20.7893
 11
51
 21
20.8269
  0
LINE
  8
0
 10
51
 20
20.8269
 11
51
 21
20
  0
LINE
  8
0
 10
51
 20
20
 11
53
 21
20
  0
LINE
  8
0
 10
53
 20
20
 11
53
 21
20.8269
  0
LINE
  8
0
 10
53
 20
20.8269
 11
53.1044
 21
20.7893
  0
LINE
  8
0
 10
53.1044
 20
20.7893
 11
53.2773
 21
20.7145
  0
LINE
  8
0
 10
53.2773
 20
20.7145
 11
53.4453
 21
20.6289
  0
LINE
  8
0
 10
53.4453
 20
20.6289
 11
53.6075
 21
20.533
  0
LINE
  8
0
 10
53.6075
 20
20.533
 11
53.7634
 21
20.4271
  0
LINE
  8
0
 10
53.7634
 20
20.4271
 11
53.9123
 21
20.3115
  0
LINE
  8
0
 10
53.9123
 20
20.3115
 11
54.0536
 21
20.1869
  0
LINE
  8
0
 10
54.0536
 20
20.1869
 11
54.1869
 21
20.0536
  0
LINE
  8
0
 10
54.1869
 20
20.0536
 11
54.3115
 21
19.9123
  0
LINE
  8
0
 10
54.3115
 20
19.9123
 11
54.4271
 21
19.7634
  0
LINE
  8
0
 10
54.4271
 20
19.7634
 11
54.533
 21
19.6075
  0
LINE
  8
0
 10
54.533
 20
19.6075
 11
54.6289
 21
19.4453
  0
LINE
  8
0
 10
54.6289
 20
19.4453
 11
54.7145
 21
19.2773
  0
LINE
  8
0
 10
54.7145
 20
19.2773
 11
54.7893
 21
19.1044
  0
LINE
  8
0
 10
54.7893
 20
19.1044
 11
54.8532
 21
18.9271
  0
LINE
  8
0
 10
54.8532
 20
18.9271
 11
54.861
 21
18.9
  0
LINE
  8
0
 10
54.861
 20
18.9
 11
50
 21
18.9
  0
LINE
  8
0
 10
50
 20
18.9
 11
50
 21
17.1
  0
LINE
  8
0
 10
50
 20
17.1
 11
54.861
 21
17.1
  0
LINE
  8
0
 10
54.861
 20
17.1
 11
54.8532
 21
17.0729
  0
LINE
  8
0
 10
54.8532
 20
17.0729
 11
54.7893
 21
16.8956
  0
LINE
  8
0
 10
54.7893
 20
16.8956
 11
54.7145
 21
16.7227
  0
LINE
  8
0
 10
54.7145
 20
16.7227
 11
54.6289
 21
16.5547
  0
LINE
  8
0
 10
54.6289
 20
16.5547
 11
54.533
 21
16.3925
  0
LINE
  8
0
 10
54.533
 20
16.3925
 11
54.4271
 21
16.2366
  0
LINE
  8
0
 10
54.4271
 20
16.2366
 11
54.3115
 21
16.0877
  0
LINE
  8
0
 10
54.3115
 20
16.0877
 11
54.1869
 21
15.9464
  0
LINE
  8
0
 10
54.1869
 20
15.9464
 11
54.0536
 21
15.8131
  0
LINE
  8
0
 10
54.0536
 20
15.8131
 11
53.9123
 21
15.6885
  0
LINE
  8
0
 10
53.9123
 20
15.6885
 11
53.7634
 21
15.5729
  0
LINE
  8
0
 10
53.7634
 20
15.5729
 11
53.6075
 21
15.467
  0
LINE
  8
0
 10
53.6075
 20
15.467
 11
53.4453
 21
15.3711
  0
LINE
  8
0
 10
53.4453
 20
15.3711
 11
53.2773
 21
15.2855
  0
LINE
  8
0
 10
53.2773
 20
15.2855
 11
53.1044
 21
15.2107
  0
LINE
  8
0
 10
53.1044
 20
15.2107
 11
53
 21
15.1731
  0
LINE
  8
0
 10
53
 20
15.1731
 11
53
 21
16
  0
LINE
  8
0
 10
53
 20
16
 11
51
 21
16
  0
LINE
  8
0
 10
51
 20
16
 11
51
 21
15.1731
  0
LINE
  8
0
 10
51
 20
15.1731
 11
50.8956
 21
15.2107
  0
LINE
  8
0
 10
50.8956
 20
15.2107
 11
50.7227
 21
15.2855
  0
LINE
  8
0
 10
50.7227
 20
15.2855
 11
50.5547
 21
15.3711
  0
LINE
  8
0
 10
50.5547
 20
15.3711
 11
50.3925
 21
15.467
  0
LINE
  8
0
 10
50.3925
 20
15.467
 11
50.2366
 21
15.5729
  0
LINE
  8
0
 10
50.2366
 20
15.5729
 11
50.0877
 21
15.6885
  0
LINE
  8
0
 10
50.0877
 20
15.6885
 11
49.9464
 21
15.8131
  0
LINE
  8
0
 10
49.9464
 20
15.8131
 11
49.8131
 21
15.9464
  0
LINE
  8
0
 10
49.8131
 20
15.9464
 11
49.6885
 21
16.0877
  0
LINE
  8
0
 10
49.6885
 20
16.0877
 11
49.5729
 21
16.2366
  0
LINE
  8
0
 10
49.5729
 20
16.2366
 11
49.467
 21
16.3925
  0
LINE
  8
0
 10
49.467
 20
16.3925
 11
49.3711
 21
16.5547
  0
LINE
  8
0
 10
49.3711
 20
16.5547
 11
49.2855
 21
16.7227
  0
LINE
  8
0
 10
49.2855
 20
16.7227
 11
49.2107
 21
16.8956
  0
LINE
  8
0
 10
49.2107
 20
16.8956
 11
49.1468
 21
17.0729
  0
LINE
  8
0
 10
49.1468
 20
17.0729
 11
49.0943
 21
17.2539
  0
LINE
  8
0
 10
49.0943
 20
17.2539
 11
49.0531
 21
17.4379
  0
LINE
  8
0
 10
49.0531
 20
17.4379
 11
49.0237
 21
17.624
  0
LINE
  8
0
 10
49.0237
 20
17.624
 11
49.0059
 21
17.8116
  0
LINE
  8
0
 10
49.0059
 20
17.8116
 11
49
 21
18
  0
LINE
  8
0
 10
55
 20
6
 11
55.0059
 21
6.18837
  0
LINE
  8
0
 10
55.0059
 20
6.18837
 11
55.0237
 21
6.376
  0
LINE
  8
0
 10
55.0237
 20
6.376
 11
55.0531
 21
6.56214
  0
LINE
  8
0
 10
55.0531
 20
6.56214
 11
55.0943
 21
6.74607
  0
LINE
  8
0
 10
55.0943
 20
6.74607
 11
55.1468
 21
6.92705
  0
LINE
  8
0
 10
55.1468
 20
6.92705
 11
55.2107
 21
7.10437
  0
LINE
  8
0
 10
55.2107
 20
7.10437
 11
55.2855
 21
7.27734
  0
LINE
  8
0
 10
55.2855
 20
7.27734
 11
55.3711
 21
7.44526
  0
LINE
  8
0
 10
55.3711
 20
7.44526
 11
55.467
 21
7.60748
  0
LINE
  8
0
 10
55.467
 20
7.60748
 11
55.5729
 21
7.76336
  0
LINE
  8
0
 10
55.5729
 20
7.76336
 11
55.6885
 21
7.91227
  0
LINE
  8
0
 10
55.6885
 20
7.91227
 11
55.8131
 21
8.05364
  0
LINE
  8
0
 10
55.8131
 20
8.05364
 11
55.9464
 21
8.18691
  0
LINE
  8
0
 10
55.9464
 20
8.18691
 11
56.0877
 21
8.31154
  0
LINE
  8
0
 10
56.0877
 20
8.31154
 11
56.2366
 21
8.42705
  0
LINE
  8
0
 10
56.2366
 20
8.42705
 11
56.3925
 21
8.53298
  0
LINE
  8
0
 10
56.3925
 20
8.53298
 11
56.5547
 21
8.62892
  0
LINE
  8
0
 10
56.5547
 20
8.62892
 11
56.7227
 21
8.71448
  0
LINE
  8
0
 10
56.7227
 20
8.71448
 11
56.8956
 21
8.78933
  0
LINE
  8
0
 10
56.8956
 20
8.78933
 11
57
 21
8.82691
  0
LINE
  8
0
 10
57
 20
8.82691
 11
57
 21
8
  0
LINE
  8
0
 10
57
 20
8
 11
59
 21
8
  0
LINE
  8
0
 10
59
 20
8
 11
59
 21
8.82691
  0
LINE
  8
0
 10
59
 20
8.82691
 11
59.1044
 21
8.78933
  0
LINE
  8
0
 10
59.1044
 20
8.78933
 11
59.2773
 21
8.71448
  0
LINE
  8
0
 10
59.2773
 20
8.71448
 11
59.4453
 21
8.62892
  0
LINE
  8
0
 10
59.4453
 20
8.62892
 11
59.6075
 21
8.53298
  0
LINE
  8
0
 10
59.6075
 20
8.53298
 11
59.7634
 21
8.42705
  0
LINE
  8
0
 10
59.7634
 20
8.42705
 11
59.9123
 21
8.31154
  0
LINE
  8
0
 10
59.9123
 20
8.31154
 11
60.0536
 21
8.18691
  0
LINE
  8
0
 10
60.0536
 20
8.18691
 11
60.1869
 21
8.05364
  0
LINE
  8
0
 10
60.1869
 20
8.05364
 11
60.3115
 21
7.91227
  0
LINE
  8
0
 10
60.3115
 20
7.91227
 11
60.4271
 21
7.76336
  0
LINE
  8
0
 10
60.4271
 20
7.76336
 11
60.533
 21
7.60748
  0
LINE
  8
0
 10
60.533
 20
7.60748
 11
60.6289
 21
7.44526
  0
LINE
  8
0
 10
60.6289
 20
7.44526
 11
60.7145
 21
7.27734
  0
LINE
  8
0
 10
60.7145
 20
7.27734
 11
60.7893
 21
7.10437
  0
LINE
  8
0
 10
60.7893
 20
7.10437
 11
60.8532
 21
6.92705
  0
LINE
  8
0
 10
60.8532
 20
6.92705
 11
60.861
 21
6.9
  0
LINE
  8
0
 10
60.861
 20
6.9
 11
56
 21
6.9
  0
LINE
  8
0
 10
56
 20
6.9
 11
56
 21
5.1
  0
LINE
  8
0
 10
56
 20
5.1
 11
60.861
 21
5.1
  0
LINE
  8
0
 10
60.861
 20
5.1
 11
60.8532
 21
5.07295
  0
LINE
  8
0
 10
60.8532
 20
5.07295
 11
60.7893
 21
4.89563
  0
LINE
  8
0
 10
60.7893
 20
4.89563
 11
60.7145
 21
4.72266
  0
LINE
  8
0
 10
60.7145
 20
4.72266
 11
60.6289
 21
4.55474
  0
LINE
  8
0
 10
60.6289
 20
4.55474
 11
60.533
 21
4.39252
  0
LINE
  8
0
 10
60.533
 20
4.39252
 11
60.4271
 21
4.23664
  0
LINE
  8
0
 10
60.4271
 20
4.23664
 11
60.3115
 21
4.08773
  0
LINE
  8
0
 10
60.3115
 20
4.08773
 11
60.1869
 21
3.94636
  0
LINE
  8
0
 10
60.1869
 20
3.94636
 11
60.0536
 21
3.81309
  0
LINE
  8
0
 10
60.0536
 20
3.81309
 11
59.9123
 21
3.68846
  0
LINE
  8
0
 10
59.9123
 20
3.68846
 11
59.7634
 21
3.57295
  0
LINE
  8
0
 10
59.7634
 20
3.57295
 11
59.6075
 21
3.46702
  0
LINE
  8
0
 10
59.6075
 20
3.46702
 11
59.4453
 21
3.37108
  0
LINE
  8
0
 10
59.4453
 20
3.37108
 11
59.2773
 21
3.28552
  0
LINE
  8
0
 10
59.2773
 20
3.28552
 11
59.1044
 21
3.21067
  0
LINE
  8
0
 10
59.1044
 20
3.21067
 11
59
 21
3.17309
  0
LINE
  8
0
 10
59
 20
3.17309
 11
59
 21
4
  0
LINE
  8
0
 10
59
 20
4
 11
57
 21
4
  0
LINE
  8
0
 10
57
 20
4
 11
57
 21
3.17309
  0
LINE
  8
0
 10
57
 20
3.17309
 11
56.8956
 21
3.21067
  0
LINE
  8
0
 10
56.8956
 20
3.21067
 11
56.7227
 21
3.28552
  0
LINE
  8
0
 10
56.7227
 20
3.28552
 11
56.5547
 21
3.37108
  0
LINE
  8
0
 10
56.5547
 20
3.37108
 11
56.3925
 21
3.46702
  0
LINE
  8
0
 10
56.3925
 20
3.46702
 11
56.2366
 21
3.57295
  0
LINE
  8
0
 10
56.2366
 20
3.57295
 11
56.0877
 21
3.68846
  0
LINE
  8
0
 10
56.0877
 20
3.68846
 11
55.9464
 21
3.81309
  0
LINE
  8
0
 10
55.9464
 20
3.81309
 11
55.8131
 21
3.94636
  0
LINE
  8
0
 10
55.8131
 20
3.94636
 11
55.6885
 21
4.08773
  0
LINE
  8
0
 10
55.6885
 20
4.08773
 11
55.5729
 21
4.23664
  0
LINE
  8
0
 10
55.5729
 20
4.23664
 11
55.467
 21
4.39252
  0
LINE
  8
0
 10
55.467
 20
4.39252
 11
55.3711
 21
4.55474
  0
LINE
  8
0
 10
55.3711
 20
4.55474
 11
55.2855
 21
4.72266
  0
LINE
  8
0
 10
55.2855
 20
4.72266
 11
55.2107
 21
4.89563
  0
LINE
  8
0
 10
55.2107
 20
4.89563
 11
55.1468
 21
5.07295
  0
LINE
  8
0
 10
55.1468
 20
5.07295
 11
55.0943
 21
5.25393
  0
LINE
  8
0
 10
55.0943
 20
5.25393
 11
55.0531
 21
5.43786
  0
LINE
  8
0
 10
55.0531
 20
5.43786
 11
55.0237
 21
5.624
  0
LINE
  8
0
 10
55.0237
 20
5.624
 11
55.0059
 21
5.81163
  0
LINE
  8
0
 10
55.0059
 20
5.81163
 11
55
 21
6
  0
LINE
  8
0
 10
61
 20
18
 11
61.0059
 21
18.1884
  0
LINE
  8
0
 10
61.0059
 20
18.1884
 11
61.0237
 21
18.376
  0
LINE
  8
0
 10
61.0237
 20
18.376
 11
61.0531
 21
18.5621
  0
LINE
  8
0
 10
61.0531
 20
18.5621
 11
61.0943
 21
18.7461
  0
LINE
  8
0
 10
61.0943
 20
18.7461
 11
61.1468
 21
18.9271
  0
LINE
  8
0
 10
61.1468
 20
18.9271
 11
61.2107
 21
19.1044
  0
LINE
  8
0
 10
61.2107
 20
19.1044
 11
61.2855
 21
19.2773
  0
LINE
  8
0
 10
61.2855
 20
19.2773
 11
61.3711
 21
19.4453
  0
LINE
  8
0
 10
61.3711
 20
19.4453
 11
61.467
 21
19.6075
  0
LINE
  8
0
 10
61.467
 20
19.6075
 11
61.5729
 21
19.7634
  0
LINE
  8
0
 10
61.5729
 20
19.7634
 11
61.6885
 21
19.9123
  0
LINE
  8
0
 10
61.6885
 20
19.9123
 11
61.8131
 21
20.0536
  0
LINE
  8
0
 10
61.8131
 20
20.0536
 11
61.9464
 21
20.1869
  0
LINE
  8
0
 10
61.9464
 20
20.1869
 11
62.0877
 21
20.3115
  0
LINE
  8
0
 10
62.0877
 20
20.3115
 11
62.2366
 21
20.4271
  0
LINE
  8
0
 10
62.2366
 20
20.4271
 11
62.3925
 21
20.533
  0
LINE
  8
0
 10
62.3925
 20
20.533
 11
62.5547
 21
20.6289
  0
LINE
  8
0
 10
62.5547
 20
20.6289
 11
62.7227
 21
20.7145
  0
LINE
  8
0
 10
62.7227
 20
20.7145
 11
62.8956
 21
20.7893
  0
LINE
  8
0
 10
62.8956
 20
20.7893
 11
63
 21
20.8269
  0
LINE
  8
0
 10
63
 20
20.8269
 11
63
 21
20
  0
LINE
  8
0
 10
63
 20
20
 11
65
 21
20
  0
LINE
  8
0
 10
65
 20
20
 11
65
 21
20.8269
  0
LINE
  8
0
 10
65
 20
20.8269
 11
65.1044
 21
20.7893
  0
LINE
  8
0
 10
65.1044
 20
20.7893
 11
65.2773
 21
20.7145
  0
LINE
  8
0
 10
65.2773
 20
20.7145
 11
65.4453
 21
20.6289
  0
LINE
  8
0
 10
65.4453
 20
20.6289
 11
65.6075
 21
20.533
  0
LINE
  8
0
 10
65.6075
 20
20.533
 11
65.7634
 21
20.4271
  0
LINE
  8
0
 10
65.7634
 20
20.4271
 11
65.9123
 21
20.3115
  0
LINE
  8
0
 10
65.9123
 20
20.3115
 11
66.0536
 21
20.1869
  0
LINE
  8
0
 10
66.0536
 20
20.1869
 11
66.1869
 21
20.0536
  0
LINE
  8
0
 10
66.1869
 20
20.0536
 11
66.3115
 21
19.9123
  0
LINE
  8
0
 10
66.3115
 20
19.9123
 11
66.4271
 21
19.7634
  0
LINE
  8
0
 10
66.4271
 20
19.7634
 11
66.533
 21
19.6075
  0
LINE
  8
0
 10
66.533
 20
19.6075
 11
66.6289
 21
19.4453
  0
LINE
  8
0
 10
66.6289
 20
19.4453
 11
66.7145
 21
19.2773
  0
LINE
  8
0
 10
66.7145
 20
19.2773
 11
66.7893
 21
19.1044
  0
LINE
  8
0
 10
66.7893
 20
19.1044
 11
66.8532
 21
18.9271
  0
LINE
  8
0
 10
66.8532
 20
18.9271
 11
66.861
 21
18.9
  0
LINE
  8
0
 10
66.861
 20
18.9
 11
62
 21
18.9
  0
LINE
  8
0
 10
62
 20
18.9
 11
62
 21
17.1
  0
LINE
  8
0
 10
62
 20
17.1
 11
66.861
 21
17.1
  0
LINE
  8
0
 10
66.861
 20
17.1
 11
66.8532
 21
17.0729
  0
LINE
  8
0
 10
66.8532
 20
17.0729
 11
66.7893
 21
16.8956
  0
LINE
  8
0
 10
66.7893
 20
16.8956
 11
66.7145
 21
16.7227
  0
LINE
  8
0
 10
66.7145
 20
16.7227
 11
66.6289
 21
16.5547
  0
LINE
  8
0
 10
66.6289
 20
16.5547
 11
66.533
 21
16.3925
  0
LINE
  8
0
 10
66.533
 20
16.3925
 11
66.4271
 21
16.2366
  0
LINE
  8
0
 10
66.4271
 20
16.2366
 11
66.3115
 21
16.0877
  0
LINE
  8
0
 10
66.3115
 20
16.0877
 11
66.1869
 21
15.9464
  0
LINE
  8
0
 10
66.1869
 20
15.9464
 11
66.0536
 21
15.8131
  0
LINE
  8
0
 10
66.0536
 20
15.8131
 11
65.9123
 21
15.6885
  0
LINE
  8
0
 10
65.9123
 20
15.6885
 11
65.7634
 21
15.5729
  0
LINE
  8
0
 10
65.7634
 20
15.5729
 11
65.6075
 21
15.467
  0
LINE
  8
0
 10
65.6075
 20
15.467
 11
65.4453
 21
15.3711
  0
LINE
  8
0
 10
65.4453
 20
15.3711
 11
65.2773
 21
15.2855
  0
LINE
  8
0
 10
65.2773
 20
15.2855
 11
65.1044
 21
15.2107
  0
LINE
  8
0
 10
65.1044
 20
15.2107
 11
65
 21
15.1731
  0
LINE
  8
0
 10
65
 20
15.1731
 11
65
 21
16
  0
LINE
  8
0
 10
65
 20
16
 11
63
 21
16
  0
LINE
  8
0
 10
63
 20
16
 11
63
 21
15.1731
  0
LINE
  8
0
 10
63
 20
15.1731
 11
62.8956
 21
15.2107
  0
LINE
  8
0
 10
62.8956
 20
15.2107
 11
62.7227
 21
15.2855
  0
LINE
  8
0
 10
62.7227
 20
15.2855
 11
62.5547
 21
15.3711
  0
LINE
  8
0
 10
62.5547
 20
15.3711
 11
62.3925
 21
15.467
  0
LINE
  8
0
 10
62.3925
 20
15.467
 11
62.2366
 21
15.5729
  0
LINE
  8
0
 10
62.2366
 20
15.5729
 11
62.0877
 21
15.6885
  0
LINE
  8
0
 10
62.0877
 20
15.6885
 11
61.9464
 21
15.8131
  0
LINE
  8
0
 10
61.9464
 20
15.8131
 11
61.8131
 21
15.9464
  0
LINE
  8
0
 10
61.8131
 20
15.9464
 11
61.6885
 21
16.0877
  0
LINE
  8
0
 10
61.6885
 20
16.0877
 11
61.5729
 21
16.2366
  0
LINE
  8
0
 10
61.5729
 20
16.2366
 11
61.467
 21
16.3925
  0
LINE
  8
0
 10
61.467
 20
16.3925
 11
61.3711
 21
16.5547
  0
LINE
  8
0
 10
61.3711
 20
16.5547
 11
61.2855
 21
16.7227
  0
LINE
  8
0
 10
61.2855
 20
16.7227
 11
61.2107
 21
16.8956
  0
LINE
  8
0
 10
61.2107
 20
16.8956
 11
61.1468
 21
17.0729
  0
LINE
  8
0
 10
61.1468
 20
17.0729
 11
61.0943
 21
17.2539
  0
LINE
  8
0
 10
61.0943
 20
17.2539
 11
61.0531
 21
17.4379
  0
LINE
  8
0
 10
61.0531
 20
17.4379
 11
61.0237
 21
17.624
  0
LINE
  8
0
 10
61.0237
 20
17.624
 11
61.0059
 21
17.8116
  0
LINE
  8
0
 10
61.0059
 20
17.8116
 11
61
 21
18
  0
LINE
  8
0
 10
67
 20
6
 11
67.0059
 21
6.18837
  0
LINE
  8
0
 10
67.0059
 20
6.18837
 11
67.0237
 21
6.376
  0
LINE
  8
0
 10
67.0237
 20
6.376
 11
67.0531
 21
6.56214
  0
LINE
  8
0
 10
67.0531
 20
6.56214
 11
67.0943
 21
6.74607
  0
LINE
  8
0
 10
67.0943
 20
6.74607
 11
67.1468
 21
6.92705
  0
LINE
  8
0
 10
67.1468
 20
6.92705
 11
67.2107
 21
7.10437
  0
LINE
  8
0
 10
67.2107
 20
7.10437
 11
67.2855
 21
7.27734
  0
LINE
  8
0
 10
67.2855
 20
7.27734
 11
67.3711
 21
7.44526
  0
LINE
  8
0
 10
67.3711
 20
7.44526
 11
67.467
 21
7.60748
  0
LINE
  8
0
 10
67.467
 20
7.60748
 11
67.5729
 21
7.76336
  0
LINE
  8
0
 10
67.5729
 20
7.76336
 11
67.6885
 21
7.91227
  0
LINE
  8
0
 10
67.6885
 20
7.91227
 11
67.8131
 21
8.05364
  0
LINE
  8
0
 10
67.8131
 20
8.05364
 11
67.9464
 21
8.18691
  0
LINE
  8
0
 10
67.9464
 20
8.18691
 11
68.0877
 21
8.31154
  0
LINE
  8
0
 10
68.0877
 20
8.31154
 11
68.2366
 21
8.42705
  0
LINE
  8
0
 10
68.2366
 20
8.42705
 11
68.3925
 21
8.53298
  0
LINE
  8
0
 10
68.3925
 20
8.53298
 11
68.5547
 21
8.62892
  0
LINE
  8
0
 10
68.5547
 20
8.62892
 11
68.7227
 21
8.71448
  0
LINE
  8
0
 10
68.7227
 20
8.71448
 11
68.8956
 21
8.78933
  0
LINE
  8
0
 10
68.8956
 20
8.78933
 11
69
 21
8.82691
  0
LINE
  8
0
 10
69
 20
8.82691
 11
69
 21
8
  0
LINE
  8
0
 10
69
 20
8
 11
71
 21
8
  0
LINE
  8
0
 10
71
 20
8
 11
71
 21
8.82691
  0
LINE
  8
0
 10
71
 20
8.82691
 11
71.1044
 21
8.78933
  0
LINE
  8
0
 10
71.1044
 20
8.78933
 11
71.2773
 21
8.71448
  0
LINE
  8
0
 10
71.2773
 20
8.71448
 11
71.4453
 21
8.62892
  0
LINE
  8
0
 10
71.4453
 20
8.62892
 11
71.6075
 21
8.53298
  0
LINE
  8
0
 10
71.6075
 20
8.53298
 11
71.7634
 21
8.42705
  0
LINE
  8
0
 10
71.7634
 20
8.42705
 11
71.9123
 21
8.31154
  0
LINE
  8
0
 10
71.9123
 20
8.31154
 11
72.0536
 21
8.18691
  0
LINE
  8
0
 10
72.0536
 20
8.18691
 11
72.1869
 21
8.05364
  0
LINE
  8
0
 10
72.1869
 20
8.05364
 11
72.3115
 21
7.91227
  0
LINE
  8
0
 10
72.3115
 20
7.91227
 11
72.4271
 21
7.76336
  0
LINE
  8
0
 10
72.4271
 20
7.76336
 11
72.533
 21
7.60748
  0
LINE
  8
0
 10
72.533
 20
7.60748
 11
72.6289
 21
7.44526
  0
LINE
  8
0
 10
72.6289
 20
7.44526
 11
72.7145
 21
7.27734
  0
LINE
  8
0
 10
72.7145
 20
7.27734
 11
72.7893
 21
7.10437
  0
LINE
  8
0
 10
72.7893
 20
7.10437
 11
72.8532
 21
6.92705
  0
LINE
  8
0
 10
72.8532
 20
6.92705
 11
72.861
 21
6.9
  0
LINE
  8
0
 10
72.861
 20
6.9
 11
68
 21
6.9
  0
LINE
  8
0
 10
68
 20
6.9
 11
68
 21
5.1
  0
LINE
  8
0
 10
68
 20
5.1
 11
72.861
 21
5.1
  0
LINE
  8
0
 10
72.861
 20
5.1
 11
72.8532
 21
5.07295
  0
LINE
  8
0
 10
72.8532
 20
5.07295
 11
72.7893
 21
4.89563
  0
LINE
  8
0
 10
72.7893
 20
4.89563
 11
72.7145
 21
4.72266
  0
LINE
  8
0
 10
72.7145
 20
4.72266
 11
72.6289
 21
4.55474
  0
LINE
  8
0
 10
72.6289
 20
4.55474
 11
72.533
 21
4.39252
  0
LINE
  8
0
 10
72.533
 20
4.39252
 11
72.4271
 21
4.23664
  0
LINE
  8
0
 10
72.4271
 20
4.23664
 11
72.3115
 21
4.08773
  0
LINE
  8
0
 10
72.3115
 20
4.08773
 11
72.1869
 21
3.94636
  0
LINE
  8
0
 10
72.1869
 20
3.94636
 11
72.0536
 21
3.81309
  0
LINE
  8
0
 10
72.0536
 20
3.81309
 11
71.9123
 21
3.68846
  0
LINE
  8
0
 10
71.9123
 20
3.68846
 11
71.7634
 21
3.57295
  0
LINE
  8
0
 10
71.7634
 20
3.57295
 11
71.6075
 21
3.46702
  0
LINE
  8
0
 10
71.6075
 20
3.46702
 11
71.4453
 21
3.37108
  0
LINE
  8
0
 10
71.4453
 20
3.37108
 11
71.2773
 21
3.28552
  0
LINE
  8
0
 10
71.2773
 20
3.28552
 11
71.1044
 21
3.21067
  0
LINE
  8
0
 10
71.1044
 20
3.21067
 11
71
 21
3.17309
  0
LINE
  8
0
 10
71
 20
3.17309
 11
71
 21
4
  0
LINE
  8
0
 10
71
 20
4
 11
69
 21
4
  0
LINE
  8
0
 10
69
 20
4
 11
69
 21
3.17309
  0
LINE
  8
0
 10
69
 20
3.17309
 11
68.8956
 21
3.21067
  0
LINE
  8
0
 10
68.8956
 20
3.21067
 11
68.7227
 21
3.28552
  0
LINE
  8
0
 10
68.7227
 20
3.28552
 11
68.5547
 21
3.37108
  0
LINE
  8
0
 10
68.5547
 20
3.37108
 11
68.3925
 21
3.46702
  0
LINE
  8
0
 10
68.3925
 20
3.46702
 11
68.2366
 21
3.57295
  0
LINE
  8
0
 10
68.2366
 20
3.57295
 11
68.0877
 21
3.68846
  0
LINE
  8
0
 10
68.0877
 20
3.68846
 11
67.9464
 21
3.81309
  0
LINE
  8
0
 10
67.9464
 20
3.81309
 11
67.8131
 21
3.94636
  0
LINE
  8
0
 10
67.8131
 20
3.94636
 11
67.6885
 21
4.08773
  0
LINE
  8
0
 10
67.6885
 20
4.08773
 11
67.5729
 21
4.23664
  0
LINE
  8
0
 10
67.5729
 20
4.23664
 11
67.467
 21
4.39252
  0
LINE
  8
0
 10
67.467
 20
4.39252
 11
67.3711
 21
4.55474
  0
LINE
  8
0
 10
67.3711
 20
4.55474
 11
67.2855
 21
4.72266
  0
LINE
  8
0
 10
67.2855
 20
4.72266
 11
67.2107
 21
4.89563
  0
LINE
  8
0
 10
67.2107
 20
4.89563
 11
67.1468
 21
5.07295
  0
LINE
  8
0
 10
67.1468
 20
5.07295
 11
67.0943
 21
5.25393
  0
LINE
  8
0
 10
67.0943
 20
5.25393
 11
67.0531
 21
5.43786
  0
LINE
  8
0
 10
67.0531
 20
5.43786
 11
67.0237
 21
5.624
  0
LINE
  8
0
 10
67.0237
 20
5.624
 11
67.0059
 21
5.81163
  0
LINE
  8
0
 10
67.0059
 20
5.81163
 11
67
 21
6
  0
LINE
  8
0
 10
73
 20
18
 11
73.0059
 21
18.1884
  0
LINE
  8
0
 10
73.0059
 20
18.1884
 11
73.0237
 21
18.376
  0
LINE
  8
0
 10
73.0237
 20
18.376
 11
73.0531
 21
18.5621
  0
LINE
  8
0
 10
73.0531
 20
18.5621
 11
73.0943
 21
18.7461
  0
LINE
  8
0
 10
73.0943
 20
18.7461
 11
73.1468
 21
18.9271
  0
LINE
  8
0
 10
73.1468
 20
18.9271
 11
73.2107
 21
19.1044
  0
LINE
  8
0
 10
73.2107
 20
19.1044
 11
73.2855
 21
19.2773
  0
LINE
  8
0
 10
73.2855
 20
19.2773
 11
73.3711
 21
19.4453
  0
LINE
  8
0
 10
73.3711
 20
19.4453
 11
73.467
 21
19.6075
  0
LINE
  8
0
 10
73.467
 20
19.6075
 11
73.5729
 21
19.7634
  0
LINE
  8
0
 10
73.5729
 20
19.7634
 11
73.6885
 21
19.9123
  0
LINE
  8
0
 10
73.6885
 20
19.9123
 11
73.8131
 21
20.0536
  0
LINE
  8
0
 10
73.8131
 20
20.0536
 11
73.9464
 21
20.1869
  0
LINE
  8
0
 10
73.9464
 20
20.1869
 11
74.0877
 21
20.3115
  0
LINE
  8
0
 10
74.0877
 20
20.3115
 11
74.2366
 21
20.4271
  0
LINE
  8
0
 10
74.2366
 20
20.4271
 11
74.3925
 21
20.533
  0
LINE
  8
0
 10
74.3925
 20
20.533
 11
74.5547
 21
20.6289
  0
LINE
  8
0
 10
74.5547
 20
20.6289
 11
74.7227
 21
20.7145
  0
LINE
  8
0
 10
74.7227
 20
20.7145
 11
74.8956
 21
20.7893
  0
LINE
  8
0
 10
74.8956
 20
20.7893
 11
75
 21
20.8269
  0
LINE
  8
0
 10
75
 20
20.8269
 11
75
 21
20
  0
LINE
  8
0
 10
75
 20
20
 11
77
 21
20
  0
LINE
  8
0
 10
77
 20
20
 11
77
 21
20.8269
  0
LINE
  8
0
 10
77
 20
20.8269
 11
77.1044
 21
20.7893
  0
LINE
  8
0
 10
77.1044
 20
20.7893
 11
77.2773
 21
20.7145
  0
LINE
  8
0
 10
77.2773
 20
20.7145
 11
77.4453
 21
20.6289
  0
LINE
  8
0
 10
77.4453
 20
20.6289
 11
77.6075
 21
20.533
  0
LINE
  8
0
 10
77.6075
 20
20.533
 11
77.7634
 21
20.4271
  0
LINE
  8
0
 10
77.7634
 20
20.4271
 11
77.9123
 21
20.3115
  0
LINE
  8
0
 10
77.9123
 20
20.3115
 11
78.0536
 21
20.1869
  0
LINE
  8
0
 10
78.0536
 20
20.1869
 11
78.1869
 21
20.0536
  0
LINE
  8
0
 10
78.1869
 20
20.0536
 11
78.3115
 21
19.9123
  0
LINE
  8
0
 10
78.3115
 20
19.9123
 11
78.4271
 21
19.7634
  0
LINE
  8
0
 10
78.4271
 20
19.7634
 11
78.533
 21
19.6075
  0
LINE
  8
0
 10
78.533
 20
19.6075
 11
78.6289
 21
19.4453
  0
LINE
  8
0
 10
78.6289
 20
19.4453
 11
78.7145
 21
19.2773
  0
LINE
  8
0
 10
78.7145
 20
19.2773
 11
78.7893
 21
19.1044
  0
LINE
  8
0
 10
78.7893
 20
19.1044
 11
78.8532
 21
18.9271
  0
LINE
  8
0
 10
78.8532
 20
18.9271
 11
78.861
 21
18.9
  0
LINE
  8
0
 10
78.861
 20
18.9
 11
74
 21
18.9
  0
LINE
  8
0
 10
74
 20
18.9
 11
74
 21
17.1
  0
LINE
  8
0
 10
74
 20
17.1
 11
78.861
 21
17.1
  0
LINE
  8
0
 10
78.861
 20
17.1
 11
78.8532
 21
17.0729
  0
LINE
  8
0
 10
78.8532
 20
17.0729
 11
78.7893
 21
16.8956
  0
LINE
  8
0
 10
78.7893
 20
16.8956
 11
78.7145
 21
16.7227
  0
LINE
  8
0
 10
78.7145
 20
16.7227
 11
78.6289
 21
16.5547
  0
LINE
  8
0
 10
78.6289
 20
16.5547
 11
78.533
 21
16.3925
  0
LINE
  8
0
 10
78.533
 20
16.3925
 11
78.4271
 21
16.2366
  0
LINE
  8
0
 10
78.4271
 20
16.2366
 11
78.3115
 21
16.0877
  0
LINE
  8
0
 10
78.3115
 20
16.0877
 11
78.1869
 21
15.9464
  0
LINE
  8
0
 10
78.1869
 20
15.9464
 11
78.0536
 21
15.8131
  0
LINE
  8
0
 10
78.0536
 20
15.8131
 11
77.9123
 21
15.6885
  0
LINE
  8
0
 10
77.9123
 20
15.6885
 11
77.7634
 21
15.5729
  0
LINE
  8
0
 10
77.7634
 20
15.5729
 11
77.6075
 21
15.467
  0
LINE
  8
0
 10
77.6075
 20
15.467
 11
77.4453
 21
15.3711
  0
LINE
  8
0
 10
77.4453
 20
15.3711
 11
77.2773
 21
15.2855
  0
LINE
  8
0
 10
77.2773
 20
15.2855
 11
77.1044
 21
15.2107
  0
LINE
  8
0
 10
77.1044
 20
15.2107
 11
77
 21
15.1731
  0
LINE
  8
0
 10
77
 20
15.1731
 11
77
 21
16
  0
LINE
  8
0
 10
77
 20
16
 11
75
 21
16
  0
LINE
  8
0
 10
75
 20
16
 11
75
 21
15.1731
  0
LINE
  8
0
 10
75
 20
15.1731
 11
74.8956
 21
15.2107
  0
LINE
  8
0
 10
74.8956
 20
15.2107
 11
74.7227
 21
15.2855
  0
LINE
  8
0
 10
74.7227
 20
15.2855
 11
74.5547
 21
15.3711
  0
LINE
  8
0
 10
74.5547
 20
15.3711
 11
74.3925
 21
15.467
  0
LINE
  8
0
 10
74.3925
 20
15.467
 11
74.2366
 21
15.5729
  0
LINE
  8
0
 10
74.2366
 20
15.5729
 11
74.0877
 21
15.6885
  0
LINE
  8
0
 10
74.0877
 20
15.6885
 11
73.9464
 21
15.8131
  0
LINE
  8
0
 10
73.9464
 20
15.8131
 11
73.8131
 21
15.9464
  0
LINE
  8
0
 10
73.8131
 20
15.9464
 11
73.6885
 21
16.0877
  0
LINE
  8
0
 10
73.6885
 20
16.0877
 11
73.5729
 21
16.2366
  0
LINE
  8
0
 10
73.5729
 20
16.2366
 11
73.467
 21
16.3925
  0
LINE
  8
0
 10
73.467
 20
16.3925
 11
73.3711
 21
16.5547
  0
LINE
  8
0
 10
73.3711
 20
16.5547
 11
73.2855
 21
16.7227
  0
LINE
  8
0
 10
73.2855
 20
16.7227
 11
73.2107
 21
16.8956
  0
LINE
  8
0
 10
73.2107
 20
16.8956
 11
73.1468
 21
17.0729
  0
LINE
  8
0
 10
73.1468
 20
17.0729
 11
73.0943
 21
17.2539
  0
LINE
  8
0
 10
73.0943
 20
17.2539
 11
73.0531
 21
17.4379
  0
LINE
  8
0
 10
73.0531
 20
17.4379
 11
73.0237
 21
17.624
  0
LINE
  8
0
 10
73.0237
 20
17.624
 11
73.0059
 21
17.8116
  0
LINE
  8
0
 10
73.0059
 20
17.8116
 11
73
 21
18
  0
LINE
  8
0
 10
79
 20
6
 11
79.0059
 21
6.18837
  0
LINE
  8
0
 10
79.0059
 20
6.18837
 11
79.0237
 21
6.376
  0
LINE
  8
0
 10
79.0237
 20
6.376
 11
79.0531
 21
6.56214
  0
LINE
  8
0
 10
79.0531
 20
6.56214
 11
79.0943
 21
6.74607
  0
LINE
  8
0
 10
79.0943
 20
6.74607
 11
79.1468
 21
6.92705
  0
LINE
  8
0
 10
79.1468
 20
6.92705
 11
79.2107
 21
7.10437
  0
LINE
  8
0
 10
79.2107
 20
7.10437
 11
79.2855
 21
7.27734
  0
LINE
  8
0
 10
79.2855
 20
7.27734
 11
79.3711
 21
7.44526
  0
LINE
  8
0
 10
79.3711
 20
7.44526
 11
79.467
 21
7.60748
  0
LINE
  8
0
 10
79.467
 20
7.60748
 11
79.5729
 21
7.76336
  0
LINE
  8
0
 10
79.5729
 20
7.76336
 11
79.6885
 21
7.91227
  0
LINE
  8
0
 10
79.6885
 20
7.91227
 11
79.8131
 21
8.05364
  0
LINE
  8
0
 10
79.8131
 20
8.05364
 11
79.9464
 21
8.18691
  0
LINE
  8
0
 10
79.9464
 20
8.18691
 11
80.0877
 21
8.31154
  0
LINE
  8
0
 10
80.0877
 20
8.31154
 11
80.2366
 21
8.42705
  0
LINE
  8
0
 10
80.2366
 20
8.42705
 11
80.3925
 21
8.53298
  0
LINE
  8
0
 10
80.3925
 20
8.53298
 11
80.5547
 21
8.62892
  0
LINE
  8
0
 10
80.5547
 20
8.62892
 11
80.7227
 21
8.71448
  0
LINE
  8
0
 10
80.7227
 20
8.71448
 11
80.8956
 21
8.78933
  0
LINE
  8
0
 10
80.8956
 20
8.78933
 11
81
 21
8.82691
  0
LINE
  8
0
 10
81
 20
8.82691
 11
81
 21
8
  0
LINE
  8
0
 10
81
 20
8
 11
83
 21
8
  0
LINE
  8
0
 10
83
 20
8
 11
83
 21
8.82691
  0
LINE
  8
0
 10
83
 20
8.82691
 11
83.1044
 21
8.78933
  0
LINE
  8
0
 10
83.1044
 20
8.78933
 11
83.2773
 21
8.71448
  0
LINE
  8
0
 10
83.2773
 20
8.71448
 11
83.4453
 21
8.62892
  0
LINE
  8
0
 10
83.4453
 20
8.62892
 11
83.6075
 21
8.53298
  0
LINE
  8
0
 10
83.6075
 20
8.53298
 11
83.7634
 21
8.42705
  0
LINE
  8
0
 10
83.7634
 20
8.42705
 11
83.9123
 21
8.31154
  0
LINE
  8
0
 10
83.9123
 20
8.31154
 11
84.0536
 21
8.18691
  0
LINE
  8
0
 10
84.0536
 20
8.18691
 11
84.1869
 21
8.05364
  0
LINE
  8
0
 10
84.1869
 20
8.05364
 11
84.3115
 21
7.91227
  0
LINE
  8
0
 10
84.3115
 20
7.91227
 11
84.4271
 21
7.76336
  0
LINE
  8
0
 10
84.4271
 20
7.76336
 11
84.533
 21
7.60748
  0
LINE
  8
0
 10
84.533
 20
7.60748
 11
84.6289
 21
7.44526
  0
LINE
  8
0
 10
84.6289
 20
7.44526
 11
84.7145
 21
7.27734
  0
LINE
  8
0
 10
84.7145
 20
7.27734
 11
84.7893
 21
7.10437
  0
LINE
  8
0
 10
84.7893
 20
7.10437
 11
84.8532
 21
6.92705
  0
LINE
  8
0
 10
84.8532
 20
6.92705
 11
84.861
 21
6.9
  0
LINE
  8
0
 10
84.861
 20
6.9
 11
80
 21
6.9
  0
LINE
  8
0
 10
80
 20
6.9
 11
80
 21
5.1
  0
LINE
  8
0
 10
80
 20
5.1
 11
84.861
 21
5.1
  0
LINE
  8
0
 10
84.861
 20
5.1
 11
84.8532
 21
5.07295
  0
LINE
  8
0
 10
84.8532
 20
5.07295
 11
84.7893
 21
4.89563
  0
LINE
  8
0
 10
84.7893
 20
4.89563
 11
84.7145
 21
4.72266
  0
LINE
  8
0
 10
84.7145
 20
4.72266
 11
84.6289
 21
4.55474
  0
LINE
  8
0
 10
84.6289
 20
4.55474
 11
84.533
 21
4.39252
  0
LINE
  8
0
 10
84.533
 20
4.39252
 11
84.4271
 21
4.23664
  0
LINE
  8
0
 10
84.4271
 20
4.23664
 11
84.3115
 21
4.08773
  0
LINE
  8
0
 10
84.3115
 20
4.08773
 11
84.1869
 21
3.94636
  0
LINE
  8
0
 10
84.1869
 20
3.94636
 11
84.0536
 21
3.81309
  0
LINE
  8
0
 10
84.0536
 20
3.81309
 11
83.9123
 21
3.68846
  0
LINE
  8
0
 10
83.9123
 20
3.68846
 11
83.7634
 21
3.57295
  0
LINE
  8
0
 10
83.7634
 20
3.57295
 11
83.6075
 21
3.46702
  0
LINE
  8
0
 10
83.6075
 20
3.46702
 11
83.4453
 21
3.37108
  0
LINE
  8
0
 10
83.4453
 20
3.37108
 11
83.2773
 21
3.28552
  0
LINE
  8
0
 10
83.2773
 20
3.28552
 11
83.1044
 21
3.21067
  0
LINE
  8
0
 10
83.1044
 20
3.21067
 11
83
 21
3.17309
  0
LINE
  8
0
 10
83
 20
3.17309
 11
83
 21
4
  0
LINE
  8
0
 10
83
 20
4
 11
81
 21
4
  0
LINE
  8
0
 10
81
 20
4
 11
81
 21
3.17309
  0
LINE
  8
0
 10
81
 20
3.17309
 11
80.8956
 21
3.21067
  0
LINE
  8
0
 10
80.8956
 20
3.21067
 11
80.7227
 21
3.28552
  0
LINE
  8
0
 10
80.7227
 20
3.28552
 11
80.5547
 21
3.37108
  0
LINE
  8
0
 10
80.5547
 20
3.37108
 11
80.3925
 21
3.46702
  0
LINE
  8
0
 10
80.3925
 20
3.46702
 11
80.2366
 21
3.57295
  0
LINE
  8
0
 10
80.2366
 20
3.57295
 11
80.0877
 21
3.68846
  0
LINE
  8
0
 10
80.0877
 20
3.68846
 11
79.9464
 21
3.81309
  0
LINE
  8
0
 10
79.9464
 20
3.81309
 11
79.8131
 21
3.94636
  0
LINE
  8
0
 10
79.8131
 20
3.94636
 11
79.6885
 21
4.08773
  0
LINE
  8
0
 10
79.6885
 20
4.08773
 11
79.5729
 21
4.23664
  0
LINE
  8
0
 10
79.5729
 20
4.23664
 11
79.467
 21
4.39252
  0
LINE
  8
0
 10
79.467
 20
4.39252
 11
79.3711
 21
4.55474
  0
LINE
  8
0
 10
79.3711
 20
4.55474
 11
79.2855
 21
4.72266
  0
LINE
  8
0
 10
79.2855
 20
4.72266
 11
79.2107
 21
4.89563
  0
LINE
  8
0
 10
79.2107
 20
4.89563
 11
79.1468
 21
5.07295
  0
LINE
  8
0
 10
79.1468
 20
5.07295
 11
79.0943
 21
5.25393
  0
LINE
  8
0
 10
79.0943
 20
5.25393
 11
79.0531
 21
5.43786
  0
LINE
  8
0
 10
79.0531
 20
5.43786
 11
79.0237
 21
5.624
  0
LINE
  8
0
 10
79.0237
 20
5.624
 11
79.0059
 21
5.81163
  0
LINE
  8
0
 10
79.0059
 20
5.81163
 11
79
 21
6
  0
LINE
  8
0
 10
85
 20
18
 11
85.0059
 21
18.1884
  0
LINE
  8
0
 10
85.0059
 20
18.1884
 11
85.0237
 21
18.376
  0
LINE
  8
0
 10
85.0237
 20
18.376
 11
85.0531
 21
18.5621
  0
LINE
  8
0
 10
85.0531
 20
18.5621
 11
85.0943
 21
18.7461
  0
LINE
  8
0
 10
85.0943
 20
18.7461
 11
85.1468
 21
18.9271
  0
LINE
  8
0
 10
85.1468
 20
18.9271
 11
85.2107
 21
19.1044
  0
LINE
  8
0
 10
85.2107
 20
19.1044
 11
85.2855
 21
19.2773
  0
LINE
  8
0
 10
85.2855
 20
19.2773
 11
85.3711
 21
19.4453
  0
LINE
  8
0
 10
85.3711
 20
19.4453
 11
85.467
 21
19.6075
  0
LINE
  8
0
 10
85.467
 20
19.6075
 11
85.5729
 21
19.7634
  0
LINE
  8
0
 10
85.5729
 20
19.7634
 11
85.6885
 21
19.9123
  0
LINE
  8
0
 10
85.6885
 20
19.9123
 11
85.8131
 21
20.0536
  0
LINE
  8
0
 10
85.8131
 20
20.0536
 11
85.9464
 21
20.1869
  0
LINE
  8
0
 10
85.9464
 20
20.1869
 11
86.0877
 21
20.3115
  0
LINE
  8
0
 10
86.0877
 20
20.3115
 11
86.2366
 21
20.4271
  0
LINE
  8
0
 10
86.2366
 20
20.4271
 11
86.3925
 21
20.533
  0
LINE
  8
0
 10
86.3925
 20
20.533
 11
86.5547
 21
20.6289
  0
LINE
  8
0
 10
86.5547
 20
20.6289
 11
86.7227
 21
20.7145
  0
LINE
  8
0
 10
86.7227
 20
20.7145
 11
86.8956
 21
20.7893
  0
LINE
  8
0
 10
86.8956
 20
20.7893
 11
87
 21
20.8269
  0
LINE
  8
0
 10
87
 20
20.8269
 11
87
 21
20
  0
LINE
  8
0
 10
87
 20
20
 11
89
 21
20
  0
LINE
  8
0
 10
89
 20
20
 11
89
 21
20.8269
  0
LINE
  8
0
 10
89
 20
20.8269
 11
89.1044
 21
20.7893
  0
LINE
  8
0
 10
89.1044
 20
20.7893
 11
89.2773
 21
20.7145
  0
LINE
  8
0
 10
89.2773
 20
20.7145
 11
89.4453
 21
20.6289
  0
LINE
  8
0
 10
89.4453
 20
20.6289
 11
89.6075
 21
20.533
  0
LINE
  8
0
 10
89.6075
 20
20.533
 11
89.7634
 21
20.4271
  0
LINE
  8
0
 10
89.7634
 20
20.4271
 11
89.9123
 21
20.3115
  0
LINE
  8
0
 10
89.9123
 20
20.3115
 11
90.0536
 21
20.1869
  0
LINE
  8
0
 10
90.0536
 20
20.1869
 11
90.1869
 21
20.0536
  0
LINE
  8
0
 10
90.1869
 20
20.0536
 11
90.3115
 21
19.9123
  0
LINE
  8
0
 10
90.3115
 20
19.9123
 11
90.4271
 21
19.7634
  0
LINE
  8
0
 10
90.4271
 20
19.7634
 11
90.533
 21
19.6075
  0
LINE
  8
0
 10
90.533
 20
19.6075
 11
90.6289
 21
19.4453
  0
LINE
  8
0
 10
90.6289
 20
19.4453
 11
90.7145
 21
19.2773
  0
LINE
  8
0
 10
90.7145
 20
19.2773
 11
90.7893
 21
19.1044
  0
LINE
  8
0
 10
90.7893
 20
19.1044
 11
90.8532
 21
18.9271
  0
LINE
  8
0
 10
90.8532
 20
18.9271
 11
90.861
 21
18.9
  0
LINE
  8
0
 10
90.861
 20
18.9
 11
86
 21
18.9
  0
LINE
  8
0
 10
86
 20
18.9
 11
86
 21
17.1
  0
LINE
  8
0
 10
86
 20
17.1
 11
90.861
 21
17.1
  0
LINE
  8
0
 10
90.861
 20
17.1
 11
90.8532
 21
17.0729
  0
LINE
  8
0
 10
90.8532
 20
17.0729
 11
90.7893
 21
16.8956
  0
LINE
  8
0
 10
90.7893
 20
16.8956
 11
90.7145
 21
16.7227
  0
LINE
  8
0
 10
90.7145
 20
16.7227
 11
90.6289
 21
16.5547
  0
LINE
  8
0
 10
90.6289
 20
16.5547
 11
90.533
 21
16.3925
  0
LINE
  8
0
 10
90.533
 20
16.3925
 11
90.4271
 21
16.2366
  0
LINE
  8
0
 10
90.4271
 20
16.2366
 11
90.3115
 21
16.0877
  0
LINE
  8
0
 10
90.3115
 20
16.0877
 11
90.1869
 21
15.9464
  0
LINE
  8
0
 10
90.1869
 20
15.9464
 11
90.0536
 21
15.8131
  0
LINE
  8
0
 10
90.0536
 20
15.8131
 11
89.9123
 21
15.6885
  0
LINE
  8
0
 10
89.9123
 20
15.6885
 11
89.7634
 21
15.5729
  0
LINE
  8
0
 10
89.7634
 20
15.5729
 11
89.6075
 21
15.467
  0
LINE
  8
0
 10
89.6075
 20
15.467
 11
89.4453
 21
15.3711
  0
LINE
  8
0
 10
89.4453
 20
15.3711
 11
89.2773
 21
15.2855
  0
LINE
  8
0
 10
89.2773
 20
15.2855
 11
89.1044
 21
15.2107
  0
LINE
  8
0
 10
89.1044
 20
15.2107
 11
89
 21
15.1731
  0
LINE
  8
0
 10
89
 20
15.1731
 11
89
 21
16
  0
LINE
  8
0
 10
89
 20
16
 11
87
 21
16
  0
LINE
  8
0
 10
87
 20
16
 11
87
 21
15.1731
  0
LINE
  8
0
 10
87
 20
15.1731
 11
86.8956
 21
15.2107
  0
LINE
  8
0
 10
86.8956
 20
15.2107
 11
86.7227
 21
15.2855
  0
LINE
  8
0
 10
86.7227
 20
15.2855
 11
86.5547
 21
15.3711
  0
LINE
  8
0
 10
86.5547
 20
15.3711
 11
86.3925
 21
15.467
  0
LINE
  8
0
 10
86.3925
 20
15.467
 11
86.2366
 21
15.5729
  0
LINE
  8
0
 10
86.2366
 20
15.5729
 11
86.0877
 21
15.6885
  0
LINE
  8
0
 10
86.0877
 20
15.6885
 11
85.9464
 21
15.8131
  0
LINE
  8
0
 10
85.9464
 20
15.8131
 11
85.8131
 21
15.9464
  0
LINE
  8
0
 10
85.8131
 20
15.9464
 11
85.6885
 21
16.0877
  0
LINE
  8
0
 10
85.6885
 20
16.0877
 11
85.5729
 21
16.2366
  0
LINE
  8
0
 10
85.5729
 20
16.2366
 11
85.467
 21
16.3925
  0
LINE
  8
0
 10
85.467
 20
16.3925
 11
85.3711
 21
16.5547
  0
LINE
  8
0
 10
85.3711
 20
16.5547
 11
85.2855
 21
16.7227
  0
LINE
  8
0
 10
85.2855
 20
16.7227
 11
85.2107
 21
16.8956
  0
LINE
  8
0
 10
85.2107
 20
16.8956
 11
85.1468
 21
17.0729
  0
LINE
  8
0
 10
85.1468
 20
17.0729
 11
85.0943
 21
17.2539
  0
LINE
  8
0
 10
85.0943
 20
17.2539
 11
85.0531
 21
17.4379
  0
LINE
  8
0
 10
85.0531
 20
17.4379
 11
85.0237
 21
17.624
  0
LINE
  8
0
 10
85.0237
 20
17.624
 11
85.0059
 21
17.8116
  0
LINE
  8
0
 10
85.0059
 20
17.8116
 11
85
 21
18
  0
LINE
  8
0
 10
91
 20
6
 11
91.0059
 21
6.18837
  0
LINE
  8
0
 10
91.0059
 20
6.18837
 11
91.0237
 21
6.376
  0
LINE
  8
0
 10
91.0237
 20
6.376
 11
91.0531
 21
6.56214
  0
LINE
  8
0
 10
91.0531
 20
6.56214
 11
91.0943
 21
6.74607
  0
LINE
  8
0
 10
91.0943
 20
6.74607
 11
91.1468
 21
6.92705
  0
LINE
  8
0
 10
91.1468
 20
6.92705
 11
91.2107
 21
7.10437
  0
LINE
  8
0
 10
91.2107
 20
7.10437
 11
91.2855
 21
7.27734
  0
LINE
  8
0
 10
91.2855
 20
7.27734
 11
91.3711
 21
7.44526
  0
LINE
  8
0
 10
91.3711
 20
7.44526
 11
91.467
 21
7.60748
  0
LINE
  8
0
 10
91.467
 20
7.60748
 11
91.5729
 21
7.76336
  0
LINE
  8
0
 10
91.5729
 20
7.76336
 11
91.6885
 21
7.91227
  0
LINE
  8
0
 10
91.6885
 20
7.91227
 11
91.8131
 21
8.05364
  0
LINE
  8
0
 10
91.8131
 20
8.05364
 11
91.9464
 21
8.18691
  0
LINE
  8
0
 10
91.9464
 20
8.18691
 11
92.0877
 21
8.31154
  0
LINE
  8
0
 10
92.0877
 20
8.31154
 11
92.2366
 21
8.42705
  0
LINE
  8
0
 10
92.2366
 20
8.42705
 11
92.3925
 21
8.53298
  0
LINE
  8
0
 10
92.3925
 20
8.53298
 11
92.5547
 21
8.62892
  0
LINE
  8
0
 10
92.5547
 20
8.62892
 11
92.7227
 21
8.71448
  0
LINE
  8
0
 10
92.7227
 20
8.71448
 11
92.8956
 21
8.78933
  0
LINE
  8
0
 10
92.8956
 20
8.78933
 11
93
 21
8.82691
  0
LINE
  8
0
 10
93
 20
8.82691
 11
93
 21
8
  0
LINE
  8
0
 10
93
 20
8
 11
95
 21
8
  0
LINE
  8
0
 10
95
 20
8
 11
95
 21
8.82691
  0
LINE
  8
0
 10
95
 20
8.82691
 11
95.1044
 21
8.78933
  0
LINE
  8
0
 10
95.1044
 20
8.78933
 11
95.2773
 21
8.71448
  0
LINE
  8
0
 10
95.2773
 20
8.71448
 11
95.4453
 21
8.62892
  0
LINE
  8
0
 10
95.4453
 20
8.62892
 11
95.6075
 21
8.53298
  0
LINE
  8
0
 10
95.6075
 20
8.53298
 11
95.7634
 21
8.42705
  0
LINE
  8
0
 10
95.7634
 20
8.42705
 11
95.9123
 21
8.31154
  0
LINE
  8
0
 10
95.9123
 20
8.31154
 11
96.0536
 21
8.18691
  0
LINE
  8
0
 10
96.0536
 20
8.18691
 11
96.1869
 21
8.05364
  0
LINE
  8
0
 10
96.1869
 20
8.05364
 11
96.3115
 21
7.91227
  0
LINE
  8
0
 10
96.3115
 20
7.91227
 11
96.4271
 21
7.76336
  0
LINE
  8
0
 10
96.4271
 20
7.76336
 11
96.533
 21
7.60748
  0
LINE
  8
0
 10
96.533
 20
7.60748
 11
96.6289
 21
7.44526
  0
LINE
  8
0
 10
96.6289
 20
7.44526
 11
96.7145
 21
7.27734
  0
LINE
  8
0
 10
96.7145
 20
7.27734
 11
96.7893
 21
7.10437
  0
LINE
  8
0
 10
96.7893
 20
7.10437
 11
96.8532
 21
6.92705
  0
LINE
  8
0
 10
96.8532
 20
6.92705
 11
96.861
 21
6.9
  0
LINE
  8
0
 10
96.861
 20
6.9
 11
92
 21
6.9
  0
LINE
  8
0
 10
92
 20
6.9
 11
92
 21
5.1
  0
LINE
  8
0
 10
92
 20
5.1
 11
96.861
 21
5.1
  0
LINE
  8
0
 10
96.861
 20
5.1
 11
96.8532
 21
5.07295
  0
LINE
  8
0
 10
96.8532
 20
5.07295
 11
96.7893
 21
4.89563
  0
LINE
  8
0
 10
96.7893
 20
4.89563
 11
96.7145
 21
4.72266
  0
LINE
  8
0
 10
96.7145
 20
4.72266
 11
96.6289
 21
4.55474
  0
LINE
  8
0
 10
96.6289
 20
4.55474
 11
96.533
 21
4.39252
  0
LINE
  8
0
 10
96.533
 20
4.39252
 11
96.4271
 21
4.23664
  0
LINE
  8
0
 10
96.4271
 20
4.23664
 11
96.3115
 21
4.08773
  0
LINE
  8
0
 10
96.3115
 20
4.08773
 11
96.1869
 21
3.94636
  0
LINE
  8
0
 10
96.1869
 20
3.94636
 11
96.0536
 21
3.81309
  0
LINE
  8
0
 10
96.0536
 20
3.81309
 11
95.9123
 21
3.68846
  0
LINE
  8
0
 10
95.9123
 20
3.68846
 11
95.7634
 21
3.57295
  0
LINE
  8
0
 10
95.7634
 20
3.57295
 11
95.6075
 21
3.46702
  0
LINE
  8
0
 10
95.6075
 20
3.46702
 11
95.4453
 21
3.37108
  0
LINE
  8
0
 10
95.4453
 20
3.37108
 11
95.2773
 21
3.28552
  0
LINE
  8
0
 10
95.2773
 20
3.28552
 11
95.1044
 21
3.21067
  0
LINE
  8
0
 10
95.1044
 20
3.21067
 11
95
 21
3.17309
  0
LINE
  8
0
 10
95
 20
3.17309
 11
95
 21
4
  0
LINE
  8
0
 10
95
 20
4
 11
93
 21
4
  0
LINE
  8
0
 10
93
 20
4
 11
93
 21
3.17309
  0
LINE
  8
0
 10
93
 20
3.17309
 11
92.8956
 21
3.21067
  0
LINE
  8
0
 10
92.8956
 20
3.21067
 11
92.7227
 21
3.28552
  0
LINE
  8
0
 10
92.7227
 20
3.28552
 11
92.5547
 21
3.37108
  0
LINE
  8
0
 10
92.5547
 20
3.37108
 11
92.3925
 21
3.46702
  0
LINE
  8
0
 10
92.3925
 20
3.46702
 11
92.2366
 21
3.57295
  0
LINE
  8
0
 10
92.2366
 20
3.57295
 11
92.0877
 21
3.68846
  0
LINE
  8
0
 10
92.0877
 20
3.68846
 11
91.9464
 21
3.81309
  0
LINE
  8
0
 10
91.9464
 20
3.81309
 11
91.8131
 21
3.94636
  0
LINE
  8
0
 10
91.8131
 20
3.94636
 11
91.6885
 21
4.08773
  0
LINE
  8
0
 10
91.6885
 20
4.08773
 11
91.5729
 21
4.23664
  0
LINE
  8
0
 10
91.5729
 20
4.23664
 11
91.467
 21
4.39252
  0
LINE
  8
0
 10
91.467
 20
4.39252
 11
91.3711
 21
4.55474
  0
LINE
  8
0
 10
91.3711
 20
4.55474
 11
91.2855
 21
4.72266
  0
LINE
  8
0
 10
91.2855
 20
4.72266
 11
91.2107
 21
4.89563
  0
LINE
  8
0
 10
91.2107
 20
4.89563
 11
91.1468
 21
5.07295
  0
LINE
  8
0
 10
91.1468
 20
5.07295
 11
91.0943
 21
5.25393
  0
LINE
  8
0
 10
91.0943
 20
5.25393
 11
91.0531
 21
5.43786
  0
LINE
  8
0
 10
91.0531
 20
5.43786
 11
91.0237
 21
5.624
  0
LINE
  8
0
 10
91.0237
 20
5.624
 11
91.0059
 21
5.81163
  0
LINE
  8
0
 10
91.0059
 20
5.81163
 11
91
 21
6
  0
LINE
  8
0
 10
97
 20
18
 11
97.0059
 21
18.1884
  0
LINE
  8
0
 10
97.0059
 20
18.1884
 11
97.0237
 21
18.376
  0
LINE
  8
0
 10
97.0237
 20
18.376
 11
97.0531
 21
18.5621
  0
LINE
  8
0
 10
97.0531
 20
18.5621
 11
97.0943
 21
18.7461
  0
LINE
  8
0
 10
97.0943
 20
18.7461
 11
97.1468
 21
18.9271
  0
LINE
  8
0
 10
97.1468
 20
18.9271
 11
97.2107
 21
19.1044
  0
LINE
  8
0
 10
97.2107
 20
19.1044
 11
97.2855
 21
19.2773
  0
LINE
  8
0
 10
97.2855
 20
19.2773
 11
97.3711
 21
19.4453
  0
LINE
  8
0
 10
97.3711
 20
19.4453
 11
97.467
 21
19.6075
  0
LINE
  8
0
 10
97.467
 20
19.6075
 11
97.5729
 21
19.7634
  0
LINE
  8
0
 10
97.5729
 20
19.7634
 11
97.6885
 21
19.9123
  0
LINE
  8
0
 10
97.6885
 20
19.9123
 11
97.8131
 21
20.0536
  0
LINE
  8
0
 10
97.8131
 20
20.0536
 11
97.9464
 21
20.1869
  0
LINE
  8
0
 10
97.9464
 20
20.1869
 11
98.0877
 21
20.3115
  0
LINE
  8
0
 10
98.0877
 20
20.3115
 11
98.2366
 21
20.4271
  0
LINE
  8
0
 10
98.2366
 20
20.4271
 11
98.3925
 21
20.533
  0
LINE
  8
0
 10
98.3925
 20
20.533
 11
98.5547
 21
20.6289
  0
LINE
  8
0
 10
98.5547
 20
20.6289
 11
98.7227
 21
20.7145
  0
LINE
  8
0
 10
98.7227
 20
20.7145
 11
98.8956
 21
20.7893
  0
LINE
  8
0
 10
98.8956
 20
20.7893
 11
99
 21
20.8269
  0
LINE
  8
0
 10
99
 20
20.8269
 11
99
 21
20
  0
LINE
  8
0
 10
99
 20
20
 11
101
 21
20
  0
LINE
  8
0
 10
101
 20
20
 11
101
 21
20.8269
  0
LINE
  8
0
 10
101
 20
20.8269
 11
101.104
 21
20.7893
  0
LINE
  8
0
 10
101.104
 20
20.7893
 11
101.277
 21
20.7145
  0
LINE
  8
0
 10
101.277
 20
20.7145
 11
101.445
 21
20.6289
  0
LINE
  8
0
 10
101.445
 20
20.6289
 11
101.607
 21
20.533
  0
LINE
  8
0
 10
101.607
 20
20.533
 11
101.763
 21
20.4271
  0
LINE
  8
0
 10
101.763
 20
20.4271
 11
101.912
 21
20.3115
  0
LINE
  8
0
 10
101.912
 20
20.3115
 11
102.054
 21
20.1869
  0
LINE
  8
0
 10
102.054
 20
20.1869
 11
102.187
 21
20.0536
  0
LINE
  8
0
 10
102.187
 20
20.0536
 11
102.312
 21
19.9123
  0
LINE
  8
0
 10
102.312
 20
19.9123
 11
102.427
 21
19.7634
  0
LINE
  8
0
 10
102.427
 20
19.7634
 11
102.533
 21
19.6075
  0
LINE
  8
0
 10
102.533
 20
19.6075
 11
102.629
 21
19.4453
  0
LINE
  8
0
 10
102.629
 20
19.4453
 11
102.714
 21
19.2773
  0
LINE
  8
0
 10
102.714
 20
19.2773
 11
102.789
 21
19.1044
  0
LINE
  8
0
 10
102.789
 20
19.1044
 11
102.853
 21
18.9271
  0
LINE
  8
0
 10
102.853
 20
18.9271
 11
102.861
 21
18.9
  0
LINE
  8
0
 10
102.861
 20
18.9
 11
98
 21
18.9
  0
LINE
  8
0
 10
98
 20
18.9
 11
98
 21
17.1
  0
LINE
  8
0
 10
98
 20
17.1
 11
102.861
 21
17.1
  0
LINE
  8
0
 10
102.861
 20
17.1
 11
102.853
 21
17.0729
  0
LINE
  8
0
 10
102.853
 20
17.0729
 11
102.789
 21
16.8956
  0
LINE
  8
0
 10
102.789
 20
16.8956
 11
102.714
 21
16.7227
  0
LINE
  8
0
 10
102.714
 20
16.7227
 11
102.629
 21
16.5547
  0
LINE
  8
0
 10
102.629
 20
16.5547
 11
102.533
 21
16.3925
  0
LINE
  8
0
 10
102.533
 20
16.3925
 11
102.427
 21
16.2366
  0
LINE
  8
0
 10
102.427
 20
16.2366
 11
102.312
 21
16.0877
  0
LINE
  8
0
 10
102.312
 20
16.0877
 11
102.187
 21
15.9464
  0
LINE
  8
0
 10
102.187
 20
15.9464
 11
102.054
 21
15.8131
  0
LINE
  8
0
 10
102.054
 20
15.8131
 11
101.912
 21
15.6885
  0
LINE
  8
0
 10
101.912
 20
15.6885
 11
101.763
 21
15.5729
  0
LINE
  8
0
 10
101.763
 20
15.5729
 11
101.607
 21
15.467
  0
LINE
  8
0
 10
101.607
 20
15.467
 11
101.445
 21
15.3711
  0
LINE
  8
0
 10
101.445
 20
15.3711
 11
101.277
 21
15.2855
  0
LINE
  8
0
 10
101.277
 20
15.2855
 11
101.104
 21
15.2107
  0
LINE
  8
0
 10
101.104
 20
15.2107
 11
101
 21
15.1731
  0
LINE
  8
0
 10
101
 20
15.1731
 11
101
 21
16
  0
LINE
  8
0
 10
101
 20
16
 11
99
 21
16
  0
LINE
  8
0
 10
99
 20
16
 11
99
 21
15.1731
  0
LINE
  8
0
 10
99
 20
15.1731
 11
98.8956
 21
15.2107
  0
LINE
  8
0
 10
98.8956
 20
15.2107
 11
98.7227
 21
15.2855
  0
LINE
  8
0
 10
98.7227
 20
15.2855
 11
98.5547
 21
15.3711
  0
LINE
  8
0
 10
98.5547
 20
15.3711
 11
98.3925
 21
15.467
  0
LINE
  8
0
 10
98.3925
 20
15.467
 11
98.2366
 21
15.5729
  0
LINE
  8
0
 10
98.2366
 20
15.5729
 11
98.0877
 21
15.6885
  0
LINE
  8
0
 10
98.0877
 20
15.6885
 11
97.9464
 21
15.8131
  0
LINE
  8
0
 10
97.9464
 20
15.8131
 11
97.8131
 21
15.9464
  0
LINE
  8
0
 10
97.8131
 20
15.9464
 11
97.6885
 21
16.0877
  0
LINE
  8
0
 10
97.6885
 20
16.0877
 11
97.5729
 21
16.2366
  0
LINE
  8
0
 10
97.5729
 20
16.2366
 11
97.467
 21
16.3925
  0
LINE
  8
0
 10
97.467
 20
16.3925
 11
97.3711
 21
16.5547
  0
LINE
  8
0
 10
97.3711
 20
16.5547
 11
97.2855
 21
16.7227
  0
LINE
  8
0
 10
97.2855
 20
16.7227
 11
97.2107
 21
16.8956
  0
LINE
  8
0
 10
97.2107
 20
16.8956
 11
97.1468
 21
17.0729
  0
LINE
  8
0
 10
97.1468
 20
17.0729
 11
97.0943
 21
17.2539
  0
LINE
  8
0
 10
97.0943
 20
17.2539
 11
97.0531
 21
17.4379
  0
LINE
  8
0
 10
97.0531
 20
17.4379
 11
97.0237
 21
17.624
  0
LINE
  8
0
 10
97.0237
 20
17.624
 11
97.0059
 21
17.8116
  0
LINE
  8
0
 10
97.0059
 20
17.8116
 11
97
 21
18
  0
LINE
  8
0
 10
103
 20
6
 11
103.006
 21
6.18837
  0
LINE
  8
0
 10
103.006
 20
6.18837
 11
103.024
 21
6.376
  0
LINE
  8
0
 10
103.024
 20
6.376
 11
103.053
 21
6.56214
  0
LINE
  8
0
 10
103.053
 20
6.56214
 11
103.094
 21
6.74607
  0
LINE
  8
0
 10
103.094
 20
6.74607
 11
103.147
 21
6.92705
  0
LINE
  8
0
 10
103.147
 20
6.92705
 11
103.211
 21
7.10437
  0
LINE
  8
0
 10
103.211
 20
7.10437
 11
103.286
 21
7.27734
  0
LINE
  8
0
 10
103.286
 20
7.27734
 11
103.371
 21
7.44526
  0
LINE
  8
0
 10
103.371
 20
7.44526
 11
103.467
 21
7.60748
  0
LINE
  8
0
 10
103.467
 20
7.60748
 11
103.573
 21
7.76336
  0
LINE
  8
0
 10
103.573
 20
7.76336
 11
103.688
 21
7.91227
  0
LINE
  8
0
 10
103.688
 20
7.91227
 11
103.813
 21
8.05364
  0
LINE
  8
0
 10
103.813
 20
8.05364
 11
103.946
 21
8.18691
  0
LINE
  8
0
 10
103.946
 20
8.18691
 11
104.088
 21
8.31154
  0
LINE
  8
0
 10
104.088
 20
8.31154
 11
104.237
 21
8.42705
  0
LINE
  8
0
 10
104.237
 20
8.42705
 11
104.393
 21
8.53298
  0
LINE
  8
0
 10
104.393
 20
8.53298
 11
104.555
 21
8.62892
  0
LINE
  8
0
 10
104.555
 20
8.62892
 11
104.723
 21
8.71448
  0
LINE
  8
0
 10
104.723
 20
8.71448
 11
104.896
 21
8.78933
  0
LINE
  8
0
 10
104.896
 20
8.78933
 11
105
 21
8.82691
  0
LINE
  8
0
 10
105
 20
8.82691
 11
105
 21
8
  0
LINE
  8
0
 10
105
 20
8
 11
107
 21
8
  0
LINE
  8
0
 10
107
 20
8
 11
107
 21
8.82691
  0
LINE
  8
0
 10
107
 20
8.82691
 11
107.104
 21
8.78933
  0
LINE
  8
0
 10
107.104
 20
8.78933
 11
107.277
 21
8.71448
  0
LINE
  8
0
 10
107.277
 20
8.71448
 11
107.445
 21
8.62892
  0
LINE
  8
0
 10
107.445
 20
8.62892
 11
107.607
 21
8.53298
  0
LINE
  8
0
 10
107.607
 20
8.53298
 11
107.763
 21
8.42705
  0
LINE
  8
0
 10
107.763
 20
8.42705
 11
107.912
 21
8.31154
  0
LINE
  8
0
 10
107.912
 20
8.31154
 11
108.054
 21
8.18691
  0
LINE
  8
0
 10
108.054
 20
8.18691
 11
108.187
 21
8.05364
  0
LINE
  8
0
 10
108.187
 20
8.05364
 11
108.312
 21
7.91227
  0
LINE
  8
0
 10
108.312
 20
7.91227
 11
108.427
 21
7.76336
  0
LINE
  8
0
 10
108.427
 20
7.76336
 11
108.533
 21
7.60748
  0
LINE
  8
0
 10
108.533
 20
7.60748
 11
108.629
 21
7.44526
  0
LINE
  8
0
 10
108.629
 20
7.44526
 11
108.714
 21
7.27734
  0
LINE
  8
0
 10
108.714
 20
7.27734
 11
108.789
 21
7.10437
  0
LINE
  8
0
 10
108.789
 20
7.10437
 11
108.853
 21
6.92705
  0
LINE
  8
0
 10
108.853
 20
6.92705
 11
108.861
 21
6.9
  0
LINE
  8
0
 10
108.861
 20
6.9
 11
104
 21
6.9
  0
LINE
  8
0
 10
104
 20
6.9
 11
104
 21
5.1
  0
LINE
  8
0
 10
104
 20
5.1
 11
108.861
 21
5.1
  0
LINE
  8
0
 10
108.861
 20
5.1
 11
108.853
 21
5.07295
  0
LINE
  8
0
 10
108.853
 20
5.07295
 11
108.789
 21
4.89563
  0
LINE
  8
0
 10
108.789
 20
4.89563
 11
108.714
 21
4.72266
  0
LINE
  8
0
 10
108.714
 20
4.72266
 11
108.629
 21
4.55474
  0
LINE
  8
0
 10
108.629
 20
4.55474
 11
108.533
 21
4.39252
  0
LINE
  8
0
 10
108.533
 20
4.39252
 11
108.427
 21
4.23664
  0
LINE
  8
0
 10
108.427
 20
4.23664
 11
108.312
 21
4.08773
  0
LINE
  8
0
 10
108.312
 20
4.08773
 11
108.187
 21
3.94636
  0
LINE
  8
0
 10
108.187
 20
3.94636
 11
108.054
 21
3.81309
  0
LINE
  8
0
 10
108.054
 20
3.81309
 11
107.912
 21
3.68846
  0
LINE
  8
0
 10
107.912
 20
3.68846
 11
107.763
 21
3.57295
  0
LINE
  8
0
 10
107.763
 20
3.57295
 11
107.607
 21
3.46702
  0
LINE
  8
0
 10
107.607
 20
3.46702
 11
107.445
 21
3.37108
  0
LINE
  8
0
 10
107.445
 20
3.37108
 11
107.277
 21
3.28552
  0
LINE
  8
0
 10
107.277
 20
3.28552
 11
107.104
 21
3.21067
  0
LINE
  8
0
 10
107.104
 20
3.21067
 11
107
 21
3.17309
  0
LINE
  8
0
 10
107
 20
3.17309
 11
107
 21
4
  0
LINE
  8
0
 10
107
 20
4
 11
105
 21
4
  0
LINE
  8
0
 10
105
 20
4
 11
105
 21
3.17309
  0
LINE
  8
0
 10
105
 20
3.17309
 11
104.896
 21
3.21067
  0
LINE
  8
0
 10
104.896
 20
3.21067
 11
104.723
 21
3.28552
  0
LINE
  8
0
 10
104.723
 20
3.28552
 11
104.555
 21
3.37108
  0
LINE
  8
0
 10
104.555
 20
3.37108
 11
104.393
 21
3.46702
  0
LINE
  8
0
 10
104.393
 20
3.46702
 11
104.237
 21
3.57295
  0
LINE
  8
0
 10
104.237
 20
3.57295
 11
104.088
 21
3.68846
  0
LINE
  8
0
 10
104.088
 20
3.68846
 11
103.946
 21
3.81309
  0
LINE
  8
0
 10
103.946
 20
3.81309
 11
103.813
 21
3.94636
  0
LINE
  8
0
 10
103.813
 20
3.94636
 11
103.688
 21
4.08773
  0
LINE
  8
0
 10
103.688
 20
4.08773
 11
103.573
 21
4.23664
  0
LINE
  8
0
 10
103.573
 20
4.23664
 11
103.467
 21
4.39252
  0
LINE
  8
0
 10
103.467
 20
4.39252
 11
103.371
 21
4.55474
  0
LINE
  8
0
 10
103.371
 20
4.55474
 11
103.286
 21
4.72266
  0
LINE
  8
0
 10
103.286
 20
4.72266
 11
103.211
 21
4.89563
  0
LINE
  8
0
 10
103.211
 20
4.89563
 11
103.147
 21
5.07295
  0
LINE
  8
0
 10
103.147
 20
5.07295
 11
103.094
 21
5.25393
  0
LINE
  8
0
 10
103.094
 20
5.25393
 11
103.053
 21
5.43786
  0
LINE
  8
0
 10
103.053
 20
5.43786
 11
103.024
 21
5.624
  0
LINE
  8
0
 10
103.024
 20
5.624
 11
103.006
 21
5.81163
  0
LINE
  8
0
 10
103.006
 20
5.81163
 11
103
 21
6
  0
ENDSEC
  0
SECTION
  2
OBJECTS
  0
DICTIONARY
  0
ENDSEC
  0
EOF
