  0
SECTION
  2
BLOCKS
  0
ENDSEC
  0
SECTION
  2
ENTITIES
  0
LINE
  8
0
 10
-8.94724
 20
4.02693
 11
-8.52888
 21
2.12629
  0
LINE
  8
0
 10
-8.52888
 20
2.12629
 11
-7.71171
 21
0.360016
  0
LINE
  8
0
 10
-7.71171
 20
0.360016
 11
-6.53396
 21
-1.18929
  0
LINE
  8
0
 10
-6.53396
 20
-1.18929
 11
-5.05068
 21
-2.4492
  0
LINE
  8
0
 10
-5.05068
 20
-2.4492
 11
-3.33124
 21
-3.36079
  0
LINE
  8
0
 10
-3.33124
 20
-3.36079
 11
-1.45604
 21
-3.88144
  0
LINE
  8
0
 10
-1.45604
 20
-3.88144
 11
0.487249
 21
-3.9868
  0
LINE
  8
0
 10
0.487249
 20
-3.9868
 11
2.40775
 21
-3.67195
  0
LINE
  8
0
 10
2.40775
 20
-3.67195
 11
4.21568
 21
-2.95161
  0
LINE
  8
0
 10
4.21568
 20
-2.95161
 11
5.82648
 21
-1.85946
  0
LINE
  8
0
 10
5.82648
 20
-1.85946
 11
7.16484
 21
-0.446568
  0
LINE
  8
0
 10
7.16484
 20
-0.446568
 11
8.16818
 21
1.221
  0
LINE
  8
0
 10
8.16818
 20
1.221
 11
8.78958
 21
3.06527
  0
LINE
  8
0
 10
8.78958
 20
3.06527
 11
9
 21
5
  0
LINE
  8
0
 10
9
 20
5
 11
8.78958
 21
6.93473
  0
LINE
  8
0
 10
8.78958
 20
6.93473
 11
8.16818
 21
8.779
  0
LINE
  8
0
 10
8.16818
 20
8.779
 11
7.16484
 21
10.4466
  0
LINE
  8
0
 10
7.16484
 20
10.4466
 11
5.82648
 21
11.8595
  0
LINE
  8
0
 10
5.82648
 20
11.8595
 11
4.21568
 21
12.9516
  0
LINE
  8
0
 10
4.21568
 20
12.9516
 11
2.40775
 21
13.6719
  0
LINE
  8
0
 10
2.40775
 20
13.6719
 11
0.487249
 21
13.9868
  0
LINE
  8
0
 10
0.487249
 20
13.9868
 11
-1.45604
 21
13.8814
  0
LINE
  8
0
 10
-1.45604
 20
13.8814
 11
-3.33124
 21
13.3608
  0
LINE
  8
0
 10
-3.33124
 20
13.3608
 11
-5.05068
 21
12.4492
  0
LINE
  8
0
 10
-5.05068
 20
12.4492
 11
-6.53396
 21
11.1893
  0
LINE
  8
0
 10
-6.53396
 20
11.1893
 11
-7.71171
 21
9.63998
  0
LINE
  8
0
 10
-7.71171
 20
9.63998
 11
-8.52888
 21
7.87371
  0
LINE
  8
0
 10
-8.52888
 20
7.87371
 11
-8.94724
 21
5.97307
  0
LINE
  8
0
 10
-8.94724
 20
5.97307
 11
-8.94724
 21
4.02693
  0
LINE
  8
0
 10
-6.4274
 20
4.03123
 11
-6.4274
 21
5.96877
  0
LINE
  8
0
 10
-6.4274
 20
5.96877
 11
-5.8563
 21
7.82024
  0
LINE
  8
0
 10
-5.8563
 20
7.82024
 11
-4.76484
 21
9.42112
  0
LINE
  8
0
 10
-4.76484
 20
9.42112
 11
-3.25
 21
10.6292
  0
LINE
  8
0
 10
-3.25
 20
10.6292
 11
-1.44639
 21
11.337
  0
LINE
  8
0
 10
-1.44639
 20
11.337
 11
0.485745
 21
11.4818
  0
LINE
  8
0
 10
0.485745
 20
11.4818
 11
2.37472
 21
11.0507
  0
LINE
  8
0
 10
2.37472
 20
11.0507
 11
4.05268
 21
10.0819
  0
LINE
  8
0
 10
4.05268
 20
10.0819
 11
5.37055
 21
8.66158
  0
LINE
  8
0
 10
5.37055
 20
8.66158
 11
6.21122
 21
6.91591
  0
LINE
  8
0
 10
6.21122
 20
6.91591
 11
6.5
 21
5
  0
LINE
  8
0
 10
6.5
 20
5
 11
6.21122
 21
3.08409
  0
LINE
  8
0
 10
6.21122
 20
3.08409
 11
5.37055
 21
1.33842
  0
LINE
  8
0
 10
5.37055
 20
1.33842
 11
4.05268
 21
-0.0819044
  0
LINE
  8
0
 10
4.05268
 20
-0.0819044
 11
2.37472
 21
-1.05068
  0
LINE
  8
0
 10
2.37472
 20
-1.05068
 11
0.485745
 21
-1.48182
  0
LINE
  8
0
 10
0.485745
 20
-1.48182
 11
-1.44639
 21
-1.33703
  0
LINE
  8
0
 10
-1.44639
 20
-1.33703
 11
-3.25
 21
-0.629165
  0
LINE
  8
0
 10
-3.25
 20
-0.629165
 11
-4.76484
 21
0.578877
  0
LINE
  8
0
 10
-4.76484
 20
0.578877
 11
-5.8563
 21
2.17976
  0
LINE
  8
0
 10
-5.8563
 20
2.17976
 11
-6.4274
 21
4.03123
  0
LINE
  8
0
 10
-8.94724
 20
24.0269
 11
-8.52888
 21
22.1263
  0
LINE
  8
0
 10
-8.52888
 20
22.1263
 11
-7.71171
 21
20.36
  0
LINE
  8
0
 10
-7.71171
 20
20.36
 11
-6.53396
 21
18.8107
  0
LINE
  8
0
 10
-6.53396
 20
18.8107
 11
-5.05068
 21
17.5508
  0
LINE
  8
0
 10
-5.05068
 20
17.5508
 11
-3.33124
 21
16.6392
  0
LINE
  8
0
 10
-3.33124
 20
16.6392
 11
-1.45604
 21
16.1186
  0
LINE
  8
0
 10
-1.45604
 20
16.1186
 11
0.487249
 21
16.0132
  0
LINE
  8
0
 10
0.487249
 20
16.0132
 11
2.40775
 21
16.3281
  0
LINE
  8
0
 10
2.40775
 20
16.3281
 11
4.21568
 21
17.0484
  0
LINE
  8
0
 10
4.21568
 20
17.0484
 11
5.82648
 21
18.1405
  0
LINE
  8
0
 10
5.82648
 20
18.1405
 11
7.16484
 21
19.5534
  0
LINE
  8
0
 10
7.16484
 20
19.5534
 11
8.16818
 21
21.221
  0
LINE
  8
0
 10
8.16818
 20
21.221
 11
8.78958
 21
23.0653
  0
LINE
  8
0
 10
8.78958
 20
23.0653
 11
9
 21
25
  0
LINE
  8
0
 10
9
 20
25
 11
6.5
 21
25
  0
LINE
  8
0
 10
6.5
 20
25
 11
6.21122
 21
23.0841
  0
LINE
  8
0
 10
6.21122
 20
23.0841
 11
5.37055
 21
21.3384
  0
LINE
  8
0
 10
5.37055
 20
21.3384
 11
4.05268
 21
19.9181
  0
LINE
  8
0
 10
4.05268
 20
19.9181
 11
2.37472
 21
18.9493
  0
LINE
  8
0
 10
2.37472
 20
18.9493
 11
0.485745
 21
18.5182
  0
LINE
  8
0
 10
0.485745
 20
18.5182
 11
-1.44639
 21
18.663
  0
LINE
  8
0
 10
-1.44639
 20
18.663
 11
-3.25
 21
19.3708
  0
LINE
  8
0
 10
-3.25
 20
19.3708
 11
-4.76484
 21
20.5789
  0
LINE
  8
0
 10
-4.76484
 20
20.5789
 11
-5.8563
 21
22.1798
  0
LINE
  8
0
 10
-5.8563
 20
22.1798
 11
-6.4274
 21
24.0312
  0
LINE
  8
0
 10
-6.4274
 20
24.0312
 11
-6.4274
 21
25.9688
  0
LINE
  8
0
 10
-6.4274
 20
25.9688
 11
-5.8563
 21
27.8202
  0
LINE
  8
0
 10
-5.8563
 20
27.8202
 11
-4.76484
 21
29.4211
  0
LINE
  8
0
 10
-4.76484
 20
29.4211
 11
-3.25
 21
30.6292
  0
LINE
  8
0
 10
-3.25
 20
30.6292
 11
-1.44639
 21
31.337
  0
LINE
  8
0
 10
-1.44639
 20
31.337
 11
0
 21
31.4454
  0
LINE
  8
0
 10
0
 20
31.4454
 11
0
 21
33.9604
  0
LINE
  8
0
 10
0
 20
33.9604
 11
-1.45604
 21
33.8814
  0
LINE
  8
0
 10
-1.45604
 20
33.8814
 11
-3.33124
 21
33.3608
  0
LINE
  8
0
 10
-3.33124
 20
33.3608
 11
-5.05068
 21
32.4492
  0
LINE
  8
0
 10
-5.05068
 20
32.4492
 11
-6.53396
 21
31.1893
  0
LINE
  8
0
 10
-6.53396
 20
31.1893
 11
-7.71171
 21
29.64
  0
LINE
  8
0
 10
-7.71171
 20
29.64
 11
-8.52888
 21
27.8737
  0
LINE
  8
0
 10
-8.52888
 20
27.8737
 11
-8.94724
 21
25.9731
  0
LINE
  8
0
 10
-8.94724
 20
25.9731
 11
-8.94724
 21
24.0269
  0
LINE
  8
0
 10
-8.94724
 20
44.0269
 11
-8.52888
 21
42.1263
  0
LINE
  8
0
 10
-8.52888
 20
42.1263
 11
-7.71171
 21
40.36
  0
LINE
  8
0
 10
-7.71171
 20
40.36
 11
-6.53396
 21
38.8107
  0
LINE
  8
0
 10
-6.53396
 20
38.8107
 11
-5.05068
 21
37.5508
  0
LINE
  8
0
 10
-5.05068
 20
37.5508
 11
-3.33124
 21
36.6392
  0
LINE
  8
0
 10
-3.33124
 20
36.6392
 11
-1.45604
 21
36.1186
  0
LINE
  8
0
 10
-1.45604
 20
36.1186
 11
0.487249
 21
36.0132
  0
LINE
  8
0
 10
0.487249
 20
36.0132
 11
2.40775
 21
36.3281
  0
LINE
  8
0
 10
2.40775
 20
36.3281
 11
4.21568
 21
37.0484
  0
LINE
  8
0
 10
4.21568
 20
37.0484
 11
5.82648
 21
38.1405
  0
LINE
  8
0
 10
5.82648
 20
38.1405
 11
7.16484
 21
39.5534
  0
LINE
  8
0
 10
7.16484
 20
39.5534
 11
8.16818
 21
41.221
  0
LINE
  8
0
 10
8.16818
 20
41.221
 11
8.78958
 21
43.0653
  0
LINE
  8
0
 10
8.78958
 20
43.0653
 11
9
 21
45
  0
LINE
  8
0
 10
9
 20
45
 11
8.78958
 21
46.9347
  0
LINE
  8
0
 10
8.78958
 20
46.9347
 11
8.16818
 21
48.779
  0
LINE
  8
0
 10
8.16818
 20
48.779
 11
7.16484
 21
50.4466
  0
LINE
  8
0
 10
7.16484
 20
50.4466
 11
5.82648
 21
51.8595
  0
LINE
  8
0
 10
5.82648
 20
51.8595
 11
4.21568
 21
52.9516
  0
LINE
  8
0
 10
4.21568
 20
52.9516
 11
2.40775
 21
53.6719
  0
LINE
  8
0
 10
2.40775
 20
53.6719
 11
0.487249
 21
53.9868
  0
LINE
  8
0
 10
0.487249
 20
53.9868
 11
-1.45604
 21
53.8814
  0
LINE
  8
0
 10
-1.45604
 20
53.8814
 11
-3.33124
 21
53.3608
  0
LINE
  8
0
 10
-3.33124
 20
53.3608
 11
-5.05068
 21
52.4492
  0
LINE
  8
0
 10
-5.05068
 20
52.4492
 11
-6.53396
 21
51.1893
  0
LINE
  8
0
 10
-6.53396
 20
51.1893
 11
-7.71171
 21
49.64
  0
LINE
  8
0
 10
-7.71171
 20
49.64
 11
-8.52888
 21
47.8737
  0
LINE
  8
0
 10
-8.52888
 20
47.8737
 11
-8.94724
 21
45.9731
  0
LINE
  8
0
 10
-8.94724
 20
45.9731
 11
-8.94724
 21
44.0269
  0
LINE
  8
0
 10
-6.4274
 20
44.0312
 11
-6.4274
 21
45.9688
  0
LINE
  8
0
 10
-6.4274
 20
45.9688
 11
-5.8563
 21
47.8202
  0
LINE
  8
0
 10
-5.8563
 20
47.8202
 11
-4.76484
 21
49.4211
  0
LINE
  8
0
 10
-4.76484
 20
49.4211
 11
-3.25
 21
50.6292
  0
LINE
  8
0
 10
-3.25
 20
50.6292
 11
-1.44639
 21
51.337
  0
LINE
  8
0
 10
-1.44639
 20
51.337
 11
0.485745
 21
51.4818
  0
LINE
  8
0
 10
0.485745
 20
51.4818
 11
2.37472
 21
51.0507
  0
LINE
  8
0
 10
2.37472
 20
51.0507
 11
4.05268
 21
50.0819
  0
LINE
  8
0
 10
4.05268
 20
50.0819
 11
5.37055
 21
48.6616
  0
LINE
  8
0
 10
5.37055
 20
48.6616
 11
6.21122
 21
46.9159
  0
LINE
  8
0
 10
6.21122
 20
46.9159
 11
6.5
 21
45
  0
LINE
  8
0
 10
6.5
 20
45
 11
6.21122
 21
43.0841
  0
LINE
  8
0
 10
6.21122
 20
43.0841
 11
5.37055
 21
41.3384
  0
LINE
  8
0
 10
5.37055
 20
41.3384
 11
4.05268
 21
39.9181
  0
LINE
  8
0
 10
4.05268
 20
39.9181
 11
2.37472
 21
38.9493
  0
LINE
  8
0
 10
2.37472
 20
38.9493
 11
0.485745
 21
38.5182
  0
LINE
  8
0
 10
0.485745
 20
38.5182
 11
-1.44639
 21
38.663
  0
LINE
  8
0
 10
-1.44639
 20
38.663
 11
-3.25
 21
39.3708
  0
LINE
  8
0
 10
-3.25
 20
39.3708
 11
-4.76484
 21
40.5789
  0
LINE
  8
0
 10
-4.76484
 20
40.5789
 11
-5.8563
 21
42.1798
  0
LINE
  8
0
 10
-5.8563
 20
42.1798
 11
-6.4274
 21
44.0312
  0
LINE
  8
0
 10
-8.94724
 20
64.0269
 11
-8.52888
 21
62.1263
  0
LINE
  8
0
 10
-8.52888
 20
62.1263
 11
-7.71171
 21
60.36
  0
LINE
  8
0
 10
-7.71171
 20
60.36
 11
-6.53396
 21
58.8107
  0
LINE
  8
0
 10
-6.53396
 20
58.8107
 11
-5.05068
 21
57.5508
  0
LINE
  8
0
 10
-5.05068
 20
57.5508
 11
-3.33124
 21
56.6392
  0
LINE
  8
0
 10
-3.33124
 20
56.6392
 11
-1.45604
 21
56.1186
  0
LINE
  8
0
 10
-1.45604
 20
56.1186
 11
0.487249
 21
56.0132
  0
LINE
  8
0
 10
0.487249
 20
56.0132
 11
2.40775
 21
56.3281
  0
LINE
  8
0
 10
2.40775
 20
56.3281
 11
4.21568
 21
57.0484
  0
LINE
  8
0
 10
4.21568
 20
57.0484
 11
5.82648
 21
58.1405
  0
LINE
  8
0
 10
5.82648
 20
58.1405
 11
7.16484
 21
59.5534
  0
LINE
  8
0
 10
7.16484
 20
59.5534
 11
8.16818
 21
61.221
  0
LINE
  8
0
 10
8.16818
 20
61.221
 11
8.78958
 21
63.0653
  0
LINE
  8
0
 10
8.78958
 20
63.0653
 11
9
 21
65
  0
LINE
  8
0
 10
9
 20
65
 11
6.5
 21
65
  0
LINE
  8
0
 10
6.5
 20
65
 11
6.21122
 21
63.0841
  0
LINE
  8
0
 10
6.21122
 20
63.0841
 11
5.37055
 21
61.3384
  0
LINE
  8
0
 10
5.37055
 20
61.3384
 11
4.05268
 21
59.9181
  0
LINE
  8
0
 10
4.05268
 20
59.9181
 11
2.37472
 21
58.9493
  0
LINE
  8
0
 10
2.37472
 20
58.9493
 11
0.485745
 21
58.5182
  0
LINE
  8
0
 10
0.485745
 20
58.5182
 11
-1.44639
 21
58.663
  0
LINE
  8
0
 10
-1.44639
 20
58.663
 11
-3.25
 21
59.3708
  0
LINE
  8
0
 10
-3.25
 20
59.3708
 11
-4.76484
 21
60.5789
  0
LINE
  8
0
 10
-4.76484
 20
60.5789
 11
-5.8563
 21
62.1798
  0
LINE
  8
0
 10
-5.8563
 20
62.1798
 11
-6.4274
 21
64.0312
  0
LINE
  8
0
 10
-6.4274
 20
64.0312
 11
-6.4274
 21
65.9688
  0
LINE
  8
0
 10
-6.4274
 20
65.9688
 11
-5.8563
 21
67.8202
  0
LINE
  8
0
 10
-5.8563
 20
67.8202
 11
-4.76484
 21
69.4211
  0
LINE
  8
0
 10
-4.76484
 20
69.4211
 11
-3.25
 21
70.6292
  0
LINE
  8
0
 10
-3.25
 20
70.6292
 11
-1.44639
 21
71.337
  0
LINE
  8
0
 10
-1.44639
 20
71.337
 11
0
 21
71.4454
  0
LINE
  8
0
 10
0
 20
71.4454
 11
0
 21
73.9604
  0
LINE
  8
0
 10
0
 20
73.9604
 11
-1.45604
 21
73.8814
  0
LINE
  8
0
 10
-1.45604
 20
73.8814
 11
-3.33124
 21
73.3608
  0
LINE
  8
0
 10
-3.33124
 20
73.3608
 11
-5.05068
 21
72.4492
  0
LINE
  8
0
 10
-5.05068
 20
72.4492
 11
-6.53396
 21
71.1893
  0
LINE
  8
0
 10
-6.53396
 20
71.1893
 11
-7.71171
 21
69.64
  0
LINE
  8
0
 10
-7.71171
 20
69.64
 11
-8.52888
 21
67.8737
  0
LINE
  8
0
 10
-8.52888
 20
67.8737
 11
-8.94724
 21
65.9731
  0
LINE
  8
0
 10
-8.94724
 20
65.9731
 11
-8.94724
 21
64.0269
  0
LINE
  8
0
 10
-8.94724
 20
84.0269
 11
-8.52888
 21
82.1263
  0
LINE
  8
0
 10
-8.52888
 20
82.1263
 11
-7.71171
 21
80.36
  0
LINE
  8
0
 10
-7.71171
 20
80.36
 11
-6.53396
 21
78.8107
  0
LINE
  8
0
 10
-6.53396
 20
78.8107
 11
-5.05068
 21
77.5508
  0
LINE
  8
0
 10
-5.05068
 20
77.5508
 11
-3.33124
 21
76.6392
  0
LINE
  8
0
 10
-3.33124
 20
76.6392
 11
-1.45604
 21
76.1186
  0
LINE
  8
0
 10
-1.45604
 20
76.1186
 11
0.487249
 21
76.0132
  0
LINE
  8
0
 10
0.487249
 20
76.0132
 11
2.40775
 21
76.3281
  0
LINE
  8
0
 10
2.40775
 20
76.3281
 11
4.21568
 21
77.0484
  0
LINE
  8
0
 10
4.21568
 20
77.0484
 11
5.82648
 21
78.1405
  0
LINE
  8
0
 10
5.82648
 20
78.1405
 11
7.16484
 21
79.5534
  0
LINE
  8
0
 10
7.16484
 20
79.5534
 11
8.16818
 21
81.221
  0
LINE
  8
0
 10
8.16818
 20
81.221
 11
8.78958
 21
83.0653
  0
LINE
  8
0
 10
8.78958
 20
83.0653
 11
9
 21
85
  0
LINE
  8
0
 10
9
 20
85
 11
6.5
 21
85
  0
LINE
  8
0
 10
6.5
 20
85
 11
6.21122
 21
83.0841
  0
LINE
  8
0
 10
6.21122
 20
83.0841
 11
5.37055
 21
81.3384
  0
LINE
  8
0
 10
5.37055
 20
81.3384
 11
4.05268
 21
79.9181
  0
LINE
  8
0
 10
4.05268
 20
79.9181
 11
2.37472
 21
78.9493
  0
LINE
  8
0
 10
2.37472
 20
78.9493
 11
0.485745
 21
78.5182
  0
LINE
  8
0
 10
0.485745
 20
78.5182
 11
-1.44639
 21
78.663
  0
LINE
  8
0
 10
-1.44639
 20
78.663
 11
-3.25
 21
79.3708
  0
LINE
  8
0
 10
-3.25
 20
79.3708
 11
-4.76484
 21
80.5789
  0
LINE
  8
0
 10
-4.76484
 20
80.5789
 11
-5.8563
 21
82.1798
  0
LINE
  8
0
 10
-5.8563
 20
82.1798
 11
-6.4274
 21
84.0312
  0
LINE
  8
0
 10
-6.4274
 20
84.0312
 11
-6.4274
 21
85.9688
  0
LINE
  8
0
 10
-6.4274
 20
85.9688
 11
-5.8563
 21
87.8202
  0
LINE
  8
0
 10
-5.8563
 20
87.8202
 11
-4.76484
 21
89.4211
  0
LINE
  8
0
 10
-4.76484
 20
89.4211
 11
-3.25
 21
90.6292
  0
LINE
  8
0
 10
-3.25
 20
90.6292
 11
-1.44639
 21
91.337
  0
LINE
  8
0
 10
-1.44639
 20
91.337
 11
0
 21
91.4454
  0
LINE
  8
0
 10
0
 20
91.4454
 11
0
 21
93.9604
  0
LINE
  8
0
 10
0
 20
93.9604
 11
-1.45604
 21
93.8814
  0
LINE
  8
0
 10
-1.45604
 20
93.8814
 11
-3.33124
 21
93.3608
  0
LINE
  8
0
 10
-3.33124
 20
93.3608
 11
-5.05068
 21
92.4492
  0
LINE
  8
0
 10
-5.05068
 20
92.4492
 11
-6.53396
 21
91.1893
  0
LINE
  8
0
 10
-6.53396
 20
91.1893
 11
-7.71171
 21
89.64
  0
LINE
  8
0
 10
-7.71171
 20
89.64
 11
-8.52888
 21
87.8737
  0
LINE
  8
0
 10
-8.52888
 20
87.8737
 11
-8.94724
 21
85.9731
  0
LINE
  8
0
 10
-8.94724
 20
85.9731
 11
-8.94724
 21
84.0269
  0
LINE
  8
0
 10
11.0528
 20
4.02693
 11
11.4711
 21
2.12629
  0
LINE
  8
0
 10
11.4711
 20
2.12629
 11
12.2883
 21
0.360016
  0
LINE
  8
0
 10
12.2883
 20
0.360016
 11
13.466
 21
-1.18929
  0
LINE
  8
0
 10
13.466
 20
-1.18929
 11
14.9493
 21
-2.4492
  0
LINE
  8
0
 10
14.9493
 20
-2.4492
 11
16.6688
 21
-3.36079
  0
LINE
  8
0
 10
16.6688
 20
-3.36079
 11
18.544
 21
-3.88144
  0
LINE
  8
0
 10
18.544
 20
-3.88144
 11
20.4872
 21
-3.9868
  0
LINE
  8
0
 10
20.4872
 20
-3.9868
 11
22.4078
 21
-3.67195
  0
LINE
  8
0
 10
22.4078
 20
-3.67195
 11
24.2157
 21
-2.95161
  0
LINE
  8
0
 10
24.2157
 20
-2.95161
 11
25.8265
 21
-1.85946
  0
LINE
  8
0
 10
25.8265
 20
-1.85946
 11
27.1648
 21
-0.446568
  0
LINE
  8
0
 10
27.1648
 20
-0.446568
 11
28.1682
 21
1.221
  0
LINE
  8
0
 10
28.1682
 20
1.221
 11
28.7896
 21
3.06527
  0
LINE
  8
0
 10
28.7896
 20
3.06527
 11
29
 21
5
  0
LINE
  8
0
 10
29
 20
5
 11
28.7896
 21
6.93473
  0
LINE
  8
0
 10
28.7896
 20
6.93473
 11
28.1682
 21
8.779
  0
LINE
  8
0
 10
28.1682
 20
8.779
 11
27.1648
 21
10.4466
  0
LINE
  8
0
 10
27.1648
 20
10.4466
 11
25.8265
 21
11.8595
  0
LINE
  8
0
 10
25.8265
 20
11.8595
 11
24.2157
 21
12.9516
  0
LINE
  8
0
 10
24.2157
 20
12.9516
 11
22.4078
 21
13.6719
  0
LINE
  8
0
 10
22.4078
 20
13.6719
 11
20.4872
 21
13.9868
  0
LINE
  8
0
 10
20.4872
 20
13.9868
 11
18.544
 21
13.8814
  0
LINE
  8
0
 10
18.544
 20
13.8814
 11
16.6688
 21
13.3608
  0
LINE
  8
0
 10
16.6688
 20
13.3608
 11
14.9493
 21
12.4492
  0
LINE
  8
0
 10
14.9493
 20
12.4492
 11
13.466
 21
11.1893
  0
LINE
  8
0
 10
13.466
 20
11.1893
 11
12.2883
 21
9.63998
  0
LINE
  8
0
 10
12.2883
 20
9.63998
 11
11.4711
 21
7.87371
  0
LINE
  8
0
 10
11.4711
 20
7.87371
 11
11.0528
 21
5.97307
  0
LINE
  8
0
 10
11.0528
 20
5.97307
 11
11.0528
 21
4.02693
  0
LINE
  8
0
 10
13.5726
 20
4.03123
 11
13.5726
 21
5.96877
  0
LINE
  8
0
 10
13.5726
 20
5.96877
 11
14.1437
 21
7.82024
  0
LINE
  8
0
 10
14.1437
 20
7.82024
 11
15.2352
 21
9.42112
  0
LINE
  8
0
 10
15.2352
 20
9.42112
 11
16.75
 21
10.6292
  0
LINE
  8
0
 10
16.75
 20
10.6292
 11
18.5536
 21
11.337
  0
LINE
  8
0
 10
18.5536
 20
11.337
 11
20.4857
 21
11.4818
  0
LINE
  8
0
 10
20.4857
 20
11.4818
 11
22.3747
 21
11.0507
  0
LINE
  8
0
 10
22.3747
 20
11.0507
 11
24.0527
 21
10.0819
  0
LINE
  8
0
 10
24.0527
 20
10.0819
 11
25.3706
 21
8.66158
  0
LINE
  8
0
 10
25.3706
 20
8.66158
 11
26.2112
 21
6.91591
  0
LINE
  8
0
 10
26.2112
 20
6.91591
 11
26.5
 21
5
  0
LINE
  8
0
 10
26.5
 20
5
 11
26.2112
 21
3.08409
  0
LINE
  8
0
 10
26.2112
 20
3.08409
 11
25.3706
 21
1.33842
  0
LINE
  8
0
 10
25.3706
 20
1.33842
 11
24.0527
 21
-0.0819044
  0
LINE
  8
0
 10
24.0527
 20
-0.0819044
 11
22.3747
 21
-1.05068
  0
LINE
  8
0
 10
22.3747
 20
-1.05068
 11
20.4857
 21
-1.48182
  0
LINE
  8
0
 10
20.4857
 20
-1.48182
 11
18.5536
 21
-1.33703
  0
LINE
  8
0
 10
18.5536
 20
-1.33703
 11
16.75
 21
-0.629165
  0
LINE
  8
0
 10
16.75
 20
-0.629165
 11
15.2352
 21
0.578877
  0
LINE
  8
0
 10
15.2352
 20
0.578877
 11
14.1437
 21
2.17976
  0
LINE
  8
0
 10
14.1437
 20
2.17976
 11
13.5726
 21
4.03123
  0
LINE
  8
0
 10
11.0528
 20
24.0269
 11
11.4711
 21
22.1263
  0
LINE
  8
0
 10
11.4711
 20
22.1263
 11
12.2883
 21
20.36
  0
LINE
  8
0
 10
12.2883
 20
20.36
 11
13.466
 21
18.8107
  0
LINE
  8
0
 10
13.466
 20
18.8107
 11
14.9493
 21
17.5508
  0
LINE
  8
0
 10
14.9493
 20
17.5508
 11
16.6688
 21
16.6392
  0
LINE
  8
0
 10
16.6688
 20
16.6392
 11
18.544
 21
16.1186
  0
LINE
  8
0
 10
18.544
 20
16.1186
 11
20.4872
 21
16.0132
  0
LINE
  8
0
 10
20.4872
 20
16.0132
 11
22.4078
 21
16.3281
  0
LINE
  8
0
 10
22.4078
 20
16.3281
 11
24.2157
 21
17.0484
  0
LINE
  8
0
 10
24.2157
 20
17.0484
 11
25.8265
 21
18.1405
  0
LINE
  8
0
 10
25.8265
 20
18.1405
 11
27.1648
 21
19.5534
  0
LINE
  8
0
 10
27.1648
 20
19.5534
 11
28.1682
 21
21.221
  0
LINE
  8
0
 10
28.1682
 20
21.221
 11
28.7896
 21
23.0653
  0
LINE
  8
0
 10
28.7896
 20
23.0653
 11
29
 21
25
  0
LINE
  8
0
 10
29
 20
25
 11
26.5
 21
25
  0
LINE
  8
0
 10
26.5
 20
25
 11
26.2112
 21
23.0841
  0
LINE
  8
0
 10
26.2112
 20
23.0841
 11
25.3706
 21
21.3384
  0
LINE
  8
0
 10
25.3706
 20
21.3384
 11
24.0527
 21
19.9181
  0
LINE
  8
0
 10
24.0527
 20
19.9181
 11
22.3747
 21
18.9493
  0
LINE
  8
0
 10
22.3747
 20
18.9493
 11
20.4857
 21
18.5182
  0
LINE
  8
0
 10
20.4857
 20
18.5182
 11
18.5536
 21
18.663
  0
LINE
  8
0
 10
18.5536
 20
18.663
 11
16.75
 21
19.3708
  0
LINE
  8
0
 10
16.75
 20
19.3708
 11
15.2352
 21
20.5789
  0
LINE
  8
0
 10
15.2352
 20
20.5789
 11
14.1437
 21
22.1798
  0
LINE
  8
0
 10
14.1437
 20
22.1798
 11
13.5726
 21
24.0312
  0
LINE
  8
0
 10
13.5726
 20
24.0312
 11
13.5726
 21
25.9688
  0
LINE
  8
0
 10
13.5726
 20
25.9688
 11
14.1437
 21
27.8202
  0
LINE
  8
0
 10
14.1437
 20
27.8202
 11
15.2352
 21
29.4211
  0
LINE
  8
0
 10
15.2352
 20
29.4211
 11
16.75
 21
30.6292
  0
LINE
  8
0
 10
16.75
 20
30.6292
 11
18.5536
 21
31.337
  0
LINE
  8
0
 10
18.5536
 20
31.337
 11
20
 21
31.4454
  0
LINE
  8
0
 10
20
 20
31.4454
 11
20
 21
33.9604
  0
LINE
  8
0
 10
20
 20
33.9604
 11
18.544
 21
33.8814
  0
LINE
  8
0
 10
18.544
 20
33.8814
 11
16.6688
 21
33.3608
  0
LINE
  8
0
 10
16.6688
 20
33.3608
 11
14.9493
 21
32.4492
  0
LINE
  8
0
 10
14.9493
 20
32.4492
 11
13.466
 21
31.1893
  0
LINE
  8
0
 10
13.466
 20
31.1893
 11
12.2883
 21
29.64
  0
LINE
  8
0
 10
12.2883
 20
29.64
 11
11.4711
 21
27.8737
  0
LINE
  8
0
 10
11.4711
 20
27.8737
 11
11.0528
 21
25.9731
  0
LINE
  8
0
 10
11.0528
 20
25.9731
 11
11.0528
 21
24.0269
  0
LINE
  8
0
 10
11.0528
 20
44.0269
 11
11.4711
 21
42.1263
  0
LINE
  8
0
 10
11.4711
 20
42.1263
 11
12.2883
 21
40.36
  0
LINE
  8
0
 10
12.2883
 20
40.36
 11
13.466
 21
38.8107
  0
LINE
  8
0
 10
13.466
 20
38.8107
 11
14.9493
 21
37.5508
  0
LINE
  8
0
 10
14.9493
 20
37.5508
 11
16.6688
 21
36.6392
  0
LINE
  8
0
 10
16.6688
 20
36.6392
 11
18.544
 21
36.1186
  0
LINE
  8
0
 10
18.544
 20
36.1186
 11
20.4872
 21
36.0132
  0
LINE
  8
0
 10
20.4872
 20
36.0132
 11
22.4078
 21
36.3281
  0
LINE
  8
0
 10
22.4078
 20
36.3281
 11
24.2157
 21
37.0484
  0
LINE
  8
0
 10
24.2157
 20
37.0484
 11
25.8265
 21
38.1405
  0
LINE
  8
0
 10
25.8265
 20
38.1405
 11
27.1648
 21
39.5534
  0
LINE
  8
0
 10
27.1648
 20
39.5534
 11
28.1682
 21
41.221
  0
LINE
  8
0
 10
28.1682
 20
41.221
 11
28.7896
 21
43.0653
  0
LINE
  8
0
 10
28.7896
 20
43.0653
 11
29
 21
45
  0
LINE
  8
0
 10
29
 20
45
 11
28.7896
 21
46.9347
  0
LINE
  8
0
 10
28.7896
 20
46.9347
 11
28.1682
 21
48.779
  0
LINE
  8
0
 10
28.1682
 20
48.779
 11
27.1648
 21
50.4466
  0
LINE
  8
0
 10
27.1648
 20
50.4466
 11
25.8265
 21
51.8595
  0
LINE
  8
0
 10
25.8265
 20
51.8595
 11
24.2157
 21
52.9516
  0
LINE
  8
0
 10
24.2157
 20
52.9516
 11
22.4078
 21
53.6719
  0
LINE
  8
0
 10
22.4078
 20
53.6719
 11
20.4872
 21
53.9868
  0
LINE
  8
0
 10
20.4872
 20
53.9868
 11
18.544
 21
53.8814
  0
LINE
  8
0
 10
18.544
 20
53.8814
 11
16.6688
 21
53.3608
  0
LINE
  8
0
 10
16.6688
 20
53.3608
 11
14.9493
 21
52.4492
  0
LINE
  8
0
 10
14.9493
 20
52.4492
 11
13.466
 21
51.1893
  0
LINE
  8
0
 10
13.466
 20
51.1893
 11
12.2883
 21
49.64
  0
LINE
  8
0
 10
12.2883
 20
49.64
 11
11.4711
 21
47.8737
  0
LINE
  8
0
 10
11.4711
 20
47.8737
 11
11.0528
 21
45.9731
  0
LINE
  8
0
 10
11.0528
 20
45.9731
 11
11.0528
 21
44.0269
  0
LINE
  8
0
 10
13.5726
 20
44.0312
 11
13.5726
 21
45.9688
  0
LINE
  8
0
 10
13.5726
 20
45.9688
 11
14.1437
 21
47.8202
  0
LINE
  8
0
 10
14.1437
 20
47.8202
 11
15.2352
 21
49.4211
  0
LINE
  8
0
 10
15.2352
 20
49.4211
 11
16.75
 21
50.6292
  0
LINE
  8
0
 10
16.75
 20
50.6292
 11
18.5536
 21
51.337
  0
LINE
  8
0
 10
18.5536
 20
51.337
 11
20.4857
 21
51.4818
  0
LINE
  8
0
 10
20.4857
 20
51.4818
 11
22.3747
 21
51.0507
  0
LINE
  8
0
 10
22.3747
 20
51.0507
 11
24.0527
 21
50.0819
  0
LINE
  8
0
 10
24.0527
 20
50.0819
 11
25.3706
 21
48.6616
  0
LINE
  8
0
 10
25.3706
 20
48.6616
 11
26.2112
 21
46.9159
  0
LINE
  8
0
 10
26.2112
 20
46.9159
 11
26.5
 21
45
  0
LINE
  8
0
 10
26.5
 20
45
 11
26.2112
 21
43.0841
  0
LINE
  8
0
 10
26.2112
 20
43.0841
 11
25.3706
 21
41.3384
  0
LINE
  8
0
 10
25.3706
 20
41.3384
 11
24.0527
 21
39.9181
  0
LINE
  8
0
 10
24.0527
 20
39.9181
 11
22.3747
 21
38.9493
  0
LINE
  8
0
 10
22.3747
 20
38.9493
 11
20.4857
 21
38.5182
  0
LINE
  8
0
 10
20.4857
 20
38.5182
 11
18.5536
 21
38.663
  0
LINE
  8
0
 10
18.5536
 20
38.663
 11
16.75
 21
39.3708
  0
LINE
  8
0
 10
16.75
 20
39.3708
 11
15.2352
 21
40.5789
  0
LINE
  8
0
 10
15.2352
 20
40.5789
 11
14.1437
 21
42.1798
  0
LINE
  8
0
 10
14.1437
 20
42.1798
 11
13.5726
 21
44.0312
  0
LINE
  8
0
 10
11.0528
 20
64.0269
 11
11.4711
 21
62.1263
  0
LINE
  8
0
 10
11.4711
 20
62.1263
 11
12.2883
 21
60.36
  0
LINE
  8
0
 10
12.2883
 20
60.36
 11
13.466
 21
58.8107
  0
LINE
  8
0
 10
13.466
 20
58.8107
 11
14.9493
 21
57.5508
  0
LINE
  8
0
 10
14.9493
 20
57.5508
 11
16.6688
 21
56.6392
  0
LINE
  8
0
 10
16.6688
 20
56.6392
 11
18.544
 21
56.1186
  0
LINE
  8
0
 10
18.544
 20
56.1186
 11
20.4872
 21
56.0132
  0
LINE
  8
0
 10
20.4872
 20
56.0132
 11
22.4078
 21
56.3281
  0
LINE
  8
0
 10
22.4078
 20
56.3281
 11
24.2157
 21
57.0484
  0
LINE
  8
0
 10
24.2157
 20
57.0484
 11
25.8265
 21
58.1405
  0
LINE
  8
0
 10
25.8265
 20
58.1405
 11
27.1648
 21
59.5534
  0
LINE
  8
0
 10
27.1648
 20
59.5534
 11
28.1682
 21
61.221
  0
LINE
  8
0
 10
28.1682
 20
61.221
 11
28.7896
 21
63.0653
  0
LINE
  8
0
 10
28.7896
 20
63.0653
 11
29
 21
65
  0
LINE
  8
0
 10
29
 20
65
 11
26.5
 21
65
  0
LINE
  8
0
 10
26.5
 20
65
 11
26.2112
 21
63.0841
  0
LINE
  8
0
 10
26.2112
 20
63.0841
 11
25.3706
 21
61.3384
  0
LINE
  8
0
 10
25.3706
 20
61.3384
 11
24.0527
 21
59.9181
  0
LINE
  8
0
 10
24.0527
 20
59.9181
 11
22.3747
 21
58.9493
  0
LINE
  8
0
 10
22.3747
 20
58.9493
 11
20.4857
 21
58.5182
  0
LINE
  8
0
 10
20.4857
 20
58.5182
 11
18.5536
 21
58.663
  0
LINE
  8
0
 10
18.5536
 20
58.663
 11
16.75
 21
59.3708
  0
LINE
  8
0
 10
16.75
 20
59.3708
 11
15.2352
 21
60.5789
  0
LINE
  8
0
 10
15.2352
 20
60.5789
 11
14.1437
 21
62.1798
  0
LINE
  8
0
 10
14.1437
 20
62.1798
 11
13.5726
 21
64.0312
  0
LINE
  8
0
 10
13.5726
 20
64.0312
 11
13.5726
 21
65.9688
  0
LINE
  8
0
 10
13.5726
 20
65.9688
 11
14.1437
 21
67.8202
  0
LINE
  8
0
 10
14.1437
 20
67.8202
 11
15.2352
 21
69.4211
  0
LINE
  8
0
 10
15.2352
 20
69.4211
 11
16.75
 21
70.6292
  0
LINE
  8
0
 10
16.75
 20
70.6292
 11
18.5536
 21
71.337
  0
LINE
  8
0
 10
18.5536
 20
71.337
 11
20
 21
71.4454
  0
LINE
  8
0
 10
20
 20
71.4454
 11
20
 21
73.9604
  0
LINE
  8
0
 10
20
 20
73.9604
 11
18.544
 21
73.8814
  0
LINE
  8
0
 10
18.544
 20
73.8814
 11
16.6688
 21
73.3608
  0
LINE
  8
0
 10
16.6688
 20
73.3608
 11
14.9493
 21
72.4492
  0
LINE
  8
0
 10
14.9493
 20
72.4492
 11
13.466
 21
71.1893
  0
LINE
  8
0
 10
13.466
 20
71.1893
 11
12.2883
 21
69.64
  0
LINE
  8
0
 10
12.2883
 20
69.64
 11
11.4711
 21
67.8737
  0
LINE
  8
0
 10
11.4711
 20
67.8737
 11
11.0528
 21
65.9731
  0
LINE
  8
0
 10
11.0528
 20
65.9731
 11
11.0528
 21
64.0269
  0
LINE
  8
0
 10
11.0528
 20
84.0269
 11
11.4711
 21
82.1263
  0
LINE
  8
0
 10
11.4711
 20
82.1263
 11
12.2883
 21
80.36
  0
LINE
  8
0
 10
12.2883
 20
80.36
 11
13.466
 21
78.8107
  0
LINE
  8
0
 10
13.466
 20
78.8107
 11
14.9493
 21
77.5508
  0
LINE
  8
0
 10
14.9493
 20
77.5508
 11
16.6688
 21
76.6392
  0
LINE
  8
0
 10
16.6688
 20
76.6392
 11
18.544
 21
76.1186
  0
LINE
  8
0
 10
18.544
 20
76.1186
 11
20.4872
 21
76.0132
  0
LINE
  8
0
 10
20.4872
 20
76.0132
 11
22.4078
 21
76.3281
  0
LINE
  8
0
 10
22.4078
 20
76.3281
 11
24.2157
 21
77.0484
  0
LINE
  8
0
 10
24.2157
 20
77.0484
 11
25.8265
 21
78.1405
  0
LINE
  8
0
 10
25.8265
 20
78.1405
 11
27.1648
 21
79.5534
  0
LINE
  8
0
 10
27.1648
 20
79.5534
 11
28.1682
 21
81.221
  0
LINE
  8
0
 10
28.1682
 20
81.221
 11
28.7896
 21
83.0653
  0
LINE
  8
0
 10
28.7896
 20
83.0653
 11
29
 21
85
  0
LINE
  8
0
 10
29
 20
85
 11
26.5
 21
85
  0
LINE
  8
0
 10
26.5
 20
85
 11
26.2112
 21
83.0841
  0
LINE
  8
0
 10
26.2112
 20
83.0841
 11
25.3706
 21
81.3384
  0
LINE
  8
0
 10
25.3706
 20
81.3384
 11
24.0527
 21
79.9181
  0
LINE
  8
0
 10
24.0527
 20
79.9181
 11
22.3747
 21
78.9493
  0
LINE
  8
0
 10
22.3747
 20
78.9493
 11
20.4857
 21
78.5182
  0
LINE
  8
0
 10
20.4857
 20
78.5182
 11
18.5536
 21
78.663
  0
LINE
  8
0
 10
18.5536
 20
78.663
 11
16.75
 21
79.3708
  0
LINE
  8
0
 10
16.75
 20
79.3708
 11
15.2352
 21
80.5789
  0
LINE
  8
0
 10
15.2352
 20
80.5789
 11
14.1437
 21
82.1798
  0
LINE
  8
0
 10
14.1437
 20
82.1798
 11
13.5726
 21
84.0312
  0
LINE
  8
0
 10
13.5726
 20
84.0312
 11
13.5726
 21
85.9688
  0
LINE
  8
0
 10
13.5726
 20
85.9688
 11
14.1437
 21
87.8202
  0
LINE
  8
0
 10
14.1437
 20
87.8202
 11
15.2352
 21
89.4211
  0
LINE
  8
0
 10
15.2352
 20
89.4211
 11
16.75
 21
90.6292
  0
LINE
  8
0
 10
16.75
 20
90.6292
 11
18.5536
 21
91.337
  0
LINE
  8
0
 10
18.5536
 20
91.337
 11
20
 21
91.4454
  0
LINE
  8
0
 10
20
 20
91.4454
 11
20
 21
93.9604
  0
LINE
  8
0
 10
20
 20
93.9604
 11
18.544
 21
93.8814
  0
LINE
  8
0
 10
18.544
 20
93.8814
 11
16.6688
 21
93.3608
  0
LINE
  8
0
 10
16.6688
 20
93.3608
 11
14.9493
 21
92.4492
  0
LINE
  8
0
 10
14.9493
 20
92.4492
 11
13.466
 21
91.1893
  0
LINE
  8
0
 10
13.466
 20
91.1893
 11
12.2883
 21
89.64
  0
LINE
  8
0
 10
12.2883
 20
89.64
 11
11.4711
 21
87.8737
  0
LINE
  8
0
 10
11.4711
 20
87.8737
 11
11.0528
 21
85.9731
  0
LINE
  8
0
 10
11.0528
 20
85.9731
 11
11.0528
 21
84.0269
  0
LINE
  8
0
 10
31.0528
 20
4.02693
 11
31.4711
 21
2.12629
  0
LINE
  8
0
 10
31.4711
 20
2.12629
 11
32.2883
 21
0.360016
  0
LINE
  8
0
 10
32.2883
 20
0.360016
 11
33.466
 21
-1.18929
  0
LINE
  8
0
 10
33.466
 20
-1.18929
 11
34.9493
 21
-2.4492
  0
LINE
  8
0
 10
34.9493
 20
-2.4492
 11
36.6688
 21
-3.36079
  0
LINE
  8
0
 10
36.6688
 20
-3.36079
 11
38.544
 21
-3.88144
  0
LINE
  8
0
 10
38.544
 20
-3.88144
 11
40.4872
 21
-3.9868
  0
LINE
  8
0
 10
40.4872
 20
-3.9868
 11
42.4078
 21
-3.67195
  0
LINE
  8
0
 10
42.4078
 20
-3.67195
 11
44.2157
 21
-2.95161
  0
LINE
  8
0
 10
44.2157
 20
-2.95161
 11
45.8265
 21
-1.85946
  0
LINE
  8
0
 10
45.8265
 20
-1.85946
 11
47.1648
 21
-0.446568
  0
LINE
  8
0
 10
47.1648
 20
-0.446568
 11
48.1682
 21
1.221
  0
LINE
  8
0
 10
48.1682
 20
1.221
 11
48.7896
 21
3.06527
  0
LINE
  8
0
 10
48.7896
 20
3.06527
 11
49
 21
5
  0
LINE
  8
0
 10
49
 20
5
 11
48.7896
 21
6.93473
  0
LINE
  8
0
 10
48.7896
 20
6.93473
 11
48.1682
 21
8.779
  0
LINE
  8
0
 10
48.1682
 20
8.779
 11
47.1648
 21
10.4466
  0
LINE
  8
0
 10
47.1648
 20
10.4466
 11
45.8265
 21
11.8595
  0
LINE
  8
0
 10
45.8265
 20
11.8595
 11
44.2157
 21
12.9516
  0
LINE
  8
0
 10
44.2157
 20
12.9516
 11
42.4078
 21
13.6719
  0
LINE
  8
0
 10
42.4078
 20
13.6719
 11
40.4872
 21
13.9868
  0
LINE
  8
0
 10
40.4872
 20
13.9868
 11
38.544
 21
13.8814
  0
LINE
  8
0
 10
38.544
 20
13.8814
 11
36.6688
 21
13.3608
  0
LINE
  8
0
 10
36.6688
 20
13.3608
 11
34.9493
 21
12.4492
  0
LINE
  8
0
 10
34.9493
 20
12.4492
 11
33.466
 21
11.1893
  0
LINE
  8
0
 10
33.466
 20
11.1893
 11
32.2883
 21
9.63998
  0
LINE
  8
0
 10
32.2883
 20
9.63998
 11
31.4711
 21
7.87371
  0
LINE
  8
0
 10
31.4711
 20
7.87371
 11
31.0528
 21
5.97307
  0
LINE
  8
0
 10
31.0528
 20
5.97307
 11
31.0528
 21
4.02693
  0
LINE
  8
0
 10
33.5726
 20
4.03123
 11
33.5726
 21
5.96877
  0
LINE
  8
0
 10
33.5726
 20
5.96877
 11
34.1437
 21
7.82024
  0
LINE
  8
0
 10
34.1437
 20
7.82024
 11
35.2352
 21
9.42112
  0
LINE
  8
0
 10
35.2352
 20
9.42112
 11
36.75
 21
10.6292
  0
LINE
  8
0
 10
36.75
 20
10.6292
 11
38.5536
 21
11.337
  0
LINE
  8
0
 10
38.5536
 20
11.337
 11
40.4857
 21
11.4818
  0
LINE
  8
0
 10
40.4857
 20
11.4818
 11
42.3747
 21
11.0507
  0
LINE
  8
0
 10
42.3747
 20
11.0507
 11
44.0527
 21
10.0819
  0
LINE
  8
0
 10
44.0527
 20
10.0819
 11
45.3706
 21
8.66158
  0
LINE
  8
0
 10
45.3706
 20
8.66158
 11
46.2112
 21
6.91591
  0
LINE
  8
0
 10
46.2112
 20
6.91591
 11
46.5
 21
5
  0
LINE
  8
0
 10
46.5
 20
5
 11
46.2112
 21
3.08409
  0
LINE
  8
0
 10
46.2112
 20
3.08409
 11
45.3706
 21
1.33842
  0
LINE
  8
0
 10
45.3706
 20
1.33842
 11
44.0527
 21
-0.0819044
  0
LINE
  8
0
 10
44.0527
 20
-0.0819044
 11
42.3747
 21
-1.05068
  0
LINE
  8
0
 10
42.3747
 20
-1.05068
 11
40.4857
 21
-1.48182
  0
LINE
  8
0
 10
40.4857
 20
-1.48182
 11
38.5536
 21
-1.33703
  0
LINE
  8
0
 10
38.5536
 20
-1.33703
 11
36.75
 21
-0.629165
  0
LINE
  8
0
 10
36.75
 20
-0.629165
 11
35.2352
 21
0.578877
  0
LINE
  8
0
 10
35.2352
 20
0.578877
 11
34.1437
 21
2.17976
  0
LINE
  8
0
 10
34.1437
 20
2.17976
 11
33.5726
 21
4.03123
  0
LINE
  8
0
 10
31.0528
 20
24.0269
 11
31.4711
 21
22.1263
  0
LINE
  8
0
 10
31.4711
 20
22.1263
 11
32.2883
 21
20.36
  0
LINE
  8
0
 10
32.2883
 20
20.36
 11
33.466
 21
18.8107
  0
LINE
  8
0
 10
33.466
 20
18.8107
 11
34.9493
 21
17.5508
  0
LINE
  8
0
 10
34.9493
 20
17.5508
 11
36.6688
 21
16.6392
  0
LINE
  8
0
 10
36.6688
 20
16.6392
 11
38.544
 21
16.1186
  0
LINE
  8
0
 10
38.544
 20
16.1186
 11
40.4872
 21
16.0132
  0
LINE
  8
0
 10
40.4872
 20
16.0132
 11
42.4078
 21
16.3281
  0
LINE
  8
0
 10
42.4078
 20
16.3281
 11
44.2157
 21
17.0484
  0
LINE
  8
0
 10
44.2157
 20
17.0484
 11
45.8265
 21
18.1405
  0
LINE
  8
0
 10
45.8265
 20
18.1405
 11
47.1648
 21
19.5534
  0
LINE
  8
0
 10
47.1648
 20
19.5534
 11
48.1682
 21
21.221
  0
LINE
  8
0
 10
48.1682
 20
21.221
 11
48.7896
 21
23.0653
  0
LINE
  8
0
 10
48.7896
 20
23.0653
 11
49
 21
25
  0
LINE
  8
0
 10
49
 20
25
 11
46.5
 21
25
  0
LINE
  8
0
 10
46.5
 20
25
 11
46.2112
 21
23.0841
  0
LINE
  8
0
 10
46.2112
 20
23.0841
 11
45.3706
 21
21.3384
  0
LINE
  8
0
 10
45.3706
 20
21.3384
 11
44.0527
 21
19.9181
  0
LINE
  8
0
 10
44.0527
 20
19.9181
 11
42.3747
 21
18.9493
  0
LINE
  8
0
 10
42.3747
 20
18.9493
 11
40.4857
 21
18.5182
  0
LINE
  8
0
 10
40.4857
 20
18.5182
 11
38.5536
 21
18.663
  0
LINE
  8
0
 10
38.5536
 20
18.663
 11
36.75
 21
19.3708
  0
LINE
  8
0
 10
36.75
 20
19.3708
 11
35.2352
 21
20.5789
  0
LINE
  8
0
 10
35.2352
 20
20.5789
 11
34.1437
 21
22.1798
  0
LINE
  8
0
 10
34.1437
 20
22.1798
 11
33.5726
 21
24.0312
  0
LINE
  8
0
 10
33.5726
 20
24.0312
 11
33.5726
 21
25.9688
  0
LINE
  8
0
 10
33.5726
 20
25.9688
 11
34.1437
 21
27.8202
  0
LINE
  8
0
 10
34.1437
 20
27.8202
 11
35.2352
 21
29.4211
  0
LINE
  8
0
 10
35.2352
 20
29.4211
 11
36.75
 21
30.6292
  0
LINE
  8
0
 10
36.75
 20
30.6292
 11
38.5536
 21
31.337
  0
LINE
  8
0
 10
38.5536
 20
31.337
 11
40
 21
31.4454
  0
LINE
  8
0
 10
40
 20
31.4454
 11
40
 21
33.9604
  0
LINE
  8
0
 10
40
 20
33.9604
 11
38.544
 21
33.8814
  0
LINE
  8
0
 10
38.544
 20
33.8814
 11
36.6688
 21
33.3608
  0
LINE
  8
0
 10
36.6688
 20
33.3608
 11
34.9493
 21
32.4492
  0
LINE
  8
0
 10
34.9493
 20
32.4492
 11
33.466
 21
31.1893
  0
LINE
  8
0
 10
33.466
 20
31.1893
 11
32.2883
 21
29.64
  0
LINE
  8
0
 10
32.2883
 20
29.64
 11
31.4711
 21
27.8737
  0
LINE
  8
0
 10
31.4711
 20
27.8737
 11
31.0528
 21
25.9731
  0
LINE
  8
0
 10
31.0528
 20
25.9731
 11
31.0528
 21
24.0269
  0
LINE
  8
0
 10
31.0528
 20
44.0269
 11
31.4711
 21
42.1263
  0
LINE
  8
0
 10
31.4711
 20
42.1263
 11
32.2883
 21
40.36
  0
LINE
  8
0
 10
32.2883
 20
40.36
 11
33.466
 21
38.8107
  0
LINE
  8
0
 10
33.466
 20
38.8107
 11
34.9493
 21
37.5508
  0
LINE
  8
0
 10
34.9493
 20
37.5508
 11
36.6688
 21
36.6392
  0
LINE
  8
0
 10
36.6688
 20
36.6392
 11
38.544
 21
36.1186
  0
LINE
  8
0
 10
38.544
 20
36.1186
 11
40.4872
 21
36.0132
  0
LINE
  8
0
 10
40.4872
 20
36.0132
 11
42.4078
 21
36.3281
  0
LINE
  8
0
 10
42.4078
 20
36.3281
 11
44.2157
 21
37.0484
  0
LINE
  8
0
 10
44.2157
 20
37.0484
 11
45.8265
 21
38.1405
  0
LINE
  8
0
 10
45.8265
 20
38.1405
 11
47.1648
 21
39.5534
  0
LINE
  8
0
 10
47.1648
 20
39.5534
 11
48.1682
 21
41.221
  0
LINE
  8
0
 10
48.1682
 20
41.221
 11
48.7896
 21
43.0653
  0
LINE
  8
0
 10
48.7896
 20
43.0653
 11
49
 21
45
  0
LINE
  8
0
 10
49
 20
45
 11
48.7896
 21
46.9347
  0
LINE
  8
0
 10
48.7896
 20
46.9347
 11
48.1682
 21
48.779
  0
LINE
  8
0
 10
48.1682
 20
48.779
 11
47.1648
 21
50.4466
  0
LINE
  8
0
 10
47.1648
 20
50.4466
 11
45.8265
 21
51.8595
  0
LINE
  8
0
 10
45.8265
 20
51.8595
 11
44.2157
 21
52.9516
  0
LINE
  8
0
 10
44.2157
 20
52.9516
 11
42.4078
 21
53.6719
  0
LINE
  8
0
 10
42.4078
 20
53.6719
 11
40.4872
 21
53.9868
  0
LINE
  8
0
 10
40.4872
 20
53.9868
 11
38.544
 21
53.8814
  0
LINE
  8
0
 10
38.544
 20
53.8814
 11
36.6688
 21
53.3608
  0
LINE
  8
0
 10
36.6688
 20
53.3608
 11
34.9493
 21
52.4492
  0
LINE
  8
0
 10
34.9493
 20
52.4492
 11
33.466
 21
51.1893
  0
LINE
  8
0
 10
33.466
 20
51.1893
 11
32.2883
 21
49.64
  0
LINE
  8
0
 10
32.2883
 20
49.64
 11
31.4711
 21
47.8737
  0
LINE
  8
0
 10
31.4711
 20
47.8737
 11
31.0528
 21
45.9731
  0
LINE
  8
0
 10
31.0528
 20
45.9731
 11
31.0528
 21
44.0269
  0
LINE
  8
0
 10
33.5726
 20
44.0312
 11
33.5726
 21
45.9688
  0
LINE
  8
0
 10
33.5726
 20
45.9688
 11
34.1437
 21
47.8202
  0
LINE
  8
0
 10
34.1437
 20
47.8202
 11
35.2352
 21
49.4211
  0
LINE
  8
0
 10
35.2352
 20
49.4211
 11
36.75
 21
50.6292
  0
LINE
  8
0
 10
36.75
 20
50.6292
 11
38.5536
 21
51.337
  0
LINE
  8
0
 10
38.5536
 20
51.337
 11
40.4857
 21
51.4818
  0
LINE
  8
0
 10
40.4857
 20
51.4818
 11
42.3747
 21
51.0507
  0
LINE
  8
0
 10
42.3747
 20
51.0507
 11
44.0527
 21
50.0819
  0
LINE
  8
0
 10
44.0527
 20
50.0819
 11
45.3706
 21
48.6616
  0
LINE
  8
0
 10
45.3706
 20
48.6616
 11
46.2112
 21
46.9159
  0
LINE
  8
0
 10
46.2112
 20
46.9159
 11
46.5
 21
45
  0
LINE
  8
0
 10
46.5
 20
45
 11
46.2112
 21
43.0841
  0
LINE
  8
0
 10
46.2112
 20
43.0841
 11
45.3706
 21
41.3384
  0
LINE
  8
0
 10
45.3706
 20
41.3384
 11
44.0527
 21
39.9181
  0
LINE
  8
0
 10
44.0527
 20
39.9181
 11
42.3747
 21
38.9493
  0
LINE
  8
0
 10
42.3747
 20
38.9493
 11
40.4857
 21
38.5182
  0
LINE
  8
0
 10
40.4857
 20
38.5182
 11
38.5536
 21
38.663
  0
LINE
  8
0
 10
38.5536
 20
38.663
 11
36.75
 21
39.3708
  0
LINE
  8
0
 10
36.75
 20
39.3708
 11
35.2352
 21
40.5789
  0
LINE
  8
0
 10
35.2352
 20
40.5789
 11
34.1437
 21
42.1798
  0
LINE
  8
0
 10
34.1437
 20
42.1798
 11
33.5726
 21
44.0312
  0
LINE
  8
0
 10
31.0528
 20
64.0269
 11
31.4711
 21
62.1263
  0
LINE
  8
0
 10
31.4711
 20
62.1263
 11
32.2883
 21
60.36
  0
LINE
  8
0
 10
32.2883
 20
60.36
 11
33.466
 21
58.8107
  0
LINE
  8
0
 10
33.466
 20
58.8107
 11
34.9493
 21
57.5508
  0
LINE
  8
0
 10
34.9493
 20
57.5508
 11
36.6688
 21
56.6392
  0
LINE
  8
0
 10
36.6688
 20
56.6392
 11
38.544
 21
56.1186
  0
LINE
  8
0
 10
38.544
 20
56.1186
 11
40.4872
 21
56.0132
  0
LINE
  8
0
 10
40.4872
 20
56.0132
 11
42.4078
 21
56.3281
  0
LINE
  8
0
 10
42.4078
 20
56.3281
 11
44.2157
 21
57.0484
  0
LINE
  8
0
 10
44.2157
 20
57.0484
 11
45.8265
 21
58.1405
  0
LINE
  8
0
 10
45.8265
 20
58.1405
 11
47.1648
 21
59.5534
  0
LINE
  8
0
 10
47.1648
 20
59.5534
 11
48.1682
 21
61.221
  0
LINE
  8
0
 10
48.1682
 20
61.221
 11
48.7896
 21
63.0653
  0
LINE
  8
0
 10
48.7896
 20
63.0653
 11
49
 21
65
  0
LINE
  8
0
 10
49
 20
65
 11
46.5
 21
65
  0
LINE
  8
0
 10
46.5
 20
65
 11
46.2112
 21
63.0841
  0
LINE
  8
0
 10
46.2112
 20
63.0841
 11
45.3706
 21
61.3384
  0
LINE
  8
0
 10
45.3706
 20
61.3384
 11
44.0527
 21
59.9181
  0
LINE
  8
0
 10
44.0527
 20
59.9181
 11
42.3747
 21
58.9493
  0
LINE
  8
0
 10
42.3747
 20
58.9493
 11
40.4857
 21
58.5182
  0
LINE
  8
0
 10
40.4857
 20
58.5182
 11
38.5536
 21
58.663
  0
LINE
  8
0
 10
38.5536
 20
58.663
 11
36.75
 21
59.3708
  0
LINE
  8
0
 10
36.75
 20
59.3708
 11
35.2352
 21
60.5789
  0
LINE
  8
0
 10
35.2352
 20
60.5789
 11
34.1437
 21
62.1798
  0
LINE
  8
0
 10
34.1437
 20
62.1798
 11
33.5726
 21
64.0312
  0
LINE
  8
0
 10
33.5726
 20
64.0312
 11
33.5726
 21
65.9688
  0
LINE
  8
0
 10
33.5726
 20
65.9688
 11
34.1437
 21
67.8202
  0
LINE
  8
0
 10
34.1437
 20
67.8202
 11
35.2352
 21
69.4211
  0
LINE
  8
0
 10
35.2352
 20
69.4211
 11
36.75
 21
70.6292
  0
LINE
  8
0
 10
36.75
 20
70.6292
 11
38.5536
 21
71.337
  0
LINE
  8
0
 10
38.5536
 20
71.337
 11
40
 21
71.4454
  0
LINE
  8
0
 10
40
 20
71.4454
 11
40
 21
73.9604
  0
LINE
  8
0
 10
40
 20
73.9604
 11
38.544
 21
73.8814
  0
LINE
  8
0
 10
38.544
 20
73.8814
 11
36.6688
 21
73.3608
  0
LINE
  8
0
 10
36.6688
 20
73.3608
 11
34.9493
 21
72.4492
  0
LINE
  8
0
 10
34.9493
 20
72.4492
 11
33.466
 21
71.1893
  0
LINE
  8
0
 10
33.466
 20
71.1893
 11
32.2883
 21
69.64
  0
LINE
  8
0
 10
32.2883
 20
69.64
 11
31.4711
 21
67.8737
  0
LINE
  8
0
 10
31.4711
 20
67.8737
 11
31.0528
 21
65.9731
  0
LINE
  8
0
 10
31.0528
 20
65.9731
 11
31.0528
 21
64.0269
  0
LINE
  8
0
 10
31.0528
 20
84.0269
 11
31.4711
 21
82.1263
  0
LINE
  8
0
 10
31.4711
 20
82.1263
 11
32.2883
 21
80.36
  0
LINE
  8
0
 10
32.2883
 20
80.36
 11
33.466
 21
78.8107
  0
LINE
  8
0
 10
33.466
 20
78.8107
 11
34.9493
 21
77.5508
  0
LINE
  8
0
 10
34.9493
 20
77.5508
 11
36.6688
 21
76.6392
  0
LINE
  8
0
 10
36.6688
 20
76.6392
 11
38.544
 21
76.1186
  0
LINE
  8
0
 10
38.544
 20
76.1186
 11
40.4872
 21
76.0132
  0
LINE
  8
0
 10
40.4872
 20
76.0132
 11
42.4078
 21
76.3281
  0
LINE
  8
0
 10
42.4078
 20
76.3281
 11
44.2157
 21
77.0484
  0
LINE
  8
0
 10
44.2157
 20
77.0484
 11
45.8265
 21
78.1405
  0
LINE
  8
0
 10
45.8265
 20
78.1405
 11
47.1648
 21
79.5534
  0
LINE
  8
0
 10
47.1648
 20
79.5534
 11
48.1682
 21
81.221
  0
LINE
  8
0
 10
48.1682
 20
81.221
 11
48.7896
 21
83.0653
  0
LINE
  8
0
 10
48.7896
 20
83.0653
 11
49
 21
85
  0
LINE
  8
0
 10
49
 20
85
 11
46.5
 21
85
  0
LINE
  8
0
 10
46.5
 20
85
 11
46.2112
 21
83.0841
  0
LINE
  8
0
 10
46.2112
 20
83.0841
 11
45.3706
 21
81.3384
  0
LINE
  8
0
 10
45.3706
 20
81.3384
 11
44.0527
 21
79.9181
  0
LINE
  8
0
 10
44.0527
 20
79.9181
 11
42.3747
 21
78.9493
  0
LINE
  8
0
 10
42.3747
 20
78.9493
 11
40.4857
 21
78.5182
  0
LINE
  8
0
 10
40.4857
 20
78.5182
 11
38.5536
 21
78.663
  0
LINE
  8
0
 10
38.5536
 20
78.663
 11
36.75
 21
79.3708
  0
LINE
  8
0
 10
36.75
 20
79.3708
 11
35.2352
 21
80.5789
  0
LINE
  8
0
 10
35.2352
 20
80.5789
 11
34.1437
 21
82.1798
  0
LINE
  8
0
 10
34.1437
 20
82.1798
 11
33.5726
 21
84.0312
  0
LINE
  8
0
 10
33.5726
 20
84.0312
 11
33.5726
 21
85.9688
  0
LINE
  8
0
 10
33.5726
 20
85.9688
 11
34.1437
 21
87.8202
  0
LINE
  8
0
 10
34.1437
 20
87.8202
 11
35.2352
 21
89.4211
  0
LINE
  8
0
 10
35.2352
 20
89.4211
 11
36.75
 21
90.6292
  0
LINE
  8
0
 10
36.75
 20
90.6292
 11
38.5536
 21
91.337
  0
LINE
  8
0
 10
38.5536
 20
91.337
 11
40
 21
91.4454
  0
LINE
  8
0
 10
40
 20
91.4454
 11
40
 21
93.9604
  0
LINE
  8
0
 10
40
 20
93.9604
 11
38.544
 21
93.8814
  0
LINE
  8
0
 10
38.544
 20
93.8814
 11
36.6688
 21
93.3608
  0
LINE
  8
0
 10
36.6688
 20
93.3608
 11
34.9493
 21
92.4492
  0
LINE
  8
0
 10
34.9493
 20
92.4492
 11
33.466
 21
91.1893
  0
LINE
  8
0
 10
33.466
 20
91.1893
 11
32.2883
 21
89.64
  0
LINE
  8
0
 10
32.2883
 20
89.64
 11
31.4711
 21
87.8737
  0
LINE
  8
0
 10
31.4711
 20
87.8737
 11
31.0528
 21
85.9731
  0
LINE
  8
0
 10
31.0528
 20
85.9731
 11
31.0528
 21
84.0269
  0
LINE
  8
0
 10
51.0528
 20
4.02693
 11
51.4711
 21
2.12629
  0
LINE
  8
0
 10
51.4711
 20
2.12629
 11
52.2883
 21
0.360016
  0
LINE
  8
0
 10
52.2883
 20
0.360016
 11
53.466
 21
-1.18929
  0
LINE
  8
0
 10
53.466
 20
-1.18929
 11
54.9493
 21
-2.4492
  0
LINE
  8
0
 10
54.9493
 20
-2.4492
 11
56.6688
 21
-3.36079
  0
LINE
  8
0
 10
56.6688
 20
-3.36079
 11
58.544
 21
-3.88144
  0
LINE
  8
0
 10
58.544
 20
-3.88144
 11
60.4872
 21
-3.9868
  0
LINE
  8
0
 10
60.4872
 20
-3.9868
 11
62.4078
 21
-3.67195
  0
LINE
  8
0
 10
62.4078
 20
-3.67195
 11
64.2157
 21
-2.95161
  0
LINE
  8
0
 10
64.2157
 20
-2.95161
 11
65.8265
 21
-1.85946
  0
LINE
  8
0
 10
65.8265
 20
-1.85946
 11
67.1648
 21
-0.446568
  0
LINE
  8
0
 10
67.1648
 20
-0.446568
 11
68.1682
 21
1.221
  0
LINE
  8
0
 10
68.1682
 20
1.221
 11
68.7896
 21
3.06527
  0
LINE
  8
0
 10
68.7896
 20
3.06527
 11
69
 21
5
  0
LINE
  8
0
 10
69
 20
5
 11
68.7896
 21
6.93473
  0
LINE
  8
0
 10
68.7896
 20
6.93473
 11
68.1682
 21
8.779
  0
LINE
  8
0
 10
68.1682
 20
8.779
 11
67.1648
 21
10.4466
  0
LINE
  8
0
 10
67.1648
 20
10.4466
 11
65.8265
 21
11.8595
  0
LINE
  8
0
 10
65.8265
 20
11.8595
 11
64.2157
 21
12.9516
  0
LINE
  8
0
 10
64.2157
 20
12.9516
 11
62.4078
 21
13.6719
  0
LINE
  8
0
 10
62.4078
 20
13.6719
 11
60.4872
 21
13.9868
  0
LINE
  8
0
 10
60.4872
 20
13.9868
 11
58.544
 21
13.8814
  0
LINE
  8
0
 10
58.544
 20
13.8814
 11
56.6688
 21
13.3608
  0
LINE
  8
0
 10
56.6688
 20
13.3608
 11
54.9493
 21
12.4492
  0
LINE
  8
0
 10
54.9493
 20
12.4492
 11
53.466
 21
11.1893
  0
LINE
  8
0
 10
53.466
 20
11.1893
 11
52.2883
 21
9.63998
  0
LINE
  8
0
 10
52.2883
 20
9.63998
 11
51.4711
 21
7.87371
  0
LINE
  8
0
 10
51.4711
 20
7.87371
 11
51.0528
 21
5.97307
  0
LINE
  8
0
 10
51.0528
 20
5.97307
 11
51.0528
 21
4.02693
  0
LINE
  8
0
 10
53.5726
 20
4.03123
 11
53.5726
 21
5.96877
  0
LINE
  8
0
 10
53.5726
 20
5.96877
 11
54.1437
 21
7.82024
  0
LINE
  8
0
 10
54.1437
 20
7.82024
 11
55.2352
 21
9.42112
  0
LINE
  8
0
 10
55.2352
 20
9.42112
 11
56.75
 21
10.6292
  0
LINE
  8
0
 10
56.75
 20
10.6292
 11
58.5536
 21
11.337
  0
LINE
  8
0
 10
58.5536
 20
11.337
 11
60.4857
 21
11.4818
  0
LINE
  8
0
 10
60.4857
 20
11.4818
 11
62.3747
 21
11.0507
  0
LINE
  8
0
 10
62.3747
 20
11.0507
 11
64.0527
 21
10.0819
  0
LINE
  8
0
 10
64.0527
 20
10.0819
 11
65.3706
 21
8.66158
  0
LINE
  8
0
 10
65.3706
 20
8.66158
 11
66.2112
 21
6.91591
  0
LINE
  8
0
 10
66.2112
 20
6.91591
 11
66.5
 21
5
  0
LINE
  8
0
 10
66.5
 20
5
 11
66.2112
 21
3.08409
  0
LINE
  8
0
 10
66.2112
 20
3.08409
 11
65.3706
 21
1.33842
  0
LINE
  8
0
 10
65.3706
 20
1.33842
 11
64.0527
 21
-0.0819044
  0
LINE
  8
0
 10
64.0527
 20
-0.0819044
 11
62.3747
 21
-1.05068
  0
LINE
  8
0
 10
62.3747
 20
-1.05068
 11
60.4857
 21
-1.48182
  0
LINE
  8
0
 10
60.4857
 20
-1.48182
 11
58.5536
 21
-1.33703
  0
LINE
  8
0
 10
58.5536
 20
-1.33703
 11
56.75
 21
-0.629165
  0
LINE
  8
0
 10
56.75
 20
-0.629165
 11
55.2352
 21
0.578877
  0
LINE
  8
0
 10
55.2352
 20
0.578877
 11
54.1437
 21
2.17976
  0
LINE
  8
0
 10
54.1437
 20
2.17976
 11
53.5726
 21
4.03123
  0
LINE
  8
0
 10
51.0528
 20
24.0269
 11
51.4711
 21
22.1263
  0
LINE
  8
0
 10
51.4711
 20
22.1263
 11
52.2883
 21
20.36
  0
LINE
  8
0
 10
52.2883
 20
20.36
 11
53.466
 21
18.8107
  0
LINE
  8
0
 10
53.466
 20
18.8107
 11
54.9493
 21
17.5508
  0
LINE
  8
0
 10
54.9493
 20
17.5508
 11
56.6688
 21
16.6392
  0
LINE
  8
0
 10
56.6688
 20
16.6392
 11
58.544
 21
16.1186
  0
LINE
  8
0
 10
58.544
 20
16.1186
 11
60.4872
 21
16.0132
  0
LINE
  8
0
 10
60.4872
 20
16.0132
 11
62.4078
 21
16.3281
  0
LINE
  8
0
 10
62.4078
 20
16.3281
 11
64.2157
 21
17.0484
  0
LINE
  8
0
 10
64.2157
 20
17.0484
 11
65.8265
 21
18.1405
  0
LINE
  8
0
 10
65.8265
 20
18.1405
 11
67.1648
 21
19.5534
  0
LINE
  8
0
 10
67.1648
 20
19.5534
 11
68.1682
 21
21.221
  0
LINE
  8
0
 10
68.1682
 20
21.221
 11
68.7896
 21
23.0653
  0
LINE
  8
0
 10
68.7896
 20
23.0653
 11
69
 21
25
  0
LINE
  8
0
 10
69
 20
25
 11
66.5
 21
25
  0
LINE
  8
0
 10
66.5
 20
25
 11
66.2112
 21
23.0841
  0
LINE
  8
0
 10
66.2112
 20
23.0841
 11
65.3706
 21
21.3384
  0
LINE
  8
0
 10
65.3706
 20
21.3384
 11
64.0527
 21
19.9181
  0
LINE
  8
0
 10
64.0527
 20
19.9181
 11
62.3747
 21
18.9493
  0
LINE
  8
0
 10
62.3747
 20
18.9493
 11
60.4857
 21
18.5182
  0
LINE
  8
0
 10
60.4857
 20
18.5182
 11
58.5536
 21
18.663
  0
LINE
  8
0
 10
58.5536
 20
18.663
 11
56.75
 21
19.3708
  0
LINE
  8
0
 10
56.75
 20
19.3708
 11
55.2352
 21
20.5789
  0
LINE
  8
0
 10
55.2352
 20
20.5789
 11
54.1437
 21
22.1798
  0
LINE
  8
0
 10
54.1437
 20
22.1798
 11
53.5726
 21
24.0312
  0
LINE
  8
0
 10
53.5726
 20
24.0312
 11
53.5726
 21
25.9688
  0
LINE
  8
0
 10
53.5726
 20
25.9688
 11
54.1437
 21
27.8202
  0
LINE
  8
0
 10
54.1437
 20
27.8202
 11
55.2352
 21
29.4211
  0
LINE
  8
0
 10
55.2352
 20
29.4211
 11
56.75
 21
30.6292
  0
LINE
  8
0
 10
56.75
 20
30.6292
 11
58.5536
 21
31.337
  0
LINE
  8
0
 10
58.5536
 20
31.337
 11
60
 21
31.4454
  0
LINE
  8
0
 10
60
 20
31.4454
 11
60
 21
33.9604
  0
LINE
  8
0
 10
60
 20
33.9604
 11
58.544
 21
33.8814
  0
LINE
  8
0
 10
58.544
 20
33.8814
 11
56.6688
 21
33.3608
  0
LINE
  8
0
 10
56.6688
 20
33.3608
 11
54.9493
 21
32.4492
  0
LINE
  8
0
 10
54.9493
 20
32.4492
 11
53.466
 21
31.1893
  0
LINE
  8
0
 10
53.466
 20
31.1893
 11
52.2883
 21
29.64
  0
LINE
  8
0
 10
52.2883
 20
29.64
 11
51.4711
 21
27.8737
  0
LINE
  8
0
 10
51.4711
 20
27.8737
 11
51.0528
 21
25.9731
  0
LINE
  8
0
 10
51.0528
 20
25.9731
 11
51.0528
 21
24.0269
  0
LINE
  8
0
 10
51.0528
 20
44.0269
 11
51.4711
 21
42.1263
  0
LINE
  8
0
 10
51.4711
 20
42.1263
 11
52.2883
 21
40.36
  0
LINE
  8
0
 10
52.2883
 20
40.36
 11
53.466
 21
38.8107
  0
LINE
  8
0
 10
53.466
 20
38.8107
 11
54.9493
 21
37.5508
  0
LINE
  8
0
 10
54.9493
 20
37.5508
 11
56.6688
 21
36.6392
  0
LINE
  8
0
 10
56.6688
 20
36.6392
 11
58.544
 21
36.1186
  0
LINE
  8
0
 10
58.544
 20
36.1186
 11
60.4872
 21
36.0132
  0
LINE
  8
0
 10
60.4872
 20
36.0132
 11
62.4078
 21
36.3281
  0
LINE
  8
0
 10
62.4078
 20
36.3281
 11
64.2157
 21
37.0484
  0
LINE
  8
0
 10
64.2157
 20
37.0484
 11
65.8265
 21
38.1405
  0
LINE
  8
0
 10
65.8265
 20
38.1405
 11
67.1648
 21
39.5534
  0
LINE
  8
0
 10
67.1648
 20
39.5534
 11
68.1682
 21
41.221
  0
LINE
  8
0
 10
68.1682
 20
41.221
 11
68.7896
 21
43.0653
  0
LINE
  8
0
 10
68.7896
 20
43.0653
 11
69
 21
45
  0
LINE
  8
0
 10
69
 20
45
 11
68.7896
 21
46.9347
  0
LINE
  8
0
 10
68.7896
 20
46.9347
 11
68.1682
 21
48.779
  0
LINE
  8
0
 10
68.1682
 20
48.779
 11
67.1648
 21
50.4466
  0
LINE
  8
0
 10
67.1648
 20
50.4466
 11
65.8265
 21
51.8595
  0
LINE
  8
0
 10
65.8265
 20
51.8595
 11
64.2157
 21
52.9516
  0
LINE
  8
0
 10
64.2157
 20
52.9516
 11
62.4078
 21
53.6719
  0
LINE
  8
0
 10
62.4078
 20
53.6719
 11
60.4872
 21
53.9868
  0
LINE
  8
0
 10
60.4872
 20
53.9868
 11
58.544
 21
53.8814
  0
LINE
  8
0
 10
58.544
 20
53.8814
 11
56.6688
 21
53.3608
  0
LINE
  8
0
 10
56.6688
 20
53.3608
 11
54.9493
 21
52.4492
  0
LINE
  8
0
 10
54.9493
 20
52.4492
 11
53.466
 21
51.1893
  0
LINE
  8
0
 10
53.466
 20
51.1893
 11
52.2883
 21
49.64
  0
LINE
  8
0
 10
52.2883
 20
49.64
 11
51.4711
 21
47.8737
  0
LINE
  8
0
 10
51.4711
 20
47.8737
 11
51.0528
 21
45.9731
  0
LINE
  8
0
 10
51.0528
 20
45.9731
 11
51.0528
 21
44.0269
  0
LINE
  8
0
 10
53.5726
 20
44.0312
 11
53.5726
 21
45.9688
  0
LINE
  8
0
 10
53.5726
 20
45.9688
 11
54.1437
 21
47.8202
  0
LINE
  8
0
 10
54.1437
 20
47.8202
 11
55.2352
 21
49.4211
  0
LINE
  8
0
 10
55.2352
 20
49.4211
 11
56.75
 21
50.6292
  0
LINE
  8
0
 10
56.75
 20
50.6292
 11
58.5536
 21
51.337
  0
LINE
  8
0
 10
58.5536
 20
51.337
 11
60.4857
 21
51.4818
  0
LINE
  8
0
 10
60.4857
 20
51.4818
 11
62.3747
 21
51.0507
  0
LINE
  8
0
 10
62.3747
 20
51.0507
 11
64.0527
 21
50.0819
  0
LINE
  8
0
 10
64.0527
 20
50.0819
 11
65.3706
 21
48.6616
  0
LINE
  8
0
 10
65.3706
 20
48.6616
 11
66.2112
 21
46.9159
  0
LINE
  8
0
 10
66.2112
 20
46.9159
 11
66.5
 21
45
  0
LINE
  8
0
 10
66.5
 20
45
 11
66.2112
 21
43.0841
  0
LINE
  8
0
 10
66.2112
 20
43.0841
 11
65.3706
 21
41.3384
  0
LINE
  8
0
 10
65.3706
 20
41.3384
 11
64.0527
 21
39.9181
  0
LINE
  8
0
 10
64.0527
 20
39.9181
 11
62.3747
 21
38.9493
  0
LINE
  8
0
 10
62.3747
 20
38.9493
 11
60.4857
 21
38.5182
  0
LINE
  8
0
 10
60.4857
 20
38.5182
 11
58.5536
 21
38.663
  0
LINE
  8
0
 10
58.5536
 20
38.663
 11
56.75
 21
39.3708
  0
LINE
  8
0
 10
56.75
 20
39.3708
 11
55.2352
 21
40.5789
  0
LINE
  8
0
 10
55.2352
 20
40.5789
 11
54.1437
 21
42.1798
  0
LINE
  8
0
 10
54.1437
 20
42.1798
 11
53.5726
 21
44.0312
  0
LINE
  8
0
 10
51.0528
 20
64.0269
 11
51.4711
 21
62.1263
  0
LINE
  8
0
 10
51.4711
 20
62.1263
 11
52.2883
 21
60.36
  0
LINE
  8
0
 10
52.2883
 20
60.36
 11
53.466
 21
58.8107
  0
LINE
  8
0
 10
53.466
 20
58.8107
 11
54.9493
 21
57.5508
  0
LINE
  8
0
 10
54.9493
 20
57.5508
 11
56.6688
 21
56.6392
  0
LINE
  8
0
 10
56.6688
 20
56.6392
 11
58.544
 21
56.1186
  0
LINE
  8
0
 10
58.544
 20
56.1186
 11
60.4872
 21
56.0132
  0
LINE
  8
0
 10
60.4872
 20
56.0132
 11
62.4078
 21
56.3281
  0
LINE
  8
0
 10
62.4078
 20
56.3281
 11
64.2157
 21
57.0484
  0
LINE
  8
0
 10
64.2157
 20
57.0484
 11
65.8265
 21
58.1405
  0
LINE
  8
0
 10
65.8265
 20
58.1405
 11
67.1648
 21
59.5534
  0
LINE
  8
0
 10
67.1648
 20
59.5534
 11
68.1682
 21
61.221
  0
LINE
  8
0
 10
68.1682
 20
61.221
 11
68.7896
 21
63.0653
  0
LINE
  8
0
 10
68.7896
 20
63.0653
 11
69
 21
65
  0
LINE
  8
0
 10
69
 20
65
 11
66.5
 21
65
  0
LINE
  8
0
 10
66.5
 20
65
 11
66.2112
 21
63.0841
  0
LINE
  8
0
 10
66.2112
 20
63.0841
 11
65.3706
 21
61.3384
  0
LINE
  8
0
 10
65.3706
 20
61.3384
 11
64.0527
 21
59.9181
  0
LINE
  8
0
 10
64.0527
 20
59.9181
 11
62.3747
 21
58.9493
  0
LINE
  8
0
 10
62.3747
 20
58.9493
 11
60.4857
 21
58.5182
  0
LINE
  8
0
 10
60.4857
 20
58.5182
 11
58.5536
 21
58.663
  0
LINE
  8
0
 10
58.5536
 20
58.663
 11
56.75
 21
59.3708
  0
LINE
  8
0
 10
56.75
 20
59.3708
 11
55.2352
 21
60.5789
  0
LINE
  8
0
 10
55.2352
 20
60.5789
 11
54.1437
 21
62.1798
  0
LINE
  8
0
 10
54.1437
 20
62.1798
 11
53.5726
 21
64.0312
  0
LINE
  8
0
 10
53.5726
 20
64.0312
 11
53.5726
 21
65.9688
  0
LINE
  8
0
 10
53.5726
 20
65.9688
 11
54.1437
 21
67.8202
  0
LINE
  8
0
 10
54.1437
 20
67.8202
 11
55.2352
 21
69.4211
  0
LINE
  8
0
 10
55.2352
 20
69.4211
 11
56.75
 21
70.6292
  0
LINE
  8
0
 10
56.75
 20
70.6292
 11
58.5536
 21
71.337
  0
LINE
  8
0
 10
58.5536
 20
71.337
 11
60
 21
71.4454
  0
LINE
  8
0
 10
60
 20
71.4454
 11
60
 21
73.9604
  0
LINE
  8
0
 10
60
 20
73.9604
 11
58.544
 21
73.8814
  0
LINE
  8
0
 10
58.544
 20
73.8814
 11
56.6688
 21
73.3608
  0
LINE
  8
0
 10
56.6688
 20
73.3608
 11
54.9493
 21
72.4492
  0
LINE
  8
0
 10
54.9493
 20
72.4492
 11
53.466
 21
71.1893
  0
LINE
  8
0
 10
53.466
 20
71.1893
 11
52.2883
 21
69.64
  0
LINE
  8
0
 10
52.2883
 20
69.64
 11
51.4711
 21
67.8737
  0
LINE
  8
0
 10
51.4711
 20
67.8737
 11
51.0528
 21
65.9731
  0
LINE
  8
0
 10
51.0528
 20
65.9731
 11
51.0528
 21
64.0269
  0
LINE
  8
0
 10
51.0528
 20
84.0269
 11
51.4711
 21
82.1263
  0
LINE
  8
0
 10
51.4711
 20
82.1263
 11
52.2883
 21
80.36
  0
LINE
  8
0
 10
52.2883
 20
80.36
 11
53.466
 21
78.8107
  0
LINE
  8
0
 10
53.466
 20
78.8107
 11
54.9493
 21
77.5508
  0
LINE
  8
0
 10
54.9493
 20
77.5508
 11
56.6688
 21
76.6392
  0
LINE
  8
0
 10
56.6688
 20
76.6392
 11
58.544
 21
76.1186
  0
LINE
  8
0
 10
58.544
 20
76.1186
 11
60.4872
 21
76.0132
  0
LINE
  8
0
 10
60.4872
 20
76.0132
 11
62.4078
 21
76.3281
  0
LINE
  8
0
 10
62.4078
 20
76.3281
 11
64.2157
 21
77.0484
  0
LINE
  8
0
 10
64.2157
 20
77.0484
 11
65.8265
 21
78.1405
  0
LINE
  8
0
 10
65.8265
 20
78.1405
 11
67.1648
 21
79.5534
  0
LINE
  8
0
 10
67.1648
 20
79.5534
 11
68.1682
 21
81.221
  0
LINE
  8
0
 10
68.1682
 20
81.221
 11
68.7896
 21
83.0653
  0
LINE
  8
0
 10
68.7896
 20
83.0653
 11
69
 21
85
  0
LINE
  8
0
 10
69
 20
85
 11
66.5
 21
85
  0
LINE
  8
0
 10
66.5
 20
85
 11
66.2112
 21
83.0841
  0
LINE
  8
0
 10
66.2112
 20
83.0841
 11
65.3706
 21
81.3384
  0
LINE
  8
0
 10
65.3706
 20
81.3384
 11
64.0527
 21
79.9181
  0
LINE
  8
0
 10
64.0527
 20
79.9181
 11
62.3747
 21
78.9493
  0
LINE
  8
0
 10
62.3747
 20
78.9493
 11
60.4857
 21
78.5182
  0
LINE
  8
0
 10
60.4857
 20
78.5182
 11
58.5536
 21
78.663
  0
LINE
  8
0
 10
58.5536
 20
78.663
 11
56.75
 21
79.3708
  0
LINE
  8
0
 10
56.75
 20
79.3708
 11
55.2352
 21
80.5789
  0
LINE
  8
0
 10
55.2352
 20
80.5789
 11
54.1437
 21
82.1798
  0
LINE
  8
0
 10
54.1437
 20
82.1798
 11
53.5726
 21
84.0312
  0
LINE
  8
0
 10
53.5726
 20
84.0312
 11
53.5726
 21
85.9688
  0
LINE
  8
0
 10
53.5726
 20
85.9688
 11
54.1437
 21
87.8202
  0
LINE
  8
0
 10
54.1437
 20
87.8202
 11
55.2352
 21
89.4211
  0
LINE
  8
0
 10
55.2352
 20
89.4211
 11
56.75
 21
90.6292
  0
LINE
  8
0
 10
56.75
 20
90.6292
 11
58.5536
 21
91.337
  0
LINE
  8
0
 10
58.5536
 20
91.337
 11
60
 21
91.4454
  0
LINE
  8
0
 10
60
 20
91.4454
 11
60
 21
93.9604
  0
LINE
  8
0
 10
60
 20
93.9604
 11
58.544
 21
93.8814
  0
LINE
  8
0
 10
58.544
 20
93.8814
 11
56.6688
 21
93.3608
  0
LINE
  8
0
 10
56.6688
 20
93.3608
 11
54.9493
 21
92.4492
  0
LINE
  8
0
 10
54.9493
 20
92.4492
 11
53.466
 21
91.1893
  0
LINE
  8
0
 10
53.466
 20
91.1893
 11
52.2883
 21
89.64
  0
LINE
  8
0
 10
52.2883
 20
89.64
 11
51.4711
 21
87.8737
  0
LINE
  8
0
 10
51.4711
 20
87.8737
 11
51.0528
 21
85.9731
  0
LINE
  8
0
 10
51.0528
 20
85.9731
 11
51.0528
 21
84.0269
  0
LINE
  8
0
 10
71.0528
 20
4.02693
 11
71.4711
 21
2.12629
  0
LINE
  8
0
 10
71.4711
 20
2.12629
 11
72.2883
 21
0.360016
  0
LINE
  8
0
 10
72.2883
 20
0.360016
 11
73.466
 21
-1.18929
  0
LINE
  8
0
 10
73.466
 20
-1.18929
 11
74.9493
 21
-2.4492
  0
LINE
  8
0
 10
74.9493
 20
-2.4492
 11
76.6688
 21
-3.36079
  0
LINE
  8
0
 10
76.6688
 20
-3.36079
 11
78.544
 21
-3.88144
  0
LINE
  8
0
 10
78.544
 20
-3.88144
 11
80.4872
 21
-3.9868
  0
LINE
  8
0
 10
80.4872
 20
-3.9868
 11
82.4078
 21
-3.67195
  0
LINE
  8
0
 10
82.4078
 20
-3.67195
 11
84.2157
 21
-2.95161
  0
LINE
  8
0
 10
84.2157
 20
-2.95161
 11
85.8265
 21
-1.85946
  0
LINE
  8
0
 10
85.8265
 20
-1.85946
 11
87.1648
 21
-0.446568
  0
LINE
  8
0
 10
87.1648
 20
-0.446568
 11
88.1682
 21
1.221
  0
LINE
  8
0
 10
88.1682
 20
1.221
 11
88.7896
 21
3.06527
  0
LINE
  8
0
 10
88.7896
 20
3.06527
 11
89
 21
5
  0
LINE
  8
0
 10
89
 20
5
 11
88.7896
 21
6.93473
  0
LINE
  8
0
 10
88.7896
 20
6.93473
 11
88.1682
 21
8.779
  0
LINE
  8
0
 10
88.1682
 20
8.779
 11
87.1648
 21
10.4466
  0
LINE
  8
0
 10
87.1648
 20
10.4466
 11
85.8265
 21
11.8595
  0
LINE
  8
0
 10
85.8265
 20
11.8595
 11
84.2157
 21
12.9516
  0
LINE
  8
0
 10
84.2157
 20
12.9516
 11
82.4078
 21
13.6719
  0
LINE
  8
0
 10
82.4078
 20
13.6719
 11
80.4872
 21
13.9868
  0
LINE
  8
0
 10
80.4872
 20
13.9868
 11
78.544
 21
13.8814
  0
LINE
  8
0
 10
78.544
 20
13.8814
 11
76.6688
 21
13.3608
  0
LINE
  8
0
 10
76.6688
 20
13.3608
 11
74.9493
 21
12.4492
  0
LINE
  8
0
 10
74.9493
 20
12.4492
 11
73.466
 21
11.1893
  0
LINE
  8
0
 10
73.466
 20
11.1893
 11
72.2883
 21
9.63998
  0
LINE
  8
0
 10
72.2883
 20
9.63998
 11
71.4711
 21
7.87371
  0
LINE
  8
0
 10
71.4711
 20
7.87371
 11
71.0528
 21
5.97307
  0
LINE
  8
0
 10
71.0528
 20
5.97307
 11
71.0528
 21
4.02693
  0
LINE
  8
0
 10
73.5726
 20
4.03123
 11
73.5726
 21
5.96877
  0
LINE
  8
0
 10
73.5726
 20
5.96877
 11
74.1437
 21
7.82024
  0
LINE
  8
0
 10
74.1437
 20
7.82024
 11
75.2352
 21
9.42112
  0
LINE
  8
0
 10
75.2352
 20
9.42112
 11
76.75
 21
10.6292
  0
LINE
  8
0
 10
76.75
 20
10.6292
 11
78.5536
 21
11.337
  0
LINE
  8
0
 10
78.5536
 20
11.337
 11
80.4857
 21
11.4818
  0
LINE
  8
0
 10
80.4857
 20
11.4818
 11
82.3747
 21
11.0507
  0
LINE
  8
0
 10
82.3747
 20
11.0507
 11
84.0527
 21
10.0819
  0
LINE
  8
0
 10
84.0527
 20
10.0819
 11
85.3706
 21
8.66158
  0
LINE
  8
0
 10
85.3706
 20
8.66158
 11
86.2112
 21
6.91591
  0
LINE
  8
0
 10
86.2112
 20
6.91591
 11
86.5
 21
5
  0
LINE
  8
0
 10
86.5
 20
5
 11
86.2112
 21
3.08409
  0
LINE
  8
0
 10
86.2112
 20
3.08409
 11
85.3706
 21
1.33842
  0
LINE
  8
0
 10
85.3706
 20
1.33842
 11
84.0527
 21
-0.0819044
  0
LINE
  8
0
 10
84.0527
 20
-0.0819044
 11
82.3747
 21
-1.05068
  0
LINE
  8
0
 10
82.3747
 20
-1.05068
 11
80.4857
 21
-1.48182
  0
LINE
  8
0
 10
80.4857
 20
-1.48182
 11
78.5536
 21
-1.33703
  0
LINE
  8
0
 10
78.5536
 20
-1.33703
 11
76.75
 21
-0.629165
  0
LINE
  8
0
 10
76.75
 20
-0.629165
 11
75.2352
 21
0.578877
  0
LINE
  8
0
 10
75.2352
 20
0.578877
 11
74.1437
 21
2.17976
  0
LINE
  8
0
 10
74.1437
 20
2.17976
 11
73.5726
 21
4.03123
  0
LINE
  8
0
 10
71.0528
 20
24.0269
 11
71.4711
 21
22.1263
  0
LINE
  8
0
 10
71.4711
 20
22.1263
 11
72.2883
 21
20.36
  0
LINE
  8
0
 10
72.2883
 20
20.36
 11
73.466
 21
18.8107
  0
LINE
  8
0
 10
73.466
 20
18.8107
 11
74.9493
 21
17.5508
  0
LINE
  8
0
 10
74.9493
 20
17.5508
 11
76.6688
 21
16.6392
  0
LINE
  8
0
 10
76.6688
 20
16.6392
 11
78.544
 21
16.1186
  0
LINE
  8
0
 10
78.544
 20
16.1186
 11
80.4872
 21
16.0132
  0
LINE
  8
0
 10
80.4872
 20
16.0132
 11
82.4078
 21
16.3281
  0
LINE
  8
0
 10
82.4078
 20
16.3281
 11
84.2157
 21
17.0484
  0
LINE
  8
0
 10
84.2157
 20
17.0484
 11
85.8265
 21
18.1405
  0
LINE
  8
0
 10
85.8265
 20
18.1405
 11
87.1648
 21
19.5534
  0
LINE
  8
0
 10
87.1648
 20
19.5534
 11
88.1682
 21
21.221
  0
LINE
  8
0
 10
88.1682
 20
21.221
 11
88.7896
 21
23.0653
  0
LINE
  8
0
 10
88.7896
 20
23.0653
 11
89
 21
25
  0
LINE
  8
0
 10
89
 20
25
 11
86.5
 21
25
  0
LINE
  8
0
 10
86.5
 20
25
 11
86.2112
 21
23.0841
  0
LINE
  8
0
 10
86.2112
 20
23.0841
 11
85.3706
 21
21.3384
  0
LINE
  8
0
 10
85.3706
 20
21.3384
 11
84.0527
 21
19.9181
  0
LINE
  8
0
 10
84.0527
 20
19.9181
 11
82.3747
 21
18.9493
  0
LINE
  8
0
 10
82.3747
 20
18.9493
 11
80.4857
 21
18.5182
  0
LINE
  8
0
 10
80.4857
 20
18.5182
 11
78.5536
 21
18.663
  0
LINE
  8
0
 10
78.5536
 20
18.663
 11
76.75
 21
19.3708
  0
LINE
  8
0
 10
76.75
 20
19.3708
 11
75.2352
 21
20.5789
  0
LINE
  8
0
 10
75.2352
 20
20.5789
 11
74.1437
 21
22.1798
  0
LINE
  8
0
 10
74.1437
 20
22.1798
 11
73.5726
 21
24.0312
  0
LINE
  8
0
 10
73.5726
 20
24.0312
 11
73.5726
 21
25.9688
  0
LINE
  8
0
 10
73.5726
 20
25.9688
 11
74.1437
 21
27.8202
  0
LINE
  8
0
 10
74.1437
 20
27.8202
 11
75.2352
 21
29.4211
  0
LINE
  8
0
 10
75.2352
 20
29.4211
 11
76.75
 21
30.6292
  0
LINE
  8
0
 10
76.75
 20
30.6292
 11
78.5536
 21
31.337
  0
LINE
  8
0
 10
78.5536
 20
31.337
 11
80
 21
31.4454
  0
LINE
  8
0
 10
80
 20
31.4454
 11
80
 21
33.9604
  0
LINE
  8
0
 10
80
 20
33.9604
 11
78.544
 21
33.8814
  0
LINE
  8
0
 10
78.544
 20
33.8814
 11
76.6688
 21
33.3608
  0
LINE
  8
0
 10
76.6688
 20
33.3608
 11
74.9493
 21
32.4492
  0
LINE
  8
0
 10
74.9493
 20
32.4492
 11
73.466
 21
31.1893
  0
LINE
  8
0
 10
73.466
 20
31.1893
 11
72.2883
 21
29.64
  0
LINE
  8
0
 10
72.2883
 20
29.64
 11
71.4711
 21
27.8737
  0
LINE
  8
0
 10
71.4711
 20
27.8737
 11
71.0528
 21
25.9731
  0
LINE
  8
0
 10
71.0528
 20
25.9731
 11
71.0528
 21
24.0269
  0
LINE
  8
0
 10
71.0528
 20
44.0269
 11
71.4711
 21
42.1263
  0
LINE
  8
0
 10
71.4711
 20
42.1263
 11
72.2883
 21
40.36
  0
LINE
  8
0
 10
72.2883
 20
40.36
 11
73.466
 21
38.8107
  0
LINE
  8
0
 10
73.466
 20
38.8107
 11
74.9493
 21
37.5508
  0
LINE
  8
0
 10
74.9493
 20
37.5508
 11
76.6688
 21
36.6392
  0
LINE
  8
0
 10
76.6688
 20
36.6392
 11
78.544
 21
36.1186
  0
LINE
  8
0
 10
78.544
 20
36.1186
 11
80.4872
 21
36.0132
  0
LINE
  8
0
 10
80.4872
 20
36.0132
 11
82.4078
 21
36.3281
  0
LINE
  8
0
 10
82.4078
 20
36.3281
 11
84.2157
 21
37.0484
  0
LINE
  8
0
 10
84.2157
 20
37.0484
 11
85.8265
 21
38.1405
  0
LINE
  8
0
 10
85.8265
 20
38.1405
 11
87.1648
 21
39.5534
  0
LINE
  8
0
 10
87.1648
 20
39.5534
 11
88.1682
 21
41.221
  0
LINE
  8
0
 10
88.1682
 20
41.221
 11
88.7896
 21
43.0653
  0
LINE
  8
0
 10
88.7896
 20
43.0653
 11
89
 21
45
  0
LINE
  8
0
 10
89
 20
45
 11
88.7896
 21
46.9347
  0
LINE
  8
0
 10
88.7896
 20
46.9347
 11
88.1682
 21
48.779
  0
LINE
  8
0
 10
88.1682
 20
48.779
 11
87.1648
 21
50.4466
  0
LINE
  8
0
 10
87.1648
 20
50.4466
 11
85.8265
 21
51.8595
  0
LINE
  8
0
 10
85.8265
 20
51.8595
 11
84.2157
 21
52.9516
  0
LINE
  8
0
 10
84.2157
 20
52.9516
 11
82.4078
 21
53.6719
  0
LINE
  8
0
 10
82.4078
 20
53.6719
 11
80.4872
 21
53.9868
  0
LINE
  8
0
 10
80.4872
 20
53.9868
 11
78.544
 21
53.8814
  0
LINE
  8
0
 10
78.544
 20
53.8814
 11
76.6688
 21
53.3608
  0
LINE
  8
0
 10
76.6688
 20
53.3608
 11
74.9493
 21
52.4492
  0
LINE
  8
0
 10
74.9493
 20
52.4492
 11
73.466
 21
51.1893
  0
LINE
  8
0
 10
73.466
 20
51.1893
 11
72.2883
 21
49.64
  0
LINE
  8
0
 10
72.2883
 20
49.64
 11
71.4711
 21
47.8737
  0
LINE
  8
0
 10
71.4711
 20
47.8737
 11
71.0528
 21
45.9731
  0
LINE
  8
0
 10
71.0528
 20
45.9731
 11
71.0528
 21
44.0269
  0
LINE
  8
0
 10
73.5726
 20
44.0312
 11
73.5726
 21
45.9688
  0
LINE
  8
0
 10
73.5726
 20
45.9688
 11
74.1437
 21
47.8202
  0
LINE
  8
0
 10
74.1437
 20
47.8202
 11
75.2352
 21
49.4211
  0
LINE
  8
0
 10
75.2352
 20
49.4211
 11
76.75
 21
50.6292
  0
LINE
  8
0
 10
76.75
 20
50.6292
 11
78.5536
 21
51.337
  0
LINE
  8
0
 10
78.5536
 20
51.337
 11
80.4857
 21
51.4818
  0
LINE
  8
0
 10
80.4857
 20
51.4818
 11
82.3747
 21
51.0507
  0
LINE
  8
0
 10
82.3747
 20
51.0507
 11
84.0527
 21
50.0819
  0
LINE
  8
0
 10
84.0527
 20
50.0819
 11
85.3706
 21
48.6616
  0
LINE
  8
0
 10
85.3706
 20
48.6616
 11
86.2112
 21
46.9159
  0
LINE
  8
0
 10
86.2112
 20
46.9159
 11
86.5
 21
45
  0
LINE
  8
0
 10
86.5
 20
45
 11
86.2112
 21
43.0841
  0
LINE
  8
0
 10
86.2112
 20
43.0841
 11
85.3706
 21
41.3384
  0
LINE
  8
0
 10
85.3706
 20
41.3384
 11
84.0527
 21
39.9181
  0
LINE
  8
0
 10
84.0527
 20
39.9181
 11
82.3747
 21
38.9493
  0
LINE
  8
0
 10
82.3747
 20
38.9493
 11
80.4857
 21
38.5182
  0
LINE
  8
0
 10
80.4857
 20
38.5182
 11
78.5536
 21
38.663
  0
LINE
  8
0
 10
78.5536
 20
38.663
 11
76.75
 21
39.3708
  0
LINE
  8
0
 10
76.75
 20
39.3708
 11
75.2352
 21
40.5789
  0
LINE
  8
0
 10
75.2352
 20
40.5789
 11
74.1437
 21
42.1798
  0
LINE
  8
0
 10
74.1437
 20
42.1798
 11
73.5726
 21
44.0312
  0
LINE
  8
0
 10
71.0528
 20
64.0269
 11
71.4711
 21
62.1263
  0
LINE
  8
0
 10
71.4711
 20
62.1263
 11
72.2883
 21
60.36
  0
LINE
  8
0
 10
72.2883
 20
60.36
 11
73.466
 21
58.8107
  0
LINE
  8
0
 10
73.466
 20
58.8107
 11
74.9493
 21
57.5508
  0
LINE
  8
0
 10
74.9493
 20
57.5508
 11
76.6688
 21
56.6392
  0
LINE
  8
0
 10
76.6688
 20
56.6392
 11
78.544
 21
56.1186
  0
LINE
  8
0
 10
78.544
 20
56.1186
 11
80.4872
 21
56.0132
  0
LINE
  8
0
 10
80.4872
 20
56.0132
 11
82.4078
 21
56.3281
  0
LINE
  8
0
 10
82.4078
 20
56.3281
 11
84.2157
 21
57.0484
  0
LINE
  8
0
 10
84.2157
 20
57.0484
 11
85.8265
 21
58.1405
  0
LINE
  8
0
 10
85.8265
 20
58.1405
 11
87.1648
 21
59.5534
  0
LINE
  8
0
 10
87.1648
 20
59.5534
 11
88.1682
 21
61.221
  0
LINE
  8
0
 10
88.1682
 20
61.221
 11
88.7896
 21
63.0653
  0
LINE
  8
0
 10
88.7896
 20
63.0653
 11
89
 21
65
  0
LINE
  8
0
 10
89
 20
65
 11
86.5
 21
65
  0
LINE
  8
0
 10
86.5
 20
65
 11
86.2112
 21
63.0841
  0
LINE
  8
0
 10
86.2112
 20
63.0841
 11
85.3706
 21
61.3384
  0
LINE
  8
0
 10
85.3706
 20
61.3384
 11
84.0527
 21
59.9181
  0
LINE
  8
0
 10
84.0527
 20
59.9181
 11
82.3747
 21
58.9493
  0
LINE
  8
0
 10
82.3747
 20
58.9493
 11
80.4857
 21
58.5182
  0
LINE
  8
0
 10
80.4857
 20
58.5182
 11
78.5536
 21
58.663
  0
LINE
  8
0
 10
78.5536
 20
58.663
 11
76.75
 21
59.3708
  0
LINE
  8
0
 10
76.75
 20
59.3708
 11
75.2352
 21
60.5789
  0
LINE
  8
0
 10
75.2352
 20
60.5789
 11
74.1437
 21
62.1798
  0
LINE
  8
0
 10
74.1437
 20
62.1798
 11
73.5726
 21
64.0312
  0
LINE
  8
0
 10
73.5726
 20
64.0312
 11
73.5726
 21
65.9688
  0
LINE
  8
0
 10
73.5726
 20
65.9688
 11
74.1437
 21
67.8202
  0
LINE
  8
0
 10
74.1437
 20
67.8202
 11
75.2352
 21
69.4211
  0
LINE
  8
0
 10
75.2352
 20
69.4211
 11
76.75
 21
70.6292
  0
LINE
  8
0
 10
76.75
 20
70.6292
 11
78.5536
 21
71.337
  0
LINE
  8
0
 10
78.5536
 20
71.337
 11
80
 21
71.4454
  0
LINE
  8
0
 10
80
 20
71.4454
 11
80
 21
73.9604
  0
LINE
  8
0
 10
80
 20
73.9604
 11
78.544
 21
73.8814
  0
LINE
  8
0
 10
78.544
 20
73.8814
 11
76.6688
 21
73.3608
  0
LINE
  8
0
 10
76.6688
 20
73.3608
 11
74.9493
 21
72.4492
  0
LINE
  8
0
 10
74.9493
 20
72.4492
 11
73.466
 21
71.1893
  0
LINE
  8
0
 10
73.466
 20
71.1893
 11
72.2883
 21
69.64
  0
LINE
  8
0
 10
72.2883
 20
69.64
 11
71.4711
 21
67.8737
  0
LINE
  8
0
 10
71.4711
 20
67.8737
 11
71.0528
 21
65.9731
  0
LINE
  8
0
 10
71.0528
 20
65.9731
 11
71.0528
 21
64.0269
  0
LINE
  8
0
 10
71.0528
 20
84.0269
 11
71.4711
 21
82.1263
  0
LINE
  8
0
 10
71.4711
 20
82.1263
 11
72.2883
 21
80.36
  0
LINE
  8
0
 10
72.2883
 20
80.36
 11
73.466
 21
78.8107
  0
LINE
  8
0
 10
73.466
 20
78.8107
 11
74.9493
 21
77.5508
  0
LINE
  8
0
 10
74.9493
 20
77.5508
 11
76.6688
 21
76.6392
  0
LINE
  8
0
 10
76.6688
 20
76.6392
 11
78.544
 21
76.1186
  0
LINE
  8
0
 10
78.544
 20
76.1186
 11
80.4872
 21
76.0132
  0
LINE
  8
0
 10
80.4872
 20
76.0132
 11
82.4078
 21
76.3281
  0
LINE
  8
0
 10
82.4078
 20
76.3281
 11
84.2157
 21
77.0484
  0
LINE
  8
0
 10
84.2157
 20
77.0484
 11
85.8265
 21
78.1405
  0
LINE
  8
0
 10
85.8265
 20
78.1405
 11
87.1648
 21
79.5534
  0
LINE
  8
0
 10
87.1648
 20
79.5534
 11
88.1682
 21
81.221
  0
LINE
  8
0
 10
88.1682
 20
81.221
 11
88.7896
 21
83.0653
  0
LINE
  8
0
 10
88.7896
 20
83.0653
 11
89
 21
85
  0
LINE
  8
0
 10
89
 20
85
 11
86.5
 21
85
  0
LINE
  8
0
 10
86.5
 20
85
 11
86.2112
 21
83.0841
  0
LINE
  8
0
 10
86.2112
 20
83.0841
 11
85.3706
 21
81.3384
  0
LINE
  8
0
 10
85.3706
 20
81.3384
 11
84.0527
 21
79.9181
  0
LINE
  8
0
 10
84.0527
 20
79.9181
 11
82.3747
 21
78.9493
  0
LINE
  8
0
 10
82.3747
 20
78.9493
 11
80.4857
 21
78.5182
  0
LINE
  8
0
 10
80.4857
 20
78.5182
 11
78.5536
 21
78.663
  0
LINE
  8
0
 10
78.5536
 20
78.663
 11
76.75
 21
79.3708
  0
LINE
  8
0
 10
76.75
 20
79.3708
 11
75.2352
 21
80.5789
  0
LINE
  8
0
 10
75.2352
 20
80.5789
 11
74.1437
 21
82.1798
  0
LINE
  8
0
 10
74.1437
 20
82.1798
 11
73.5726
 21
84.0312
  0
LINE
  8
0
 10
73.5726
 20
84.0312
 11
73.5726
 21
85.9688
  0
LINE
  8
0
 10
73.5726
 20
85.9688
 11
74.1437
 21
87.8202
  0
LINE
  8
0
 10
74.1437
 20
87.8202
 11
75.2352
 21
89.4211
  0
LINE
  8
0
 10
75.2352
 20
89.4211
 11
76.75
 21
90.6292
  0
LINE
  8
0
 10
76.75
 20
90.6292
 11
78.5536
 21
91.337
  0
LINE
  8
0
 10
78.5536
 20
91.337
 11
80
 21
91.4454
  0
LINE
  8
0
 10
80
 20
91.4454
 11
80
 21
93.9604
  0
LINE
  8
0
 10
80
 20
93.9604
 11
78.544
 21
93.8814
  0
LINE
  8
0
 10
78.544
 20
93.8814
 11
76.6688
 21
93.3608
  0
LINE
  8
0
 10
76.6688
 20
93.3608
 11
74.9493
 21
92.4492
  0
LINE
  8
0
 10
74.9493
 20
92.4492
 11
73.466
 21
91.1893
  0
LINE
  8
0
 10
73.466
 20
91.1893
 11
72.2883
 21
89.64
  0
LINE
  8
0
 10
72.2883
 20
89.64
 11
71.4711
 21
87.8737
  0
LINE
  8
0
 10
71.4711
 20
87.8737
 11
71.0528
 21
85.9731
  0
LINE
  8
0
 10
71.0528
 20
85.9731
 11
71.0528
 21
84.0269
  0
LINE
  8
0
 10
91.0528
 20
4.02693
 11
91.4711
 21
2.12629
  0
LINE
  8
0
 10
91.4711
 20
2.12629
 11
92.2883
 21
0.360016
  0
LINE
  8
0
 10
92.2883
 20
0.360016
 11
93.466
 21
-1.18929
  0
LINE
  8
0
 10
93.466
 20
-1.18929
 11
94.9493
 21
-2.4492
  0
LINE
  8
0
 10
94.9493
 20
-2.4492
 11
96.6688
 21
-3.36079
  0
LINE
  8
0
 10
96.6688
 20
-3.36079
 11
98.544
 21
-3.88144
  0
LINE
  8
0
 10
98.544
 20
-3.88144
 11
100.487
 21
-3.9868
  0
LINE
  8
0
 10
100.487
 20
-3.9868
 11
102.408
 21
-3.67195
  0
LINE
  8
0
 10
102.408
 20
-3.67195
 11
104.216
 21
-2.95161
  0
LINE
  8
0
 10
104.216
 20
-2.95161
 11
105.826
 21
-1.85946
  0
LINE
  8
0
 10
105.826
 20
-1.85946
 11
107.165
 21
-0.446568
  0
LINE
  8
0
 10
107.165
 20
-0.446568
 11
108.168
 21
1.221
  0
LINE
  8
0
 10
108.168
 20
1.221
 11
108.79
 21
3.06527
  0
LINE
  8
0
 10
108.79
 20
3.06527
 11
109
 21
5
  0
LINE
  8
0
 10
109
 20
5
 11
108.79
 21
6.93473
  0
LINE
  8
0
 10
108.79
 20
6.93473
 11
108.168
 21
8.779
  0
LINE
  8
0
 10
108.168
 20
8.779
 11
107.165
 21
10.4466
  0
LINE
  8
0
 10
107.165
 20
10.4466
 11
105.826
 21
11.8595
  0
LINE
  8
0
 10
105.826
 20
11.8595
 11
104.216
 21
12.9516
  0
LINE
  8
0
 10
104.216
 20
12.9516
 11
102.408
 21
13.6719
  0
LINE
  8
0
 10
102.408
 20
13.6719
 11
100.487
 21
13.9868
  0
LINE
  8
0
 10
100.487
 20
13.9868
 11
98.544
 21
13.8814
  0
LINE
  8
0
 10
98.544
 20
13.8814
 11
96.6688
 21
13.3608
  0
LINE
  8
0
 10
96.6688
 20
13.3608
 11
94.9493
 21
12.4492
  0
LINE
  8
0
 10
94.9493
 20
12.4492
 11
93.466
 21
11.1893
  0
LINE
  8
0
 10
93.466
 20
11.1893
 11
92.2883
 21
9.63998
  0
LINE
  8
0
 10
92.2883
 20
9.63998
 11
91.4711
 21
7.87371
  0
LINE
  8
0
 10
91.4711
 20
7.87371
 11
91.0528
 21
5.97307
  0
LINE
  8
0
 10
91.0528
 20
5.97307
 11
91.0528
 21
4.02693
  0
LINE
  8
0
 10
93.5726
 20
4.03123
 11
93.5726
 21
5.96877
  0
LINE
  8
0
 10
93.5726
 20
5.96877
 11
94.1437
 21
7.82024
  0
LINE
  8
0
 10
94.1437
 20
7.82024
 11
95.2352
 21
9.42112
  0
LINE
  8
0
 10
95.2352
 20
9.42112
 11
96.75
 21
10.6292
  0
LINE
  8
0
 10
96.75
 20
10.6292
 11
98.5536
 21
11.337
  0
LINE
  8
0
 10
98.5536
 20
11.337
 11
100.486
 21
11.4818
  0
LINE
  8
0
 10
100.486
 20
11.4818
 11
102.375
 21
11.0507
  0
LINE
  8
0
 10
102.375
 20
11.0507
 11
104.053
 21
10.0819
  0
LINE
  8
0
 10
104.053
 20
10.0819
 11
105.371
 21
8.66158
  0
LINE
  8
0
 10
105.371
 20
8.66158
 11
106.211
 21
6.91591
  0
LINE
  8
0
 10
106.211
 20
6.91591
 11
106.5
 21
5
  0
LINE
  8
0
 10
106.5
 20
5
 11
106.211
 21
3.08409
  0
LINE
  8
0
 10
106.211
 20
3.08409
 11
105.371
 21
1.33842
  0
LINE
  8
0
 10
105.371
 20
1.33842
 11
104.053
 21
-0.0819044
  0
LINE
  8
0
 10
104.053
 20
-0.0819044
 11
102.375
 21
-1.05068
  0
LINE
  8
0
 10
102.375
 20
-1.05068
 11
100.486
 21
-1.48182
  0
LINE
  8
0
 10
100.486
 20
-1.48182
 11
98.5536
 21
-1.33703
  0
LINE
  8
0
 10
98.5536
 20
-1.33703
 11
96.75
 21
-0.629165
  0
LINE
  8
0
 10
96.75
 20
-0.629165
 11
95.2352
 21
0.578877
  0
LINE
  8
0
 10
95.2352
 20
0.578877
 11
94.1437
 21
2.17976
  0
LINE
  8
0
 10
94.1437
 20
2.17976
 11
93.5726
 21
4.03123
  0
LINE
  8
0
 10
91.0528
 20
24.0269
 11
91.4711
 21
22.1263
  0
LINE
  8
0
 10
91.4711
 20
22.1263
 11
92.2883
 21
20.36
  0
LINE
  8
0
 10
92.2883
 20
20.36
 11
93.466
 21
18.8107
  0
LINE
  8
0
 10
93.466
 20
18.8107
 11
94.9493
 21
17.5508
  0
LINE
  8
0
 10
94.9493
 20
17.5508
 11
96.6688
 21
16.6392
  0
LINE
  8
0
 10
96.6688
 20
16.6392
 11
98.544
 21
16.1186
  0
LINE
  8
0
 10
98.544
 20
16.1186
 11
100.487
 21
16.0132
  0
LINE
  8
0
 10
100.487
 20
16.0132
 11
102.408
 21
16.3281
  0
LINE
  8
0
 10
102.408
 20
16.3281
 11
104.216
 21
17.0484
  0
LINE
  8
0
 10
104.216
 20
17.0484
 11
105.826
 21
18.1405
  0
LINE
  8
0
 10
105.826
 20
18.1405
 11
107.165
 21
19.5534
  0
LINE
  8
0
 10
107.165
 20
19.5534
 11
108.168
 21
21.221
  0
LINE
  8
0
 10
108.168
 20
21.221
 11
108.79
 21
23.0653
  0
LINE
  8
0
 10
108.79
 20
23.0653
 11
109
 21
25
  0
LINE
  8
0
 10
109
 20
25
 11
106.5
 21
25
  0
LINE
  8
0
 10
106.5
 20
25
 11
106.211
 21
23.0841
  0
LINE
  8
0
 10
106.211
 20
23.0841
 11
105.371
 21
21.3384
  0
LINE
  8
0
 10
105.371
 20
21.3384
 11
104.053
 21
19.9181
  0
LINE
  8
0
 10
104.053
 20
19.9181
 11
102.375
 21
18.9493
  0
LINE
  8
0
 10
102.375
 20
18.9493
 11
100.486
 21
18.5182
  0
LINE
  8
0
 10
100.486
 20
18.5182
 11
98.5536
 21
18.663
  0
LINE
  8
0
 10
98.5536
 20
18.663
 11
96.75
 21
19.3708
  0
LINE
  8
0
 10
96.75
 20
19.3708
 11
95.2352
 21
20.5789
  0
LINE
  8
0
 10
95.2352
 20
20.5789
 11
94.1437
 21
22.1798
  0
LINE
  8
0
 10
94.1437
 20
22.1798
 11
93.5726
 21
24.0312
  0
LINE
  8
0
 10
93.5726
 20
24.0312
 11
93.5726
 21
25.9688
  0
LINE
  8
0
 10
93.5726
 20
25.9688
 11
94.1437
 21
27.8202
  0
LINE
  8
0
 10
94.1437
 20
27.8202
 11
95.2352
 21
29.4211
  0
LINE
  8
0
 10
95.2352
 20
29.4211
 11
96.75
 21
30.6292
  0
LINE
  8
0
 10
96.75
 20
30.6292
 11
98.5536
 21
31.337
  0
LINE
  8
0
 10
98.5536
 20
31.337
 11
100
 21
31.4454
  0
LINE
  8
0
 10
100
 20
31.4454
 11
100
 21
33.9604
  0
LINE
  8
0
 10
100
 20
33.9604
 11
98.544
 21
33.8814
  0
LINE
  8
0
 10
98.544
 20
33.8814
 11
96.6688
 21
33.3608
  0
LINE
  8
0
 10
96.6688
 20
33.3608
 11
94.9493
 21
32.4492
  0
LINE
  8
0
 10
94.9493
 20
32.4492
 11
93.466
 21
31.1893
  0
LINE
  8
0
 10
93.466
 20
31.1893
 11
92.2883
 21
29.64
  0
LINE
  8
0
 10
92.2883
 20
29.64
 11
91.4711
 21
27.8737
  0
LINE
  8
0
 10
91.4711
 20
27.8737
 11
91.0528
 21
25.9731
  0
LINE
  8
0
 10
91.0528
 20
25.9731
 11
91.0528
 21
24.0269
  0
LINE
  8
0
 10
91.0528
 20
44.0269
 11
91.4711
 21
42.1263
  0
LINE
  8
0
 10
91.4711
 20
42.1263
 11
92.2883
 21
40.36
  0
LINE
  8
0
 10
92.2883
 20
40.36
 11
93.466
 21
38.8107
  0
LINE
  8
0
 10
93.466
 20
38.8107
 11
94.9493
 21
37.5508
  0
LINE
  8
0
 10
94.9493
 20
37.5508
 11
96.6688
 21
36.6392
  0
LINE
  8
0
 10
96.6688
 20
36.6392
 11
98.544
 21
36.1186
  0
LINE
  8
0
 10
98.544
 20
36.1186
 11
100.487
 21
36.0132
  0
LINE
  8
0
 10
100.487
 20
36.0132
 11
102.408
 21
36.3281
  0
LINE
  8
0
 10
102.408
 20
36.3281
 11
104.216
 21
37.0484
  0
LINE
  8
0
 10
104.216
 20
37.0484
 11
105.826
 21
38.1405
  0
LINE
  8
0
 10
105.826
 20
38.1405
 11
107.165
 21
39.5534
  0
LINE
  8
0
 10
107.165
 20
39.5534
 11
108.168
 21
41.221
  0
LINE
  8
0
 10
108.168
 20
41.221
 11
108.79
 21
43.0653
  0
LINE
  8
0
 10
108.79
 20
43.0653
 11
109
 21
45
  0
LINE
  8
0
 10
109
 20
45
 11
108.79
 21
46.9347
  0
LINE
  8
0
 10
108.79
 20
46.9347
 11
108.168
 21
48.779
  0
LINE
  8
0
 10
108.168
 20
48.779
 11
107.165
 21
50.4466
  0
LINE
  8
0
 10
107.165
 20
50.4466
 11
105.826
 21
51.8595
  0
LINE
  8
0
 10
105.826
 20
51.8595
 11
104.216
 21
52.9516
  0
LINE
  8
0
 10
104.216
 20
52.9516
 11
102.408
 21
53.6719
  0
LINE
  8
0
 10
102.408
 20
53.6719
 11
100.487
 21
53.9868
  0
LINE
  8
0
 10
100.487
 20
53.9868
 11
98.544
 21
53.8814
  0
LINE
  8
0
 10
98.544
 20
53.8814
 11
96.6688
 21
53.3608
  0
LINE
  8
0
 10
96.6688
 20
53.3608
 11
94.9493
 21
52.4492
  0
LINE
  8
0
 10
94.9493
 20
52.4492
 11
93.466
 21
51.1893
  0
LINE
  8
0
 10
93.466
 20
51.1893
 11
92.2883
 21
49.64
  0
LINE
  8
0
 10
92.2883
 20
49.64
 11
91.4711
 21
47.8737
  0
LINE
  8
0
 10
91.4711
 20
47.8737
 11
91.0528
 21
45.9731
  0
LINE
  8
0
 10
91.0528
 20
45.9731
 11
91.0528
 21
44.0269
  0
LINE
  8
0
 10
93.5726
 20
44.0312
 11
93.5726
 21
45.9688
  0
LINE
  8
0
 10
93.5726
 20
45.9688
 11
94.1437
 21
47.8202
  0
LINE
  8
0
 10
94.1437
 20
47.8202
 11
95.2352
 21
49.4211
  0
LINE
  8
0
 10
95.2352
 20
49.4211
 11
96.75
 21
50.6292
  0
LINE
  8
0
 10
96.75
 20
50.6292
 11
98.5536
 21
51.337
  0
LINE
  8
0
 10
98.5536
 20
51.337
 11
100.486
 21
51.4818
  0
LINE
  8
0
 10
100.486
 20
51.4818
 11
102.375
 21
51.0507
  0
LINE
  8
0
 10
102.375
 20
51.0507
 11
104.053
 21
50.0819
  0
LINE
  8
0
 10
104.053
 20
50.0819
 11
105.371
 21
48.6616
  0
LINE
  8
0
 10
105.371
 20
48.6616
 11
106.211
 21
46.9159
  0
LINE
  8
0
 10
106.211
 20
46.9159
 11
106.5
 21
45
  0
LINE
  8
0
 10
106.5
 20
45
 11
106.211
 21
43.0841
  0
LINE
  8
0
 10
106.211
 20
43.0841
 11
105.371
 21
41.3384
  0
LINE
  8
0
 10
105.371
 20
41.3384
 11
104.053
 21
39.9181
  0
LINE
  8
0
 10
104.053
 20
39.9181
 11
102.375
 21
38.9493
  0
LINE
  8
0
 10
102.375
 20
38.9493
 11
100.486
 21
38.5182
  0
LINE
  8
0
 10
100.486
 20
38.5182
 11
98.5536
 21
38.663
  0
LINE
  8
0
 10
98.5536
 20
38.663
 11
96.75
 21
39.3708
  0
LINE
  8
0
 10
96.75
 20
39.3708
 11
95.2352
 21
40.5789
  0
LINE
  8
0
 10
95.2352
 20
40.5789
 11
94.1437
 21
42.1798
  0
LINE
  8
0
 10
94.1437
 20
42.1798
 11
93.5726
 21
44.0312
  0
LINE
  8
0
 10
91.0528
 20
64.0269
 11
91.4711
 21
62.1263
  0
LINE
  8
0
 10
91.4711
 20
62.1263
 11
92.2883
 21
60.36
  0
LINE
  8
0
 10
92.2883
 20
60.36
 11
93.466
 21
58.8107
  0
LINE
  8
0
 10
93.466
 20
58.8107
 11
94.9493
 21
57.5508
  0
LINE
  8
0
 10
94.9493
 20
57.5508
 11
96.6688
 21
56.6392
  0
LINE
  8
0
 10
96.6688
 20
56.6392
 11
98.544
 21
56.1186
  0
LINE
  8
0
 10
98.544
 20
56.1186
 11
100.487
 21
56.0132
  0
LINE
  8
0
 10
100.487
 20
56.0132
 11
102.408
 21
56.3281
  0
LINE
  8
0
 10
102.408
 20
56.3281
 11
104.216
 21
57.0484
  0
LINE
  8
0
 10
104.216
 20
57.0484
 11
105.826
 21
58.1405
  0
LINE
  8
0
 10
105.826
 20
58.1405
 11
107.165
 21
59.5534
  0
LINE
  8
0
 10
107.165
 20
59.5534
 11
108.168
 21
61.221
  0
LINE
  8
0
 10
108.168
 20
61.221
 11
108.79
 21
63.0653
  0
LINE
  8
0
 10
108.79
 20
63.0653
 11
109
 21
65
  0
LINE
  8
0
 10
109
 20
65
 11
106.5
 21
65
  0
LINE
  8
0
 10
106.5
 20
65
 11
106.211
 21
63.0841
  0
LINE
  8
0
 10
106.211
 20
63.0841
 11
105.371
 21
61.3384
  0
LINE
  8
0
 10
105.371
 20
61.3384
 11
104.053
 21
59.9181
  0
LINE
  8
0
 10
104.053
 20
59.9181
 11
102.375
 21
58.9493
  0
LINE
  8
0
 10
102.375
 20
58.9493
 11
100.486
 21
58.5182
  0
LINE
  8
0
 10
100.486
 20
58.5182
 11
98.5536
 21
58.663
  0
LINE
  8
0
 10
98.5536
 20
58.663
 11
96.75
 21
59.3708
  0
LINE
  8
0
 10
96.75
 20
59.3708
 11
95.2352
 21
60.5789
  0
LINE
  8
0
 10
95.2352
 20
60.5789
 11
94.1437
 21
62.1798
  0
LINE
  8
0
 10
94.1437
 20
62.1798
 11
93.5726
 21
64.0312
  0
LINE
  8
0
 10
93.5726
 20
64.0312
 11
93.5726
 21
65.9688
  0
LINE
  8
0
 10
93.5726
 20
65.9688
 11
94.1437
 21
67.8202
  0
LINE
  8
0
 10
94.1437
 20
67.8202
 11
95.2352
 21
69.4211
  0
LINE
  8
0
 10
95.2352
 20
69.4211
 11
96.75
 21
70.6292
  0
LINE
  8
0
 10
96.75
 20
70.6292
 11
98.5536
 21
71.337
  0
LINE
  8
0
 10
98.5536
 20
71.337
 11
100
 21
71.4454
  0
LINE
  8
0
 10
100
 20
71.4454
 11
100
 21
73.9604
  0
LINE
  8
0
 10
100
 20
73.9604
 11
98.544
 21
73.8814
  0
LINE
  8
0
 10
98.544
 20
73.8814
 11
96.6688
 21
73.3608
  0
LINE
  8
0
 10
96.6688
 20
73.3608
 11
94.9493
 21
72.4492
  0
LINE
  8
0
 10
94.9493
 20
72.4492
 11
93.466
 21
71.1893
  0
LINE
  8
0
 10
93.466
 20
71.1893
 11
92.2883
 21
69.64
  0
LINE
  8
0
 10
92.2883
 20
69.64
 11
91.4711
 21
67.8737
  0
LINE
  8
0
 10
91.4711
 20
67.8737
 11
91.0528
 21
65.9731
  0
LINE
  8
0
 10
91.0528
 20
65.9731
 11
91.0528
 21
64.0269
  0
LINE
  8
0
 10
91.0528
 20
84.0269
 11
91.4711
 21
82.1263
  0
LINE
  8
0
 10
91.4711
 20
82.1263
 11
92.2883
 21
80.36
  0
LINE
  8
0
 10
92.2883
 20
80.36
 11
93.466
 21
78.8107
  0
LINE
  8
0
 10
93.466
 20
78.8107
 11
94.9493
 21
77.5508
  0
LINE
  8
0
 10
94.9493
 20
77.5508
 11
96.6688
 21
76.6392
  0
LINE
  8
0
 10
96.6688
 20
76.6392
 11
98.544
 21
76.1186
  0
LINE
  8
0
 10
98.544
 20
76.1186
 11
100.487
 21
76.0132
  0
LINE
  8
0
 10
100.487
 20
76.0132
 11
102.408
 21
76.3281
  0
LINE
  8
0
 10
102.408
 20
76.3281
 11
104.216
 21
77.0484
  0
LINE
  8
0
 10
104.216
 20
77.0484
 11
105.826
 21
78.1405
  0
LINE
  8
0
 10
105.826
 20
78.1405
 11
107.165
 21
79.5534
  0
LINE
  8
0
 10
107.165
 20
79.5534
 11
108.168
 21
81.221
  0
LINE
  8
0
 10
108.168
 20
81.221
 11
108.79
 21
83.0653
  0
LINE
  8
0
 10
108.79
 20
83.0653
 11
109
 21
85
  0
LINE
  8
0
 10
109
 20
85
 11
106.5
 21
85
  0
LINE
  8
0
 10
106.5
 20
85
 11
106.211
 21
83.0841
  0
LINE
  8
0
 10
106.211
 20
83.0841
 11
105.371
 21
81.3384
  0
LINE
  8
0
 10
105.371
 20
81.3384
 11
104.053
 21
79.9181
  0
LINE
  8
0
 10
104.053
 20
79.9181
 11
102.375
 21
78.9493
  0
LINE
  8
0
 10
102.375
 20
78.9493
 11
100.486
 21
78.5182
  0
LINE
  8
0
 10
100.486
 20
78.5182
 11
98.5536
 21
78.663
  0
LINE
  8
0
 10
98.5536
 20
78.663
 11
96.75
 21
79.3708
  0
LINE
  8
0
 10
96.75
 20
79.3708
 11
95.2352
 21
80.5789
  0
LINE
  8
0
 10
95.2352
 20
80.5789
 11
94.1437
 21
82.1798
  0
LINE
  8
0
 10
94.1437
 20
82.1798
 11
93.5726
 21
84.0312
  0
LINE
  8
0
 10
93.5726
 20
84.0312
 11
93.5726
 21
85.9688
  0
LINE
  8
0
 10
93.5726
 20
85.9688
 11
94.1437
 21
87.8202
  0
LINE
  8
0
 10
94.1437
 20
87.8202
 11
95.2352
 21
89.4211
  0
LINE
  8
0
 10
95.2352
 20
89.4211
 11
96.75
 21
90.6292
  0
LINE
  8
0
 10
96.75
 20
90.6292
 11
98.5536
 21
91.337
  0
LINE
  8
0
 10
98.5536
 20
91.337
 11
100
 21
91.4454
  0
LINE
  8
0
 10
100
 20
91.4454
 11
100
 21
93.9604
  0
LINE
  8
0
 10
100
 20
93.9604
 11
98.544
 21
93.8814
  0
LINE
  8
0
 10
98.544
 20
93.8814
 11
96.6688
 21
93.3608
  0
LINE
  8
0
 10
96.6688
 20
93.3608
 11
94.9493
 21
92.4492
  0
LINE
  8
0
 10
94.9493
 20
92.4492
 11
93.466
 21
91.1893
  0
LINE
  8
0
 10
93.466
 20
91.1893
 11
92.2883
 21
89.64
  0
LINE
  8
0
 10
92.2883
 20
89.64
 11
91.4711
 21
87.8737
  0
LINE
  8
0
 10
91.4711
 20
87.8737
 11
91.0528
 21
85.9731
  0
LINE
  8
0
 10
91.0528
 20
85.9731
 11
91.0528
 21
84.0269
  0
LINE
  8
0
 10
111.053
 20
4.02693
 11
111.471
 21
2.12629
  0
LINE
  8
0
 10
111.471
 20
2.12629
 11
112.288
 21
0.360016
  0
LINE
  8
0
 10
112.288
 20
0.360016
 11
113.466
 21
-1.18929
  0
LINE
  8
0
 10
113.466
 20
-1.18929
 11
114.949
 21
-2.4492
  0
LINE
  8
0
 10
114.949
 20
-2.4492
 11
116.669
 21
-3.36079
  0
LINE
  8
0
 10
116.669
 20
-3.36079
 11
118.544
 21
-3.88144
  0
LINE
  8
0
 10
118.544
 20
-3.88144
 11
120.487
 21
-3.9868
  0
LINE
  8
0
 10
120.487
 20
-3.9868
 11
122.408
 21
-3.67195
  0
LINE
  8
0
 10
122.408
 20
-3.67195
 11
124.216
 21
-2.95161
  0
LINE
  8
0
 10
124.216
 20
-2.95161
 11
125.826
 21
-1.85946
  0
LINE
  8
0
 10
125.826
 20
-1.85946
 11
127.165
 21
-0.446568
  0
LINE
  8
0
 10
127.165
 20
-0.446568
 11
128.168
 21
1.221
  0
LINE
  8
0
 10
128.168
 20
1.221
 11
128.79
 21
3.06527
  0
LINE
  8
0
 10
128.79
 20
3.06527
 11
129
 21
5
  0
LINE
  8
0
 10
129
 20
5
 11
128.79
 21
6.93473
  0
LINE
  8
0
 10
128.79
 20
6.93473
 11
128.168
 21
8.779
  0
LINE
  8
0
 10
128.168
 20
8.779
 11
127.165
 21
10.4466
  0
LINE
  8
0
 10
127.165
 20
10.4466
 11
125.826
 21
11.8595
  0
LINE
  8
0
 10
125.826
 20
11.8595
 11
124.216
 21
12.9516
  0
LINE
  8
0
 10
124.216
 20
12.9516
 11
122.408
 21
13.6719
  0
LINE
  8
0
 10
122.408
 20
13.6719
 11
120.487
 21
13.9868
  0
LINE
  8
0
 10
120.487
 20
13.9868
 11
118.544
 21
13.8814
  0
LINE
  8
0
 10
118.544
 20
13.8814
 11
116.669
 21
13.3608
  0
LINE
  8
0
 10
116.669
 20
13.3608
 11
114.949
 21
12.4492
  0
LINE
  8
0
 10
114.949
 20
12.4492
 11
113.466
 21
11.1893
  0
LINE
  8
0
 10
113.466
 20
11.1893
 11
112.288
 21
9.63998
  0
LINE
  8
0
 10
112.288
 20
9.63998
 11
111.471
 21
7.87371
  0
LINE
  8
0
 10
111.471
 20
7.87371
 11
111.053
 21
5.97307
  0
LINE
  8
0
 10
111.053
 20
5.97307
 11
111.053
 21
4.02693
  0
LINE
  8
0
 10
113.573
 20
4.03123
 11
113.573
 21
5.96877
  0
LINE
  8
0
 10
113.573
 20
5.96877
 11
114.144
 21
7.82024
  0
LINE
  8
0
 10
114.144
 20
7.82024
 11
115.235
 21
9.42112
  0
LINE
  8
0
 10
115.235
 20
9.42112
 11
116.75
 21
10.6292
  0
LINE
  8
0
 10
116.75
 20
10.6292
 11
118.554
 21
11.337
  0
LINE
  8
0
 10
118.554
 20
11.337
 11
120.486
 21
11.4818
  0
LINE
  8
0
 10
120.486
 20
11.4818
 11
122.375
 21
11.0507
  0
LINE
  8
0
 10
122.375
 20
11.0507
 11
124.053
 21
10.0819
  0
LINE
  8
0
 10
124.053
 20
10.0819
 11
125.371
 21
8.66158
  0
LINE
  8
0
 10
125.371
 20
8.66158
 11
126.211
 21
6.91591
  0
LINE
  8
0
 10
126.211
 20
6.91591
 11
126.5
 21
5
  0
LINE
  8
0
 10
126.5
 20
5
 11
126.211
 21
3.08409
  0
LINE
  8
0
 10
126.211
 20
3.08409
 11
125.371
 21
1.33842
  0
LINE
  8
0
 10
125.371
 20
1.33842
 11
124.053
 21
-0.0819044
  0
LINE
  8
0
 10
124.053
 20
-0.0819044
 11
122.375
 21
-1.05068
  0
LINE
  8
0
 10
122.375
 20
-1.05068
 11
120.486
 21
-1.48182
  0
LINE
  8
0
 10
120.486
 20
-1.48182
 11
118.554
 21
-1.33703
  0
LINE
  8
0
 10
118.554
 20
-1.33703
 11
116.75
 21
-0.629165
  0
LINE
  8
0
 10
116.75
 20
-0.629165
 11
115.235
 21
0.578877
  0
LINE
  8
0
 10
115.235
 20
0.578877
 11
114.144
 21
2.17976
  0
LINE
  8
0
 10
114.144
 20
2.17976
 11
113.573
 21
4.03123
  0
LINE
  8
0
 10
111.053
 20
24.0269
 11
111.471
 21
22.1263
  0
LINE
  8
0
 10
111.471
 20
22.1263
 11
112.288
 21
20.36
  0
LINE
  8
0
 10
112.288
 20
20.36
 11
113.466
 21
18.8107
  0
LINE
  8
0
 10
113.466
 20
18.8107
 11
114.949
 21
17.5508
  0
LINE
  8
0
 10
114.949
 20
17.5508
 11
116.669
 21
16.6392
  0
LINE
  8
0
 10
116.669
 20
16.6392
 11
118.544
 21
16.1186
  0
LINE
  8
0
 10
118.544
 20
16.1186
 11
120.487
 21
16.0132
  0
LINE
  8
0
 10
120.487
 20
16.0132
 11
122.408
 21
16.3281
  0
LINE
  8
0
 10
122.408
 20
16.3281
 11
124.216
 21
17.0484
  0
LINE
  8
0
 10
124.216
 20
17.0484
 11
125.826
 21
18.1405
  0
LINE
  8
0
 10
125.826
 20
18.1405
 11
127.165
 21
19.5534
  0
LINE
  8
0
 10
127.165
 20
19.5534
 11
128.168
 21
21.221
  0
LINE
  8
0
 10
128.168
 20
21.221
 11
128.79
 21
23.0653
  0
LINE
  8
0
 10
128.79
 20
23.0653
 11
129
 21
25
  0
LINE
  8
0
 10
129
 20
25
 11
126.5
 21
25
  0
LINE
  8
0
 10
126.5
 20
25
 11
126.211
 21
23.0841
  0
LINE
  8
0
 10
126.211
 20
23.0841
 11
125.371
 21
21.3384
  0
LINE
  8
0
 10
125.371
 20
21.3384
 11
124.053
 21
19.9181
  0
LINE
  8
0
 10
124.053
 20
19.9181
 11
122.375
 21
18.9493
  0
LINE
  8
0
 10
122.375
 20
18.9493
 11
120.486
 21
18.5182
  0
LINE
  8
0
 10
120.486
 20
18.5182
 11
118.554
 21
18.663
  0
LINE
  8
0
 10
118.554
 20
18.663
 11
116.75
 21
19.3708
  0
LINE
  8
0
 10
116.75
 20
19.3708
 11
115.235
 21
20.5789
  0
LINE
  8
0
 10
115.235
 20
20.5789
 11
114.144
 21
22.1798
  0
LINE
  8
0
 10
114.144
 20
22.1798
 11
113.573
 21
24.0312
  0
LINE
  8
0
 10
113.573
 20
24.0312
 11
113.573
 21
25.9688
  0
LINE
  8
0
 10
113.573
 20
25.9688
 11
114.144
 21
27.8202
  0
LINE
  8
0
 10
114.144
 20
27.8202
 11
115.235
 21
29.4211
  0
LINE
  8
0
 10
115.235
 20
29.4211
 11
116.75
 21
30.6292
  0
LINE
  8
0
 10
116.75
 20
30.6292
 11
118.554
 21
31.337
  0
LINE
  8
0
 10
118.554
 20
31.337
 11
120
 21
31.4454
  0
LINE
  8
0
 10
120
 20
31.4454
 11
120
 21
33.9604
  0
LINE
  8
0
 10
120
 20
33.9604
 11
118.544
 21
33.8814
  0
LINE
  8
0
 10
118.544
 20
33.8814
 11
116.669
 21
33.3608
  0
LINE
  8
0
 10
116.669
 20
33.3608
 11
114.949
 21
32.4492
  0
LINE
  8
0
 10
114.949
 20
32.4492
 11
113.466
 21
31.1893
  0
LINE
  8
0
 10
113.466
 20
31.1893
 11
112.288
 21
29.64
  0
LINE
  8
0
 10
112.288
 20
29.64
 11
111.471
 21
27.8737
  0
LINE
  8
0
 10
111.471
 20
27.8737
 11
111.053
 21
25.9731
  0
LINE
  8
0
 10
111.053
 20
25.9731
 11
111.053
 21
24.0269
  0
LINE
  8
0
 10
111.053
 20
44.0269
 11
111.471
 21
42.1263
  0
LINE
  8
0
 10
111.471
 20
42.1263
 11
112.288
 21
40.36
  0
LINE
  8
0
 10
112.288
 20
40.36
 11
113.466
 21
38.8107
  0
LINE
  8
0
 10
113.466
 20
38.8107
 11
114.949
 21
37.5508
  0
LINE
  8
0
 10
114.949
 20
37.5508
 11
116.669
 21
36.6392
  0
LINE
  8
0
 10
116.669
 20
36.6392
 11
118.544
 21
36.1186
  0
LINE
  8
0
 10
118.544
 20
36.1186
 11
120.487
 21
36.0132
  0
LINE
  8
0
 10
120.487
 20
36.0132
 11
122.408
 21
36.3281
  0
LINE
  8
0
 10
122.408
 20
36.3281
 11
124.216
 21
37.0484
  0
LINE
  8
0
 10
124.216
 20
37.0484
 11
125.826
 21
38.1405
  0
LINE
  8
0
 10
125.826
 20
38.1405
 11
127.165
 21
39.5534
  0
LINE
  8
0
 10
127.165
 20
39.5534
 11
128.168
 21
41.221
  0
LINE
  8
0
 10
128.168
 20
41.221
 11
128.79
 21
43.0653
  0
LINE
  8
0
 10
128.79
 20
43.0653
 11
129
 21
45
  0
LINE
  8
0
 10
129
 20
45
 11
128.79
 21
46.9347
  0
LINE
  8
0
 10
128.79
 20
46.9347
 11
128.168
 21
48.779
  0
LINE
  8
0
 10
128.168
 20
48.779
 11
127.165
 21
50.4466
  0
LINE
  8
0
 10
127.165
 20
50.4466
 11
125.826
 21
51.8595
  0
LINE
  8
0
 10
125.826
 20
51.8595
 11
124.216
 21
52.9516
  0
LINE
  8
0
 10
124.216
 20
52.9516
 11
122.408
 21
53.6719
  0
LINE
  8
0
 10
122.408
 20
53.6719
 11
120.487
 21
53.9868
  0
LINE
  8
0
 10
120.487
 20
53.9868
 11
118.544
 21
53.8814
  0
LINE
  8
0
 10
118.544
 20
53.8814
 11
116.669
 21
53.3608
  0
LINE
  8
0
 10
116.669
 20
53.3608
 11
114.949
 21
52.4492
  0
LINE
  8
0
 10
114.949
 20
52.4492
 11
113.466
 21
51.1893
  0
LINE
  8
0
 10
113.466
 20
51.1893
 11
112.288
 21
49.64
  0
LINE
  8
0
 10
112.288
 20
49.64
 11
111.471
 21
47.8737
  0
LINE
  8
0
 10
111.471
 20
47.8737
 11
111.053
 21
45.9731
  0
LINE
  8
0
 10
111.053
 20
45.9731
 11
111.053
 21
44.0269
  0
LINE
  8
0
 10
113.573
 20
44.0312
 11
113.573
 21
45.9688
  0
LINE
  8
0
 10
113.573
 20
45.9688
 11
114.144
 21
47.8202
  0
LINE
  8
0
 10
114.144
 20
47.8202
 11
115.235
 21
49.4211
  0
LINE
  8
0
 10
115.235
 20
49.4211
 11
116.75
 21
50.6292
  0
LINE
  8
0
 10
116.75
 20
50.6292
 11
118.554
 21
51.337
  0
LINE
  8
0
 10
118.554
 20
51.337
 11
120.486
 21
51.4818
  0
LINE
  8
0
 10
120.486
 20
51.4818
 11
122.375
 21
51.0507
  0
LINE
  8
0
 10
122.375
 20
51.0507
 11
124.053
 21
50.0819
  0
LINE
  8
0
 10
124.053
 20
50.0819
 11
125.371
 21
48.6616
  0
LINE
  8
0
 10
125.371
 20
48.6616
 11
126.211
 21
46.9159
  0
LINE
  8
0
 10
126.211
 20
46.9159
 11
126.5
 21
45
  0
LINE
  8
0
 10
126.5
 20
45
 11
126.211
 21
43.0841
  0
LINE
  8
0
 10
126.211
 20
43.0841
 11
125.371
 21
41.3384
  0
LINE
  8
0
 10
125.371
 20
41.3384
 11
124.053
 21
39.9181
  0
LINE
  8
0
 10
124.053
 20
39.9181
 11
122.375
 21
38.9493
  0
LINE
  8
0
 10
122.375
 20
38.9493
 11
120.486
 21
38.5182
  0
LINE
  8
0
 10
120.486
 20
38.5182
 11
118.554
 21
38.663
  0
LINE
  8
0
 10
118.554
 20
38.663
 11
116.75
 21
39.3708
  0
LINE
  8
0
 10
116.75
 20
39.3708
 11
115.235
 21
40.5789
  0
LINE
  8
0
 10
115.235
 20
40.5789
 11
114.144
 21
42.1798
  0
LINE
  8
0
 10
114.144
 20
42.1798
 11
113.573
 21
44.0312
  0
LINE
  8
0
 10
111.053
 20
64.0269
 11
111.471
 21
62.1263
  0
LINE
  8
0
 10
111.471
 20
62.1263
 11
112.288
 21
60.36
  0
LINE
  8
0
 10
112.288
 20
60.36
 11
113.466
 21
58.8107
  0
LINE
  8
0
 10
113.466
 20
58.8107
 11
114.949
 21
57.5508
  0
LINE
  8
0
 10
114.949
 20
57.5508
 11
116.669
 21
56.6392
  0
LINE
  8
0
 10
116.669
 20
56.6392
 11
118.544
 21
56.1186
  0
LINE
  8
0
 10
118.544
 20
56.1186
 11
120.487
 21
56.0132
  0
LINE
  8
0
 10
120.487
 20
56.0132
 11
122.408
 21
56.3281
  0
LINE
  8
0
 10
122.408
 20
56.3281
 11
124.216
 21
57.0484
  0
LINE
  8
0
 10
124.216
 20
57.0484
 11
125.826
 21
58.1405
  0
LINE
  8
0
 10
125.826
 20
58.1405
 11
127.165
 21
59.5534
  0
LINE
  8
0
 10
127.165
 20
59.5534
 11
128.168
 21
61.221
  0
LINE
  8
0
 10
128.168
 20
61.221
 11
128.79
 21
63.0653
  0
LINE
  8
0
 10
128.79
 20
63.0653
 11
129
 21
65
  0
LINE
  8
0
 10
129
 20
65
 11
126.5
 21
65
  0
LINE
  8
0
 10
126.5
 20
65
 11
126.211
 21
63.0841
  0
LINE
  8
0
 10
126.211
 20
63.0841
 11
125.371
 21
61.3384
  0
LINE
  8
0
 10
125.371
 20
61.3384
 11
124.053
 21
59.9181
  0
LINE
  8
0
 10
124.053
 20
59.9181
 11
122.375
 21
58.9493
  0
LINE
  8
0
 10
122.375
 20
58.9493
 11
120.486
 21
58.5182
  0
LINE
  8
0
 10
120.486
 20
58.5182
 11
118.554
 21
58.663
  0
LINE
  8
0
 10
118.554
 20
58.663
 11
116.75
 21
59.3708
  0
LINE
  8
0
 10
116.75
 20
59.3708
 11
115.235
 21
60.5789
  0
LINE
  8
0
 10
115.235
 20
60.5789
 11
114.144
 21
62.1798
  0
LINE
  8
0
 10
114.144
 20
62.1798
 11
113.573
 21
64.0312
  0
LINE
  8
0
 10
113.573
 20
64.0312
 11
113.573
 21
65.9688
  0
LINE
  8
0
 10
113.573
 20
65.9688
 11
114.144
 21
67.8202
  0
LINE
  8
0
 10
114.144
 20
67.8202
 11
115.235
 21
69.4211
  0
LINE
  8
0
 10
115.235
 20
69.4211
 11
116.75
 21
70.6292
  0
LINE
  8
0
 10
116.75
 20
70.6292
 11
118.554
 21
71.337
  0
LINE
  8
0
 10
118.554
 20
71.337
 11
120
 21
71.4454
  0
LINE
  8
0
 10
120
 20
71.4454
 11
120
 21
73.9604
  0
LINE
  8
0
 10
120
 20
73.9604
 11
118.544
 21
73.8814
  0
LINE
  8
0
 10
118.544
 20
73.8814
 11
116.669
 21
73.3608
  0
LINE
  8
0
 10
116.669
 20
73.3608
 11
114.949
 21
72.4492
  0
LINE
  8
0
 10
114.949
 20
72.4492
 11
113.466
 21
71.1893
  0
LINE
  8
0
 10
113.466
 20
71.1893
 11
112.288
 21
69.64
  0
LINE
  8
0
 10
112.288
 20
69.64
 11
111.471
 21
67.8737
  0
LINE
  8
0
 10
111.471
 20
67.8737
 11
111.053
 21
65.9731
  0
LINE
  8
0
 10
111.053
 20
65.9731
 11
111.053
 21
64.0269
  0
LINE
  8
0
 10
111.053
 20
84.0269
 11
111.471
 21
82.1263
  0
LINE
  8
0
 10
111.471
 20
82.1263
 11
112.288
 21
80.36
  0
LINE
  8
0
 10
112.288
 20
80.36
 11
113.466
 21
78.8107
  0
LINE
  8
0
 10
113.466
 20
78.8107
 11
114.949
 21
77.5508
  0
LINE
  8
0
 10
114.949
 20
77.5508
 11
116.669
 21
76.6392
  0
LINE
  8
0
 10
116.669
 20
76.6392
 11
118.544
 21
76.1186
  0
LINE
  8
0
 10
118.544
 20
76.1186
 11
120.487
 21
76.0132
  0
LINE
  8
0
 10
120.487
 20
76.0132
 11
122.408
 21
76.3281
  0
LINE
  8
0
 10
122.408
 20
76.3281
 11
124.216
 21
77.0484
  0
LINE
  8
0
 10
124.216
 20
77.0484
 11
125.826
 21
78.1405
  0
LINE
  8
0
 10
125.826
 20
78.1405
 11
127.165
 21
79.5534
  0
LINE
  8
0
 10
127.165
 20
79.5534
 11
128.168
 21
81.221
  0
LINE
  8
0
 10
128.168
 20
81.221
 11
128.79
 21
83.0653
  0
LINE
  8
0
 10
128.79
 20
83.0653
 11
129
 21
85
  0
LINE
  8
0
 10
129
 20
85
 11
126.5
 21
85
  0
LINE
  8
0
 10
126.5
 20
85
 11
126.211
 21
83.0841
  0
LINE
  8
0
 10
126.211
 20
83.0841
 11
125.371
 21
81.3384
  0
LINE
  8
0
 10
125.371
 20
81.3384
 11
124.053
 21
79.9181
  0
LINE
  8
0
 10
124.053
 20
79.9181
 11
122.375
 21
78.9493
  0
LINE
  8
0
 10
122.375
 20
78.9493
 11
120.486
 21
78.5182
  0
LINE
  8
0
 10
120.486
 20
78.5182
 11
118.554
 21
78.663
  0
LINE
  8
0
 10
118.554
 20
78.663
 11
116.75
 21
79.3708
  0
LINE
  8
0
 10
116.75
 20
79.3708
 11
115.235
 21
80.5789
  0
LINE
  8
0
 10
115.235
 20
80.5789
 11
114.144
 21
82.1798
  0
LINE
  8
0
 10
114.144
 20
82.1798
 11
113.573
 21
84.0312
  0
LINE
  8
0
 10
113.573
 20
84.0312
 11
113.573
 21
85.9688
  0
LINE
  8
0
 10
113.573
 20
85.9688
 11
114.144
 21
87.8202
  0
LINE
  8
0
 10
114.144
 20
87.8202
 11
115.235
 21
89.4211
  0
LINE
  8
0
 10
115.235
 20
89.4211
 11
116.75
 21
90.6292
  0
LINE
  8
0
 10
116.75
 20
90.6292
 11
118.554
 21
91.337
  0
LINE
  8
0
 10
118.554
 20
91.337
 11
120
 21
91.4454
  0
LINE
  8
0
 10
120
 20
91.4454
 11
120
 21
93.9604
  0
LINE
  8
0
 10
120
 20
93.9604
 11
118.544
 21
93.8814
  0
LINE
  8
0
 10
118.544
 20
93.8814
 11
116.669
 21
93.3608
  0
LINE
  8
0
 10
116.669
 20
93.3608
 11
114.949
 21
92.4492
  0
LINE
  8
0
 10
114.949
 20
92.4492
 11
113.466
 21
91.1893
  0
LINE
  8
0
 10
113.466
 20
91.1893
 11
112.288
 21
89.64
  0
LINE
  8
0
 10
112.288
 20
89.64
 11
111.471
 21
87.8737
  0
LINE
  8
0
 10
111.471
 20
87.8737
 11
111.053
 21
85.9731
  0
LINE
  8
0
 10
111.053
 20
85.9731
 11
111.053
 21
84.0269
  0
LINE
  8
0
 10
131.053
 20
4.02693
 11
131.471
 21
2.12629
  0
LINE
  8
0
 10
131.471
 20
2.12629
 11
132.288
 21
0.360016
  0
LINE
  8
0
 10
132.288
 20
0.360016
 11
133.466
 21
-1.18929
  0
LINE
  8
0
 10
133.466
 20
-1.18929
 11
134.949
 21
-2.4492
  0
LINE
  8
0
 10
134.949
 20
-2.4492
 11
136.669
 21
-3.36079
  0
LINE
  8
0
 10
136.669
 20
-3.36079
 11
138.544
 21
-3.88144
  0
LINE
  8
0
 10
138.544
 20
-3.88144
 11
140.487
 21
-3.9868
  0
LINE
  8
0
 10
140.487
 20
-3.9868
 11
142.408
 21
-3.67195
  0
LINE
  8
0
 10
142.408
 20
-3.67195
 11
144.216
 21
-2.95161
  0
LINE
  8
0
 10
144.216
 20
-2.95161
 11
145.826
 21
-1.85946
  0
LINE
  8
0
 10
145.826
 20
-1.85946
 11
147.165
 21
-0.446568
  0
LINE
  8
0
 10
147.165
 20
-0.446568
 11
148.168
 21
1.221
  0
LINE
  8
0
 10
148.168
 20
1.221
 11
148.79
 21
3.06527
  0
LINE
  8
0
 10
148.79
 20
3.06527
 11
149
 21
5
  0
LINE
  8
0
 10
149
 20
5
 11
148.79
 21
6.93473
  0
LINE
  8
0
 10
148.79
 20
6.93473
 11
148.168
 21
8.779
  0
LINE
  8
0
 10
148.168
 20
8.779
 11
147.165
 21
10.4466
  0
LINE
  8
0
 10
147.165
 20
10.4466
 11
145.826
 21
11.8595
  0
LINE
  8
0
 10
145.826
 20
11.8595
 11
144.216
 21
12.9516
  0
LINE
  8
0
 10
144.216
 20
12.9516
 11
142.408
 21
13.6719
  0
LINE
  8
0
 10
142.408
 20
13.6719
 11
140.487
 21
13.9868
  0
LINE
  8
0
 10
140.487
 20
13.9868
 11
138.544
 21
13.8814
  0
LINE
  8
0
 10
138.544
 20
13.8814
 11
136.669
 21
13.3608
  0
LINE
  8
0
 10
136.669
 20
13.3608
 11
134.949
 21
12.4492
  0
LINE
  8
0
 10
134.949
 20
12.4492
 11
133.466
 21
11.1893
  0
LINE
  8
0
 10
133.466
 20
11.1893
 11
132.288
 21
9.63998
  0
LINE
  8
0
 10
132.288
 20
9.63998
 11
131.471
 21
7.87371
  0
LINE
  8
0
 10
131.471
 20
7.87371
 11
131.053
 21
5.97307
  0
LINE
  8
0
 10
131.053
 20
5.97307
 11
131.053
 21
4.02693
  0
LINE
  8
0
 10
133.573
 20
4.03123
 11
133.573
 21
5.96877
  0
LINE
  8
0
 10
133.573
 20
5.96877
 11
134.144
 21
7.82024
  0
LINE
  8
0
 10
134.144
 20
7.82024
 11
135.235
 21
9.42112
  0
LINE
  8
0
 10
135.235
 20
9.42112
 11
136.75
 21
10.6292
  0
LINE
  8
0
 10
136.75
 20
10.6292
 11
138.554
 21
11.337
  0
LINE
  8
0
 10
138.554
 20
11.337
 11
140.486
 21
11.4818
  0
LINE
  8
0
 10
140.486
 20
11.4818
 11
142.375
 21
11.0507
  0
LINE
  8
0
 10
142.375
 20
11.0507
 11
144.053
 21
10.0819
  0
LINE
  8
0
 10
144.053
 20
10.0819
 11
145.371
 21
8.66158
  0
LINE
  8
0
 10
145.371
 20
8.66158
 11
146.211
 21
6.91591
  0
LINE
  8
0
 10
146.211
 20
6.91591
 11
146.5
 21
5
  0
LINE
  8
0
 10
146.5
 20
5
 11
146.211
 21
3.08409
  0
LINE
  8
0
 10
146.211
 20
3.08409
 11
145.371
 21
1.33842
  0
LINE
  8
0
 10
145.371
 20
1.33842
 11
144.053
 21
-0.0819044
  0
LINE
  8
0
 10
144.053
 20
-0.0819044
 11
142.375
 21
-1.05068
  0
LINE
  8
0
 10
142.375
 20
-1.05068
 11
140.486
 21
-1.48182
  0
LINE
  8
0
 10
140.486
 20
-1.48182
 11
138.554
 21
-1.33703
  0
LINE
  8
0
 10
138.554
 20
-1.33703
 11
136.75
 21
-0.629165
  0
LINE
  8
0
 10
136.75
 20
-0.629165
 11
135.235
 21
0.578877
  0
LINE
  8
0
 10
135.235
 20
0.578877
 11
134.144
 21
2.17976
  0
LINE
  8
0
 10
134.144
 20
2.17976
 11
133.573
 21
4.03123
  0
LINE
  8
0
 10
131.053
 20
24.0269
 11
131.471
 21
22.1263
  0
LINE
  8
0
 10
131.471
 20
22.1263
 11
132.288
 21
20.36
  0
LINE
  8
0
 10
132.288
 20
20.36
 11
133.466
 21
18.8107
  0
LINE
  8
0
 10
133.466
 20
18.8107
 11
134.949
 21
17.5508
  0
LINE
  8
0
 10
134.949
 20
17.5508
 11
136.669
 21
16.6392
  0
LINE
  8
0
 10
136.669
 20
16.6392
 11
138.544
 21
16.1186
  0
LINE
  8
0
 10
138.544
 20
16.1186
 11
140.487
 21
16.0132
  0
LINE
  8
0
 10
140.487
 20
16.0132
 11
142.408
 21
16.3281
  0
LINE
  8
0
 10
142.408
 20
16.3281
 11
144.216
 21
17.0484
  0
LINE
  8
0
 10
144.216
 20
17.0484
 11
145.826
 21
18.1405
  0
LINE
  8
0
 10
145.826
 20
18.1405
 11
147.165
 21
19.5534
  0
LINE
  8
0
 10
147.165
 20
19.5534
 11
148.168
 21
21.221
  0
LINE
  8
0
 10
148.168
 20
21.221
 11
148.79
 21
23.0653
  0
LINE
  8
0
 10
148.79
 20
23.0653
 11
149
 21
25
  0
LINE
  8
0
 10
149
 20
25
 11
146.5
 21
25
  0
LINE
  8
0
 10
146.5
 20
25
 11
146.211
 21
23.0841
  0
LINE
  8
0
 10
146.211
 20
23.0841
 11
145.371
 21
21.3384
  0
LINE
  8
0
 10
145.371
 20
21.3384
 11
144.053
 21
19.9181
  0
LINE
  8
0
 10
144.053
 20
19.9181
 11
142.375
 21
18.9493
  0
LINE
  8
0
 10
142.375
 20
18.9493
 11
140.486
 21
18.5182
  0
LINE
  8
0
 10
140.486
 20
18.5182
 11
138.554
 21
18.663
  0
LINE
  8
0
 10
138.554
 20
18.663
 11
136.75
 21
19.3708
  0
LINE
  8
0
 10
136.75
 20
19.3708
 11
135.235
 21
20.5789
  0
LINE
  8
0
 10
135.235
 20
20.5789
 11
134.144
 21
22.1798
  0
LINE
  8
0
 10
134.144
 20
22.1798
 11
133.573
 21
24.0312
  0
LINE
  8
0
 10
133.573
 20
24.0312
 11
133.573
 21
25.9688
  0
LINE
  8
0
 10
133.573
 20
25.9688
 11
134.144
 21
27.8202
  0
LINE
  8
0
 10
134.144
 20
27.8202
 11
135.235
 21
29.4211
  0
LINE
  8
0
 10
135.235
 20
29.4211
 11
136.75
 21
30.6292
  0
LINE
  8
0
 10
136.75
 20
30.6292
 11
138.554
 21
31.337
  0
LINE
  8
0
 10
138.554
 20
31.337
 11
140
 21
31.4454
  0
LINE
  8
0
 10
140
 20
31.4454
 11
140
 21
33.9604
  0
LINE
  8
0
 10
140
 20
33.9604
 11
138.544
 21
33.8814
  0
LINE
  8
0
 10
138.544
 20
33.8814
 11
136.669
 21
33.3608
  0
LINE
  8
0
 10
136.669
 20
33.3608
 11
134.949
 21
32.4492
  0
LINE
  8
0
 10
134.949
 20
32.4492
 11
133.466
 21
31.1893
  0
LINE
  8
0
 10
133.466
 20
31.1893
 11
132.288
 21
29.64
  0
LINE
  8
0
 10
132.288
 20
29.64
 11
131.471
 21
27.8737
  0
LINE
  8
0
 10
131.471
 20
27.8737
 11
131.053
 21
25.9731
  0
LINE
  8
0
 10
131.053
 20
25.9731
 11
131.053
 21
24.0269
  0
LINE
  8
0
 10
131.053
 20
44.0269
 11
131.471
 21
42.1263
  0
LINE
  8
0
 10
131.471
 20
42.1263
 11
132.288
 21
40.36
  0
LINE
  8
0
 10
132.288
 20
40.36
 11
133.466
 21
38.8107
  0
LINE
  8
0
 10
133.466
 20
38.8107
 11
134.949
 21
37.5508
  0
LINE
  8
0
 10
134.949
 20
37.5508
 11
136.669
 21
36.6392
  0
LINE
  8
0
 10
136.669
 20
36.6392
 11
138.544
 21
36.1186
  0
LINE
  8
0
 10
138.544
 20
36.1186
 11
140.487
 21
36.0132
  0
LINE
  8
0
 10
140.487
 20
36.0132
 11
142.408
 21
36.3281
  0
LINE
  8
0
 10
142.408
 20
36.3281
 11
144.216
 21
37.0484
  0
LINE
  8
0
 10
144.216
 20
37.0484
 11
145.826
 21
38.1405
  0
LINE
  8
0
 10
145.826
 20
38.1405
 11
147.165
 21
39.5534
  0
LINE
  8
0
 10
147.165
 20
39.5534
 11
148.168
 21
41.221
  0
LINE
  8
0
 10
148.168
 20
41.221
 11
148.79
 21
43.0653
  0
LINE
  8
0
 10
148.79
 20
43.0653
 11
149
 21
45
  0
LINE
  8
0
 10
149
 20
45
 11
148.79
 21
46.9347
  0
LINE
  8
0
 10
148.79
 20
46.9347
 11
148.168
 21
48.779
  0
LINE
  8
0
 10
148.168
 20
48.779
 11
147.165
 21
50.4466
  0
LINE
  8
0
 10
147.165
 20
50.4466
 11
145.826
 21
51.8595
  0
LINE
  8
0
 10
145.826
 20
51.8595
 11
144.216
 21
52.9516
  0
LINE
  8
0
 10
144.216
 20
52.9516
 11
142.408
 21
53.6719
  0
LINE
  8
0
 10
142.408
 20
53.6719
 11
140.487
 21
53.9868
  0
LINE
  8
0
 10
140.487
 20
53.9868
 11
138.544
 21
53.8814
  0
LINE
  8
0
 10
138.544
 20
53.8814
 11
136.669
 21
53.3608
  0
LINE
  8
0
 10
136.669
 20
53.3608
 11
134.949
 21
52.4492
  0
LINE
  8
0
 10
134.949
 20
52.4492
 11
133.466
 21
51.1893
  0
LINE
  8
0
 10
133.466
 20
51.1893
 11
132.288
 21
49.64
  0
LINE
  8
0
 10
132.288
 20
49.64
 11
131.471
 21
47.8737
  0
LINE
  8
0
 10
131.471
 20
47.8737
 11
131.053
 21
45.9731
  0
LINE
  8
0
 10
131.053
 20
45.9731
 11
131.053
 21
44.0269
  0
LINE
  8
0
 10
133.573
 20
44.0312
 11
133.573
 21
45.9688
  0
LINE
  8
0
 10
133.573
 20
45.9688
 11
134.144
 21
47.8202
  0
LINE
  8
0
 10
134.144
 20
47.8202
 11
135.235
 21
49.4211
  0
LINE
  8
0
 10
135.235
 20
49.4211
 11
136.75
 21
50.6292
  0
LINE
  8
0
 10
136.75
 20
50.6292
 11
138.554
 21
51.337
  0
LINE
  8
0
 10
138.554
 20
51.337
 11
140.486
 21
51.4818
  0
LINE
  8
0
 10
140.486
 20
51.4818
 11
142.375
 21
51.0507
  0
LINE
  8
0
 10
142.375
 20
51.0507
 11
144.053
 21
50.0819
  0
LINE
  8
0
 10
144.053
 20
50.0819
 11
145.371
 21
48.6616
  0
LINE
  8
0
 10
145.371
 20
48.6616
 11
146.211
 21
46.9159
  0
LINE
  8
0
 10
146.211
 20
46.9159
 11
146.5
 21
45
  0
LINE
  8
0
 10
146.5
 20
45
 11
146.211
 21
43.0841
  0
LINE
  8
0
 10
146.211
 20
43.0841
 11
145.371
 21
41.3384
  0
LINE
  8
0
 10
145.371
 20
41.3384
 11
144.053
 21
39.9181
  0
LINE
  8
0
 10
144.053
 20
39.9181
 11
142.375
 21
38.9493
  0
LINE
  8
0
 10
142.375
 20
38.9493
 11
140.486
 21
38.5182
  0
LINE
  8
0
 10
140.486
 20
38.5182
 11
138.554
 21
38.663
  0
LINE
  8
0
 10
138.554
 20
38.663
 11
136.75
 21
39.3708
  0
LINE
  8
0
 10
136.75
 20
39.3708
 11
135.235
 21
40.5789
  0
LINE
  8
0
 10
135.235
 20
40.5789
 11
134.144
 21
42.1798
  0
LINE
  8
0
 10
134.144
 20
42.1798
 11
133.573
 21
44.0312
  0
LINE
  8
0
 10
131.053
 20
64.0269
 11
131.471
 21
62.1263
  0
LINE
  8
0
 10
131.471
 20
62.1263
 11
132.288
 21
60.36
  0
LINE
  8
0
 10
132.288
 20
60.36
 11
133.466
 21
58.8107
  0
LINE
  8
0
 10
133.466
 20
58.8107
 11
134.949
 21
57.5508
  0
LINE
  8
0
 10
134.949
 20
57.5508
 11
136.669
 21
56.6392
  0
LINE
  8
0
 10
136.669
 20
56.6392
 11
138.544
 21
56.1186
  0
LINE
  8
0
 10
138.544
 20
56.1186
 11
140.487
 21
56.0132
  0
LINE
  8
0
 10
140.487
 20
56.0132
 11
142.408
 21
56.3281
  0
LINE
  8
0
 10
142.408
 20
56.3281
 11
144.216
 21
57.0484
  0
LINE
  8
0
 10
144.216
 20
57.0484
 11
145.826
 21
58.1405
  0
LINE
  8
0
 10
145.826
 20
58.1405
 11
147.165
 21
59.5534
  0
LINE
  8
0
 10
147.165
 20
59.5534
 11
148.168
 21
61.221
  0
LINE
  8
0
 10
148.168
 20
61.221
 11
148.79
 21
63.0653
  0
LINE
  8
0
 10
148.79
 20
63.0653
 11
149
 21
65
  0
LINE
  8
0
 10
149
 20
65
 11
146.5
 21
65
  0
LINE
  8
0
 10
146.5
 20
65
 11
146.211
 21
63.0841
  0
LINE
  8
0
 10
146.211
 20
63.0841
 11
145.371
 21
61.3384
  0
LINE
  8
0
 10
145.371
 20
61.3384
 11
144.053
 21
59.9181
  0
LINE
  8
0
 10
144.053
 20
59.9181
 11
142.375
 21
58.9493
  0
LINE
  8
0
 10
142.375
 20
58.9493
 11
140.486
 21
58.5182
  0
LINE
  8
0
 10
140.486
 20
58.5182
 11
138.554
 21
58.663
  0
LINE
  8
0
 10
138.554
 20
58.663
 11
136.75
 21
59.3708
  0
LINE
  8
0
 10
136.75
 20
59.3708
 11
135.235
 21
60.5789
  0
LINE
  8
0
 10
135.235
 20
60.5789
 11
134.144
 21
62.1798
  0
LINE
  8
0
 10
134.144
 20
62.1798
 11
133.573
 21
64.0312
  0
LINE
  8
0
 10
133.573
 20
64.0312
 11
133.573
 21
65.9688
  0
LINE
  8
0
 10
133.573
 20
65.9688
 11
134.144
 21
67.8202
  0
LINE
  8
0
 10
134.144
 20
67.8202
 11
135.235
 21
69.4211
  0
LINE
  8
0
 10
135.235
 20
69.4211
 11
136.75
 21
70.6292
  0
LINE
  8
0
 10
136.75
 20
70.6292
 11
138.554
 21
71.337
  0
LINE
  8
0
 10
138.554
 20
71.337
 11
140
 21
71.4454
  0
LINE
  8
0
 10
140
 20
71.4454
 11
140
 21
73.9604
  0
LINE
  8
0
 10
140
 20
73.9604
 11
138.544
 21
73.8814
  0
LINE
  8
0
 10
138.544
 20
73.8814
 11
136.669
 21
73.3608
  0
LINE
  8
0
 10
136.669
 20
73.3608
 11
134.949
 21
72.4492
  0
LINE
  8
0
 10
134.949
 20
72.4492
 11
133.466
 21
71.1893
  0
LINE
  8
0
 10
133.466
 20
71.1893
 11
132.288
 21
69.64
  0
LINE
  8
0
 10
132.288
 20
69.64
 11
131.471
 21
67.8737
  0
LINE
  8
0
 10
131.471
 20
67.8737
 11
131.053
 21
65.9731
  0
LINE
  8
0
 10
131.053
 20
65.9731
 11
131.053
 21
64.0269
  0
LINE
  8
0
 10
131.053
 20
84.0269
 11
131.471
 21
82.1263
  0
LINE
  8
0
 10
131.471
 20
82.1263
 11
132.288
 21
80.36
  0
LINE
  8
0
 10
132.288
 20
80.36
 11
133.466
 21
78.8107
  0
LINE
  8
0
 10
133.466
 20
78.8107
 11
134.949
 21
77.5508
  0
LINE
  8
0
 10
134.949
 20
77.5508
 11
136.669
 21
76.6392
  0
LINE
  8
0
 10
136.669
 20
76.6392
 11
138.544
 21
76.1186
  0
LINE
  8
0
 10
138.544
 20
76.1186
 11
140.487
 21
76.0132
  0
LINE
  8
0
 10
140.487
 20
76.0132
 11
142.408
 21
76.3281
  0
LINE
  8
0
 10
142.408
 20
76.3281
 11
144.216
 21
77.0484
  0
LINE
  8
0
 10
144.216
 20
77.0484
 11
145.826
 21
78.1405
  0
LINE
  8
0
 10
145.826
 20
78.1405
 11
147.165
 21
79.5534
  0
LINE
  8
0
 10
147.165
 20
79.5534
 11
148.168
 21
81.221
  0
LINE
  8
0
 10
148.168
 20
81.221
 11
148.79
 21
83.0653
  0
LINE
  8
0
 10
148.79
 20
83.0653
 11
149
 21
85
  0
LINE
  8
0
 10
149
 20
85
 11
146.5
 21
85
  0
LINE
  8
0
 10
146.5
 20
85
 11
146.211
 21
83.0841
  0
LINE
  8
0
 10
146.211
 20
83.0841
 11
145.371
 21
81.3384
  0
LINE
  8
0
 10
145.371
 20
81.3384
 11
144.053
 21
79.9181
  0
LINE
  8
0
 10
144.053
 20
79.9181
 11
142.375
 21
78.9493
  0
LINE
  8
0
 10
142.375
 20
78.9493
 11
140.486
 21
78.5182
  0
LINE
  8
0
 10
140.486
 20
78.5182
 11
138.554
 21
78.663
  0
LINE
  8
0
 10
138.554
 20
78.663
 11
136.75
 21
79.3708
  0
LINE
  8
0
 10
136.75
 20
79.3708
 11
135.235
 21
80.5789
  0
LINE
  8
0
 10
135.235
 20
80.5789
 11
134.144
 21
82.1798
  0
LINE
  8
0
 10
134.144
 20
82.1798
 11
133.573
 21
84.0312
  0
LINE
  8
0
 10
133.573
 20
84.0312
 11
133.573
 21
85.9688
  0
LINE
  8
0
 10
133.573
 20
85.9688
 11
134.144
 21
87.8202
  0
LINE
  8
0
 10
134.144
 20
87.8202
 11
135.235
 21
89.4211
  0
LINE
  8
0
 10
135.235
 20
89.4211
 11
136.75
 21
90.6292
  0
LINE
  8
0
 10
136.75
 20
90.6292
 11
138.554
 21
91.337
  0
LINE
  8
0
 10
138.554
 20
91.337
 11
140
 21
91.4454
  0
LINE
  8
0
 10
140
 20
91.4454
 11
140
 21
93.9604
  0
LINE
  8
0
 10
140
 20
93.9604
 11
138.544
 21
93.8814
  0
LINE
  8
0
 10
138.544
 20
93.8814
 11
136.669
 21
93.3608
  0
LINE
  8
0
 10
136.669
 20
93.3608
 11
134.949
 21
92.4492
  0
LINE
  8
0
 10
134.949
 20
92.4492
 11
133.466
 21
91.1893
  0
LINE
  8
0
 10
133.466
 20
91.1893
 11
132.288
 21
89.64
  0
LINE
  8
0
 10
132.288
 20
89.64
 11
131.471
 21
87.8737
  0
LINE
  8
0
 10
131.471
 20
87.8737
 11
131.053
 21
85.9731
  0
LINE
  8
0
 10
131.053
 20
85.9731
 11
131.053
 21
84.0269
  0
LINE
  8
0
 10
151.053
 20
4.02693
 11
151.471
 21
2.12629
  0
LINE
  8
0
 10
151.471
 20
2.12629
 11
152.288
 21
0.360016
  0
LINE
  8
0
 10
152.288
 20
0.360016
 11
153.466
 21
-1.18929
  0
LINE
  8
0
 10
153.466
 20
-1.18929
 11
154.949
 21
-2.4492
  0
LINE
  8
0
 10
154.949
 20
-2.4492
 11
156.669
 21
-3.36079
  0
LINE
  8
0
 10
156.669
 20
-3.36079
 11
158.544
 21
-3.88144
  0
LINE
  8
0
 10
158.544
 20
-3.88144
 11
160.487
 21
-3.9868
  0
LINE
  8
0
 10
160.487
 20
-3.9868
 11
162.408
 21
-3.67195
  0
LINE
  8
0
 10
162.408
 20
-3.67195
 11
164.216
 21
-2.95161
  0
LINE
  8
0
 10
164.216
 20
-2.95161
 11
165.826
 21
-1.85946
  0
LINE
  8
0
 10
165.826
 20
-1.85946
 11
167.165
 21
-0.446568
  0
LINE
  8
0
 10
167.165
 20
-0.446568
 11
168.168
 21
1.221
  0
LINE
  8
0
 10
168.168
 20
1.221
 11
168.79
 21
3.06527
  0
LINE
  8
0
 10
168.79
 20
3.06527
 11
169
 21
5
  0
LINE
  8
0
 10
169
 20
5
 11
168.79
 21
6.93473
  0
LINE
  8
0
 10
168.79
 20
6.93473
 11
168.168
 21
8.779
  0
LINE
  8
0
 10
168.168
 20
8.779
 11
167.165
 21
10.4466
  0
LINE
  8
0
 10
167.165
 20
10.4466
 11
165.826
 21
11.8595
  0
LINE
  8
0
 10
165.826
 20
11.8595
 11
164.216
 21
12.9516
  0
LINE
  8
0
 10
164.216
 20
12.9516
 11
162.408
 21
13.6719
  0
LINE
  8
0
 10
162.408
 20
13.6719
 11
160.487
 21
13.9868
  0
LINE
  8
0
 10
160.487
 20
13.9868
 11
158.544
 21
13.8814
  0
LINE
  8
0
 10
158.544
 20
13.8814
 11
156.669
 21
13.3608
  0
LINE
  8
0
 10
156.669
 20
13.3608
 11
154.949
 21
12.4492
  0
LINE
  8
0
 10
154.949
 20
12.4492
 11
153.466
 21
11.1893
  0
LINE
  8
0
 10
153.466
 20
11.1893
 11
152.288
 21
9.63998
  0
LINE
  8
0
 10
152.288
 20
9.63998
 11
151.471
 21
7.87371
  0
LINE
  8
0
 10
151.471
 20
7.87371
 11
151.053
 21
5.97307
  0
LINE
  8
0
 10
151.053
 20
5.97307
 11
151.053
 21
4.02693
  0
LINE
  8
0
 10
153.573
 20
4.03123
 11
153.573
 21
5.96877
  0
LINE
  8
0
 10
153.573
 20
5.96877
 11
154.144
 21
7.82024
  0
LINE
  8
0
 10
154.144
 20
7.82024
 11
155.235
 21
9.42112
  0
LINE
  8
0
 10
155.235
 20
9.42112
 11
156.75
 21
10.6292
  0
LINE
  8
0
 10
156.75
 20
10.6292
 11
158.554
 21
11.337
  0
LINE
  8
0
 10
158.554
 20
11.337
 11
160.486
 21
11.4818
  0
LINE
  8
0
 10
160.486
 20
11.4818
 11
162.375
 21
11.0507
  0
LINE
  8
0
 10
162.375
 20
11.0507
 11
164.053
 21
10.0819
  0
LINE
  8
0
 10
164.053
 20
10.0819
 11
165.371
 21
8.66158
  0
LINE
  8
0
 10
165.371
 20
8.66158
 11
166.211
 21
6.91591
  0
LINE
  8
0
 10
166.211
 20
6.91591
 11
166.5
 21
5
  0
LINE
  8
0
 10
166.5
 20
5
 11
166.211
 21
3.08409
  0
LINE
  8
0
 10
166.211
 20
3.08409
 11
165.371
 21
1.33842
  0
LINE
  8
0
 10
165.371
 20
1.33842
 11
164.053
 21
-0.0819044
  0
LINE
  8
0
 10
164.053
 20
-0.0819044
 11
162.375
 21
-1.05068
  0
LINE
  8
0
 10
162.375
 20
-1.05068
 11
160.486
 21
-1.48182
  0
LINE
  8
0
 10
160.486
 20
-1.48182
 11
158.554
 21
-1.33703
  0
LINE
  8
0
 10
158.554
 20
-1.33703
 11
156.75
 21
-0.629165
  0
LINE
  8
0
 10
156.75
 20
-0.629165
 11
155.235
 21
0.578877
  0
LINE
  8
0
 10
155.235
 20
0.578877
 11
154.144
 21
2.17976
  0
LINE
  8
0
 10
154.144
 20
2.17976
 11
153.573
 21
4.03123
  0
LINE
  8
0
 10
151.053
 20
24.0269
 11
151.471
 21
22.1263
  0
LINE
  8
0
 10
151.471
 20
22.1263
 11
152.288
 21
20.36
  0
LINE
  8
0
 10
152.288
 20
20.36
 11
153.466
 21
18.8107
  0
LINE
  8
0
 10
153.466
 20
18.8107
 11
154.949
 21
17.5508
  0
LINE
  8
0
 10
154.949
 20
17.5508
 11
156.669
 21
16.6392
  0
LINE
  8
0
 10
156.669
 20
16.6392
 11
158.544
 21
16.1186
  0
LINE
  8
0
 10
158.544
 20
16.1186
 11
160.487
 21
16.0132
  0
LINE
  8
0
 10
160.487
 20
16.0132
 11
162.408
 21
16.3281
  0
LINE
  8
0
 10
162.408
 20
16.3281
 11
164.216
 21
17.0484
  0
LINE
  8
0
 10
164.216
 20
17.0484
 11
165.826
 21
18.1405
  0
LINE
  8
0
 10
165.826
 20
18.1405
 11
167.165
 21
19.5534
  0
LINE
  8
0
 10
167.165
 20
19.5534
 11
168.168
 21
21.221
  0
LINE
  8
0
 10
168.168
 20
21.221
 11
168.79
 21
23.0653
  0
LINE
  8
0
 10
168.79
 20
23.0653
 11
169
 21
25
  0
LINE
  8
0
 10
169
 20
25
 11
166.5
 21
25
  0
LINE
  8
0
 10
166.5
 20
25
 11
166.211
 21
23.0841
  0
LINE
  8
0
 10
166.211
 20
23.0841
 11
165.371
 21
21.3384
  0
LINE
  8
0
 10
165.371
 20
21.3384
 11
164.053
 21
19.9181
  0
LINE
  8
0
 10
164.053
 20
19.9181
 11
162.375
 21
18.9493
  0
LINE
  8
0
 10
162.375
 20
18.9493
 11
160.486
 21
18.5182
  0
LINE
  8
0
 10
160.486
 20
18.5182
 11
158.554
 21
18.663
  0
LINE
  8
0
 10
158.554
 20
18.663
 11
156.75
 21
19.3708
  0
LINE
  8
0
 10
156.75
 20
19.3708
 11
155.235
 21
20.5789
  0
LINE
  8
0
 10
155.235
 20
20.5789
 11
154.144
 21
22.1798
  0
LINE
  8
0
 10
154.144
 20
22.1798
 11
153.573
 21
24.0312
  0
LINE
  8
0
 10
153.573
 20
24.0312
 11
153.573
 21
25.9688
  0
LINE
  8
0
 10
153.573
 20
25.9688
 11
154.144
 21
27.8202
  0
LINE
  8
0
 10
154.144
 20
27.8202
 11
155.235
 21
29.4211
  0
LINE
  8
0
 10
155.235
 20
29.4211
 11
156.75
 21
30.6292
  0
LINE
  8
0
 10
156.75
 20
30.6292
 11
158.554
 21
31.337
  0
LINE
  8
0
 10
158.554
 20
31.337
 11
160
 21
31.4454
  0
LINE
  8
0
 10
160
 20
31.4454
 11
160
 21
33.9604
  0
LINE
  8
0
 10
160
 20
33.9604
 11
158.544
 21
33.8814
  0
LINE
  8
0
 10
158.544
 20
33.8814
 11
156.669
 21
33.3608
  0
LINE
  8
0
 10
156.669
 20
33.3608
 11
154.949
 21
32.4492
  0
LINE
  8
0
 10
154.949
 20
32.4492
 11
153.466
 21
31.1893
  0
LINE
  8
0
 10
153.466
 20
31.1893
 11
152.288
 21
29.64
  0
LINE
  8
0
 10
152.288
 20
29.64
 11
151.471
 21
27.8737
  0
LINE
  8
0
 10
151.471
 20
27.8737
 11
151.053
 21
25.9731
  0
LINE
  8
0
 10
151.053
 20
25.9731
 11
151.053
 21
24.0269
  0
LINE
  8
0
 10
151.053
 20
44.0269
 11
151.471
 21
42.1263
  0
LINE
  8
0
 10
151.471
 20
42.1263
 11
152.288
 21
40.36
  0
LINE
  8
0
 10
152.288
 20
40.36
 11
153.466
 21
38.8107
  0
LINE
  8
0
 10
153.466
 20
38.8107
 11
154.949
 21
37.5508
  0
LINE
  8
0
 10
154.949
 20
37.5508
 11
156.669
 21
36.6392
  0
LINE
  8
0
 10
156.669
 20
36.6392
 11
158.544
 21
36.1186
  0
LINE
  8
0
 10
158.544
 20
36.1186
 11
160.487
 21
36.0132
  0
LINE
  8
0
 10
160.487
 20
36.0132
 11
162.408
 21
36.3281
  0
LINE
  8
0
 10
162.408
 20
36.3281
 11
164.216
 21
37.0484
  0
LINE
  8
0
 10
164.216
 20
37.0484
 11
165.826
 21
38.1405
  0
LINE
  8
0
 10
165.826
 20
38.1405
 11
167.165
 21
39.5534
  0
LINE
  8
0
 10
167.165
 20
39.5534
 11
168.168
 21
41.221
  0
LINE
  8
0
 10
168.168
 20
41.221
 11
168.79
 21
43.0653
  0
LINE
  8
0
 10
168.79
 20
43.0653
 11
169
 21
45
  0
LINE
  8
0
 10
169
 20
45
 11
168.79
 21
46.9347
  0
LINE
  8
0
 10
168.79
 20
46.9347
 11
168.168
 21
48.779
  0
LINE
  8
0
 10
168.168
 20
48.779
 11
167.165
 21
50.4466
  0
LINE
  8
0
 10
167.165
 20
50.4466
 11
165.826
 21
51.8595
  0
LINE
  8
0
 10
165.826
 20
51.8595
 11
164.216
 21
52.9516
  0
LINE
  8
0
 10
164.216
 20
52.9516
 11
162.408
 21
53.6719
  0
LINE
  8
0
 10
162.408
 20
53.6719
 11
160.487
 21
53.9868
  0
LINE
  8
0
 10
160.487
 20
53.9868
 11
158.544
 21
53.8814
  0
LINE
  8
0
 10
158.544
 20
53.8814
 11
156.669
 21
53.3608
  0
LINE
  8
0
 10
156.669
 20
53.3608
 11
154.949
 21
52.4492
  0
LINE
  8
0
 10
154.949
 20
52.4492
 11
153.466
 21
51.1893
  0
LINE
  8
0
 10
153.466
 20
51.1893
 11
152.288
 21
49.64
  0
LINE
  8
0
 10
152.288
 20
49.64
 11
151.471
 21
47.8737
  0
LINE
  8
0
 10
151.471
 20
47.8737
 11
151.053
 21
45.9731
  0
LINE
  8
0
 10
151.053
 20
45.9731
 11
151.053
 21
44.0269
  0
LINE
  8
0
 10
153.573
 20
44.0312
 11
153.573
 21
45.9688
  0
LINE
  8
0
 10
153.573
 20
45.9688
 11
154.144
 21
47.8202
  0
LINE
  8
0
 10
154.144
 20
47.8202
 11
155.235
 21
49.4211
  0
LINE
  8
0
 10
155.235
 20
49.4211
 11
156.75
 21
50.6292
  0
LINE
  8
0
 10
156.75
 20
50.6292
 11
158.554
 21
51.337
  0
LINE
  8
0
 10
158.554
 20
51.337
 11
160.486
 21
51.4818
  0
LINE
  8
0
 10
160.486
 20
51.4818
 11
162.375
 21
51.0507
  0
LINE
  8
0
 10
162.375
 20
51.0507
 11
164.053
 21
50.0819
  0
LINE
  8
0
 10
164.053
 20
50.0819
 11
165.371
 21
48.6616
  0
LINE
  8
0
 10
165.371
 20
48.6616
 11
166.211
 21
46.9159
  0
LINE
  8
0
 10
166.211
 20
46.9159
 11
166.5
 21
45
  0
LINE
  8
0
 10
166.5
 20
45
 11
166.211
 21
43.0841
  0
LINE
  8
0
 10
166.211
 20
43.0841
 11
165.371
 21
41.3384
  0
LINE
  8
0
 10
165.371
 20
41.3384
 11
164.053
 21
39.9181
  0
LINE
  8
0
 10
164.053
 20
39.9181
 11
162.375
 21
38.9493
  0
LINE
  8
0
 10
162.375
 20
38.9493
 11
160.486
 21
38.5182
  0
LINE
  8
0
 10
160.486
 20
38.5182
 11
158.554
 21
38.663
  0
LINE
  8
0
 10
158.554
 20
38.663
 11
156.75
 21
39.3708
  0
LINE
  8
0
 10
156.75
 20
39.3708
 11
155.235
 21
40.5789
  0
LINE
  8
0
 10
155.235
 20
40.5789
 11
154.144
 21
42.1798
  0
LINE
  8
0
 10
154.144
 20
42.1798
 11
153.573
 21
44.0312
  0
LINE
  8
0
 10
151.053
 20
64.0269
 11
151.471
 21
62.1263
  0
LINE
  8
0
 10
151.471
 20
62.1263
 11
152.288
 21
60.36
  0
LINE
  8
0
 10
152.288
 20
60.36
 11
153.466
 21
58.8107
  0
LINE
  8
0
 10
153.466
 20
58.8107
 11
154.949
 21
57.5508
  0
LINE
  8
0
 10
154.949
 20
57.5508
 11
156.669
 21
56.6392
  0
LINE
  8
0
 10
156.669
 20
56.6392
 11
158.544
 21
56.1186
  0
LINE
  8
0
 10
158.544
 20
56.1186
 11
160.487
 21
56.0132
  0
LINE
  8
0
 10
160.487
 20
56.0132
 11
162.408
 21
56.3281
  0
LINE
  8
0
 10
162.408
 20
56.3281
 11
164.216
 21
57.0484
  0
LINE
  8
0
 10
164.216
 20
57.0484
 11
165.826
 21
58.1405
  0
LINE
  8
0
 10
165.826
 20
58.1405
 11
167.165
 21
59.5534
  0
LINE
  8
0
 10
167.165
 20
59.5534
 11
168.168
 21
61.221
  0
LINE
  8
0
 10
168.168
 20
61.221
 11
168.79
 21
63.0653
  0
LINE
  8
0
 10
168.79
 20
63.0653
 11
169
 21
65
  0
LINE
  8
0
 10
169
 20
65
 11
166.5
 21
65
  0
LINE
  8
0
 10
166.5
 20
65
 11
166.211
 21
63.0841
  0
LINE
  8
0
 10
166.211
 20
63.0841
 11
165.371
 21
61.3384
  0
LINE
  8
0
 10
165.371
 20
61.3384
 11
164.053
 21
59.9181
  0
LINE
  8
0
 10
164.053
 20
59.9181
 11
162.375
 21
58.9493
  0
LINE
  8
0
 10
162.375
 20
58.9493
 11
160.486
 21
58.5182
  0
LINE
  8
0
 10
160.486
 20
58.5182
 11
158.554
 21
58.663
  0
LINE
  8
0
 10
158.554
 20
58.663
 11
156.75
 21
59.3708
  0
LINE
  8
0
 10
156.75
 20
59.3708
 11
155.235
 21
60.5789
  0
LINE
  8
0
 10
155.235
 20
60.5789
 11
154.144
 21
62.1798
  0
LINE
  8
0
 10
154.144
 20
62.1798
 11
153.573
 21
64.0312
  0
LINE
  8
0
 10
153.573
 20
64.0312
 11
153.573
 21
65.9688
  0
LINE
  8
0
 10
153.573
 20
65.9688
 11
154.144
 21
67.8202
  0
LINE
  8
0
 10
154.144
 20
67.8202
 11
155.235
 21
69.4211
  0
LINE
  8
0
 10
155.235
 20
69.4211
 11
156.75
 21
70.6292
  0
LINE
  8
0
 10
156.75
 20
70.6292
 11
158.554
 21
71.337
  0
LINE
  8
0
 10
158.554
 20
71.337
 11
160
 21
71.4454
  0
LINE
  8
0
 10
160
 20
71.4454
 11
160
 21
73.9604
  0
LINE
  8
0
 10
160
 20
73.9604
 11
158.544
 21
73.8814
  0
LINE
  8
0
 10
158.544
 20
73.8814
 11
156.669
 21
73.3608
  0
LINE
  8
0
 10
156.669
 20
73.3608
 11
154.949
 21
72.4492
  0
LINE
  8
0
 10
154.949
 20
72.4492
 11
153.466
 21
71.1893
  0
LINE
  8
0
 10
153.466
 20
71.1893
 11
152.288
 21
69.64
  0
LINE
  8
0
 10
152.288
 20
69.64
 11
151.471
 21
67.8737
  0
LINE
  8
0
 10
151.471
 20
67.8737
 11
151.053
 21
65.9731
  0
LINE
  8
0
 10
151.053
 20
65.9731
 11
151.053
 21
64.0269
  0
LINE
  8
0
 10
151.053
 20
84.0269
 11
151.471
 21
82.1263
  0
LINE
  8
0
 10
151.471
 20
82.1263
 11
152.288
 21
80.36
  0
LINE
  8
0
 10
152.288
 20
80.36
 11
153.466
 21
78.8107
  0
LINE
  8
0
 10
153.466
 20
78.8107
 11
154.949
 21
77.5508
  0
LINE
  8
0
 10
154.949
 20
77.5508
 11
156.669
 21
76.6392
  0
LINE
  8
0
 10
156.669
 20
76.6392
 11
158.544
 21
76.1186
  0
LINE
  8
0
 10
158.544
 20
76.1186
 11
160.487
 21
76.0132
  0
LINE
  8
0
 10
160.487
 20
76.0132
 11
162.408
 21
76.3281
  0
LINE
  8
0
 10
162.408
 20
76.3281
 11
164.216
 21
77.0484
  0
LINE
  8
0
 10
164.216
 20
77.0484
 11
165.826
 21
78.1405
  0
LINE
  8
0
 10
165.826
 20
78.1405
 11
167.165
 21
79.5534
  0
LINE
  8
0
 10
167.165
 20
79.5534
 11
168.168
 21
81.221
  0
LINE
  8
0
 10
168.168
 20
81.221
 11
168.79
 21
83.0653
  0
LINE
  8
0
 10
168.79
 20
83.0653
 11
169
 21
85
  0
LINE
  8
0
 10
169
 20
85
 11
166.5
 21
85
  0
LINE
  8
0
 10
166.5
 20
85
 11
166.211
 21
83.0841
  0
LINE
  8
0
 10
166.211
 20
83.0841
 11
165.371
 21
81.3384
  0
LINE
  8
0
 10
165.371
 20
81.3384
 11
164.053
 21
79.9181
  0
LINE
  8
0
 10
164.053
 20
79.9181
 11
162.375
 21
78.9493
  0
LINE
  8
0
 10
162.375
 20
78.9493
 11
160.486
 21
78.5182
  0
LINE
  8
0
 10
160.486
 20
78.5182
 11
158.554
 21
78.663
  0
LINE
  8
0
 10
158.554
 20
78.663
 11
156.75
 21
79.3708
  0
LINE
  8
0
 10
156.75
 20
79.3708
 11
155.235
 21
80.5789
  0
LINE
  8
0
 10
155.235
 20
80.5789
 11
154.144
 21
82.1798
  0
LINE
  8
0
 10
154.144
 20
82.1798
 11
153.573
 21
84.0312
  0
LINE
  8
0
 10
153.573
 20
84.0312
 11
153.573
 21
85.9688
  0
LINE
  8
0
 10
153.573
 20
85.9688
 11
154.144
 21
87.8202
  0
LINE
  8
0
 10
154.144
 20
87.8202
 11
155.235
 21
89.4211
  0
LINE
  8
0
 10
155.235
 20
89.4211
 11
156.75
 21
90.6292
  0
LINE
  8
0
 10
156.75
 20
90.6292
 11
158.554
 21
91.337
  0
LINE
  8
0
 10
158.554
 20
91.337
 11
160
 21
91.4454
  0
LINE
  8
0
 10
160
 20
91.4454
 11
160
 21
93.9604
  0
LINE
  8
0
 10
160
 20
93.9604
 11
158.544
 21
93.8814
  0
LINE
  8
0
 10
158.544
 20
93.8814
 11
156.669
 21
93.3608
  0
LINE
  8
0
 10
156.669
 20
93.3608
 11
154.949
 21
92.4492
  0
LINE
  8
0
 10
154.949
 20
92.4492
 11
153.466
 21
91.1893
  0
LINE
  8
0
 10
153.466
 20
91.1893
 11
152.288
 21
89.64
  0
LINE
  8
0
 10
152.288
 20
89.64
 11
151.471
 21
87.8737
  0
LINE
  8
0
 10
151.471
 20
87.8737
 11
151.053
 21
85.9731
  0
LINE
  8
0
 10
151.053
 20
85.9731
 11
151.053
 21
84.0269
  0
ENDSEC
  0
SECTION
  2
OBJECTS
  0
DICTIONARY
  0
ENDSEC
  0
EOF
