  0
SECTION
  2
BLOCKS
  0
ENDSEC
  0
SECTION
  2
ENTITIES
  0
LINE
  8
0
 10
-14.75
 20
20
 11
-14.4277
 21
16.9333
  0
LINE
  8
0
 10
-14.4277
 20
16.9333
 11
-13.4748
 21
14.0006
  0
LINE
  8
0
 10
-13.4748
 20
14.0006
 11
-11.933
 21
11.3302
  0
LINE
  8
0
 10
-11.933
 20
11.3302
 11
-9.86968
 21
9.03861
  0
LINE
  8
0
 10
-9.86968
 20
9.03861
 11
-7.375
 21
7.22613
  0
LINE
  8
0
 10
-7.375
 20
7.22613
 11
-4.558
 21
5.97192
  0
LINE
  8
0
 10
-4.558
 20
5.97192
 11
-1.54179
 21
5.3308
  0
LINE
  8
0
 10
-1.54179
 20
5.3308
 11
1.54179
 21
5.3308
  0
LINE
  8
0
 10
1.54179
 20
5.3308
 11
4.558
 21
5.97192
  0
LINE
  8
0
 10
4.558
 20
5.97192
 11
7.375
 21
7.22613
  0
LINE
  8
0
 10
7.375
 20
7.22613
 11
9.86968
 21
9.03861
  0
LINE
  8
0
 10
9.86968
 20
9.03861
 11
11.933
 21
11.3302
  0
LINE
  8
0
 10
11.933
 20
11.3302
 11
13.4748
 21
14.0006
  0
LINE
  8
0
 10
13.4748
 20
14.0006
 11
14.4277
 21
16.9333
  0
LINE
  8
0
 10
14.4277
 20
16.9333
 11
14.75
 21
20
  0
LINE
  8
0
 10
14.75
 20
20
 11
14.4277
 21
23.0667
  0
LINE
  8
0
 10
14.4277
 20
23.0667
 11
13.4748
 21
25.9994
  0
LINE
  8
0
 10
13.4748
 20
25.9994
 11
11.933
 21
28.6698
  0
LINE
  8
0
 10
11.933
 20
28.6698
 11
9.86968
 21
30.9614
  0
LINE
  8
0
 10
9.86968
 20
30.9614
 11
7.375
 21
32.7739
  0
LINE
  8
0
 10
7.375
 20
32.7739
 11
4.558
 21
34.0281
  0
LINE
  8
0
 10
4.558
 20
34.0281
 11
1.54179
 21
34.6692
  0
LINE
  8
0
 10
1.54179
 20
34.6692
 11
-1.54179
 21
34.6692
  0
LINE
  8
0
 10
-1.54179
 20
34.6692
 11
-4.558
 21
34.0281
  0
LINE
  8
0
 10
-4.558
 20
34.0281
 11
-7.375
 21
32.7739
  0
LINE
  8
0
 10
-7.375
 20
32.7739
 11
-9.86968
 21
30.9614
  0
LINE
  8
0
 10
-9.86968
 20
30.9614
 11
-11.933
 21
28.6698
  0
LINE
  8
0
 10
-11.933
 20
28.6698
 11
-13.4748
 21
25.9994
  0
LINE
  8
0
 10
-13.4748
 20
25.9994
 11
-14.4277
 21
23.0667
  0
LINE
  8
0
 10
-14.4277
 20
23.0667
 11
-14.75
 21
20
  0
LINE
  8
0
 10
-10
 20
20
 11
-9.78148
 21
22.0791
  0
LINE
  8
0
 10
-9.78148
 20
22.0791
 11
-9.13545
 21
24.0674
  0
LINE
  8
0
 10
-9.13545
 20
24.0674
 11
-8.09017
 21
25.8779
  0
LINE
  8
0
 10
-8.09017
 20
25.8779
 11
-6.69131
 21
27.4314
  0
LINE
  8
0
 10
-6.69131
 20
27.4314
 11
-5
 21
28.6603
  0
LINE
  8
0
 10
-5
 20
28.6603
 11
-3.09017
 21
29.5106
  0
LINE
  8
0
 10
-3.09017
 20
29.5106
 11
-1.04528
 21
29.9452
  0
LINE
  8
0
 10
-1.04528
 20
29.9452
 11
1.04528
 21
29.9452
  0
LINE
  8
0
 10
1.04528
 20
29.9452
 11
3.09017
 21
29.5106
  0
LINE
  8
0
 10
3.09017
 20
29.5106
 11
5
 21
28.6603
  0
LINE
  8
0
 10
5
 20
28.6603
 11
6.69131
 21
27.4314
  0
LINE
  8
0
 10
6.69131
 20
27.4314
 11
8.09017
 21
25.8779
  0
LINE
  8
0
 10
8.09017
 20
25.8779
 11
9.13545
 21
24.0674
  0
LINE
  8
0
 10
9.13545
 20
24.0674
 11
9.78148
 21
22.0791
  0
LINE
  8
0
 10
9.78148
 20
22.0791
 11
10
 21
20
  0
LINE
  8
0
 10
10
 20
20
 11
9.78148
 21
17.9209
  0
LINE
  8
0
 10
9.78148
 20
17.9209
 11
9.13545
 21
15.9326
  0
LINE
  8
0
 10
9.13545
 20
15.9326
 11
8.09017
 21
14.1221
  0
LINE
  8
0
 10
8.09017
 20
14.1221
 11
6.69131
 21
12.5686
  0
LINE
  8
0
 10
6.69131
 20
12.5686
 11
5
 21
11.3397
  0
LINE
  8
0
 10
5
 20
11.3397
 11
3.09017
 21
10.4894
  0
LINE
  8
0
 10
3.09017
 20
10.4894
 11
1.04528
 21
10.0548
  0
LINE
  8
0
 10
1.04528
 20
10.0548
 11
-1.04528
 21
10.0548
  0
LINE
  8
0
 10
-1.04528
 20
10.0548
 11
-3.09017
 21
10.4894
  0
LINE
  8
0
 10
-3.09017
 20
10.4894
 11
-5
 21
11.3397
  0
LINE
  8
0
 10
-5
 20
11.3397
 11
-6.69131
 21
12.5686
  0
LINE
  8
0
 10
-6.69131
 20
12.5686
 11
-8.09017
 21
14.1221
  0
LINE
  8
0
 10
-8.09017
 20
14.1221
 11
-9.13545
 21
15.9326
  0
LINE
  8
0
 10
-9.13545
 20
15.9326
 11
-9.78148
 21
17.9209
  0
LINE
  8
0
 10
-9.78148
 20
17.9209
 11
-10
 21
20
  0
LINE
  8
0
 10
-14.75
 20
50
 11
-14.4277
 21
46.9333
  0
LINE
  8
0
 10
-14.4277
 20
46.9333
 11
-13.4748
 21
44.0006
  0
LINE
  8
0
 10
-13.4748
 20
44.0006
 11
-11.933
 21
41.3302
  0
LINE
  8
0
 10
-11.933
 20
41.3302
 11
-9.86968
 21
39.0386
  0
LINE
  8
0
 10
-9.86968
 20
39.0386
 11
-7.375
 21
37.2261
  0
LINE
  8
0
 10
-7.375
 20
37.2261
 11
-4.558
 21
35.9719
  0
LINE
  8
0
 10
-4.558
 20
35.9719
 11
-1.54179
 21
35.3308
  0
LINE
  8
0
 10
-1.54179
 20
35.3308
 11
1.54179
 21
35.3308
  0
LINE
  8
0
 10
1.54179
 20
35.3308
 11
4.558
 21
35.9719
  0
LINE
  8
0
 10
4.558
 20
35.9719
 11
7.375
 21
37.2261
  0
LINE
  8
0
 10
7.375
 20
37.2261
 11
9.86968
 21
39.0386
  0
LINE
  8
0
 10
9.86968
 20
39.0386
 11
11.933
 21
41.3302
  0
LINE
  8
0
 10
11.933
 20
41.3302
 11
13.4748
 21
44.0006
  0
LINE
  8
0
 10
13.4748
 20
44.0006
 11
14.4277
 21
46.9333
  0
LINE
  8
0
 10
14.4277
 20
46.9333
 11
14.75
 21
50
  0
LINE
  8
0
 10
14.75
 20
50
 11
10
 21
50
  0
LINE
  8
0
 10
10
 20
50
 11
9.78148
 21
47.9209
  0
LINE
  8
0
 10
9.78148
 20
47.9209
 11
9.13545
 21
45.9326
  0
LINE
  8
0
 10
9.13545
 20
45.9326
 11
8.09017
 21
44.1221
  0
LINE
  8
0
 10
8.09017
 20
44.1221
 11
6.69131
 21
42.5686
  0
LINE
  8
0
 10
6.69131
 20
42.5686
 11
5
 21
41.3397
  0
LINE
  8
0
 10
5
 20
41.3397
 11
3.09017
 21
40.4894
  0
LINE
  8
0
 10
3.09017
 20
40.4894
 11
1.04528
 21
40.0548
  0
LINE
  8
0
 10
1.04528
 20
40.0548
 11
-1.04528
 21
40.0548
  0
LINE
  8
0
 10
-1.04528
 20
40.0548
 11
-3.09017
 21
40.4894
  0
LINE
  8
0
 10
-3.09017
 20
40.4894
 11
-5
 21
41.3397
  0
LINE
  8
0
 10
-5
 20
41.3397
 11
-6.69131
 21
42.5686
  0
LINE
  8
0
 10
-6.69131
 20
42.5686
 11
-8.09017
 21
44.1221
  0
LINE
  8
0
 10
-8.09017
 20
44.1221
 11
-9.13545
 21
45.9326
  0
LINE
  8
0
 10
-9.13545
 20
45.9326
 11
-9.78148
 21
47.9209
  0
LINE
  8
0
 10
-9.78148
 20
47.9209
 11
-10
 21
50
  0
LINE
  8
0
 10
-10
 20
50
 11
-9.78148
 21
52.0791
  0
LINE
  8
0
 10
-9.78148
 20
52.0791
 11
-9.13545
 21
54.0674
  0
LINE
  8
0
 10
-9.13545
 20
54.0674
 11
-8.09017
 21
55.8779
  0
LINE
  8
0
 10
-8.09017
 20
55.8779
 11
-6.69131
 21
57.4314
  0
LINE
  8
0
 10
-6.69131
 20
57.4314
 11
-5
 21
58.6603
  0
LINE
  8
0
 10
-5
 20
58.6603
 11
-3.09017
 21
59.5106
  0
LINE
  8
0
 10
-3.09017
 20
59.5106
 11
-1.04528
 21
59.9452
  0
LINE
  8
0
 10
-1.04528
 20
59.9452
 11
0
 21
59.9452
  0
LINE
  8
0
 10
0
 20
59.9452
 11
0
 21
64.6692
  0
LINE
  8
0
 10
0
 20
64.6692
 11
-1.54179
 21
64.6692
  0
LINE
  8
0
 10
-1.54179
 20
64.6692
 11
-4.558
 21
64.0281
  0
LINE
  8
0
 10
-4.558
 20
64.0281
 11
-7.375
 21
62.7739
  0
LINE
  8
0
 10
-7.375
 20
62.7739
 11
-9.86968
 21
60.9614
  0
LINE
  8
0
 10
-9.86968
 20
60.9614
 11
-11.933
 21
58.6698
  0
LINE
  8
0
 10
-11.933
 20
58.6698
 11
-13.4748
 21
55.9994
  0
LINE
  8
0
 10
-13.4748
 20
55.9994
 11
-14.4277
 21
53.0667
  0
LINE
  8
0
 10
-14.4277
 20
53.0667
 11
-14.75
 21
50
  0
LINE
  8
0
 10
-14.75
 20
80
 11
-14.4277
 21
76.9333
  0
LINE
  8
0
 10
-14.4277
 20
76.9333
 11
-13.4748
 21
74.0006
  0
LINE
  8
0
 10
-13.4748
 20
74.0006
 11
-11.933
 21
71.3302
  0
LINE
  8
0
 10
-11.933
 20
71.3302
 11
-9.86968
 21
69.0386
  0
LINE
  8
0
 10
-9.86968
 20
69.0386
 11
-7.375
 21
67.2261
  0
LINE
  8
0
 10
-7.375
 20
67.2261
 11
-4.558
 21
65.9719
  0
LINE
  8
0
 10
-4.558
 20
65.9719
 11
-1.54179
 21
65.3308
  0
LINE
  8
0
 10
-1.54179
 20
65.3308
 11
1.54179
 21
65.3308
  0
LINE
  8
0
 10
1.54179
 20
65.3308
 11
4.558
 21
65.9719
  0
LINE
  8
0
 10
4.558
 20
65.9719
 11
7.375
 21
67.2261
  0
LINE
  8
0
 10
7.375
 20
67.2261
 11
9.86968
 21
69.0386
  0
LINE
  8
0
 10
9.86968
 20
69.0386
 11
11.933
 21
71.3302
  0
LINE
  8
0
 10
11.933
 20
71.3302
 11
13.4748
 21
74.0006
  0
LINE
  8
0
 10
13.4748
 20
74.0006
 11
14.4277
 21
76.9333
  0
LINE
  8
0
 10
14.4277
 20
76.9333
 11
14.75
 21
80
  0
LINE
  8
0
 10
14.75
 20
80
 11
14.4277
 21
83.0667
  0
LINE
  8
0
 10
14.4277
 20
83.0667
 11
13.4748
 21
85.9994
  0
LINE
  8
0
 10
13.4748
 20
85.9994
 11
11.933
 21
88.6698
  0
LINE
  8
0
 10
11.933
 20
88.6698
 11
9.86968
 21
90.9614
  0
LINE
  8
0
 10
9.86968
 20
90.9614
 11
7.375
 21
92.7739
  0
LINE
  8
0
 10
7.375
 20
92.7739
 11
4.558
 21
94.0281
  0
LINE
  8
0
 10
4.558
 20
94.0281
 11
1.54179
 21
94.6692
  0
LINE
  8
0
 10
1.54179
 20
94.6692
 11
-1.54179
 21
94.6692
  0
LINE
  8
0
 10
-1.54179
 20
94.6692
 11
-4.558
 21
94.0281
  0
LINE
  8
0
 10
-4.558
 20
94.0281
 11
-7.375
 21
92.7739
  0
LINE
  8
0
 10
-7.375
 20
92.7739
 11
-9.86968
 21
90.9614
  0
LINE
  8
0
 10
-9.86968
 20
90.9614
 11
-11.933
 21
88.6698
  0
LINE
  8
0
 10
-11.933
 20
88.6698
 11
-13.4748
 21
85.9994
  0
LINE
  8
0
 10
-13.4748
 20
85.9994
 11
-14.4277
 21
83.0667
  0
LINE
  8
0
 10
-14.4277
 20
83.0667
 11
-14.75
 21
80
  0
LINE
  8
0
 10
-10
 20
80
 11
-9.78148
 21
82.0791
  0
LINE
  8
0
 10
-9.78148
 20
82.0791
 11
-9.13545
 21
84.0674
  0
LINE
  8
0
 10
-9.13545
 20
84.0674
 11
-8.09017
 21
85.8779
  0
LINE
  8
0
 10
-8.09017
 20
85.8779
 11
-6.69131
 21
87.4314
  0
LINE
  8
0
 10
-6.69131
 20
87.4314
 11
-5
 21
88.6603
  0
LINE
  8
0
 10
-5
 20
88.6603
 11
-3.09017
 21
89.5106
  0
LINE
  8
0
 10
-3.09017
 20
89.5106
 11
-1.04528
 21
89.9452
  0
LINE
  8
0
 10
-1.04528
 20
89.9452
 11
1.04528
 21
89.9452
  0
LINE
  8
0
 10
1.04528
 20
89.9452
 11
3.09017
 21
89.5106
  0
LINE
  8
0
 10
3.09017
 20
89.5106
 11
5
 21
88.6603
  0
LINE
  8
0
 10
5
 20
88.6603
 11
6.69131
 21
87.4314
  0
LINE
  8
0
 10
6.69131
 20
87.4314
 11
8.09017
 21
85.8779
  0
LINE
  8
0
 10
8.09017
 20
85.8779
 11
9.13545
 21
84.0674
  0
LINE
  8
0
 10
9.13545
 20
84.0674
 11
9.78148
 21
82.0791
  0
LINE
  8
0
 10
9.78148
 20
82.0791
 11
10
 21
80
  0
LINE
  8
0
 10
10
 20
80
 11
9.78148
 21
77.9209
  0
LINE
  8
0
 10
9.78148
 20
77.9209
 11
9.13545
 21
75.9326
  0
LINE
  8
0
 10
9.13545
 20
75.9326
 11
8.09017
 21
74.1221
  0
LINE
  8
0
 10
8.09017
 20
74.1221
 11
6.69131
 21
72.5686
  0
LINE
  8
0
 10
6.69131
 20
72.5686
 11
5
 21
71.3397
  0
LINE
  8
0
 10
5
 20
71.3397
 11
3.09017
 21
70.4894
  0
LINE
  8
0
 10
3.09017
 20
70.4894
 11
1.04528
 21
70.0548
  0
LINE
  8
0
 10
1.04528
 20
70.0548
 11
-1.04528
 21
70.0548
  0
LINE
  8
0
 10
-1.04528
 20
70.0548
 11
-3.09017
 21
70.4894
  0
LINE
  8
0
 10
-3.09017
 20
70.4894
 11
-5
 21
71.3397
  0
LINE
  8
0
 10
-5
 20
71.3397
 11
-6.69131
 21
72.5686
  0
LINE
  8
0
 10
-6.69131
 20
72.5686
 11
-8.09017
 21
74.1221
  0
LINE
  8
0
 10
-8.09017
 20
74.1221
 11
-9.13545
 21
75.9326
  0
LINE
  8
0
 10
-9.13545
 20
75.9326
 11
-9.78148
 21
77.9209
  0
LINE
  8
0
 10
-9.78148
 20
77.9209
 11
-10
 21
80
  0
LINE
  8
0
 10
-14.75
 20
110
 11
-14.4277
 21
106.933
  0
LINE
  8
0
 10
-14.4277
 20
106.933
 11
-13.4748
 21
104.001
  0
LINE
  8
0
 10
-13.4748
 20
104.001
 11
-11.933
 21
101.33
  0
LINE
  8
0
 10
-11.933
 20
101.33
 11
-9.86968
 21
99.0386
  0
LINE
  8
0
 10
-9.86968
 20
99.0386
 11
-7.375
 21
97.2261
  0
LINE
  8
0
 10
-7.375
 20
97.2261
 11
-4.558
 21
95.9719
  0
LINE
  8
0
 10
-4.558
 20
95.9719
 11
-1.54179
 21
95.3308
  0
LINE
  8
0
 10
-1.54179
 20
95.3308
 11
1.54179
 21
95.3308
  0
LINE
  8
0
 10
1.54179
 20
95.3308
 11
4.558
 21
95.9719
  0
LINE
  8
0
 10
4.558
 20
95.9719
 11
7.375
 21
97.2261
  0
LINE
  8
0
 10
7.375
 20
97.2261
 11
9.86968
 21
99.0386
  0
LINE
  8
0
 10
9.86968
 20
99.0386
 11
11.933
 21
101.33
  0
LINE
  8
0
 10
11.933
 20
101.33
 11
13.4748
 21
104.001
  0
LINE
  8
0
 10
13.4748
 20
104.001
 11
14.4277
 21
106.933
  0
LINE
  8
0
 10
14.4277
 20
106.933
 11
14.75
 21
110
  0
LINE
  8
0
 10
14.75
 20
110
 11
10
 21
110
  0
LINE
  8
0
 10
10
 20
110
 11
9.78148
 21
107.921
  0
LINE
  8
0
 10
9.78148
 20
107.921
 11
9.13545
 21
105.933
  0
LINE
  8
0
 10
9.13545
 20
105.933
 11
8.09017
 21
104.122
  0
LINE
  8
0
 10
8.09017
 20
104.122
 11
6.69131
 21
102.569
  0
LINE
  8
0
 10
6.69131
 20
102.569
 11
5
 21
101.34
  0
LINE
  8
0
 10
5
 20
101.34
 11
3.09017
 21
100.489
  0
LINE
  8
0
 10
3.09017
 20
100.489
 11
1.04528
 21
100.055
  0
LINE
  8
0
 10
1.04528
 20
100.055
 11
-1.04528
 21
100.055
  0
LINE
  8
0
 10
-1.04528
 20
100.055
 11
-3.09017
 21
100.489
  0
LINE
  8
0
 10
-3.09017
 20
100.489
 11
-5
 21
101.34
  0
LINE
  8
0
 10
-5
 20
101.34
 11
-6.69131
 21
102.569
  0
LINE
  8
0
 10
-6.69131
 20
102.569
 11
-8.09017
 21
104.122
  0
LINE
  8
0
 10
-8.09017
 20
104.122
 11
-9.13545
 21
105.933
  0
LINE
  8
0
 10
-9.13545
 20
105.933
 11
-9.78148
 21
107.921
  0
LINE
  8
0
 10
-9.78148
 20
107.921
 11
-10
 21
110
  0
LINE
  8
0
 10
-10
 20
110
 11
-9.78148
 21
112.079
  0
LINE
  8
0
 10
-9.78148
 20
112.079
 11
-9.13545
 21
114.067
  0
LINE
  8
0
 10
-9.13545
 20
114.067
 11
-8.09017
 21
115.878
  0
LINE
  8
0
 10
-8.09017
 20
115.878
 11
-6.69131
 21
117.431
  0
LINE
  8
0
 10
-6.69131
 20
117.431
 11
-5
 21
118.66
  0
LINE
  8
0
 10
-5
 20
118.66
 11
-3.09017
 21
119.511
  0
LINE
  8
0
 10
-3.09017
 20
119.511
 11
-1.04528
 21
119.945
  0
LINE
  8
0
 10
-1.04528
 20
119.945
 11
0
 21
119.945
  0
LINE
  8
0
 10
0
 20
119.945
 11
0
 21
124.669
  0
LINE
  8
0
 10
0
 20
124.669
 11
-1.54179
 21
124.669
  0
LINE
  8
0
 10
-1.54179
 20
124.669
 11
-4.558
 21
124.028
  0
LINE
  8
0
 10
-4.558
 20
124.028
 11
-7.375
 21
122.774
  0
LINE
  8
0
 10
-7.375
 20
122.774
 11
-9.86968
 21
120.961
  0
LINE
  8
0
 10
-9.86968
 20
120.961
 11
-11.933
 21
118.67
  0
LINE
  8
0
 10
-11.933
 20
118.67
 11
-13.4748
 21
115.999
  0
LINE
  8
0
 10
-13.4748
 20
115.999
 11
-14.4277
 21
113.067
  0
LINE
  8
0
 10
-14.4277
 20
113.067
 11
-14.75
 21
110
  0
LINE
  8
0
 10
20.25
 20
20
 11
20.5723
 21
16.9333
  0
LINE
  8
0
 10
20.5723
 20
16.9333
 11
21.5252
 21
14.0006
  0
LINE
  8
0
 10
21.5252
 20
14.0006
 11
23.067
 21
11.3302
  0
LINE
  8
0
 10
23.067
 20
11.3302
 11
25.1303
 21
9.03861
  0
LINE
  8
0
 10
25.1303
 20
9.03861
 11
27.625
 21
7.22613
  0
LINE
  8
0
 10
27.625
 20
7.22613
 11
30.442
 21
5.97192
  0
LINE
  8
0
 10
30.442
 20
5.97192
 11
33.4582
 21
5.3308
  0
LINE
  8
0
 10
33.4582
 20
5.3308
 11
36.5418
 21
5.3308
  0
LINE
  8
0
 10
36.5418
 20
5.3308
 11
39.558
 21
5.97192
  0
LINE
  8
0
 10
39.558
 20
5.97192
 11
42.375
 21
7.22613
  0
LINE
  8
0
 10
42.375
 20
7.22613
 11
44.8697
 21
9.03861
  0
LINE
  8
0
 10
44.8697
 20
9.03861
 11
46.933
 21
11.3302
  0
LINE
  8
0
 10
46.933
 20
11.3302
 11
48.4748
 21
14.0006
  0
LINE
  8
0
 10
48.4748
 20
14.0006
 11
49.4277
 21
16.9333
  0
LINE
  8
0
 10
49.4277
 20
16.9333
 11
49.75
 21
20
  0
LINE
  8
0
 10
49.75
 20
20
 11
49.4277
 21
23.0667
  0
LINE
  8
0
 10
49.4277
 20
23.0667
 11
48.4748
 21
25.9994
  0
LINE
  8
0
 10
48.4748
 20
25.9994
 11
46.933
 21
28.6698
  0
LINE
  8
0
 10
46.933
 20
28.6698
 11
44.8697
 21
30.9614
  0
LINE
  8
0
 10
44.8697
 20
30.9614
 11
42.375
 21
32.7739
  0
LINE
  8
0
 10
42.375
 20
32.7739
 11
39.558
 21
34.0281
  0
LINE
  8
0
 10
39.558
 20
34.0281
 11
36.5418
 21
34.6692
  0
LINE
  8
0
 10
36.5418
 20
34.6692
 11
33.4582
 21
34.6692
  0
LINE
  8
0
 10
33.4582
 20
34.6692
 11
30.442
 21
34.0281
  0
LINE
  8
0
 10
30.442
 20
34.0281
 11
27.625
 21
32.7739
  0
LINE
  8
0
 10
27.625
 20
32.7739
 11
25.1303
 21
30.9614
  0
LINE
  8
0
 10
25.1303
 20
30.9614
 11
23.067
 21
28.6698
  0
LINE
  8
0
 10
23.067
 20
28.6698
 11
21.5252
 21
25.9994
  0
LINE
  8
0
 10
21.5252
 20
25.9994
 11
20.5723
 21
23.0667
  0
LINE
  8
0
 10
20.5723
 20
23.0667
 11
20.25
 21
20
  0
LINE
  8
0
 10
25
 20
20
 11
25.2185
 21
22.0791
  0
LINE
  8
0
 10
25.2185
 20
22.0791
 11
25.8645
 21
24.0674
  0
LINE
  8
0
 10
25.8645
 20
24.0674
 11
26.9098
 21
25.8779
  0
LINE
  8
0
 10
26.9098
 20
25.8779
 11
28.3087
 21
27.4314
  0
LINE
  8
0
 10
28.3087
 20
27.4314
 11
30
 21
28.6603
  0
LINE
  8
0
 10
30
 20
28.6603
 11
31.9098
 21
29.5106
  0
LINE
  8
0
 10
31.9098
 20
29.5106
 11
33.9547
 21
29.9452
  0
LINE
  8
0
 10
33.9547
 20
29.9452
 11
36.0453
 21
29.9452
  0
LINE
  8
0
 10
36.0453
 20
29.9452
 11
38.0902
 21
29.5106
  0
LINE
  8
0
 10
38.0902
 20
29.5106
 11
40
 21
28.6603
  0
LINE
  8
0
 10
40
 20
28.6603
 11
41.6913
 21
27.4314
  0
LINE
  8
0
 10
41.6913
 20
27.4314
 11
43.0902
 21
25.8779
  0
LINE
  8
0
 10
43.0902
 20
25.8779
 11
44.1355
 21
24.0674
  0
LINE
  8
0
 10
44.1355
 20
24.0674
 11
44.7815
 21
22.0791
  0
LINE
  8
0
 10
44.7815
 20
22.0791
 11
45
 21
20
  0
LINE
  8
0
 10
45
 20
20
 11
44.7815
 21
17.9209
  0
LINE
  8
0
 10
44.7815
 20
17.9209
 11
44.1355
 21
15.9326
  0
LINE
  8
0
 10
44.1355
 20
15.9326
 11
43.0902
 21
14.1221
  0
LINE
  8
0
 10
43.0902
 20
14.1221
 11
41.6913
 21
12.5686
  0
LINE
  8
0
 10
41.6913
 20
12.5686
 11
40
 21
11.3397
  0
LINE
  8
0
 10
40
 20
11.3397
 11
38.0902
 21
10.4894
  0
LINE
  8
0
 10
38.0902
 20
10.4894
 11
36.0453
 21
10.0548
  0
LINE
  8
0
 10
36.0453
 20
10.0548
 11
33.9547
 21
10.0548
  0
LINE
  8
0
 10
33.9547
 20
10.0548
 11
31.9098
 21
10.4894
  0
LINE
  8
0
 10
31.9098
 20
10.4894
 11
30
 21
11.3397
  0
LINE
  8
0
 10
30
 20
11.3397
 11
28.3087
 21
12.5686
  0
LINE
  8
0
 10
28.3087
 20
12.5686
 11
26.9098
 21
14.1221
  0
LINE
  8
0
 10
26.9098
 20
14.1221
 11
25.8645
 21
15.9326
  0
LINE
  8
0
 10
25.8645
 20
15.9326
 11
25.2185
 21
17.9209
  0
LINE
  8
0
 10
25.2185
 20
17.9209
 11
25
 21
20
  0
LINE
  8
0
 10
20.25
 20
50
 11
20.5723
 21
46.9333
  0
LINE
  8
0
 10
20.5723
 20
46.9333
 11
21.5252
 21
44.0006
  0
LINE
  8
0
 10
21.5252
 20
44.0006
 11
23.067
 21
41.3302
  0
LINE
  8
0
 10
23.067
 20
41.3302
 11
25.1303
 21
39.0386
  0
LINE
  8
0
 10
25.1303
 20
39.0386
 11
27.625
 21
37.2261
  0
LINE
  8
0
 10
27.625
 20
37.2261
 11
30.442
 21
35.9719
  0
LINE
  8
0
 10
30.442
 20
35.9719
 11
33.4582
 21
35.3308
  0
LINE
  8
0
 10
33.4582
 20
35.3308
 11
36.5418
 21
35.3308
  0
LINE
  8
0
 10
36.5418
 20
35.3308
 11
39.558
 21
35.9719
  0
LINE
  8
0
 10
39.558
 20
35.9719
 11
42.375
 21
37.2261
  0
LINE
  8
0
 10
42.375
 20
37.2261
 11
44.8697
 21
39.0386
  0
LINE
  8
0
 10
44.8697
 20
39.0386
 11
46.933
 21
41.3302
  0
LINE
  8
0
 10
46.933
 20
41.3302
 11
48.4748
 21
44.0006
  0
LINE
  8
0
 10
48.4748
 20
44.0006
 11
49.4277
 21
46.9333
  0
LINE
  8
0
 10
49.4277
 20
46.9333
 11
49.75
 21
50
  0
LINE
  8
0
 10
49.75
 20
50
 11
45
 21
50
  0
LINE
  8
0
 10
45
 20
50
 11
44.7815
 21
47.9209
  0
LINE
  8
0
 10
44.7815
 20
47.9209
 11
44.1355
 21
45.9326
  0
LINE
  8
0
 10
44.1355
 20
45.9326
 11
43.0902
 21
44.1221
  0
LINE
  8
0
 10
43.0902
 20
44.1221
 11
41.6913
 21
42.5686
  0
LINE
  8
0
 10
41.6913
 20
42.5686
 11
40
 21
41.3397
  0
LINE
  8
0
 10
40
 20
41.3397
 11
38.0902
 21
40.4894
  0
LINE
  8
0
 10
38.0902
 20
40.4894
 11
36.0453
 21
40.0548
  0
LINE
  8
0
 10
36.0453
 20
40.0548
 11
33.9547
 21
40.0548
  0
LINE
  8
0
 10
33.9547
 20
40.0548
 11
31.9098
 21
40.4894
  0
LINE
  8
0
 10
31.9098
 20
40.4894
 11
30
 21
41.3397
  0
LINE
  8
0
 10
30
 20
41.3397
 11
28.3087
 21
42.5686
  0
LINE
  8
0
 10
28.3087
 20
42.5686
 11
26.9098
 21
44.1221
  0
LINE
  8
0
 10
26.9098
 20
44.1221
 11
25.8645
 21
45.9326
  0
LINE
  8
0
 10
25.8645
 20
45.9326
 11
25.2185
 21
47.9209
  0
LINE
  8
0
 10
25.2185
 20
47.9209
 11
25
 21
50
  0
LINE
  8
0
 10
25
 20
50
 11
25.2185
 21
52.0791
  0
LINE
  8
0
 10
25.2185
 20
52.0791
 11
25.8645
 21
54.0674
  0
LINE
  8
0
 10
25.8645
 20
54.0674
 11
26.9098
 21
55.8779
  0
LINE
  8
0
 10
26.9098
 20
55.8779
 11
28.3087
 21
57.4314
  0
LINE
  8
0
 10
28.3087
 20
57.4314
 11
30
 21
58.6603
  0
LINE
  8
0
 10
30
 20
58.6603
 11
31.9098
 21
59.5106
  0
LINE
  8
0
 10
31.9098
 20
59.5106
 11
33.9547
 21
59.9452
  0
LINE
  8
0
 10
33.9547
 20
59.9452
 11
35
 21
59.9452
  0
LINE
  8
0
 10
35
 20
59.9452
 11
35
 21
64.6692
  0
LINE
  8
0
 10
35
 20
64.6692
 11
33.4582
 21
64.6692
  0
LINE
  8
0
 10
33.4582
 20
64.6692
 11
30.442
 21
64.0281
  0
LINE
  8
0
 10
30.442
 20
64.0281
 11
27.625
 21
62.7739
  0
LINE
  8
0
 10
27.625
 20
62.7739
 11
25.1303
 21
60.9614
  0
LINE
  8
0
 10
25.1303
 20
60.9614
 11
23.067
 21
58.6698
  0
LINE
  8
0
 10
23.067
 20
58.6698
 11
21.5252
 21
55.9994
  0
LINE
  8
0
 10
21.5252
 20
55.9994
 11
20.5723
 21
53.0667
  0
LINE
  8
0
 10
20.5723
 20
53.0667
 11
20.25
 21
50
  0
LINE
  8
0
 10
20.25
 20
80
 11
20.5723
 21
76.9333
  0
LINE
  8
0
 10
20.5723
 20
76.9333
 11
21.5252
 21
74.0006
  0
LINE
  8
0
 10
21.5252
 20
74.0006
 11
23.067
 21
71.3302
  0
LINE
  8
0
 10
23.067
 20
71.3302
 11
25.1303
 21
69.0386
  0
LINE
  8
0
 10
25.1303
 20
69.0386
 11
27.625
 21
67.2261
  0
LINE
  8
0
 10
27.625
 20
67.2261
 11
30.442
 21
65.9719
  0
LINE
  8
0
 10
30.442
 20
65.9719
 11
33.4582
 21
65.3308
  0
LINE
  8
0
 10
33.4582
 20
65.3308
 11
36.5418
 21
65.3308
  0
LINE
  8
0
 10
36.5418
 20
65.3308
 11
39.558
 21
65.9719
  0
LINE
  8
0
 10
39.558
 20
65.9719
 11
42.375
 21
67.2261
  0
LINE
  8
0
 10
42.375
 20
67.2261
 11
44.8697
 21
69.0386
  0
LINE
  8
0
 10
44.8697
 20
69.0386
 11
46.933
 21
71.3302
  0
LINE
  8
0
 10
46.933
 20
71.3302
 11
48.4748
 21
74.0006
  0
LINE
  8
0
 10
48.4748
 20
74.0006
 11
49.4277
 21
76.9333
  0
LINE
  8
0
 10
49.4277
 20
76.9333
 11
49.75
 21
80
  0
LINE
  8
0
 10
49.75
 20
80
 11
49.4277
 21
83.0667
  0
LINE
  8
0
 10
49.4277
 20
83.0667
 11
48.4748
 21
85.9994
  0
LINE
  8
0
 10
48.4748
 20
85.9994
 11
46.933
 21
88.6698
  0
LINE
  8
0
 10
46.933
 20
88.6698
 11
44.8697
 21
90.9614
  0
LINE
  8
0
 10
44.8697
 20
90.9614
 11
42.375
 21
92.7739
  0
LINE
  8
0
 10
42.375
 20
92.7739
 11
39.558
 21
94.0281
  0
LINE
  8
0
 10
39.558
 20
94.0281
 11
36.5418
 21
94.6692
  0
LINE
  8
0
 10
36.5418
 20
94.6692
 11
33.4582
 21
94.6692
  0
LINE
  8
0
 10
33.4582
 20
94.6692
 11
30.442
 21
94.0281
  0
LINE
  8
0
 10
30.442
 20
94.0281
 11
27.625
 21
92.7739
  0
LINE
  8
0
 10
27.625
 20
92.7739
 11
25.1303
 21
90.9614
  0
LINE
  8
0
 10
25.1303
 20
90.9614
 11
23.067
 21
88.6698
  0
LINE
  8
0
 10
23.067
 20
88.6698
 11
21.5252
 21
85.9994
  0
LINE
  8
0
 10
21.5252
 20
85.9994
 11
20.5723
 21
83.0667
  0
LINE
  8
0
 10
20.5723
 20
83.0667
 11
20.25
 21
80
  0
LINE
  8
0
 10
25
 20
80
 11
25.2185
 21
82.0791
  0
LINE
  8
0
 10
25.2185
 20
82.0791
 11
25.8645
 21
84.0674
  0
LINE
  8
0
 10
25.8645
 20
84.0674
 11
26.9098
 21
85.8779
  0
LINE
  8
0
 10
26.9098
 20
85.8779
 11
28.3087
 21
87.4314
  0
LINE
  8
0
 10
28.3087
 20
87.4314
 11
30
 21
88.6603
  0
LINE
  8
0
 10
30
 20
88.6603
 11
31.9098
 21
89.5106
  0
LINE
  8
0
 10
31.9098
 20
89.5106
 11
33.9547
 21
89.9452
  0
LINE
  8
0
 10
33.9547
 20
89.9452
 11
36.0453
 21
89.9452
  0
LINE
  8
0
 10
36.0453
 20
89.9452
 11
38.0902
 21
89.5106
  0
LINE
  8
0
 10
38.0902
 20
89.5106
 11
40
 21
88.6603
  0
LINE
  8
0
 10
40
 20
88.6603
 11
41.6913
 21
87.4314
  0
LINE
  8
0
 10
41.6913
 20
87.4314
 11
43.0902
 21
85.8779
  0
LINE
  8
0
 10
43.0902
 20
85.8779
 11
44.1355
 21
84.0674
  0
LINE
  8
0
 10
44.1355
 20
84.0674
 11
44.7815
 21
82.0791
  0
LINE
  8
0
 10
44.7815
 20
82.0791
 11
45
 21
80
  0
LINE
  8
0
 10
45
 20
80
 11
44.7815
 21
77.9209
  0
LINE
  8
0
 10
44.7815
 20
77.9209
 11
44.1355
 21
75.9326
  0
LINE
  8
0
 10
44.1355
 20
75.9326
 11
43.0902
 21
74.1221
  0
LINE
  8
0
 10
43.0902
 20
74.1221
 11
41.6913
 21
72.5686
  0
LINE
  8
0
 10
41.6913
 20
72.5686
 11
40
 21
71.3397
  0
LINE
  8
0
 10
40
 20
71.3397
 11
38.0902
 21
70.4894
  0
LINE
  8
0
 10
38.0902
 20
70.4894
 11
36.0453
 21
70.0548
  0
LINE
  8
0
 10
36.0453
 20
70.0548
 11
33.9547
 21
70.0548
  0
LINE
  8
0
 10
33.9547
 20
70.0548
 11
31.9098
 21
70.4894
  0
LINE
  8
0
 10
31.9098
 20
70.4894
 11
30
 21
71.3397
  0
LINE
  8
0
 10
30
 20
71.3397
 11
28.3087
 21
72.5686
  0
LINE
  8
0
 10
28.3087
 20
72.5686
 11
26.9098
 21
74.1221
  0
LINE
  8
0
 10
26.9098
 20
74.1221
 11
25.8645
 21
75.9326
  0
LINE
  8
0
 10
25.8645
 20
75.9326
 11
25.2185
 21
77.9209
  0
LINE
  8
0
 10
25.2185
 20
77.9209
 11
25
 21
80
  0
LINE
  8
0
 10
20.25
 20
110
 11
20.5723
 21
106.933
  0
LINE
  8
0
 10
20.5723
 20
106.933
 11
21.5252
 21
104.001
  0
LINE
  8
0
 10
21.5252
 20
104.001
 11
23.067
 21
101.33
  0
LINE
  8
0
 10
23.067
 20
101.33
 11
25.1303
 21
99.0386
  0
LINE
  8
0
 10
25.1303
 20
99.0386
 11
27.625
 21
97.2261
  0
LINE
  8
0
 10
27.625
 20
97.2261
 11
30.442
 21
95.9719
  0
LINE
  8
0
 10
30.442
 20
95.9719
 11
33.4582
 21
95.3308
  0
LINE
  8
0
 10
33.4582
 20
95.3308
 11
36.5418
 21
95.3308
  0
LINE
  8
0
 10
36.5418
 20
95.3308
 11
39.558
 21
95.9719
  0
LINE
  8
0
 10
39.558
 20
95.9719
 11
42.375
 21
97.2261
  0
LINE
  8
0
 10
42.375
 20
97.2261
 11
44.8697
 21
99.0386
  0
LINE
  8
0
 10
44.8697
 20
99.0386
 11
46.933
 21
101.33
  0
LINE
  8
0
 10
46.933
 20
101.33
 11
48.4748
 21
104.001
  0
LINE
  8
0
 10
48.4748
 20
104.001
 11
49.4277
 21
106.933
  0
LINE
  8
0
 10
49.4277
 20
106.933
 11
49.75
 21
110
  0
LINE
  8
0
 10
49.75
 20
110
 11
45
 21
110
  0
LINE
  8
0
 10
45
 20
110
 11
44.7815
 21
107.921
  0
LINE
  8
0
 10
44.7815
 20
107.921
 11
44.1355
 21
105.933
  0
LINE
  8
0
 10
44.1355
 20
105.933
 11
43.0902
 21
104.122
  0
LINE
  8
0
 10
43.0902
 20
104.122
 11
41.6913
 21
102.569
  0
LINE
  8
0
 10
41.6913
 20
102.569
 11
40
 21
101.34
  0
LINE
  8
0
 10
40
 20
101.34
 11
38.0902
 21
100.489
  0
LINE
  8
0
 10
38.0902
 20
100.489
 11
36.0453
 21
100.055
  0
LINE
  8
0
 10
36.0453
 20
100.055
 11
33.9547
 21
100.055
  0
LINE
  8
0
 10
33.9547
 20
100.055
 11
31.9098
 21
100.489
  0
LINE
  8
0
 10
31.9098
 20
100.489
 11
30
 21
101.34
  0
LINE
  8
0
 10
30
 20
101.34
 11
28.3087
 21
102.569
  0
LINE
  8
0
 10
28.3087
 20
102.569
 11
26.9098
 21
104.122
  0
LINE
  8
0
 10
26.9098
 20
104.122
 11
25.8645
 21
105.933
  0
LINE
  8
0
 10
25.8645
 20
105.933
 11
25.2185
 21
107.921
  0
LINE
  8
0
 10
25.2185
 20
107.921
 11
25
 21
110
  0
LINE
  8
0
 10
25
 20
110
 11
25.2185
 21
112.079
  0
LINE
  8
0
 10
25.2185
 20
112.079
 11
25.8645
 21
114.067
  0
LINE
  8
0
 10
25.8645
 20
114.067
 11
26.9098
 21
115.878
  0
LINE
  8
0
 10
26.9098
 20
115.878
 11
28.3087
 21
117.431
  0
LINE
  8
0
 10
28.3087
 20
117.431
 11
30
 21
118.66
  0
LINE
  8
0
 10
30
 20
118.66
 11
31.9098
 21
119.511
  0
LINE
  8
0
 10
31.9098
 20
119.511
 11
33.9547
 21
119.945
  0
LINE
  8
0
 10
33.9547
 20
119.945
 11
35
 21
119.945
  0
LINE
  8
0
 10
35
 20
119.945
 11
35
 21
124.669
  0
LINE
  8
0
 10
35
 20
124.669
 11
33.4582
 21
124.669
  0
LINE
  8
0
 10
33.4582
 20
124.669
 11
30.442
 21
124.028
  0
LINE
  8
0
 10
30.442
 20
124.028
 11
27.625
 21
122.774
  0
LINE
  8
0
 10
27.625
 20
122.774
 11
25.1303
 21
120.961
  0
LINE
  8
0
 10
25.1303
 20
120.961
 11
23.067
 21
118.67
  0
LINE
  8
0
 10
23.067
 20
118.67
 11
21.5252
 21
115.999
  0
LINE
  8
0
 10
21.5252
 20
115.999
 11
20.5723
 21
113.067
  0
LINE
  8
0
 10
20.5723
 20
113.067
 11
20.25
 21
110
  0
LINE
  8
0
 10
55.25
 20
20
 11
55.5723
 21
16.9333
  0
LINE
  8
0
 10
55.5723
 20
16.9333
 11
56.5252
 21
14.0006
  0
LINE
  8
0
 10
56.5252
 20
14.0006
 11
58.067
 21
11.3302
  0
LINE
  8
0
 10
58.067
 20
11.3302
 11
60.1303
 21
9.03861
  0
LINE
  8
0
 10
60.1303
 20
9.03861
 11
62.625
 21
7.22613
  0
LINE
  8
0
 10
62.625
 20
7.22613
 11
65.442
 21
5.97192
  0
LINE
  8
0
 10
65.442
 20
5.97192
 11
68.4582
 21
5.3308
  0
LINE
  8
0
 10
68.4582
 20
5.3308
 11
71.5418
 21
5.3308
  0
LINE
  8
0
 10
71.5418
 20
5.3308
 11
74.558
 21
5.97192
  0
LINE
  8
0
 10
74.558
 20
5.97192
 11
77.375
 21
7.22613
  0
LINE
  8
0
 10
77.375
 20
7.22613
 11
79.8697
 21
9.03861
  0
LINE
  8
0
 10
79.8697
 20
9.03861
 11
81.933
 21
11.3302
  0
LINE
  8
0
 10
81.933
 20
11.3302
 11
83.4748
 21
14.0006
  0
LINE
  8
0
 10
83.4748
 20
14.0006
 11
84.4277
 21
16.9333
  0
LINE
  8
0
 10
84.4277
 20
16.9333
 11
84.75
 21
20
  0
LINE
  8
0
 10
84.75
 20
20
 11
84.4277
 21
23.0667
  0
LINE
  8
0
 10
84.4277
 20
23.0667
 11
83.4748
 21
25.9994
  0
LINE
  8
0
 10
83.4748
 20
25.9994
 11
81.933
 21
28.6698
  0
LINE
  8
0
 10
81.933
 20
28.6698
 11
79.8697
 21
30.9614
  0
LINE
  8
0
 10
79.8697
 20
30.9614
 11
77.375
 21
32.7739
  0
LINE
  8
0
 10
77.375
 20
32.7739
 11
74.558
 21
34.0281
  0
LINE
  8
0
 10
74.558
 20
34.0281
 11
71.5418
 21
34.6692
  0
LINE
  8
0
 10
71.5418
 20
34.6692
 11
68.4582
 21
34.6692
  0
LINE
  8
0
 10
68.4582
 20
34.6692
 11
65.442
 21
34.0281
  0
LINE
  8
0
 10
65.442
 20
34.0281
 11
62.625
 21
32.7739
  0
LINE
  8
0
 10
62.625
 20
32.7739
 11
60.1303
 21
30.9614
  0
LINE
  8
0
 10
60.1303
 20
30.9614
 11
58.067
 21
28.6698
  0
LINE
  8
0
 10
58.067
 20
28.6698
 11
56.5252
 21
25.9994
  0
LINE
  8
0
 10
56.5252
 20
25.9994
 11
55.5723
 21
23.0667
  0
LINE
  8
0
 10
55.5723
 20
23.0667
 11
55.25
 21
20
  0
LINE
  8
0
 10
60
 20
20
 11
60.2185
 21
22.0791
  0
LINE
  8
0
 10
60.2185
 20
22.0791
 11
60.8645
 21
24.0674
  0
LINE
  8
0
 10
60.8645
 20
24.0674
 11
61.9098
 21
25.8779
  0
LINE
  8
0
 10
61.9098
 20
25.8779
 11
63.3087
 21
27.4314
  0
LINE
  8
0
 10
63.3087
 20
27.4314
 11
65
 21
28.6603
  0
LINE
  8
0
 10
65
 20
28.6603
 11
66.9098
 21
29.5106
  0
LINE
  8
0
 10
66.9098
 20
29.5106
 11
68.9547
 21
29.9452
  0
LINE
  8
0
 10
68.9547
 20
29.9452
 11
71.0453
 21
29.9452
  0
LINE
  8
0
 10
71.0453
 20
29.9452
 11
73.0902
 21
29.5106
  0
LINE
  8
0
 10
73.0902
 20
29.5106
 11
75
 21
28.6603
  0
LINE
  8
0
 10
75
 20
28.6603
 11
76.6913
 21
27.4314
  0
LINE
  8
0
 10
76.6913
 20
27.4314
 11
78.0902
 21
25.8779
  0
LINE
  8
0
 10
78.0902
 20
25.8779
 11
79.1355
 21
24.0674
  0
LINE
  8
0
 10
79.1355
 20
24.0674
 11
79.7815
 21
22.0791
  0
LINE
  8
0
 10
79.7815
 20
22.0791
 11
80
 21
20
  0
LINE
  8
0
 10
80
 20
20
 11
79.7815
 21
17.9209
  0
LINE
  8
0
 10
79.7815
 20
17.9209
 11
79.1355
 21
15.9326
  0
LINE
  8
0
 10
79.1355
 20
15.9326
 11
78.0902
 21
14.1221
  0
LINE
  8
0
 10
78.0902
 20
14.1221
 11
76.6913
 21
12.5686
  0
LINE
  8
0
 10
76.6913
 20
12.5686
 11
75
 21
11.3397
  0
LINE
  8
0
 10
75
 20
11.3397
 11
73.0902
 21
10.4894
  0
LINE
  8
0
 10
73.0902
 20
10.4894
 11
71.0453
 21
10.0548
  0
LINE
  8
0
 10
71.0453
 20
10.0548
 11
68.9547
 21
10.0548
  0
LINE
  8
0
 10
68.9547
 20
10.0548
 11
66.9098
 21
10.4894
  0
LINE
  8
0
 10
66.9098
 20
10.4894
 11
65
 21
11.3397
  0
LINE
  8
0
 10
65
 20
11.3397
 11
63.3087
 21
12.5686
  0
LINE
  8
0
 10
63.3087
 20
12.5686
 11
61.9098
 21
14.1221
  0
LINE
  8
0
 10
61.9098
 20
14.1221
 11
60.8645
 21
15.9326
  0
LINE
  8
0
 10
60.8645
 20
15.9326
 11
60.2185
 21
17.9209
  0
LINE
  8
0
 10
60.2185
 20
17.9209
 11
60
 21
20
  0
LINE
  8
0
 10
55.25
 20
50
 11
55.5723
 21
46.9333
  0
LINE
  8
0
 10
55.5723
 20
46.9333
 11
56.5252
 21
44.0006
  0
LINE
  8
0
 10
56.5252
 20
44.0006
 11
58.067
 21
41.3302
  0
LINE
  8
0
 10
58.067
 20
41.3302
 11
60.1303
 21
39.0386
  0
LINE
  8
0
 10
60.1303
 20
39.0386
 11
62.625
 21
37.2261
  0
LINE
  8
0
 10
62.625
 20
37.2261
 11
65.442
 21
35.9719
  0
LINE
  8
0
 10
65.442
 20
35.9719
 11
68.4582
 21
35.3308
  0
LINE
  8
0
 10
68.4582
 20
35.3308
 11
71.5418
 21
35.3308
  0
LINE
  8
0
 10
71.5418
 20
35.3308
 11
74.558
 21
35.9719
  0
LINE
  8
0
 10
74.558
 20
35.9719
 11
77.375
 21
37.2261
  0
LINE
  8
0
 10
77.375
 20
37.2261
 11
79.8697
 21
39.0386
  0
LINE
  8
0
 10
79.8697
 20
39.0386
 11
81.933
 21
41.3302
  0
LINE
  8
0
 10
81.933
 20
41.3302
 11
83.4748
 21
44.0006
  0
LINE
  8
0
 10
83.4748
 20
44.0006
 11
84.4277
 21
46.9333
  0
LINE
  8
0
 10
84.4277
 20
46.9333
 11
84.75
 21
50
  0
LINE
  8
0
 10
84.75
 20
50
 11
80
 21
50
  0
LINE
  8
0
 10
80
 20
50
 11
79.7815
 21
47.9209
  0
LINE
  8
0
 10
79.7815
 20
47.9209
 11
79.1355
 21
45.9326
  0
LINE
  8
0
 10
79.1355
 20
45.9326
 11
78.0902
 21
44.1221
  0
LINE
  8
0
 10
78.0902
 20
44.1221
 11
76.6913
 21
42.5686
  0
LINE
  8
0
 10
76.6913
 20
42.5686
 11
75
 21
41.3397
  0
LINE
  8
0
 10
75
 20
41.3397
 11
73.0902
 21
40.4894
  0
LINE
  8
0
 10
73.0902
 20
40.4894
 11
71.0453
 21
40.0548
  0
LINE
  8
0
 10
71.0453
 20
40.0548
 11
68.9547
 21
40.0548
  0
LINE
  8
0
 10
68.9547
 20
40.0548
 11
66.9098
 21
40.4894
  0
LINE
  8
0
 10
66.9098
 20
40.4894
 11
65
 21
41.3397
  0
LINE
  8
0
 10
65
 20
41.3397
 11
63.3087
 21
42.5686
  0
LINE
  8
0
 10
63.3087
 20
42.5686
 11
61.9098
 21
44.1221
  0
LINE
  8
0
 10
61.9098
 20
44.1221
 11
60.8645
 21
45.9326
  0
LINE
  8
0
 10
60.8645
 20
45.9326
 11
60.2185
 21
47.9209
  0
LINE
  8
0
 10
60.2185
 20
47.9209
 11
60
 21
50
  0
LINE
  8
0
 10
60
 20
50
 11
60.2185
 21
52.0791
  0
LINE
  8
0
 10
60.2185
 20
52.0791
 11
60.8645
 21
54.0674
  0
LINE
  8
0
 10
60.8645
 20
54.0674
 11
61.9098
 21
55.8779
  0
LINE
  8
0
 10
61.9098
 20
55.8779
 11
63.3087
 21
57.4314
  0
LINE
  8
0
 10
63.3087
 20
57.4314
 11
65
 21
58.6603
  0
LINE
  8
0
 10
65
 20
58.6603
 11
66.9098
 21
59.5106
  0
LINE
  8
0
 10
66.9098
 20
59.5106
 11
68.9547
 21
59.9452
  0
LINE
  8
0
 10
68.9547
 20
59.9452
 11
70
 21
59.9452
  0
LINE
  8
0
 10
70
 20
59.9452
 11
70
 21
64.6692
  0
LINE
  8
0
 10
70
 20
64.6692
 11
68.4582
 21
64.6692
  0
LINE
  8
0
 10
68.4582
 20
64.6692
 11
65.442
 21
64.0281
  0
LINE
  8
0
 10
65.442
 20
64.0281
 11
62.625
 21
62.7739
  0
LINE
  8
0
 10
62.625
 20
62.7739
 11
60.1303
 21
60.9614
  0
LINE
  8
0
 10
60.1303
 20
60.9614
 11
58.067
 21
58.6698
  0
LINE
  8
0
 10
58.067
 20
58.6698
 11
56.5252
 21
55.9994
  0
LINE
  8
0
 10
56.5252
 20
55.9994
 11
55.5723
 21
53.0667
  0
LINE
  8
0
 10
55.5723
 20
53.0667
 11
55.25
 21
50
  0
LINE
  8
0
 10
55.25
 20
80
 11
55.5723
 21
76.9333
  0
LINE
  8
0
 10
55.5723
 20
76.9333
 11
56.5252
 21
74.0006
  0
LINE
  8
0
 10
56.5252
 20
74.0006
 11
58.067
 21
71.3302
  0
LINE
  8
0
 10
58.067
 20
71.3302
 11
60.1303
 21
69.0386
  0
LINE
  8
0
 10
60.1303
 20
69.0386
 11
62.625
 21
67.2261
  0
LINE
  8
0
 10
62.625
 20
67.2261
 11
65.442
 21
65.9719
  0
LINE
  8
0
 10
65.442
 20
65.9719
 11
68.4582
 21
65.3308
  0
LINE
  8
0
 10
68.4582
 20
65.3308
 11
71.5418
 21
65.3308
  0
LINE
  8
0
 10
71.5418
 20
65.3308
 11
74.558
 21
65.9719
  0
LINE
  8
0
 10
74.558
 20
65.9719
 11
77.375
 21
67.2261
  0
LINE
  8
0
 10
77.375
 20
67.2261
 11
79.8697
 21
69.0386
  0
LINE
  8
0
 10
79.8697
 20
69.0386
 11
81.933
 21
71.3302
  0
LINE
  8
0
 10
81.933
 20
71.3302
 11
83.4748
 21
74.0006
  0
LINE
  8
0
 10
83.4748
 20
74.0006
 11
84.4277
 21
76.9333
  0
LINE
  8
0
 10
84.4277
 20
76.9333
 11
84.75
 21
80
  0
LINE
  8
0
 10
84.75
 20
80
 11
84.4277
 21
83.0667
  0
LINE
  8
0
 10
84.4277
 20
83.0667
 11
83.4748
 21
85.9994
  0
LINE
  8
0
 10
83.4748
 20
85.9994
 11
81.933
 21
88.6698
  0
LINE
  8
0
 10
81.933
 20
88.6698
 11
79.8697
 21
90.9614
  0
LINE
  8
0
 10
79.8697
 20
90.9614
 11
77.375
 21
92.7739
  0
LINE
  8
0
 10
77.375
 20
92.7739
 11
74.558
 21
94.0281
  0
LINE
  8
0
 10
74.558
 20
94.0281
 11
71.5418
 21
94.6692
  0
LINE
  8
0
 10
71.5418
 20
94.6692
 11
68.4582
 21
94.6692
  0
LINE
  8
0
 10
68.4582
 20
94.6692
 11
65.442
 21
94.0281
  0
LINE
  8
0
 10
65.442
 20
94.0281
 11
62.625
 21
92.7739
  0
LINE
  8
0
 10
62.625
 20
92.7739
 11
60.1303
 21
90.9614
  0
LINE
  8
0
 10
60.1303
 20
90.9614
 11
58.067
 21
88.6698
  0
LINE
  8
0
 10
58.067
 20
88.6698
 11
56.5252
 21
85.9994
  0
LINE
  8
0
 10
56.5252
 20
85.9994
 11
55.5723
 21
83.0667
  0
LINE
  8
0
 10
55.5723
 20
83.0667
 11
55.25
 21
80
  0
LINE
  8
0
 10
60
 20
80
 11
60.2185
 21
82.0791
  0
LINE
  8
0
 10
60.2185
 20
82.0791
 11
60.8645
 21
84.0674
  0
LINE
  8
0
 10
60.8645
 20
84.0674
 11
61.9098
 21
85.8779
  0
LINE
  8
0
 10
61.9098
 20
85.8779
 11
63.3087
 21
87.4314
  0
LINE
  8
0
 10
63.3087
 20
87.4314
 11
65
 21
88.6603
  0
LINE
  8
0
 10
65
 20
88.6603
 11
66.9098
 21
89.5106
  0
LINE
  8
0
 10
66.9098
 20
89.5106
 11
68.9547
 21
89.9452
  0
LINE
  8
0
 10
68.9547
 20
89.9452
 11
71.0453
 21
89.9452
  0
LINE
  8
0
 10
71.0453
 20
89.9452
 11
73.0902
 21
89.5106
  0
LINE
  8
0
 10
73.0902
 20
89.5106
 11
75
 21
88.6603
  0
LINE
  8
0
 10
75
 20
88.6603
 11
76.6913
 21
87.4314
  0
LINE
  8
0
 10
76.6913
 20
87.4314
 11
78.0902
 21
85.8779
  0
LINE
  8
0
 10
78.0902
 20
85.8779
 11
79.1355
 21
84.0674
  0
LINE
  8
0
 10
79.1355
 20
84.0674
 11
79.7815
 21
82.0791
  0
LINE
  8
0
 10
79.7815
 20
82.0791
 11
80
 21
80
  0
LINE
  8
0
 10
80
 20
80
 11
79.7815
 21
77.9209
  0
LINE
  8
0
 10
79.7815
 20
77.9209
 11
79.1355
 21
75.9326
  0
LINE
  8
0
 10
79.1355
 20
75.9326
 11
78.0902
 21
74.1221
  0
LINE
  8
0
 10
78.0902
 20
74.1221
 11
76.6913
 21
72.5686
  0
LINE
  8
0
 10
76.6913
 20
72.5686
 11
75
 21
71.3397
  0
LINE
  8
0
 10
75
 20
71.3397
 11
73.0902
 21
70.4894
  0
LINE
  8
0
 10
73.0902
 20
70.4894
 11
71.0453
 21
70.0548
  0
LINE
  8
0
 10
71.0453
 20
70.0548
 11
68.9547
 21
70.0548
  0
LINE
  8
0
 10
68.9547
 20
70.0548
 11
66.9098
 21
70.4894
  0
LINE
  8
0
 10
66.9098
 20
70.4894
 11
65
 21
71.3397
  0
LINE
  8
0
 10
65
 20
71.3397
 11
63.3087
 21
72.5686
  0
LINE
  8
0
 10
63.3087
 20
72.5686
 11
61.9098
 21
74.1221
  0
LINE
  8
0
 10
61.9098
 20
74.1221
 11
60.8645
 21
75.9326
  0
LINE
  8
0
 10
60.8645
 20
75.9326
 11
60.2185
 21
77.9209
  0
LINE
  8
0
 10
60.2185
 20
77.9209
 11
60
 21
80
  0
LINE
  8
0
 10
55.25
 20
110
 11
55.5723
 21
106.933
  0
LINE
  8
0
 10
55.5723
 20
106.933
 11
56.5252
 21
104.001
  0
LINE
  8
0
 10
56.5252
 20
104.001
 11
58.067
 21
101.33
  0
LINE
  8
0
 10
58.067
 20
101.33
 11
60.1303
 21
99.0386
  0
LINE
  8
0
 10
60.1303
 20
99.0386
 11
62.625
 21
97.2261
  0
LINE
  8
0
 10
62.625
 20
97.2261
 11
65.442
 21
95.9719
  0
LINE
  8
0
 10
65.442
 20
95.9719
 11
68.4582
 21
95.3308
  0
LINE
  8
0
 10
68.4582
 20
95.3308
 11
71.5418
 21
95.3308
  0
LINE
  8
0
 10
71.5418
 20
95.3308
 11
74.558
 21
95.9719
  0
LINE
  8
0
 10
74.558
 20
95.9719
 11
77.375
 21
97.2261
  0
LINE
  8
0
 10
77.375
 20
97.2261
 11
79.8697
 21
99.0386
  0
LINE
  8
0
 10
79.8697
 20
99.0386
 11
81.933
 21
101.33
  0
LINE
  8
0
 10
81.933
 20
101.33
 11
83.4748
 21
104.001
  0
LINE
  8
0
 10
83.4748
 20
104.001
 11
84.4277
 21
106.933
  0
LINE
  8
0
 10
84.4277
 20
106.933
 11
84.75
 21
110
  0
LINE
  8
0
 10
84.75
 20
110
 11
80
 21
110
  0
LINE
  8
0
 10
80
 20
110
 11
79.7815
 21
107.921
  0
LINE
  8
0
 10
79.7815
 20
107.921
 11
79.1355
 21
105.933
  0
LINE
  8
0
 10
79.1355
 20
105.933
 11
78.0902
 21
104.122
  0
LINE
  8
0
 10
78.0902
 20
104.122
 11
76.6913
 21
102.569
  0
LINE
  8
0
 10
76.6913
 20
102.569
 11
75
 21
101.34
  0
LINE
  8
0
 10
75
 20
101.34
 11
73.0902
 21
100.489
  0
LINE
  8
0
 10
73.0902
 20
100.489
 11
71.0453
 21
100.055
  0
LINE
  8
0
 10
71.0453
 20
100.055
 11
68.9547
 21
100.055
  0
LINE
  8
0
 10
68.9547
 20
100.055
 11
66.9098
 21
100.489
  0
LINE
  8
0
 10
66.9098
 20
100.489
 11
65
 21
101.34
  0
LINE
  8
0
 10
65
 20
101.34
 11
63.3087
 21
102.569
  0
LINE
  8
0
 10
63.3087
 20
102.569
 11
61.9098
 21
104.122
  0
LINE
  8
0
 10
61.9098
 20
104.122
 11
60.8645
 21
105.933
  0
LINE
  8
0
 10
60.8645
 20
105.933
 11
60.2185
 21
107.921
  0
LINE
  8
0
 10
60.2185
 20
107.921
 11
60
 21
110
  0
LINE
  8
0
 10
60
 20
110
 11
60.2185
 21
112.079
  0
LINE
  8
0
 10
60.2185
 20
112.079
 11
60.8645
 21
114.067
  0
LINE
  8
0
 10
60.8645
 20
114.067
 11
61.9098
 21
115.878
  0
LINE
  8
0
 10
61.9098
 20
115.878
 11
63.3087
 21
117.431
  0
LINE
  8
0
 10
63.3087
 20
117.431
 11
65
 21
118.66
  0
LINE
  8
0
 10
65
 20
118.66
 11
66.9098
 21
119.511
  0
LINE
  8
0
 10
66.9098
 20
119.511
 11
68.9547
 21
119.945
  0
LINE
  8
0
 10
68.9547
 20
119.945
 11
70
 21
119.945
  0
LINE
  8
0
 10
70
 20
119.945
 11
70
 21
124.669
  0
LINE
  8
0
 10
70
 20
124.669
 11
68.4582
 21
124.669
  0
LINE
  8
0
 10
68.4582
 20
124.669
 11
65.442
 21
124.028
  0
LINE
  8
0
 10
65.442
 20
124.028
 11
62.625
 21
122.774
  0
LINE
  8
0
 10
62.625
 20
122.774
 11
60.1303
 21
120.961
  0
LINE
  8
0
 10
60.1303
 20
120.961
 11
58.067
 21
118.67
  0
LINE
  8
0
 10
58.067
 20
118.67
 11
56.5252
 21
115.999
  0
LINE
  8
0
 10
56.5252
 20
115.999
 11
55.5723
 21
113.067
  0
LINE
  8
0
 10
55.5723
 20
113.067
 11
55.25
 21
110
  0
LINE
  8
0
 10
90.25
 20
20
 11
90.5723
 21
16.9333
  0
LINE
  8
0
 10
90.5723
 20
16.9333
 11
91.5252
 21
14.0006
  0
LINE
  8
0
 10
91.5252
 20
14.0006
 11
93.067
 21
11.3302
  0
LINE
  8
0
 10
93.067
 20
11.3302
 11
95.1303
 21
9.03861
  0
LINE
  8
0
 10
95.1303
 20
9.03861
 11
97.625
 21
7.22613
  0
LINE
  8
0
 10
97.625
 20
7.22613
 11
100.442
 21
5.97192
  0
LINE
  8
0
 10
100.442
 20
5.97192
 11
103.458
 21
5.3308
  0
LINE
  8
0
 10
103.458
 20
5.3308
 11
106.542
 21
5.3308
  0
LINE
  8
0
 10
106.542
 20
5.3308
 11
109.558
 21
5.97192
  0
LINE
  8
0
 10
109.558
 20
5.97192
 11
112.375
 21
7.22613
  0
LINE
  8
0
 10
112.375
 20
7.22613
 11
114.87
 21
9.03861
  0
LINE
  8
0
 10
114.87
 20
9.03861
 11
116.933
 21
11.3302
  0
LINE
  8
0
 10
116.933
 20
11.3302
 11
118.475
 21
14.0006
  0
LINE
  8
0
 10
118.475
 20
14.0006
 11
119.428
 21
16.9333
  0
LINE
  8
0
 10
119.428
 20
16.9333
 11
119.75
 21
20
  0
LINE
  8
0
 10
119.75
 20
20
 11
119.428
 21
23.0667
  0
LINE
  8
0
 10
119.428
 20
23.0667
 11
118.475
 21
25.9994
  0
LINE
  8
0
 10
118.475
 20
25.9994
 11
116.933
 21
28.6698
  0
LINE
  8
0
 10
116.933
 20
28.6698
 11
114.87
 21
30.9614
  0
LINE
  8
0
 10
114.87
 20
30.9614
 11
112.375
 21
32.7739
  0
LINE
  8
0
 10
112.375
 20
32.7739
 11
109.558
 21
34.0281
  0
LINE
  8
0
 10
109.558
 20
34.0281
 11
106.542
 21
34.6692
  0
LINE
  8
0
 10
106.542
 20
34.6692
 11
103.458
 21
34.6692
  0
LINE
  8
0
 10
103.458
 20
34.6692
 11
100.442
 21
34.0281
  0
LINE
  8
0
 10
100.442
 20
34.0281
 11
97.625
 21
32.7739
  0
LINE
  8
0
 10
97.625
 20
32.7739
 11
95.1303
 21
30.9614
  0
LINE
  8
0
 10
95.1303
 20
30.9614
 11
93.067
 21
28.6698
  0
LINE
  8
0
 10
93.067
 20
28.6698
 11
91.5252
 21
25.9994
  0
LINE
  8
0
 10
91.5252
 20
25.9994
 11
90.5723
 21
23.0667
  0
LINE
  8
0
 10
90.5723
 20
23.0667
 11
90.25
 21
20
  0
LINE
  8
0
 10
95
 20
20
 11
95.2185
 21
22.0791
  0
LINE
  8
0
 10
95.2185
 20
22.0791
 11
95.8645
 21
24.0674
  0
LINE
  8
0
 10
95.8645
 20
24.0674
 11
96.9098
 21
25.8779
  0
LINE
  8
0
 10
96.9098
 20
25.8779
 11
98.3087
 21
27.4314
  0
LINE
  8
0
 10
98.3087
 20
27.4314
 11
100
 21
28.6603
  0
LINE
  8
0
 10
100
 20
28.6603
 11
101.91
 21
29.5106
  0
LINE
  8
0
 10
101.91
 20
29.5106
 11
103.955
 21
29.9452
  0
LINE
  8
0
 10
103.955
 20
29.9452
 11
106.045
 21
29.9452
  0
LINE
  8
0
 10
106.045
 20
29.9452
 11
108.09
 21
29.5106
  0
LINE
  8
0
 10
108.09
 20
29.5106
 11
110
 21
28.6603
  0
LINE
  8
0
 10
110
 20
28.6603
 11
111.691
 21
27.4314
  0
LINE
  8
0
 10
111.691
 20
27.4314
 11
113.09
 21
25.8779
  0
LINE
  8
0
 10
113.09
 20
25.8779
 11
114.135
 21
24.0674
  0
LINE
  8
0
 10
114.135
 20
24.0674
 11
114.781
 21
22.0791
  0
LINE
  8
0
 10
114.781
 20
22.0791
 11
115
 21
20
  0
LINE
  8
0
 10
115
 20
20
 11
114.781
 21
17.9209
  0
LINE
  8
0
 10
114.781
 20
17.9209
 11
114.135
 21
15.9326
  0
LINE
  8
0
 10
114.135
 20
15.9326
 11
113.09
 21
14.1221
  0
LINE
  8
0
 10
113.09
 20
14.1221
 11
111.691
 21
12.5686
  0
LINE
  8
0
 10
111.691
 20
12.5686
 11
110
 21
11.3397
  0
LINE
  8
0
 10
110
 20
11.3397
 11
108.09
 21
10.4894
  0
LINE
  8
0
 10
108.09
 20
10.4894
 11
106.045
 21
10.0548
  0
LINE
  8
0
 10
106.045
 20
10.0548
 11
103.955
 21
10.0548
  0
LINE
  8
0
 10
103.955
 20
10.0548
 11
101.91
 21
10.4894
  0
LINE
  8
0
 10
101.91
 20
10.4894
 11
100
 21
11.3397
  0
LINE
  8
0
 10
100
 20
11.3397
 11
98.3087
 21
12.5686
  0
LINE
  8
0
 10
98.3087
 20
12.5686
 11
96.9098
 21
14.1221
  0
LINE
  8
0
 10
96.9098
 20
14.1221
 11
95.8645
 21
15.9326
  0
LINE
  8
0
 10
95.8645
 20
15.9326
 11
95.2185
 21
17.9209
  0
LINE
  8
0
 10
95.2185
 20
17.9209
 11
95
 21
20
  0
LINE
  8
0
 10
90.25
 20
50
 11
90.5723
 21
46.9333
  0
LINE
  8
0
 10
90.5723
 20
46.9333
 11
91.5252
 21
44.0006
  0
LINE
  8
0
 10
91.5252
 20
44.0006
 11
93.067
 21
41.3302
  0
LINE
  8
0
 10
93.067
 20
41.3302
 11
95.1303
 21
39.0386
  0
LINE
  8
0
 10
95.1303
 20
39.0386
 11
97.625
 21
37.2261
  0
LINE
  8
0
 10
97.625
 20
37.2261
 11
100.442
 21
35.9719
  0
LINE
  8
0
 10
100.442
 20
35.9719
 11
103.458
 21
35.3308
  0
LINE
  8
0
 10
103.458
 20
35.3308
 11
106.542
 21
35.3308
  0
LINE
  8
0
 10
106.542
 20
35.3308
 11
109.558
 21
35.9719
  0
LINE
  8
0
 10
109.558
 20
35.9719
 11
112.375
 21
37.2261
  0
LINE
  8
0
 10
112.375
 20
37.2261
 11
114.87
 21
39.0386
  0
LINE
  8
0
 10
114.87
 20
39.0386
 11
116.933
 21
41.3302
  0
LINE
  8
0
 10
116.933
 20
41.3302
 11
118.475
 21
44.0006
  0
LINE
  8
0
 10
118.475
 20
44.0006
 11
119.428
 21
46.9333
  0
LINE
  8
0
 10
119.428
 20
46.9333
 11
119.75
 21
50
  0
LINE
  8
0
 10
119.75
 20
50
 11
115
 21
50
  0
LINE
  8
0
 10
115
 20
50
 11
114.781
 21
47.9209
  0
LINE
  8
0
 10
114.781
 20
47.9209
 11
114.135
 21
45.9326
  0
LINE
  8
0
 10
114.135
 20
45.9326
 11
113.09
 21
44.1221
  0
LINE
  8
0
 10
113.09
 20
44.1221
 11
111.691
 21
42.5686
  0
LINE
  8
0
 10
111.691
 20
42.5686
 11
110
 21
41.3397
  0
LINE
  8
0
 10
110
 20
41.3397
 11
108.09
 21
40.4894
  0
LINE
  8
0
 10
108.09
 20
40.4894
 11
106.045
 21
40.0548
  0
LINE
  8
0
 10
106.045
 20
40.0548
 11
103.955
 21
40.0548
  0
LINE
  8
0
 10
103.955
 20
40.0548
 11
101.91
 21
40.4894
  0
LINE
  8
0
 10
101.91
 20
40.4894
 11
100
 21
41.3397
  0
LINE
  8
0
 10
100
 20
41.3397
 11
98.3087
 21
42.5686
  0
LINE
  8
0
 10
98.3087
 20
42.5686
 11
96.9098
 21
44.1221
  0
LINE
  8
0
 10
96.9098
 20
44.1221
 11
95.8645
 21
45.9326
  0
LINE
  8
0
 10
95.8645
 20
45.9326
 11
95.2185
 21
47.9209
  0
LINE
  8
0
 10
95.2185
 20
47.9209
 11
95
 21
50
  0
LINE
  8
0
 10
95
 20
50
 11
95.2185
 21
52.0791
  0
LINE
  8
0
 10
95.2185
 20
52.0791
 11
95.8645
 21
54.0674
  0
LINE
  8
0
 10
95.8645
 20
54.0674
 11
96.9098
 21
55.8779
  0
LINE
  8
0
 10
96.9098
 20
55.8779
 11
98.3087
 21
57.4314
  0
LINE
  8
0
 10
98.3087
 20
57.4314
 11
100
 21
58.6603
  0
LINE
  8
0
 10
100
 20
58.6603
 11
101.91
 21
59.5106
  0
LINE
  8
0
 10
101.91
 20
59.5106
 11
103.955
 21
59.9452
  0
LINE
  8
0
 10
103.955
 20
59.9452
 11
105
 21
59.9452
  0
LINE
  8
0
 10
105
 20
59.9452
 11
105
 21
64.6692
  0
LINE
  8
0
 10
105
 20
64.6692
 11
103.458
 21
64.6692
  0
LINE
  8
0
 10
103.458
 20
64.6692
 11
100.442
 21
64.0281
  0
LINE
  8
0
 10
100.442
 20
64.0281
 11
97.625
 21
62.7739
  0
LINE
  8
0
 10
97.625
 20
62.7739
 11
95.1303
 21
60.9614
  0
LINE
  8
0
 10
95.1303
 20
60.9614
 11
93.067
 21
58.6698
  0
LINE
  8
0
 10
93.067
 20
58.6698
 11
91.5252
 21
55.9994
  0
LINE
  8
0
 10
91.5252
 20
55.9994
 11
90.5723
 21
53.0667
  0
LINE
  8
0
 10
90.5723
 20
53.0667
 11
90.25
 21
50
  0
LINE
  8
0
 10
90.25
 20
80
 11
90.5723
 21
76.9333
  0
LINE
  8
0
 10
90.5723
 20
76.9333
 11
91.5252
 21
74.0006
  0
LINE
  8
0
 10
91.5252
 20
74.0006
 11
93.067
 21
71.3302
  0
LINE
  8
0
 10
93.067
 20
71.3302
 11
95.1303
 21
69.0386
  0
LINE
  8
0
 10
95.1303
 20
69.0386
 11
97.625
 21
67.2261
  0
LINE
  8
0
 10
97.625
 20
67.2261
 11
100.442
 21
65.9719
  0
LINE
  8
0
 10
100.442
 20
65.9719
 11
103.458
 21
65.3308
  0
LINE
  8
0
 10
103.458
 20
65.3308
 11
106.542
 21
65.3308
  0
LINE
  8
0
 10
106.542
 20
65.3308
 11
109.558
 21
65.9719
  0
LINE
  8
0
 10
109.558
 20
65.9719
 11
112.375
 21
67.2261
  0
LINE
  8
0
 10
112.375
 20
67.2261
 11
114.87
 21
69.0386
  0
LINE
  8
0
 10
114.87
 20
69.0386
 11
116.933
 21
71.3302
  0
LINE
  8
0
 10
116.933
 20
71.3302
 11
118.475
 21
74.0006
  0
LINE
  8
0
 10
118.475
 20
74.0006
 11
119.428
 21
76.9333
  0
LINE
  8
0
 10
119.428
 20
76.9333
 11
119.75
 21
80
  0
LINE
  8
0
 10
119.75
 20
80
 11
119.428
 21
83.0667
  0
LINE
  8
0
 10
119.428
 20
83.0667
 11
118.475
 21
85.9994
  0
LINE
  8
0
 10
118.475
 20
85.9994
 11
116.933
 21
88.6698
  0
LINE
  8
0
 10
116.933
 20
88.6698
 11
114.87
 21
90.9614
  0
LINE
  8
0
 10
114.87
 20
90.9614
 11
112.375
 21
92.7739
  0
LINE
  8
0
 10
112.375
 20
92.7739
 11
109.558
 21
94.0281
  0
LINE
  8
0
 10
109.558
 20
94.0281
 11
106.542
 21
94.6692
  0
LINE
  8
0
 10
106.542
 20
94.6692
 11
103.458
 21
94.6692
  0
LINE
  8
0
 10
103.458
 20
94.6692
 11
100.442
 21
94.0281
  0
LINE
  8
0
 10
100.442
 20
94.0281
 11
97.625
 21
92.7739
  0
LINE
  8
0
 10
97.625
 20
92.7739
 11
95.1303
 21
90.9614
  0
LINE
  8
0
 10
95.1303
 20
90.9614
 11
93.067
 21
88.6698
  0
LINE
  8
0
 10
93.067
 20
88.6698
 11
91.5252
 21
85.9994
  0
LINE
  8
0
 10
91.5252
 20
85.9994
 11
90.5723
 21
83.0667
  0
LINE
  8
0
 10
90.5723
 20
83.0667
 11
90.25
 21
80
  0
LINE
  8
0
 10
95
 20
80
 11
95.2185
 21
82.0791
  0
LINE
  8
0
 10
95.2185
 20
82.0791
 11
95.8645
 21
84.0674
  0
LINE
  8
0
 10
95.8645
 20
84.0674
 11
96.9098
 21
85.8779
  0
LINE
  8
0
 10
96.9098
 20
85.8779
 11
98.3087
 21
87.4314
  0
LINE
  8
0
 10
98.3087
 20
87.4314
 11
100
 21
88.6603
  0
LINE
  8
0
 10
100
 20
88.6603
 11
101.91
 21
89.5106
  0
LINE
  8
0
 10
101.91
 20
89.5106
 11
103.955
 21
89.9452
  0
LINE
  8
0
 10
103.955
 20
89.9452
 11
106.045
 21
89.9452
  0
LINE
  8
0
 10
106.045
 20
89.9452
 11
108.09
 21
89.5106
  0
LINE
  8
0
 10
108.09
 20
89.5106
 11
110
 21
88.6603
  0
LINE
  8
0
 10
110
 20
88.6603
 11
111.691
 21
87.4314
  0
LINE
  8
0
 10
111.691
 20
87.4314
 11
113.09
 21
85.8779
  0
LINE
  8
0
 10
113.09
 20
85.8779
 11
114.135
 21
84.0674
  0
LINE
  8
0
 10
114.135
 20
84.0674
 11
114.781
 21
82.0791
  0
LINE
  8
0
 10
114.781
 20
82.0791
 11
115
 21
80
  0
LINE
  8
0
 10
115
 20
80
 11
114.781
 21
77.9209
  0
LINE
  8
0
 10
114.781
 20
77.9209
 11
114.135
 21
75.9326
  0
LINE
  8
0
 10
114.135
 20
75.9326
 11
113.09
 21
74.1221
  0
LINE
  8
0
 10
113.09
 20
74.1221
 11
111.691
 21
72.5686
  0
LINE
  8
0
 10
111.691
 20
72.5686
 11
110
 21
71.3397
  0
LINE
  8
0
 10
110
 20
71.3397
 11
108.09
 21
70.4894
  0
LINE
  8
0
 10
108.09
 20
70.4894
 11
106.045
 21
70.0548
  0
LINE
  8
0
 10
106.045
 20
70.0548
 11
103.955
 21
70.0548
  0
LINE
  8
0
 10
103.955
 20
70.0548
 11
101.91
 21
70.4894
  0
LINE
  8
0
 10
101.91
 20
70.4894
 11
100
 21
71.3397
  0
LINE
  8
0
 10
100
 20
71.3397
 11
98.3087
 21
72.5686
  0
LINE
  8
0
 10
98.3087
 20
72.5686
 11
96.9098
 21
74.1221
  0
LINE
  8
0
 10
96.9098
 20
74.1221
 11
95.8645
 21
75.9326
  0
LINE
  8
0
 10
95.8645
 20
75.9326
 11
95.2185
 21
77.9209
  0
LINE
  8
0
 10
95.2185
 20
77.9209
 11
95
 21
80
  0
LINE
  8
0
 10
90.25
 20
110
 11
90.5723
 21
106.933
  0
LINE
  8
0
 10
90.5723
 20
106.933
 11
91.5252
 21
104.001
  0
LINE
  8
0
 10
91.5252
 20
104.001
 11
93.067
 21
101.33
  0
LINE
  8
0
 10
93.067
 20
101.33
 11
95.1303
 21
99.0386
  0
LINE
  8
0
 10
95.1303
 20
99.0386
 11
97.625
 21
97.2261
  0
LINE
  8
0
 10
97.625
 20
97.2261
 11
100.442
 21
95.9719
  0
LINE
  8
0
 10
100.442
 20
95.9719
 11
103.458
 21
95.3308
  0
LINE
  8
0
 10
103.458
 20
95.3308
 11
106.542
 21
95.3308
  0
LINE
  8
0
 10
106.542
 20
95.3308
 11
109.558
 21
95.9719
  0
LINE
  8
0
 10
109.558
 20
95.9719
 11
112.375
 21
97.2261
  0
LINE
  8
0
 10
112.375
 20
97.2261
 11
114.87
 21
99.0386
  0
LINE
  8
0
 10
114.87
 20
99.0386
 11
116.933
 21
101.33
  0
LINE
  8
0
 10
116.933
 20
101.33
 11
118.475
 21
104.001
  0
LINE
  8
0
 10
118.475
 20
104.001
 11
119.428
 21
106.933
  0
LINE
  8
0
 10
119.428
 20
106.933
 11
119.75
 21
110
  0
LINE
  8
0
 10
119.75
 20
110
 11
115
 21
110
  0
LINE
  8
0
 10
115
 20
110
 11
114.781
 21
107.921
  0
LINE
  8
0
 10
114.781
 20
107.921
 11
114.135
 21
105.933
  0
LINE
  8
0
 10
114.135
 20
105.933
 11
113.09
 21
104.122
  0
LINE
  8
0
 10
113.09
 20
104.122
 11
111.691
 21
102.569
  0
LINE
  8
0
 10
111.691
 20
102.569
 11
110
 21
101.34
  0
LINE
  8
0
 10
110
 20
101.34
 11
108.09
 21
100.489
  0
LINE
  8
0
 10
108.09
 20
100.489
 11
106.045
 21
100.055
  0
LINE
  8
0
 10
106.045
 20
100.055
 11
103.955
 21
100.055
  0
LINE
  8
0
 10
103.955
 20
100.055
 11
101.91
 21
100.489
  0
LINE
  8
0
 10
101.91
 20
100.489
 11
100
 21
101.34
  0
LINE
  8
0
 10
100
 20
101.34
 11
98.3087
 21
102.569
  0
LINE
  8
0
 10
98.3087
 20
102.569
 11
96.9098
 21
104.122
  0
LINE
  8
0
 10
96.9098
 20
104.122
 11
95.8645
 21
105.933
  0
LINE
  8
0
 10
95.8645
 20
105.933
 11
95.2185
 21
107.921
  0
LINE
  8
0
 10
95.2185
 20
107.921
 11
95
 21
110
  0
LINE
  8
0
 10
95
 20
110
 11
95.2185
 21
112.079
  0
LINE
  8
0
 10
95.2185
 20
112.079
 11
95.8645
 21
114.067
  0
LINE
  8
0
 10
95.8645
 20
114.067
 11
96.9098
 21
115.878
  0
LINE
  8
0
 10
96.9098
 20
115.878
 11
98.3087
 21
117.431
  0
LINE
  8
0
 10
98.3087
 20
117.431
 11
100
 21
118.66
  0
LINE
  8
0
 10
100
 20
118.66
 11
101.91
 21
119.511
  0
LINE
  8
0
 10
101.91
 20
119.511
 11
103.955
 21
119.945
  0
LINE
  8
0
 10
103.955
 20
119.945
 11
105
 21
119.945
  0
LINE
  8
0
 10
105
 20
119.945
 11
105
 21
124.669
  0
LINE
  8
0
 10
105
 20
124.669
 11
103.458
 21
124.669
  0
LINE
  8
0
 10
103.458
 20
124.669
 11
100.442
 21
124.028
  0
LINE
  8
0
 10
100.442
 20
124.028
 11
97.625
 21
122.774
  0
LINE
  8
0
 10
97.625
 20
122.774
 11
95.1303
 21
120.961
  0
LINE
  8
0
 10
95.1303
 20
120.961
 11
93.067
 21
118.67
  0
LINE
  8
0
 10
93.067
 20
118.67
 11
91.5252
 21
115.999
  0
LINE
  8
0
 10
91.5252
 20
115.999
 11
90.5723
 21
113.067
  0
LINE
  8
0
 10
90.5723
 20
113.067
 11
90.25
 21
110
  0
ENDSEC
  0
SECTION
  2
OBJECTS
  0
DICTIONARY
  0
ENDSEC
  0
EOF
