  0
SECTION
  2
BLOCKS
  0
ENDSEC
  0
SECTION
  2
ENTITIES
  0
LINE
  8
0
 10
-16
 20
60
 11
-15.563
 21
55.8418
  0
LINE
  8
0
 10
-15.563
 20
55.8418
 11
-14.2709
 21
51.8653
  0
LINE
  8
0
 10
-14.2709
 20
51.8653
 11
-12.1803
 21
48.2443
  0
LINE
  8
0
 10
-12.1803
 20
48.2443
 11
-9.38261
 21
45.1371
  0
LINE
  8
0
 10
-9.38261
 20
45.1371
 11
-6
 21
42.6795
  0
LINE
  8
0
 10
-6
 20
42.6795
 11
-2.18034
 21
40.9789
  0
LINE
  8
0
 10
-2.18034
 20
40.9789
 11
1.90943
 21
40.1096
  0
LINE
  8
0
 10
1.90943
 20
40.1096
 11
6.09057
 21
40.1096
  0
LINE
  8
0
 10
6.09057
 20
40.1096
 11
10.1803
 21
40.9789
  0
LINE
  8
0
 10
10.1803
 20
40.9789
 11
14
 21
42.6795
  0
LINE
  8
0
 10
14
 20
42.6795
 11
17.3826
 21
45.1371
  0
LINE
  8
0
 10
17.3826
 20
45.1371
 11
20.1803
 21
48.2443
  0
LINE
  8
0
 10
20.1803
 20
48.2443
 11
22.2709
 21
51.8653
  0
LINE
  8
0
 10
22.2709
 20
51.8653
 11
23.563
 21
55.8418
  0
LINE
  8
0
 10
23.563
 20
55.8418
 11
24
 21
60
  0
LINE
  8
0
 10
24
 20
60
 11
23.563
 21
64.1582
  0
LINE
  8
0
 10
23.563
 20
64.1582
 11
22.2709
 21
68.1347
  0
LINE
  8
0
 10
22.2709
 20
68.1347
 11
20.1803
 21
71.7557
  0
LINE
  8
0
 10
20.1803
 20
71.7557
 11
17.3826
 21
74.8629
  0
LINE
  8
0
 10
17.3826
 20
74.8629
 11
14
 21
77.3205
  0
LINE
  8
0
 10
14
 20
77.3205
 11
10.1803
 21
79.0211
  0
LINE
  8
0
 10
10.1803
 20
79.0211
 11
6.09057
 21
79.8904
  0
LINE
  8
0
 10
6.09057
 20
79.8904
 11
1.90943
 21
79.8904
  0
LINE
  8
0
 10
1.90943
 20
79.8904
 11
-2.18034
 21
79.0211
  0
LINE
  8
0
 10
-2.18034
 20
79.0211
 11
-6
 21
77.3205
  0
LINE
  8
0
 10
-6
 20
77.3205
 11
-9.38261
 21
74.8629
  0
LINE
  8
0
 10
-9.38261
 20
74.8629
 11
-12.1803
 21
71.7557
  0
LINE
  8
0
 10
-12.1803
 20
71.7557
 11
-14.2709
 21
68.1347
  0
LINE
  8
0
 10
-14.2709
 20
68.1347
 11
-15.563
 21
64.1582
  0
LINE
  8
0
 10
-15.563
 20
64.1582
 11
-16
 21
60
  0
LINE
  8
0
 10
-6
 20
60
 11
-5.78148
 21
62.0791
  0
LINE
  8
0
 10
-5.78148
 20
62.0791
 11
-5.13545
 21
64.0674
  0
LINE
  8
0
 10
-5.13545
 20
64.0674
 11
-4.09017
 21
65.8779
  0
LINE
  8
0
 10
-4.09017
 20
65.8779
 11
-2.69131
 21
67.4314
  0
LINE
  8
0
 10
-2.69131
 20
67.4314
 11
-1
 21
68.6603
  0
LINE
  8
0
 10
-1
 20
68.6603
 11
0.90983
 21
69.5106
  0
LINE
  8
0
 10
0.90983
 20
69.5106
 11
2.95472
 21
69.9452
  0
LINE
  8
0
 10
2.95472
 20
69.9452
 11
5.04528
 21
69.9452
  0
LINE
  8
0
 10
5.04528
 20
69.9452
 11
7.09017
 21
69.5106
  0
LINE
  8
0
 10
7.09017
 20
69.5106
 11
9
 21
68.6603
  0
LINE
  8
0
 10
9
 20
68.6603
 11
10.6913
 21
67.4314
  0
LINE
  8
0
 10
10.6913
 20
67.4314
 11
12.0902
 21
65.8779
  0
LINE
  8
0
 10
12.0902
 20
65.8779
 11
13.1355
 21
64.0674
  0
LINE
  8
0
 10
13.1355
 20
64.0674
 11
13.7815
 21
62.0791
  0
LINE
  8
0
 10
13.7815
 20
62.0791
 11
14
 21
60
  0
LINE
  8
0
 10
14
 20
60
 11
13.7815
 21
57.9209
  0
LINE
  8
0
 10
13.7815
 20
57.9209
 11
13.1355
 21
55.9326
  0
LINE
  8
0
 10
13.1355
 20
55.9326
 11
12.0902
 21
54.1221
  0
LINE
  8
0
 10
12.0902
 20
54.1221
 11
10.6913
 21
52.5686
  0
LINE
  8
0
 10
10.6913
 20
52.5686
 11
9
 21
51.3397
  0
LINE
  8
0
 10
9
 20
51.3397
 11
7.09017
 21
50.4894
  0
LINE
  8
0
 10
7.09017
 20
50.4894
 11
5.04528
 21
50.0548
  0
LINE
  8
0
 10
5.04528
 20
50.0548
 11
2.95472
 21
50.0548
  0
LINE
  8
0
 10
2.95472
 20
50.0548
 11
0.90983
 21
50.4894
  0
LINE
  8
0
 10
0.90983
 20
50.4894
 11
-1
 21
51.3397
  0
LINE
  8
0
 10
-1
 20
51.3397
 11
-2.69131
 21
52.5686
  0
LINE
  8
0
 10
-2.69131
 20
52.5686
 11
-4.09017
 21
54.1221
  0
LINE
  8
0
 10
-4.09017
 20
54.1221
 11
-5.13545
 21
55.9326
  0
LINE
  8
0
 10
-5.13545
 20
55.9326
 11
-5.78148
 21
57.9209
  0
LINE
  8
0
 10
-5.78148
 20
57.9209
 11
-6
 21
60
  0
LINE
  8
0
 10
-12.75
 20
18
 11
-12.4714
 21
15.3491
  0
LINE
  8
0
 10
-12.4714
 20
15.3491
 11
-11.6477
 21
12.8141
  0
LINE
  8
0
 10
-11.6477
 20
12.8141
 11
-10.315
 21
10.5057
  0
LINE
  8
0
 10
-10.315
 20
10.5057
 11
-8.53141
 21
8.5249
  0
LINE
  8
0
 10
-8.53141
 20
8.5249
 11
-6.375
 21
6.95818
  0
LINE
  8
0
 10
-6.375
 20
6.95818
 11
-3.93997
 21
5.87403
  0
LINE
  8
0
 10
-3.93997
 20
5.87403
 11
-1.33274
 21
5.31985
  0
LINE
  8
0
 10
-1.33274
 20
5.31985
 11
1.33274
 21
5.31985
  0
LINE
  8
0
 10
1.33274
 20
5.31985
 11
3.93997
 21
5.87403
  0
LINE
  8
0
 10
3.93997
 20
5.87403
 11
6.375
 21
6.95818
  0
LINE
  8
0
 10
6.375
 20
6.95818
 11
8.53141
 21
8.5249
  0
LINE
  8
0
 10
8.53141
 20
8.5249
 11
10.315
 21
10.5057
  0
LINE
  8
0
 10
10.315
 20
10.5057
 11
11.6477
 21
12.8141
  0
LINE
  8
0
 10
11.6477
 20
12.8141
 11
12.4714
 21
15.3491
  0
LINE
  8
0
 10
12.4714
 20
15.3491
 11
12.75
 21
18
  0
LINE
  8
0
 10
12.75
 20
18
 11
12.4714
 21
20.6509
  0
LINE
  8
0
 10
12.4714
 20
20.6509
 11
11.6477
 21
23.1859
  0
LINE
  8
0
 10
11.6477
 20
23.1859
 11
10.315
 21
25.4943
  0
LINE
  8
0
 10
10.315
 20
25.4943
 11
8.53141
 21
27.4751
  0
LINE
  8
0
 10
8.53141
 20
27.4751
 11
6.375
 21
29.0418
  0
LINE
  8
0
 10
6.375
 20
29.0418
 11
3.93997
 21
30.126
  0
LINE
  8
0
 10
3.93997
 20
30.126
 11
1.33274
 21
30.6802
  0
LINE
  8
0
 10
1.33274
 20
30.6802
 11
-1.33274
 21
30.6802
  0
LINE
  8
0
 10
-1.33274
 20
30.6802
 11
-3.93997
 21
30.126
  0
LINE
  8
0
 10
-3.93997
 20
30.126
 11
-6.375
 21
29.0418
  0
LINE
  8
0
 10
-6.375
 20
29.0418
 11
-8.53141
 21
27.4751
  0
LINE
  8
0
 10
-8.53141
 20
27.4751
 11
-10.315
 21
25.4943
  0
LINE
  8
0
 10
-10.315
 20
25.4943
 11
-11.6477
 21
23.1859
  0
LINE
  8
0
 10
-11.6477
 20
23.1859
 11
-12.4714
 21
20.6509
  0
LINE
  8
0
 10
-12.4714
 20
20.6509
 11
-12.75
 21
18
  0
LINE
  8
0
 10
-10
 20
18
 11
-9.78148
 21
20.0791
  0
LINE
  8
0
 10
-9.78148
 20
20.0791
 11
-9.13545
 21
22.0674
  0
LINE
  8
0
 10
-9.13545
 20
22.0674
 11
-8.09017
 21
23.8779
  0
LINE
  8
0
 10
-8.09017
 20
23.8779
 11
-6.69131
 21
25.4314
  0
LINE
  8
0
 10
-6.69131
 20
25.4314
 11
-5
 21
26.6603
  0
LINE
  8
0
 10
-5
 20
26.6603
 11
-3.09017
 21
27.5106
  0
LINE
  8
0
 10
-3.09017
 20
27.5106
 11
-1.04528
 21
27.9452
  0
LINE
  8
0
 10
-1.04528
 20
27.9452
 11
1.04528
 21
27.9452
  0
LINE
  8
0
 10
1.04528
 20
27.9452
 11
3.09017
 21
27.5106
  0
LINE
  8
0
 10
3.09017
 20
27.5106
 11
5
 21
26.6603
  0
LINE
  8
0
 10
5
 20
26.6603
 11
6.69131
 21
25.4314
  0
LINE
  8
0
 10
6.69131
 20
25.4314
 11
8.09017
 21
23.8779
  0
LINE
  8
0
 10
8.09017
 20
23.8779
 11
9.13545
 21
22.0674
  0
LINE
  8
0
 10
9.13545
 20
22.0674
 11
9.78148
 21
20.0791
  0
LINE
  8
0
 10
9.78148
 20
20.0791
 11
10
 21
18
  0
LINE
  8
0
 10
10
 20
18
 11
9.78148
 21
15.9209
  0
LINE
  8
0
 10
9.78148
 20
15.9209
 11
9.13545
 21
13.9326
  0
LINE
  8
0
 10
9.13545
 20
13.9326
 11
8.09017
 21
12.1221
  0
LINE
  8
0
 10
8.09017
 20
12.1221
 11
6.69131
 21
10.5686
  0
LINE
  8
0
 10
6.69131
 20
10.5686
 11
5
 21
9.33975
  0
LINE
  8
0
 10
5
 20
9.33975
 11
3.09017
 21
8.48944
  0
LINE
  8
0
 10
3.09017
 20
8.48944
 11
1.04528
 21
8.05478
  0
LINE
  8
0
 10
1.04528
 20
8.05478
 11
-1.04528
 21
8.05478
  0
LINE
  8
0
 10
-1.04528
 20
8.05478
 11
-3.09017
 21
8.48944
  0
LINE
  8
0
 10
-3.09017
 20
8.48944
 11
-5
 21
9.33975
  0
LINE
  8
0
 10
-5
 20
9.33975
 11
-6.69131
 21
10.5686
  0
LINE
  8
0
 10
-6.69131
 20
10.5686
 11
-8.09017
 21
12.1221
  0
LINE
  8
0
 10
-8.09017
 20
12.1221
 11
-9.13545
 21
13.9326
  0
LINE
  8
0
 10
-9.13545
 20
13.9326
 11
-9.78148
 21
15.9209
  0
LINE
  8
0
 10
-9.78148
 20
15.9209
 11
-10
 21
18
  0
LINE
  8
0
 10
-12.75
 20
100
 11
-12.4714
 21
97.3491
  0
LINE
  8
0
 10
-12.4714
 20
97.3491
 11
-11.6477
 21
94.8141
  0
LINE
  8
0
 10
-11.6477
 20
94.8141
 11
-10.315
 21
92.5057
  0
LINE
  8
0
 10
-10.315
 20
92.5057
 11
-8.53141
 21
90.5249
  0
LINE
  8
0
 10
-8.53141
 20
90.5249
 11
-6.375
 21
88.9582
  0
LINE
  8
0
 10
-6.375
 20
88.9582
 11
-3.93997
 21
87.874
  0
LINE
  8
0
 10
-3.93997
 20
87.874
 11
-1.33274
 21
87.3198
  0
LINE
  8
0
 10
-1.33274
 20
87.3198
 11
1.33274
 21
87.3198
  0
LINE
  8
0
 10
1.33274
 20
87.3198
 11
3.93997
 21
87.874
  0
LINE
  8
0
 10
3.93997
 20
87.874
 11
6.375
 21
88.9582
  0
LINE
  8
0
 10
6.375
 20
88.9582
 11
8.53141
 21
90.5249
  0
LINE
  8
0
 10
8.53141
 20
90.5249
 11
10.315
 21
92.5057
  0
LINE
  8
0
 10
10.315
 20
92.5057
 11
11.6477
 21
94.8141
  0
LINE
  8
0
 10
11.6477
 20
94.8141
 11
12.4714
 21
97.3491
  0
LINE
  8
0
 10
12.4714
 20
97.3491
 11
12.75
 21
100
  0
LINE
  8
0
 10
12.75
 20
100
 11
10
 21
100
  0
LINE
  8
0
 10
10
 20
100
 11
9.78148
 21
97.9209
  0
LINE
  8
0
 10
9.78148
 20
97.9209
 11
9.13545
 21
95.9326
  0
LINE
  8
0
 10
9.13545
 20
95.9326
 11
8.09017
 21
94.1221
  0
LINE
  8
0
 10
8.09017
 20
94.1221
 11
6.69131
 21
92.5686
  0
LINE
  8
0
 10
6.69131
 20
92.5686
 11
5
 21
91.3397
  0
LINE
  8
0
 10
5
 20
91.3397
 11
3.09017
 21
90.4894
  0
LINE
  8
0
 10
3.09017
 20
90.4894
 11
1.04528
 21
90.0548
  0
LINE
  8
0
 10
1.04528
 20
90.0548
 11
-1.04528
 21
90.0548
  0
LINE
  8
0
 10
-1.04528
 20
90.0548
 11
-3.09017
 21
90.4894
  0
LINE
  8
0
 10
-3.09017
 20
90.4894
 11
-5
 21
91.3397
  0
LINE
  8
0
 10
-5
 20
91.3397
 11
-6.69131
 21
92.5686
  0
LINE
  8
0
 10
-6.69131
 20
92.5686
 11
-8.09017
 21
94.1221
  0
LINE
  8
0
 10
-8.09017
 20
94.1221
 11
-9.13545
 21
95.9326
  0
LINE
  8
0
 10
-9.13545
 20
95.9326
 11
-9.78148
 21
97.9209
  0
LINE
  8
0
 10
-9.78148
 20
97.9209
 11
-10
 21
100
  0
LINE
  8
0
 10
-10
 20
100
 11
-9.78148
 21
102.079
  0
LINE
  8
0
 10
-9.78148
 20
102.079
 11
-9.13545
 21
104.067
  0
LINE
  8
0
 10
-9.13545
 20
104.067
 11
-8.09017
 21
105.878
  0
LINE
  8
0
 10
-8.09017
 20
105.878
 11
-6.69131
 21
107.431
  0
LINE
  8
0
 10
-6.69131
 20
107.431
 11
-5
 21
108.66
  0
LINE
  8
0
 10
-5
 20
108.66
 11
-3.09017
 21
109.511
  0
LINE
  8
0
 10
-3.09017
 20
109.511
 11
-1.04528
 21
109.945
  0
LINE
  8
0
 10
-1.04528
 20
109.945
 11
0
 21
109.945
  0
LINE
  8
0
 10
0
 20
109.945
 11
0
 21
112.68
  0
LINE
  8
0
 10
0
 20
112.68
 11
-1.33274
 21
112.68
  0
LINE
  8
0
 10
-1.33274
 20
112.68
 11
-3.93997
 21
112.126
  0
LINE
  8
0
 10
-3.93997
 20
112.126
 11
-6.375
 21
111.042
  0
LINE
  8
0
 10
-6.375
 20
111.042
 11
-8.53141
 21
109.475
  0
LINE
  8
0
 10
-8.53141
 20
109.475
 11
-10.315
 21
107.494
  0
LINE
  8
0
 10
-10.315
 20
107.494
 11
-11.6477
 21
105.186
  0
LINE
  8
0
 10
-11.6477
 20
105.186
 11
-12.4714
 21
102.651
  0
LINE
  8
0
 10
-12.4714
 20
102.651
 11
-12.75
 21
100
  0
LINE
  8
0
 10
-12.75
 20
135
 11
-12.4714
 21
132.349
  0
LINE
  8
0
 10
-12.4714
 20
132.349
 11
-11.6477
 21
129.814
  0
LINE
  8
0
 10
-11.6477
 20
129.814
 11
-10.315
 21
127.506
  0
LINE
  8
0
 10
-10.315
 20
127.506
 11
-8.53141
 21
125.525
  0
LINE
  8
0
 10
-8.53141
 20
125.525
 11
-6.375
 21
123.958
  0
LINE
  8
0
 10
-6.375
 20
123.958
 11
-3.93997
 21
122.874
  0
LINE
  8
0
 10
-3.93997
 20
122.874
 11
-1.33274
 21
122.32
  0
LINE
  8
0
 10
-1.33274
 20
122.32
 11
1.33274
 21
122.32
  0
LINE
  8
0
 10
1.33274
 20
122.32
 11
3.93997
 21
122.874
  0
LINE
  8
0
 10
3.93997
 20
122.874
 11
6.375
 21
123.958
  0
LINE
  8
0
 10
6.375
 20
123.958
 11
8.53141
 21
125.525
  0
LINE
  8
0
 10
8.53141
 20
125.525
 11
10.315
 21
127.506
  0
LINE
  8
0
 10
10.315
 20
127.506
 11
11.6477
 21
129.814
  0
LINE
  8
0
 10
11.6477
 20
129.814
 11
12.4714
 21
132.349
  0
LINE
  8
0
 10
12.4714
 20
132.349
 11
12.75
 21
135
  0
LINE
  8
0
 10
12.75
 20
135
 11
6.5
 21
135
  0
LINE
  8
0
 10
6.5
 20
135
 11
6.21122
 21
133.084
  0
LINE
  8
0
 10
6.21122
 20
133.084
 11
5.37055
 21
131.338
  0
LINE
  8
0
 10
5.37055
 20
131.338
 11
4.05268
 21
129.918
  0
LINE
  8
0
 10
4.05268
 20
129.918
 11
2.37472
 21
128.949
  0
LINE
  8
0
 10
2.37472
 20
128.949
 11
0.485745
 21
128.518
  0
LINE
  8
0
 10
0.485745
 20
128.518
 11
-1.44639
 21
128.663
  0
LINE
  8
0
 10
-1.44639
 20
128.663
 11
-3.25
 21
129.371
  0
LINE
  8
0
 10
-3.25
 20
129.371
 11
-4.76484
 21
130.579
  0
LINE
  8
0
 10
-4.76484
 20
130.579
 11
-5.8563
 21
132.18
  0
LINE
  8
0
 10
-5.8563
 20
132.18
 11
-6.4274
 21
134.031
  0
LINE
  8
0
 10
-6.4274
 20
134.031
 11
-6.4274
 21
135.969
  0
LINE
  8
0
 10
-6.4274
 20
135.969
 11
-5.8563
 21
137.82
  0
LINE
  8
0
 10
-5.8563
 20
137.82
 11
-4.76484
 21
139.421
  0
LINE
  8
0
 10
-4.76484
 20
139.421
 11
-3.25
 21
140.629
  0
LINE
  8
0
 10
-3.25
 20
140.629
 11
-1.44639
 21
141.337
  0
LINE
  8
0
 10
-1.44639
 20
141.337
 11
0
 21
141.445
  0
LINE
  8
0
 10
0
 20
141.445
 11
0
 21
147.68
  0
LINE
  8
0
 10
0
 20
147.68
 11
-1.33274
 21
147.68
  0
LINE
  8
0
 10
-1.33274
 20
147.68
 11
-3.93997
 21
147.126
  0
LINE
  8
0
 10
-3.93997
 20
147.126
 11
-6.375
 21
146.042
  0
LINE
  8
0
 10
-6.375
 20
146.042
 11
-8.53141
 21
144.475
  0
LINE
  8
0
 10
-8.53141
 20
144.475
 11
-10.315
 21
142.494
  0
LINE
  8
0
 10
-10.315
 20
142.494
 11
-11.6477
 21
140.186
  0
LINE
  8
0
 10
-11.6477
 20
140.186
 11
-12.4714
 21
137.651
  0
LINE
  8
0
 10
-12.4714
 20
137.651
 11
-12.75
 21
135
  0
LINE
  8
0
 10
19.25
 20
18
 11
19.5286
 21
15.3491
  0
LINE
  8
0
 10
19.5286
 20
15.3491
 11
20.3523
 21
12.8141
  0
LINE
  8
0
 10
20.3523
 20
12.8141
 11
21.685
 21
10.5057
  0
LINE
  8
0
 10
21.685
 20
10.5057
 11
23.4686
 21
8.5249
  0
LINE
  8
0
 10
23.4686
 20
8.5249
 11
25.625
 21
6.95818
  0
LINE
  8
0
 10
25.625
 20
6.95818
 11
28.06
 21
5.87403
  0
LINE
  8
0
 10
28.06
 20
5.87403
 11
30.6673
 21
5.31985
  0
LINE
  8
0
 10
30.6673
 20
5.31985
 11
33.3327
 21
5.31985
  0
LINE
  8
0
 10
33.3327
 20
5.31985
 11
35.94
 21
5.87403
  0
LINE
  8
0
 10
35.94
 20
5.87403
 11
38.375
 21
6.95818
  0
LINE
  8
0
 10
38.375
 20
6.95818
 11
40.5314
 21
8.5249
  0
LINE
  8
0
 10
40.5314
 20
8.5249
 11
42.315
 21
10.5057
  0
LINE
  8
0
 10
42.315
 20
10.5057
 11
43.6477
 21
12.8141
  0
LINE
  8
0
 10
43.6477
 20
12.8141
 11
44.4714
 21
15.3491
  0
LINE
  8
0
 10
44.4714
 20
15.3491
 11
44.75
 21
18
  0
LINE
  8
0
 10
44.75
 20
18
 11
44.4714
 21
20.6509
  0
LINE
  8
0
 10
44.4714
 20
20.6509
 11
43.6477
 21
23.1859
  0
LINE
  8
0
 10
43.6477
 20
23.1859
 11
42.315
 21
25.4943
  0
LINE
  8
0
 10
42.315
 20
25.4943
 11
40.5314
 21
27.4751
  0
LINE
  8
0
 10
40.5314
 20
27.4751
 11
38.375
 21
29.0418
  0
LINE
  8
0
 10
38.375
 20
29.0418
 11
35.94
 21
30.126
  0
LINE
  8
0
 10
35.94
 20
30.126
 11
33.3327
 21
30.6802
  0
LINE
  8
0
 10
33.3327
 20
30.6802
 11
30.6673
 21
30.6802
  0
LINE
  8
0
 10
30.6673
 20
30.6802
 11
28.06
 21
30.126
  0
LINE
  8
0
 10
28.06
 20
30.126
 11
25.625
 21
29.0418
  0
LINE
  8
0
 10
25.625
 20
29.0418
 11
23.4686
 21
27.4751
  0
LINE
  8
0
 10
23.4686
 20
27.4751
 11
21.685
 21
25.4943
  0
LINE
  8
0
 10
21.685
 20
25.4943
 11
20.3523
 21
23.1859
  0
LINE
  8
0
 10
20.3523
 20
23.1859
 11
19.5286
 21
20.6509
  0
LINE
  8
0
 10
19.5286
 20
20.6509
 11
19.25
 21
18
  0
LINE
  8
0
 10
22
 20
18
 11
22.2185
 21
20.0791
  0
LINE
  8
0
 10
22.2185
 20
20.0791
 11
22.8645
 21
22.0674
  0
LINE
  8
0
 10
22.8645
 20
22.0674
 11
23.9098
 21
23.8779
  0
LINE
  8
0
 10
23.9098
 20
23.8779
 11
25.3087
 21
25.4314
  0
LINE
  8
0
 10
25.3087
 20
25.4314
 11
27
 21
26.6603
  0
LINE
  8
0
 10
27
 20
26.6603
 11
28.9098
 21
27.5106
  0
LINE
  8
0
 10
28.9098
 20
27.5106
 11
30.9547
 21
27.9452
  0
LINE
  8
0
 10
30.9547
 20
27.9452
 11
33.0453
 21
27.9452
  0
LINE
  8
0
 10
33.0453
 20
27.9452
 11
35.0902
 21
27.5106
  0
LINE
  8
0
 10
35.0902
 20
27.5106
 11
37
 21
26.6603
  0
LINE
  8
0
 10
37
 20
26.6603
 11
38.6913
 21
25.4314
  0
LINE
  8
0
 10
38.6913
 20
25.4314
 11
40.0902
 21
23.8779
  0
LINE
  8
0
 10
40.0902
 20
23.8779
 11
41.1355
 21
22.0674
  0
LINE
  8
0
 10
41.1355
 20
22.0674
 11
41.7815
 21
20.0791
  0
LINE
  8
0
 10
41.7815
 20
20.0791
 11
42
 21
18
  0
LINE
  8
0
 10
42
 20
18
 11
41.7815
 21
15.9209
  0
LINE
  8
0
 10
41.7815
 20
15.9209
 11
41.1355
 21
13.9326
  0
LINE
  8
0
 10
41.1355
 20
13.9326
 11
40.0902
 21
12.1221
  0
LINE
  8
0
 10
40.0902
 20
12.1221
 11
38.6913
 21
10.5686
  0
LINE
  8
0
 10
38.6913
 20
10.5686
 11
37
 21
9.33975
  0
LINE
  8
0
 10
37
 20
9.33975
 11
35.0902
 21
8.48944
  0
LINE
  8
0
 10
35.0902
 20
8.48944
 11
33.0453
 21
8.05478
  0
LINE
  8
0
 10
33.0453
 20
8.05478
 11
30.9547
 21
8.05478
  0
LINE
  8
0
 10
30.9547
 20
8.05478
 11
28.9098
 21
8.48944
  0
LINE
  8
0
 10
28.9098
 20
8.48944
 11
27
 21
9.33975
  0
LINE
  8
0
 10
27
 20
9.33975
 11
25.3087
 21
10.5686
  0
LINE
  8
0
 10
25.3087
 20
10.5686
 11
23.9098
 21
12.1221
  0
LINE
  8
0
 10
23.9098
 20
12.1221
 11
22.8645
 21
13.9326
  0
LINE
  8
0
 10
22.8645
 20
13.9326
 11
22.2185
 21
15.9209
  0
LINE
  8
0
 10
22.2185
 20
15.9209
 11
22
 21
18
  0
LINE
  8
0
 10
19.25
 20
100
 11
19.5286
 21
97.3491
  0
LINE
  8
0
 10
19.5286
 20
97.3491
 11
20.3523
 21
94.8141
  0
LINE
  8
0
 10
20.3523
 20
94.8141
 11
21.685
 21
92.5057
  0
LINE
  8
0
 10
21.685
 20
92.5057
 11
23.4686
 21
90.5249
  0
LINE
  8
0
 10
23.4686
 20
90.5249
 11
25.625
 21
88.9582
  0
LINE
  8
0
 10
25.625
 20
88.9582
 11
28.06
 21
87.874
  0
LINE
  8
0
 10
28.06
 20
87.874
 11
30.6673
 21
87.3198
  0
LINE
  8
0
 10
30.6673
 20
87.3198
 11
33.3327
 21
87.3198
  0
LINE
  8
0
 10
33.3327
 20
87.3198
 11
35.94
 21
87.874
  0
LINE
  8
0
 10
35.94
 20
87.874
 11
38.375
 21
88.9582
  0
LINE
  8
0
 10
38.375
 20
88.9582
 11
40.5314
 21
90.5249
  0
LINE
  8
0
 10
40.5314
 20
90.5249
 11
42.315
 21
92.5057
  0
LINE
  8
0
 10
42.315
 20
92.5057
 11
43.6477
 21
94.8141
  0
LINE
  8
0
 10
43.6477
 20
94.8141
 11
44.4714
 21
97.3491
  0
LINE
  8
0
 10
44.4714
 20
97.3491
 11
44.75
 21
100
  0
LINE
  8
0
 10
44.75
 20
100
 11
42
 21
100
  0
LINE
  8
0
 10
42
 20
100
 11
41.7815
 21
97.9209
  0
LINE
  8
0
 10
41.7815
 20
97.9209
 11
41.1355
 21
95.9326
  0
LINE
  8
0
 10
41.1355
 20
95.9326
 11
40.0902
 21
94.1221
  0
LINE
  8
0
 10
40.0902
 20
94.1221
 11
38.6913
 21
92.5686
  0
LINE
  8
0
 10
38.6913
 20
92.5686
 11
37
 21
91.3397
  0
LINE
  8
0
 10
37
 20
91.3397
 11
35.0902
 21
90.4894
  0
LINE
  8
0
 10
35.0902
 20
90.4894
 11
33.0453
 21
90.0548
  0
LINE
  8
0
 10
33.0453
 20
90.0548
 11
30.9547
 21
90.0548
  0
LINE
  8
0
 10
30.9547
 20
90.0548
 11
28.9098
 21
90.4894
  0
LINE
  8
0
 10
28.9098
 20
90.4894
 11
27
 21
91.3397
  0
LINE
  8
0
 10
27
 20
91.3397
 11
25.3087
 21
92.5686
  0
LINE
  8
0
 10
25.3087
 20
92.5686
 11
23.9098
 21
94.1221
  0
LINE
  8
0
 10
23.9098
 20
94.1221
 11
22.8645
 21
95.9326
  0
LINE
  8
0
 10
22.8645
 20
95.9326
 11
22.2185
 21
97.9209
  0
LINE
  8
0
 10
22.2185
 20
97.9209
 11
22
 21
100
  0
LINE
  8
0
 10
22
 20
100
 11
22.2185
 21
102.079
  0
LINE
  8
0
 10
22.2185
 20
102.079
 11
22.8645
 21
104.067
  0
LINE
  8
0
 10
22.8645
 20
104.067
 11
23.9098
 21
105.878
  0
LINE
  8
0
 10
23.9098
 20
105.878
 11
25.3087
 21
107.431
  0
LINE
  8
0
 10
25.3087
 20
107.431
 11
27
 21
108.66
  0
LINE
  8
0
 10
27
 20
108.66
 11
28.9098
 21
109.511
  0
LINE
  8
0
 10
28.9098
 20
109.511
 11
30.9547
 21
109.945
  0
LINE
  8
0
 10
30.9547
 20
109.945
 11
32
 21
109.945
  0
LINE
  8
0
 10
32
 20
109.945
 11
32
 21
112.68
  0
LINE
  8
0
 10
32
 20
112.68
 11
30.6673
 21
112.68
  0
LINE
  8
0
 10
30.6673
 20
112.68
 11
28.06
 21
112.126
  0
LINE
  8
0
 10
28.06
 20
112.126
 11
25.625
 21
111.042
  0
LINE
  8
0
 10
25.625
 20
111.042
 11
23.4686
 21
109.475
  0
LINE
  8
0
 10
23.4686
 20
109.475
 11
21.685
 21
107.494
  0
LINE
  8
0
 10
21.685
 20
107.494
 11
20.3523
 21
105.186
  0
LINE
  8
0
 10
20.3523
 20
105.186
 11
19.5286
 21
102.651
  0
LINE
  8
0
 10
19.5286
 20
102.651
 11
19.25
 21
100
  0
LINE
  8
0
 10
19.25
 20
135
 11
19.5286
 21
132.349
  0
LINE
  8
0
 10
19.5286
 20
132.349
 11
20.3523
 21
129.814
  0
LINE
  8
0
 10
20.3523
 20
129.814
 11
21.685
 21
127.506
  0
LINE
  8
0
 10
21.685
 20
127.506
 11
23.4686
 21
125.525
  0
LINE
  8
0
 10
23.4686
 20
125.525
 11
25.625
 21
123.958
  0
LINE
  8
0
 10
25.625
 20
123.958
 11
28.06
 21
122.874
  0
LINE
  8
0
 10
28.06
 20
122.874
 11
30.6673
 21
122.32
  0
LINE
  8
0
 10
30.6673
 20
122.32
 11
33.3327
 21
122.32
  0
LINE
  8
0
 10
33.3327
 20
122.32
 11
35.94
 21
122.874
  0
LINE
  8
0
 10
35.94
 20
122.874
 11
38.375
 21
123.958
  0
LINE
  8
0
 10
38.375
 20
123.958
 11
40.5314
 21
125.525
  0
LINE
  8
0
 10
40.5314
 20
125.525
 11
42.315
 21
127.506
  0
LINE
  8
0
 10
42.315
 20
127.506
 11
43.6477
 21
129.814
  0
LINE
  8
0
 10
43.6477
 20
129.814
 11
44.4714
 21
132.349
  0
LINE
  8
0
 10
44.4714
 20
132.349
 11
44.75
 21
135
  0
LINE
  8
0
 10
44.75
 20
135
 11
38.5
 21
135
  0
LINE
  8
0
 10
38.5
 20
135
 11
38.2112
 21
133.084
  0
LINE
  8
0
 10
38.2112
 20
133.084
 11
37.3706
 21
131.338
  0
LINE
  8
0
 10
37.3706
 20
131.338
 11
36.0527
 21
129.918
  0
LINE
  8
0
 10
36.0527
 20
129.918
 11
34.3747
 21
128.949
  0
LINE
  8
0
 10
34.3747
 20
128.949
 11
32.4857
 21
128.518
  0
LINE
  8
0
 10
32.4857
 20
128.518
 11
30.5536
 21
128.663
  0
LINE
  8
0
 10
30.5536
 20
128.663
 11
28.75
 21
129.371
  0
LINE
  8
0
 10
28.75
 20
129.371
 11
27.2352
 21
130.579
  0
LINE
  8
0
 10
27.2352
 20
130.579
 11
26.1437
 21
132.18
  0
LINE
  8
0
 10
26.1437
 20
132.18
 11
25.5726
 21
134.031
  0
LINE
  8
0
 10
25.5726
 20
134.031
 11
25.5726
 21
135.969
  0
LINE
  8
0
 10
25.5726
 20
135.969
 11
26.1437
 21
137.82
  0
LINE
  8
0
 10
26.1437
 20
137.82
 11
27.2352
 21
139.421
  0
LINE
  8
0
 10
27.2352
 20
139.421
 11
28.75
 21
140.629
  0
LINE
  8
0
 10
28.75
 20
140.629
 11
30.5536
 21
141.337
  0
LINE
  8
0
 10
30.5536
 20
141.337
 11
32
 21
141.445
  0
LINE
  8
0
 10
32
 20
141.445
 11
32
 21
147.68
  0
LINE
  8
0
 10
32
 20
147.68
 11
30.6673
 21
147.68
  0
LINE
  8
0
 10
30.6673
 20
147.68
 11
28.06
 21
147.126
  0
LINE
  8
0
 10
28.06
 20
147.126
 11
25.625
 21
146.042
  0
LINE
  8
0
 10
25.625
 20
146.042
 11
23.4686
 21
144.475
  0
LINE
  8
0
 10
23.4686
 20
144.475
 11
21.685
 21
142.494
  0
LINE
  8
0
 10
21.685
 20
142.494
 11
20.3523
 21
140.186
  0
LINE
  8
0
 10
20.3523
 20
140.186
 11
19.5286
 21
137.651
  0
LINE
  8
0
 10
19.5286
 20
137.651
 11
19.25
 21
135
  0
LINE
  8
0
 10
26
 20
60
 11
26.437
 21
55.8418
  0
LINE
  8
0
 10
26.437
 20
55.8418
 11
27.7291
 21
51.8653
  0
LINE
  8
0
 10
27.7291
 20
51.8653
 11
29.8197
 21
48.2443
  0
LINE
  8
0
 10
29.8197
 20
48.2443
 11
32.6174
 21
45.1371
  0
LINE
  8
0
 10
32.6174
 20
45.1371
 11
36
 21
42.6795
  0
LINE
  8
0
 10
36
 20
42.6795
 11
39.8197
 21
40.9789
  0
LINE
  8
0
 10
39.8197
 20
40.9789
 11
43.9094
 21
40.1096
  0
LINE
  8
0
 10
43.9094
 20
40.1096
 11
48.0906
 21
40.1096
  0
LINE
  8
0
 10
48.0906
 20
40.1096
 11
52.1803
 21
40.9789
  0
LINE
  8
0
 10
52.1803
 20
40.9789
 11
56
 21
42.6795
  0
LINE
  8
0
 10
56
 20
42.6795
 11
59.3826
 21
45.1371
  0
LINE
  8
0
 10
59.3826
 20
45.1371
 11
62.1803
 21
48.2443
  0
LINE
  8
0
 10
62.1803
 20
48.2443
 11
64.2709
 21
51.8653
  0
LINE
  8
0
 10
64.2709
 20
51.8653
 11
65.563
 21
55.8418
  0
LINE
  8
0
 10
65.563
 20
55.8418
 11
66
 21
60
  0
LINE
  8
0
 10
66
 20
60
 11
65.563
 21
64.1582
  0
LINE
  8
0
 10
65.563
 20
64.1582
 11
64.2709
 21
68.1347
  0
LINE
  8
0
 10
64.2709
 20
68.1347
 11
62.1803
 21
71.7557
  0
LINE
  8
0
 10
62.1803
 20
71.7557
 11
59.3826
 21
74.8629
  0
LINE
  8
0
 10
59.3826
 20
74.8629
 11
56
 21
77.3205
  0
LINE
  8
0
 10
56
 20
77.3205
 11
52.1803
 21
79.0211
  0
LINE
  8
0
 10
52.1803
 20
79.0211
 11
48.0906
 21
79.8904
  0
LINE
  8
0
 10
48.0906
 20
79.8904
 11
43.9094
 21
79.8904
  0
LINE
  8
0
 10
43.9094
 20
79.8904
 11
39.8197
 21
79.0211
  0
LINE
  8
0
 10
39.8197
 20
79.0211
 11
36
 21
77.3205
  0
LINE
  8
0
 10
36
 20
77.3205
 11
32.6174
 21
74.8629
  0
LINE
  8
0
 10
32.6174
 20
74.8629
 11
29.8197
 21
71.7557
  0
LINE
  8
0
 10
29.8197
 20
71.7557
 11
27.7291
 21
68.1347
  0
LINE
  8
0
 10
27.7291
 20
68.1347
 11
26.437
 21
64.1582
  0
LINE
  8
0
 10
26.437
 20
64.1582
 11
26
 21
60
  0
LINE
  8
0
 10
36
 20
60
 11
36.2185
 21
62.0791
  0
LINE
  8
0
 10
36.2185
 20
62.0791
 11
36.8645
 21
64.0674
  0
LINE
  8
0
 10
36.8645
 20
64.0674
 11
37.9098
 21
65.8779
  0
LINE
  8
0
 10
37.9098
 20
65.8779
 11
39.3087
 21
67.4314
  0
LINE
  8
0
 10
39.3087
 20
67.4314
 11
41
 21
68.6603
  0
LINE
  8
0
 10
41
 20
68.6603
 11
42.9098
 21
69.5106
  0
LINE
  8
0
 10
42.9098
 20
69.5106
 11
44.9547
 21
69.9452
  0
LINE
  8
0
 10
44.9547
 20
69.9452
 11
47.0453
 21
69.9452
  0
LINE
  8
0
 10
47.0453
 20
69.9452
 11
49.0902
 21
69.5106
  0
LINE
  8
0
 10
49.0902
 20
69.5106
 11
51
 21
68.6603
  0
LINE
  8
0
 10
51
 20
68.6603
 11
52.6913
 21
67.4314
  0
LINE
  8
0
 10
52.6913
 20
67.4314
 11
54.0902
 21
65.8779
  0
LINE
  8
0
 10
54.0902
 20
65.8779
 11
55.1355
 21
64.0674
  0
LINE
  8
0
 10
55.1355
 20
64.0674
 11
55.7815
 21
62.0791
  0
LINE
  8
0
 10
55.7815
 20
62.0791
 11
56
 21
60
  0
LINE
  8
0
 10
56
 20
60
 11
55.7815
 21
57.9209
  0
LINE
  8
0
 10
55.7815
 20
57.9209
 11
55.1355
 21
55.9326
  0
LINE
  8
0
 10
55.1355
 20
55.9326
 11
54.0902
 21
54.1221
  0
LINE
  8
0
 10
54.0902
 20
54.1221
 11
52.6913
 21
52.5686
  0
LINE
  8
0
 10
52.6913
 20
52.5686
 11
51
 21
51.3397
  0
LINE
  8
0
 10
51
 20
51.3397
 11
49.0902
 21
50.4894
  0
LINE
  8
0
 10
49.0902
 20
50.4894
 11
47.0453
 21
50.0548
  0
LINE
  8
0
 10
47.0453
 20
50.0548
 11
44.9547
 21
50.0548
  0
LINE
  8
0
 10
44.9547
 20
50.0548
 11
42.9098
 21
50.4894
  0
LINE
  8
0
 10
42.9098
 20
50.4894
 11
41
 21
51.3397
  0
LINE
  8
0
 10
41
 20
51.3397
 11
39.3087
 21
52.5686
  0
LINE
  8
0
 10
39.3087
 20
52.5686
 11
37.9098
 21
54.1221
  0
LINE
  8
0
 10
37.9098
 20
54.1221
 11
36.8645
 21
55.9326
  0
LINE
  8
0
 10
36.8645
 20
55.9326
 11
36.2185
 21
57.9209
  0
LINE
  8
0
 10
36.2185
 20
57.9209
 11
36
 21
60
  0
LINE
  8
0
 10
51.25
 20
18
 11
51.5286
 21
15.3491
  0
LINE
  8
0
 10
51.5286
 20
15.3491
 11
52.3523
 21
12.8141
  0
LINE
  8
0
 10
52.3523
 20
12.8141
 11
53.685
 21
10.5057
  0
LINE
  8
0
 10
53.685
 20
10.5057
 11
55.4686
 21
8.5249
  0
LINE
  8
0
 10
55.4686
 20
8.5249
 11
57.625
 21
6.95818
  0
LINE
  8
0
 10
57.625
 20
6.95818
 11
60.06
 21
5.87403
  0
LINE
  8
0
 10
60.06
 20
5.87403
 11
62.6673
 21
5.31985
  0
LINE
  8
0
 10
62.6673
 20
5.31985
 11
65.3327
 21
5.31985
  0
LINE
  8
0
 10
65.3327
 20
5.31985
 11
67.94
 21
5.87403
  0
LINE
  8
0
 10
67.94
 20
5.87403
 11
70.375
 21
6.95818
  0
LINE
  8
0
 10
70.375
 20
6.95818
 11
72.5314
 21
8.5249
  0
LINE
  8
0
 10
72.5314
 20
8.5249
 11
74.315
 21
10.5057
  0
LINE
  8
0
 10
74.315
 20
10.5057
 11
75.6477
 21
12.8141
  0
LINE
  8
0
 10
75.6477
 20
12.8141
 11
76.4714
 21
15.3491
  0
LINE
  8
0
 10
76.4714
 20
15.3491
 11
76.75
 21
18
  0
LINE
  8
0
 10
76.75
 20
18
 11
76.4714
 21
20.6509
  0
LINE
  8
0
 10
76.4714
 20
20.6509
 11
75.6477
 21
23.1859
  0
LINE
  8
0
 10
75.6477
 20
23.1859
 11
74.315
 21
25.4943
  0
LINE
  8
0
 10
74.315
 20
25.4943
 11
72.5314
 21
27.4751
  0
LINE
  8
0
 10
72.5314
 20
27.4751
 11
70.375
 21
29.0418
  0
LINE
  8
0
 10
70.375
 20
29.0418
 11
67.94
 21
30.126
  0
LINE
  8
0
 10
67.94
 20
30.126
 11
65.3327
 21
30.6802
  0
LINE
  8
0
 10
65.3327
 20
30.6802
 11
62.6673
 21
30.6802
  0
LINE
  8
0
 10
62.6673
 20
30.6802
 11
60.06
 21
30.126
  0
LINE
  8
0
 10
60.06
 20
30.126
 11
57.625
 21
29.0418
  0
LINE
  8
0
 10
57.625
 20
29.0418
 11
55.4686
 21
27.4751
  0
LINE
  8
0
 10
55.4686
 20
27.4751
 11
53.685
 21
25.4943
  0
LINE
  8
0
 10
53.685
 20
25.4943
 11
52.3523
 21
23.1859
  0
LINE
  8
0
 10
52.3523
 20
23.1859
 11
51.5286
 21
20.6509
  0
LINE
  8
0
 10
51.5286
 20
20.6509
 11
51.25
 21
18
  0
LINE
  8
0
 10
54
 20
18
 11
54.2185
 21
20.0791
  0
LINE
  8
0
 10
54.2185
 20
20.0791
 11
54.8645
 21
22.0674
  0
LINE
  8
0
 10
54.8645
 20
22.0674
 11
55.9098
 21
23.8779
  0
LINE
  8
0
 10
55.9098
 20
23.8779
 11
57.3087
 21
25.4314
  0
LINE
  8
0
 10
57.3087
 20
25.4314
 11
59
 21
26.6603
  0
LINE
  8
0
 10
59
 20
26.6603
 11
60.9098
 21
27.5106
  0
LINE
  8
0
 10
60.9098
 20
27.5106
 11
62.9547
 21
27.9452
  0
LINE
  8
0
 10
62.9547
 20
27.9452
 11
65.0453
 21
27.9452
  0
LINE
  8
0
 10
65.0453
 20
27.9452
 11
67.0902
 21
27.5106
  0
LINE
  8
0
 10
67.0902
 20
27.5106
 11
69
 21
26.6603
  0
LINE
  8
0
 10
69
 20
26.6603
 11
70.6913
 21
25.4314
  0
LINE
  8
0
 10
70.6913
 20
25.4314
 11
72.0902
 21
23.8779
  0
LINE
  8
0
 10
72.0902
 20
23.8779
 11
73.1355
 21
22.0674
  0
LINE
  8
0
 10
73.1355
 20
22.0674
 11
73.7815
 21
20.0791
  0
LINE
  8
0
 10
73.7815
 20
20.0791
 11
74
 21
18
  0
LINE
  8
0
 10
74
 20
18
 11
73.7815
 21
15.9209
  0
LINE
  8
0
 10
73.7815
 20
15.9209
 11
73.1355
 21
13.9326
  0
LINE
  8
0
 10
73.1355
 20
13.9326
 11
72.0902
 21
12.1221
  0
LINE
  8
0
 10
72.0902
 20
12.1221
 11
70.6913
 21
10.5686
  0
LINE
  8
0
 10
70.6913
 20
10.5686
 11
69
 21
9.33975
  0
LINE
  8
0
 10
69
 20
9.33975
 11
67.0902
 21
8.48944
  0
LINE
  8
0
 10
67.0902
 20
8.48944
 11
65.0453
 21
8.05478
  0
LINE
  8
0
 10
65.0453
 20
8.05478
 11
62.9547
 21
8.05478
  0
LINE
  8
0
 10
62.9547
 20
8.05478
 11
60.9098
 21
8.48944
  0
LINE
  8
0
 10
60.9098
 20
8.48944
 11
59
 21
9.33975
  0
LINE
  8
0
 10
59
 20
9.33975
 11
57.3087
 21
10.5686
  0
LINE
  8
0
 10
57.3087
 20
10.5686
 11
55.9098
 21
12.1221
  0
LINE
  8
0
 10
55.9098
 20
12.1221
 11
54.8645
 21
13.9326
  0
LINE
  8
0
 10
54.8645
 20
13.9326
 11
54.2185
 21
15.9209
  0
LINE
  8
0
 10
54.2185
 20
15.9209
 11
54
 21
18
  0
LINE
  8
0
 10
51.25
 20
100
 11
51.5286
 21
97.3491
  0
LINE
  8
0
 10
51.5286
 20
97.3491
 11
52.3523
 21
94.8141
  0
LINE
  8
0
 10
52.3523
 20
94.8141
 11
53.685
 21
92.5057
  0
LINE
  8
0
 10
53.685
 20
92.5057
 11
55.4686
 21
90.5249
  0
LINE
  8
0
 10
55.4686
 20
90.5249
 11
57.625
 21
88.9582
  0
LINE
  8
0
 10
57.625
 20
88.9582
 11
60.06
 21
87.874
  0
LINE
  8
0
 10
60.06
 20
87.874
 11
62.6673
 21
87.3198
  0
LINE
  8
0
 10
62.6673
 20
87.3198
 11
65.3327
 21
87.3198
  0
LINE
  8
0
 10
65.3327
 20
87.3198
 11
67.94
 21
87.874
  0
LINE
  8
0
 10
67.94
 20
87.874
 11
70.375
 21
88.9582
  0
LINE
  8
0
 10
70.375
 20
88.9582
 11
72.5314
 21
90.5249
  0
LINE
  8
0
 10
72.5314
 20
90.5249
 11
74.315
 21
92.5057
  0
LINE
  8
0
 10
74.315
 20
92.5057
 11
75.6477
 21
94.8141
  0
LINE
  8
0
 10
75.6477
 20
94.8141
 11
76.4714
 21
97.3491
  0
LINE
  8
0
 10
76.4714
 20
97.3491
 11
76.75
 21
100
  0
LINE
  8
0
 10
76.75
 20
100
 11
74
 21
100
  0
LINE
  8
0
 10
74
 20
100
 11
73.7815
 21
97.9209
  0
LINE
  8
0
 10
73.7815
 20
97.9209
 11
73.1355
 21
95.9326
  0
LINE
  8
0
 10
73.1355
 20
95.9326
 11
72.0902
 21
94.1221
  0
LINE
  8
0
 10
72.0902
 20
94.1221
 11
70.6913
 21
92.5686
  0
LINE
  8
0
 10
70.6913
 20
92.5686
 11
69
 21
91.3397
  0
LINE
  8
0
 10
69
 20
91.3397
 11
67.0902
 21
90.4894
  0
LINE
  8
0
 10
67.0902
 20
90.4894
 11
65.0453
 21
90.0548
  0
LINE
  8
0
 10
65.0453
 20
90.0548
 11
62.9547
 21
90.0548
  0
LINE
  8
0
 10
62.9547
 20
90.0548
 11
60.9098
 21
90.4894
  0
LINE
  8
0
 10
60.9098
 20
90.4894
 11
59
 21
91.3397
  0
LINE
  8
0
 10
59
 20
91.3397
 11
57.3087
 21
92.5686
  0
LINE
  8
0
 10
57.3087
 20
92.5686
 11
55.9098
 21
94.1221
  0
LINE
  8
0
 10
55.9098
 20
94.1221
 11
54.8645
 21
95.9326
  0
LINE
  8
0
 10
54.8645
 20
95.9326
 11
54.2185
 21
97.9209
  0
LINE
  8
0
 10
54.2185
 20
97.9209
 11
54
 21
100
  0
LINE
  8
0
 10
54
 20
100
 11
54.2185
 21
102.079
  0
LINE
  8
0
 10
54.2185
 20
102.079
 11
54.8645
 21
104.067
  0
LINE
  8
0
 10
54.8645
 20
104.067
 11
55.9098
 21
105.878
  0
LINE
  8
0
 10
55.9098
 20
105.878
 11
57.3087
 21
107.431
  0
LINE
  8
0
 10
57.3087
 20
107.431
 11
59
 21
108.66
  0
LINE
  8
0
 10
59
 20
108.66
 11
60.9098
 21
109.511
  0
LINE
  8
0
 10
60.9098
 20
109.511
 11
62.9547
 21
109.945
  0
LINE
  8
0
 10
62.9547
 20
109.945
 11
64
 21
109.945
  0
LINE
  8
0
 10
64
 20
109.945
 11
64
 21
112.68
  0
LINE
  8
0
 10
64
 20
112.68
 11
62.6673
 21
112.68
  0
LINE
  8
0
 10
62.6673
 20
112.68
 11
60.06
 21
112.126
  0
LINE
  8
0
 10
60.06
 20
112.126
 11
57.625
 21
111.042
  0
LINE
  8
0
 10
57.625
 20
111.042
 11
55.4686
 21
109.475
  0
LINE
  8
0
 10
55.4686
 20
109.475
 11
53.685
 21
107.494
  0
LINE
  8
0
 10
53.685
 20
107.494
 11
52.3523
 21
105.186
  0
LINE
  8
0
 10
52.3523
 20
105.186
 11
51.5286
 21
102.651
  0
LINE
  8
0
 10
51.5286
 20
102.651
 11
51.25
 21
100
  0
LINE
  8
0
 10
51.25
 20
135
 11
51.5286
 21
132.349
  0
LINE
  8
0
 10
51.5286
 20
132.349
 11
52.3523
 21
129.814
  0
LINE
  8
0
 10
52.3523
 20
129.814
 11
53.685
 21
127.506
  0
LINE
  8
0
 10
53.685
 20
127.506
 11
55.4686
 21
125.525
  0
LINE
  8
0
 10
55.4686
 20
125.525
 11
57.625
 21
123.958
  0
LINE
  8
0
 10
57.625
 20
123.958
 11
60.06
 21
122.874
  0
LINE
  8
0
 10
60.06
 20
122.874
 11
62.6673
 21
122.32
  0
LINE
  8
0
 10
62.6673
 20
122.32
 11
65.3327
 21
122.32
  0
LINE
  8
0
 10
65.3327
 20
122.32
 11
67.94
 21
122.874
  0
LINE
  8
0
 10
67.94
 20
122.874
 11
70.375
 21
123.958
  0
LINE
  8
0
 10
70.375
 20
123.958
 11
72.5314
 21
125.525
  0
LINE
  8
0
 10
72.5314
 20
125.525
 11
74.315
 21
127.506
  0
LINE
  8
0
 10
74.315
 20
127.506
 11
75.6477
 21
129.814
  0
LINE
  8
0
 10
75.6477
 20
129.814
 11
76.4714
 21
132.349
  0
LINE
  8
0
 10
76.4714
 20
132.349
 11
76.75
 21
135
  0
LINE
  8
0
 10
76.75
 20
135
 11
70.5
 21
135
  0
LINE
  8
0
 10
70.5
 20
135
 11
70.2112
 21
133.084
  0
LINE
  8
0
 10
70.2112
 20
133.084
 11
69.3706
 21
131.338
  0
LINE
  8
0
 10
69.3706
 20
131.338
 11
68.0527
 21
129.918
  0
LINE
  8
0
 10
68.0527
 20
129.918
 11
66.3747
 21
128.949
  0
LINE
  8
0
 10
66.3747
 20
128.949
 11
64.4857
 21
128.518
  0
LINE
  8
0
 10
64.4857
 20
128.518
 11
62.5536
 21
128.663
  0
LINE
  8
0
 10
62.5536
 20
128.663
 11
60.75
 21
129.371
  0
LINE
  8
0
 10
60.75
 20
129.371
 11
59.2352
 21
130.579
  0
LINE
  8
0
 10
59.2352
 20
130.579
 11
58.1437
 21
132.18
  0
LINE
  8
0
 10
58.1437
 20
132.18
 11
57.5726
 21
134.031
  0
LINE
  8
0
 10
57.5726
 20
134.031
 11
57.5726
 21
135.969
  0
LINE
  8
0
 10
57.5726
 20
135.969
 11
58.1437
 21
137.82
  0
LINE
  8
0
 10
58.1437
 20
137.82
 11
59.2352
 21
139.421
  0
LINE
  8
0
 10
59.2352
 20
139.421
 11
60.75
 21
140.629
  0
LINE
  8
0
 10
60.75
 20
140.629
 11
62.5536
 21
141.337
  0
LINE
  8
0
 10
62.5536
 20
141.337
 11
64
 21
141.445
  0
LINE
  8
0
 10
64
 20
141.445
 11
64
 21
147.68
  0
LINE
  8
0
 10
64
 20
147.68
 11
62.6673
 21
147.68
  0
LINE
  8
0
 10
62.6673
 20
147.68
 11
60.06
 21
147.126
  0
LINE
  8
0
 10
60.06
 20
147.126
 11
57.625
 21
146.042
  0
LINE
  8
0
 10
57.625
 20
146.042
 11
55.4686
 21
144.475
  0
LINE
  8
0
 10
55.4686
 20
144.475
 11
53.685
 21
142.494
  0
LINE
  8
0
 10
53.685
 20
142.494
 11
52.3523
 21
140.186
  0
LINE
  8
0
 10
52.3523
 20
140.186
 11
51.5286
 21
137.651
  0
LINE
  8
0
 10
51.5286
 20
137.651
 11
51.25
 21
135
  0
LINE
  8
0
 10
68
 20
60
 11
68.437
 21
55.8418
  0
LINE
  8
0
 10
68.437
 20
55.8418
 11
69.7291
 21
51.8653
  0
LINE
  8
0
 10
69.7291
 20
51.8653
 11
71.8197
 21
48.2443
  0
LINE
  8
0
 10
71.8197
 20
48.2443
 11
74.6174
 21
45.1371
  0
LINE
  8
0
 10
74.6174
 20
45.1371
 11
78
 21
42.6795
  0
LINE
  8
0
 10
78
 20
42.6795
 11
81.8197
 21
40.9789
  0
LINE
  8
0
 10
81.8197
 20
40.9789
 11
85.9094
 21
40.1096
  0
LINE
  8
0
 10
85.9094
 20
40.1096
 11
90.0906
 21
40.1096
  0
LINE
  8
0
 10
90.0906
 20
40.1096
 11
94.1803
 21
40.9789
  0
LINE
  8
0
 10
94.1803
 20
40.9789
 11
98
 21
42.6795
  0
LINE
  8
0
 10
98
 20
42.6795
 11
101.383
 21
45.1371
  0
LINE
  8
0
 10
101.383
 20
45.1371
 11
104.18
 21
48.2443
  0
LINE
  8
0
 10
104.18
 20
48.2443
 11
106.271
 21
51.8653
  0
LINE
  8
0
 10
106.271
 20
51.8653
 11
107.563
 21
55.8418
  0
LINE
  8
0
 10
107.563
 20
55.8418
 11
108
 21
60
  0
LINE
  8
0
 10
108
 20
60
 11
107.563
 21
64.1582
  0
LINE
  8
0
 10
107.563
 20
64.1582
 11
106.271
 21
68.1347
  0
LINE
  8
0
 10
106.271
 20
68.1347
 11
104.18
 21
71.7557
  0
LINE
  8
0
 10
104.18
 20
71.7557
 11
101.383
 21
74.8629
  0
LINE
  8
0
 10
101.383
 20
74.8629
 11
98
 21
77.3205
  0
LINE
  8
0
 10
98
 20
77.3205
 11
94.1803
 21
79.0211
  0
LINE
  8
0
 10
94.1803
 20
79.0211
 11
90.0906
 21
79.8904
  0
LINE
  8
0
 10
90.0906
 20
79.8904
 11
85.9094
 21
79.8904
  0
LINE
  8
0
 10
85.9094
 20
79.8904
 11
81.8197
 21
79.0211
  0
LINE
  8
0
 10
81.8197
 20
79.0211
 11
78
 21
77.3205
  0
LINE
  8
0
 10
78
 20
77.3205
 11
74.6174
 21
74.8629
  0
LINE
  8
0
 10
74.6174
 20
74.8629
 11
71.8197
 21
71.7557
  0
LINE
  8
0
 10
71.8197
 20
71.7557
 11
69.7291
 21
68.1347
  0
LINE
  8
0
 10
69.7291
 20
68.1347
 11
68.437
 21
64.1582
  0
LINE
  8
0
 10
68.437
 20
64.1582
 11
68
 21
60
  0
LINE
  8
0
 10
78
 20
60
 11
78.2185
 21
62.0791
  0
LINE
  8
0
 10
78.2185
 20
62.0791
 11
78.8645
 21
64.0674
  0
LINE
  8
0
 10
78.8645
 20
64.0674
 11
79.9098
 21
65.8779
  0
LINE
  8
0
 10
79.9098
 20
65.8779
 11
81.3087
 21
67.4314
  0
LINE
  8
0
 10
81.3087
 20
67.4314
 11
83
 21
68.6603
  0
LINE
  8
0
 10
83
 20
68.6603
 11
84.9098
 21
69.5106
  0
LINE
  8
0
 10
84.9098
 20
69.5106
 11
86.9547
 21
69.9452
  0
LINE
  8
0
 10
86.9547
 20
69.9452
 11
89.0453
 21
69.9452
  0
LINE
  8
0
 10
89.0453
 20
69.9452
 11
91.0902
 21
69.5106
  0
LINE
  8
0
 10
91.0902
 20
69.5106
 11
93
 21
68.6603
  0
LINE
  8
0
 10
93
 20
68.6603
 11
94.6913
 21
67.4314
  0
LINE
  8
0
 10
94.6913
 20
67.4314
 11
96.0902
 21
65.8779
  0
LINE
  8
0
 10
96.0902
 20
65.8779
 11
97.1355
 21
64.0674
  0
LINE
  8
0
 10
97.1355
 20
64.0674
 11
97.7815
 21
62.0791
  0
LINE
  8
0
 10
97.7815
 20
62.0791
 11
98
 21
60
  0
LINE
  8
0
 10
98
 20
60
 11
97.7815
 21
57.9209
  0
LINE
  8
0
 10
97.7815
 20
57.9209
 11
97.1355
 21
55.9326
  0
LINE
  8
0
 10
97.1355
 20
55.9326
 11
96.0902
 21
54.1221
  0
LINE
  8
0
 10
96.0902
 20
54.1221
 11
94.6913
 21
52.5686
  0
LINE
  8
0
 10
94.6913
 20
52.5686
 11
93
 21
51.3397
  0
LINE
  8
0
 10
93
 20
51.3397
 11
91.0902
 21
50.4894
  0
LINE
  8
0
 10
91.0902
 20
50.4894
 11
89.0453
 21
50.0548
  0
LINE
  8
0
 10
89.0453
 20
50.0548
 11
86.9547
 21
50.0548
  0
LINE
  8
0
 10
86.9547
 20
50.0548
 11
84.9098
 21
50.4894
  0
LINE
  8
0
 10
84.9098
 20
50.4894
 11
83
 21
51.3397
  0
LINE
  8
0
 10
83
 20
51.3397
 11
81.3087
 21
52.5686
  0
LINE
  8
0
 10
81.3087
 20
52.5686
 11
79.9098
 21
54.1221
  0
LINE
  8
0
 10
79.9098
 20
54.1221
 11
78.8645
 21
55.9326
  0
LINE
  8
0
 10
78.8645
 20
55.9326
 11
78.2185
 21
57.9209
  0
LINE
  8
0
 10
78.2185
 20
57.9209
 11
78
 21
60
  0
LINE
  8
0
 10
83.25
 20
18
 11
83.5286
 21
15.3491
  0
LINE
  8
0
 10
83.5286
 20
15.3491
 11
84.3523
 21
12.8141
  0
LINE
  8
0
 10
84.3523
 20
12.8141
 11
85.685
 21
10.5057
  0
LINE
  8
0
 10
85.685
 20
10.5057
 11
87.4686
 21
8.5249
  0
LINE
  8
0
 10
87.4686
 20
8.5249
 11
89.625
 21
6.95818
  0
LINE
  8
0
 10
89.625
 20
6.95818
 11
92.06
 21
5.87403
  0
LINE
  8
0
 10
92.06
 20
5.87403
 11
94.6673
 21
5.31985
  0
LINE
  8
0
 10
94.6673
 20
5.31985
 11
97.3327
 21
5.31985
  0
LINE
  8
0
 10
97.3327
 20
5.31985
 11
99.94
 21
5.87403
  0
LINE
  8
0
 10
99.94
 20
5.87403
 11
102.375
 21
6.95818
  0
LINE
  8
0
 10
102.375
 20
6.95818
 11
104.531
 21
8.5249
  0
LINE
  8
0
 10
104.531
 20
8.5249
 11
106.315
 21
10.5057
  0
LINE
  8
0
 10
106.315
 20
10.5057
 11
107.648
 21
12.8141
  0
LINE
  8
0
 10
107.648
 20
12.8141
 11
108.471
 21
15.3491
  0
LINE
  8
0
 10
108.471
 20
15.3491
 11
108.75
 21
18
  0
LINE
  8
0
 10
108.75
 20
18
 11
108.471
 21
20.6509
  0
LINE
  8
0
 10
108.471
 20
20.6509
 11
107.648
 21
23.1859
  0
LINE
  8
0
 10
107.648
 20
23.1859
 11
106.315
 21
25.4943
  0
LINE
  8
0
 10
106.315
 20
25.4943
 11
104.531
 21
27.4751
  0
LINE
  8
0
 10
104.531
 20
27.4751
 11
102.375
 21
29.0418
  0
LINE
  8
0
 10
102.375
 20
29.0418
 11
99.94
 21
30.126
  0
LINE
  8
0
 10
99.94
 20
30.126
 11
97.3327
 21
30.6802
  0
LINE
  8
0
 10
97.3327
 20
30.6802
 11
94.6673
 21
30.6802
  0
LINE
  8
0
 10
94.6673
 20
30.6802
 11
92.06
 21
30.126
  0
LINE
  8
0
 10
92.06
 20
30.126
 11
89.625
 21
29.0418
  0
LINE
  8
0
 10
89.625
 20
29.0418
 11
87.4686
 21
27.4751
  0
LINE
  8
0
 10
87.4686
 20
27.4751
 11
85.685
 21
25.4943
  0
LINE
  8
0
 10
85.685
 20
25.4943
 11
84.3523
 21
23.1859
  0
LINE
  8
0
 10
84.3523
 20
23.1859
 11
83.5286
 21
20.6509
  0
LINE
  8
0
 10
83.5286
 20
20.6509
 11
83.25
 21
18
  0
LINE
  8
0
 10
86
 20
18
 11
86.2185
 21
20.0791
  0
LINE
  8
0
 10
86.2185
 20
20.0791
 11
86.8645
 21
22.0674
  0
LINE
  8
0
 10
86.8645
 20
22.0674
 11
87.9098
 21
23.8779
  0
LINE
  8
0
 10
87.9098
 20
23.8779
 11
89.3087
 21
25.4314
  0
LINE
  8
0
 10
89.3087
 20
25.4314
 11
91
 21
26.6603
  0
LINE
  8
0
 10
91
 20
26.6603
 11
92.9098
 21
27.5106
  0
LINE
  8
0
 10
92.9098
 20
27.5106
 11
94.9547
 21
27.9452
  0
LINE
  8
0
 10
94.9547
 20
27.9452
 11
97.0453
 21
27.9452
  0
LINE
  8
0
 10
97.0453
 20
27.9452
 11
99.0902
 21
27.5106
  0
LINE
  8
0
 10
99.0902
 20
27.5106
 11
101
 21
26.6603
  0
LINE
  8
0
 10
101
 20
26.6603
 11
102.691
 21
25.4314
  0
LINE
  8
0
 10
102.691
 20
25.4314
 11
104.09
 21
23.8779
  0
LINE
  8
0
 10
104.09
 20
23.8779
 11
105.135
 21
22.0674
  0
LINE
  8
0
 10
105.135
 20
22.0674
 11
105.781
 21
20.0791
  0
LINE
  8
0
 10
105.781
 20
20.0791
 11
106
 21
18
  0
LINE
  8
0
 10
106
 20
18
 11
105.781
 21
15.9209
  0
LINE
  8
0
 10
105.781
 20
15.9209
 11
105.135
 21
13.9326
  0
LINE
  8
0
 10
105.135
 20
13.9326
 11
104.09
 21
12.1221
  0
LINE
  8
0
 10
104.09
 20
12.1221
 11
102.691
 21
10.5686
  0
LINE
  8
0
 10
102.691
 20
10.5686
 11
101
 21
9.33975
  0
LINE
  8
0
 10
101
 20
9.33975
 11
99.0902
 21
8.48944
  0
LINE
  8
0
 10
99.0902
 20
8.48944
 11
97.0453
 21
8.05478
  0
LINE
  8
0
 10
97.0453
 20
8.05478
 11
94.9547
 21
8.05478
  0
LINE
  8
0
 10
94.9547
 20
8.05478
 11
92.9098
 21
8.48944
  0
LINE
  8
0
 10
92.9098
 20
8.48944
 11
91
 21
9.33975
  0
LINE
  8
0
 10
91
 20
9.33975
 11
89.3087
 21
10.5686
  0
LINE
  8
0
 10
89.3087
 20
10.5686
 11
87.9098
 21
12.1221
  0
LINE
  8
0
 10
87.9098
 20
12.1221
 11
86.8645
 21
13.9326
  0
LINE
  8
0
 10
86.8645
 20
13.9326
 11
86.2185
 21
15.9209
  0
LINE
  8
0
 10
86.2185
 20
15.9209
 11
86
 21
18
  0
LINE
  8
0
 10
83.25
 20
100
 11
83.5286
 21
97.3491
  0
LINE
  8
0
 10
83.5286
 20
97.3491
 11
84.3523
 21
94.8141
  0
LINE
  8
0
 10
84.3523
 20
94.8141
 11
85.685
 21
92.5057
  0
LINE
  8
0
 10
85.685
 20
92.5057
 11
87.4686
 21
90.5249
  0
LINE
  8
0
 10
87.4686
 20
90.5249
 11
89.625
 21
88.9582
  0
LINE
  8
0
 10
89.625
 20
88.9582
 11
92.06
 21
87.874
  0
LINE
  8
0
 10
92.06
 20
87.874
 11
94.6673
 21
87.3198
  0
LINE
  8
0
 10
94.6673
 20
87.3198
 11
97.3327
 21
87.3198
  0
LINE
  8
0
 10
97.3327
 20
87.3198
 11
99.94
 21
87.874
  0
LINE
  8
0
 10
99.94
 20
87.874
 11
102.375
 21
88.9582
  0
LINE
  8
0
 10
102.375
 20
88.9582
 11
104.531
 21
90.5249
  0
LINE
  8
0
 10
104.531
 20
90.5249
 11
106.315
 21
92.5057
  0
LINE
  8
0
 10
106.315
 20
92.5057
 11
107.648
 21
94.8141
  0
LINE
  8
0
 10
107.648
 20
94.8141
 11
108.471
 21
97.3491
  0
LINE
  8
0
 10
108.471
 20
97.3491
 11
108.75
 21
100
  0
LINE
  8
0
 10
108.75
 20
100
 11
106
 21
100
  0
LINE
  8
0
 10
106
 20
100
 11
105.781
 21
97.9209
  0
LINE
  8
0
 10
105.781
 20
97.9209
 11
105.135
 21
95.9326
  0
LINE
  8
0
 10
105.135
 20
95.9326
 11
104.09
 21
94.1221
  0
LINE
  8
0
 10
104.09
 20
94.1221
 11
102.691
 21
92.5686
  0
LINE
  8
0
 10
102.691
 20
92.5686
 11
101
 21
91.3397
  0
LINE
  8
0
 10
101
 20
91.3397
 11
99.0902
 21
90.4894
  0
LINE
  8
0
 10
99.0902
 20
90.4894
 11
97.0453
 21
90.0548
  0
LINE
  8
0
 10
97.0453
 20
90.0548
 11
94.9547
 21
90.0548
  0
LINE
  8
0
 10
94.9547
 20
90.0548
 11
92.9098
 21
90.4894
  0
LINE
  8
0
 10
92.9098
 20
90.4894
 11
91
 21
91.3397
  0
LINE
  8
0
 10
91
 20
91.3397
 11
89.3087
 21
92.5686
  0
LINE
  8
0
 10
89.3087
 20
92.5686
 11
87.9098
 21
94.1221
  0
LINE
  8
0
 10
87.9098
 20
94.1221
 11
86.8645
 21
95.9326
  0
LINE
  8
0
 10
86.8645
 20
95.9326
 11
86.2185
 21
97.9209
  0
LINE
  8
0
 10
86.2185
 20
97.9209
 11
86
 21
100
  0
LINE
  8
0
 10
86
 20
100
 11
86.2185
 21
102.079
  0
LINE
  8
0
 10
86.2185
 20
102.079
 11
86.8645
 21
104.067
  0
LINE
  8
0
 10
86.8645
 20
104.067
 11
87.9098
 21
105.878
  0
LINE
  8
0
 10
87.9098
 20
105.878
 11
89.3087
 21
107.431
  0
LINE
  8
0
 10
89.3087
 20
107.431
 11
91
 21
108.66
  0
LINE
  8
0
 10
91
 20
108.66
 11
92.9098
 21
109.511
  0
LINE
  8
0
 10
92.9098
 20
109.511
 11
94.9547
 21
109.945
  0
LINE
  8
0
 10
94.9547
 20
109.945
 11
96
 21
109.945
  0
LINE
  8
0
 10
96
 20
109.945
 11
96
 21
112.68
  0
LINE
  8
0
 10
96
 20
112.68
 11
94.6673
 21
112.68
  0
LINE
  8
0
 10
94.6673
 20
112.68
 11
92.06
 21
112.126
  0
LINE
  8
0
 10
92.06
 20
112.126
 11
89.625
 21
111.042
  0
LINE
  8
0
 10
89.625
 20
111.042
 11
87.4686
 21
109.475
  0
LINE
  8
0
 10
87.4686
 20
109.475
 11
85.685
 21
107.494
  0
LINE
  8
0
 10
85.685
 20
107.494
 11
84.3523
 21
105.186
  0
LINE
  8
0
 10
84.3523
 20
105.186
 11
83.5286
 21
102.651
  0
LINE
  8
0
 10
83.5286
 20
102.651
 11
83.25
 21
100
  0
LINE
  8
0
 10
83.25
 20
135
 11
83.5286
 21
132.349
  0
LINE
  8
0
 10
83.5286
 20
132.349
 11
84.3523
 21
129.814
  0
LINE
  8
0
 10
84.3523
 20
129.814
 11
85.685
 21
127.506
  0
LINE
  8
0
 10
85.685
 20
127.506
 11
87.4686
 21
125.525
  0
LINE
  8
0
 10
87.4686
 20
125.525
 11
89.625
 21
123.958
  0
LINE
  8
0
 10
89.625
 20
123.958
 11
92.06
 21
122.874
  0
LINE
  8
0
 10
92.06
 20
122.874
 11
94.6673
 21
122.32
  0
LINE
  8
0
 10
94.6673
 20
122.32
 11
97.3327
 21
122.32
  0
LINE
  8
0
 10
97.3327
 20
122.32
 11
99.94
 21
122.874
  0
LINE
  8
0
 10
99.94
 20
122.874
 11
102.375
 21
123.958
  0
LINE
  8
0
 10
102.375
 20
123.958
 11
104.531
 21
125.525
  0
LINE
  8
0
 10
104.531
 20
125.525
 11
106.315
 21
127.506
  0
LINE
  8
0
 10
106.315
 20
127.506
 11
107.648
 21
129.814
  0
LINE
  8
0
 10
107.648
 20
129.814
 11
108.471
 21
132.349
  0
LINE
  8
0
 10
108.471
 20
132.349
 11
108.75
 21
135
  0
LINE
  8
0
 10
108.75
 20
135
 11
102.5
 21
135
  0
LINE
  8
0
 10
102.5
 20
135
 11
102.211
 21
133.084
  0
LINE
  8
0
 10
102.211
 20
133.084
 11
101.371
 21
131.338
  0
LINE
  8
0
 10
101.371
 20
131.338
 11
100.053
 21
129.918
  0
LINE
  8
0
 10
100.053
 20
129.918
 11
98.3747
 21
128.949
  0
LINE
  8
0
 10
98.3747
 20
128.949
 11
96.4857
 21
128.518
  0
LINE
  8
0
 10
96.4857
 20
128.518
 11
94.5536
 21
128.663
  0
LINE
  8
0
 10
94.5536
 20
128.663
 11
92.75
 21
129.371
  0
LINE
  8
0
 10
92.75
 20
129.371
 11
91.2352
 21
130.579
  0
LINE
  8
0
 10
91.2352
 20
130.579
 11
90.1437
 21
132.18
  0
LINE
  8
0
 10
90.1437
 20
132.18
 11
89.5726
 21
134.031
  0
LINE
  8
0
 10
89.5726
 20
134.031
 11
89.5726
 21
135.969
  0
LINE
  8
0
 10
89.5726
 20
135.969
 11
90.1437
 21
137.82
  0
LINE
  8
0
 10
90.1437
 20
137.82
 11
91.2352
 21
139.421
  0
LINE
  8
0
 10
91.2352
 20
139.421
 11
92.75
 21
140.629
  0
LINE
  8
0
 10
92.75
 20
140.629
 11
94.5536
 21
141.337
  0
LINE
  8
0
 10
94.5536
 20
141.337
 11
96
 21
141.445
  0
LINE
  8
0
 10
96
 20
141.445
 11
96
 21
147.68
  0
LINE
  8
0
 10
96
 20
147.68
 11
94.6673
 21
147.68
  0
LINE
  8
0
 10
94.6673
 20
147.68
 11
92.06
 21
147.126
  0
LINE
  8
0
 10
92.06
 20
147.126
 11
89.625
 21
146.042
  0
LINE
  8
0
 10
89.625
 20
146.042
 11
87.4686
 21
144.475
  0
LINE
  8
0
 10
87.4686
 20
144.475
 11
85.685
 21
142.494
  0
LINE
  8
0
 10
85.685
 20
142.494
 11
84.3523
 21
140.186
  0
LINE
  8
0
 10
84.3523
 20
140.186
 11
83.5286
 21
137.651
  0
LINE
  8
0
 10
83.5286
 20
137.651
 11
83.25
 21
135
  0
LINE
  8
0
 10
110
 20
60
 11
110.437
 21
55.8418
  0
LINE
  8
0
 10
110.437
 20
55.8418
 11
111.729
 21
51.8653
  0
LINE
  8
0
 10
111.729
 20
51.8653
 11
113.82
 21
48.2443
  0
LINE
  8
0
 10
113.82
 20
48.2443
 11
116.617
 21
45.1371
  0
LINE
  8
0
 10
116.617
 20
45.1371
 11
120
 21
42.6795
  0
LINE
  8
0
 10
120
 20
42.6795
 11
123.82
 21
40.9789
  0
LINE
  8
0
 10
123.82
 20
40.9789
 11
127.909
 21
40.1096
  0
LINE
  8
0
 10
127.909
 20
40.1096
 11
132.091
 21
40.1096
  0
LINE
  8
0
 10
132.091
 20
40.1096
 11
136.18
 21
40.9789
  0
LINE
  8
0
 10
136.18
 20
40.9789
 11
140
 21
42.6795
  0
LINE
  8
0
 10
140
 20
42.6795
 11
143.383
 21
45.1371
  0
LINE
  8
0
 10
143.383
 20
45.1371
 11
146.18
 21
48.2443
  0
LINE
  8
0
 10
146.18
 20
48.2443
 11
148.271
 21
51.8653
  0
LINE
  8
0
 10
148.271
 20
51.8653
 11
149.563
 21
55.8418
  0
LINE
  8
0
 10
149.563
 20
55.8418
 11
150
 21
60
  0
LINE
  8
0
 10
150
 20
60
 11
149.563
 21
64.1582
  0
LINE
  8
0
 10
149.563
 20
64.1582
 11
148.271
 21
68.1347
  0
LINE
  8
0
 10
148.271
 20
68.1347
 11
146.18
 21
71.7557
  0
LINE
  8
0
 10
146.18
 20
71.7557
 11
143.383
 21
74.8629
  0
LINE
  8
0
 10
143.383
 20
74.8629
 11
140
 21
77.3205
  0
LINE
  8
0
 10
140
 20
77.3205
 11
136.18
 21
79.0211
  0
LINE
  8
0
 10
136.18
 20
79.0211
 11
132.091
 21
79.8904
  0
LINE
  8
0
 10
132.091
 20
79.8904
 11
127.909
 21
79.8904
  0
LINE
  8
0
 10
127.909
 20
79.8904
 11
123.82
 21
79.0211
  0
LINE
  8
0
 10
123.82
 20
79.0211
 11
120
 21
77.3205
  0
LINE
  8
0
 10
120
 20
77.3205
 11
116.617
 21
74.8629
  0
LINE
  8
0
 10
116.617
 20
74.8629
 11
113.82
 21
71.7557
  0
LINE
  8
0
 10
113.82
 20
71.7557
 11
111.729
 21
68.1347
  0
LINE
  8
0
 10
111.729
 20
68.1347
 11
110.437
 21
64.1582
  0
LINE
  8
0
 10
110.437
 20
64.1582
 11
110
 21
60
  0
LINE
  8
0
 10
120
 20
60
 11
120.219
 21
62.0791
  0
LINE
  8
0
 10
120.219
 20
62.0791
 11
120.865
 21
64.0674
  0
LINE
  8
0
 10
120.865
 20
64.0674
 11
121.91
 21
65.8779
  0
LINE
  8
0
 10
121.91
 20
65.8779
 11
123.309
 21
67.4314
  0
LINE
  8
0
 10
123.309
 20
67.4314
 11
125
 21
68.6603
  0
LINE
  8
0
 10
125
 20
68.6603
 11
126.91
 21
69.5106
  0
LINE
  8
0
 10
126.91
 20
69.5106
 11
128.955
 21
69.9452
  0
LINE
  8
0
 10
128.955
 20
69.9452
 11
131.045
 21
69.9452
  0
LINE
  8
0
 10
131.045
 20
69.9452
 11
133.09
 21
69.5106
  0
LINE
  8
0
 10
133.09
 20
69.5106
 11
135
 21
68.6603
  0
LINE
  8
0
 10
135
 20
68.6603
 11
136.691
 21
67.4314
  0
LINE
  8
0
 10
136.691
 20
67.4314
 11
138.09
 21
65.8779
  0
LINE
  8
0
 10
138.09
 20
65.8779
 11
139.135
 21
64.0674
  0
LINE
  8
0
 10
139.135
 20
64.0674
 11
139.781
 21
62.0791
  0
LINE
  8
0
 10
139.781
 20
62.0791
 11
140
 21
60
  0
LINE
  8
0
 10
140
 20
60
 11
139.781
 21
57.9209
  0
LINE
  8
0
 10
139.781
 20
57.9209
 11
139.135
 21
55.9326
  0
LINE
  8
0
 10
139.135
 20
55.9326
 11
138.09
 21
54.1221
  0
LINE
  8
0
 10
138.09
 20
54.1221
 11
136.691
 21
52.5686
  0
LINE
  8
0
 10
136.691
 20
52.5686
 11
135
 21
51.3397
  0
LINE
  8
0
 10
135
 20
51.3397
 11
133.09
 21
50.4894
  0
LINE
  8
0
 10
133.09
 20
50.4894
 11
131.045
 21
50.0548
  0
LINE
  8
0
 10
131.045
 20
50.0548
 11
128.955
 21
50.0548
  0
LINE
  8
0
 10
128.955
 20
50.0548
 11
126.91
 21
50.4894
  0
LINE
  8
0
 10
126.91
 20
50.4894
 11
125
 21
51.3397
  0
LINE
  8
0
 10
125
 20
51.3397
 11
123.309
 21
52.5686
  0
LINE
  8
0
 10
123.309
 20
52.5686
 11
121.91
 21
54.1221
  0
LINE
  8
0
 10
121.91
 20
54.1221
 11
120.865
 21
55.9326
  0
LINE
  8
0
 10
120.865
 20
55.9326
 11
120.219
 21
57.9209
  0
LINE
  8
0
 10
120.219
 20
57.9209
 11
120
 21
60
  0
LINE
  8
0
 10
115.25
 20
18
 11
115.529
 21
15.3491
  0
LINE
  8
0
 10
115.529
 20
15.3491
 11
116.352
 21
12.8141
  0
LINE
  8
0
 10
116.352
 20
12.8141
 11
117.685
 21
10.5057
  0
LINE
  8
0
 10
117.685
 20
10.5057
 11
119.469
 21
8.5249
  0
LINE
  8
0
 10
119.469
 20
8.5249
 11
121.625
 21
6.95818
  0
LINE
  8
0
 10
121.625
 20
6.95818
 11
124.06
 21
5.87403
  0
LINE
  8
0
 10
124.06
 20
5.87403
 11
126.667
 21
5.31985
  0
LINE
  8
0
 10
126.667
 20
5.31985
 11
129.333
 21
5.31985
  0
LINE
  8
0
 10
129.333
 20
5.31985
 11
131.94
 21
5.87403
  0
LINE
  8
0
 10
131.94
 20
5.87403
 11
134.375
 21
6.95818
  0
LINE
  8
0
 10
134.375
 20
6.95818
 11
136.531
 21
8.5249
  0
LINE
  8
0
 10
136.531
 20
8.5249
 11
138.315
 21
10.5057
  0
LINE
  8
0
 10
138.315
 20
10.5057
 11
139.648
 21
12.8141
  0
LINE
  8
0
 10
139.648
 20
12.8141
 11
140.471
 21
15.3491
  0
LINE
  8
0
 10
140.471
 20
15.3491
 11
140.75
 21
18
  0
LINE
  8
0
 10
140.75
 20
18
 11
140.471
 21
20.6509
  0
LINE
  8
0
 10
140.471
 20
20.6509
 11
139.648
 21
23.1859
  0
LINE
  8
0
 10
139.648
 20
23.1859
 11
138.315
 21
25.4943
  0
LINE
  8
0
 10
138.315
 20
25.4943
 11
136.531
 21
27.4751
  0
LINE
  8
0
 10
136.531
 20
27.4751
 11
134.375
 21
29.0418
  0
LINE
  8
0
 10
134.375
 20
29.0418
 11
131.94
 21
30.126
  0
LINE
  8
0
 10
131.94
 20
30.126
 11
129.333
 21
30.6802
  0
LINE
  8
0
 10
129.333
 20
30.6802
 11
126.667
 21
30.6802
  0
LINE
  8
0
 10
126.667
 20
30.6802
 11
124.06
 21
30.126
  0
LINE
  8
0
 10
124.06
 20
30.126
 11
121.625
 21
29.0418
  0
LINE
  8
0
 10
121.625
 20
29.0418
 11
119.469
 21
27.4751
  0
LINE
  8
0
 10
119.469
 20
27.4751
 11
117.685
 21
25.4943
  0
LINE
  8
0
 10
117.685
 20
25.4943
 11
116.352
 21
23.1859
  0
LINE
  8
0
 10
116.352
 20
23.1859
 11
115.529
 21
20.6509
  0
LINE
  8
0
 10
115.529
 20
20.6509
 11
115.25
 21
18
  0
LINE
  8
0
 10
118
 20
18
 11
118.219
 21
20.0791
  0
LINE
  8
0
 10
118.219
 20
20.0791
 11
118.865
 21
22.0674
  0
LINE
  8
0
 10
118.865
 20
22.0674
 11
119.91
 21
23.8779
  0
LINE
  8
0
 10
119.91
 20
23.8779
 11
121.309
 21
25.4314
  0
LINE
  8
0
 10
121.309
 20
25.4314
 11
123
 21
26.6603
  0
LINE
  8
0
 10
123
 20
26.6603
 11
124.91
 21
27.5106
  0
LINE
  8
0
 10
124.91
 20
27.5106
 11
126.955
 21
27.9452
  0
LINE
  8
0
 10
126.955
 20
27.9452
 11
129.045
 21
27.9452
  0
LINE
  8
0
 10
129.045
 20
27.9452
 11
131.09
 21
27.5106
  0
LINE
  8
0
 10
131.09
 20
27.5106
 11
133
 21
26.6603
  0
LINE
  8
0
 10
133
 20
26.6603
 11
134.691
 21
25.4314
  0
LINE
  8
0
 10
134.691
 20
25.4314
 11
136.09
 21
23.8779
  0
LINE
  8
0
 10
136.09
 20
23.8779
 11
137.135
 21
22.0674
  0
LINE
  8
0
 10
137.135
 20
22.0674
 11
137.781
 21
20.0791
  0
LINE
  8
0
 10
137.781
 20
20.0791
 11
138
 21
18
  0
LINE
  8
0
 10
138
 20
18
 11
137.781
 21
15.9209
  0
LINE
  8
0
 10
137.781
 20
15.9209
 11
137.135
 21
13.9326
  0
LINE
  8
0
 10
137.135
 20
13.9326
 11
136.09
 21
12.1221
  0
LINE
  8
0
 10
136.09
 20
12.1221
 11
134.691
 21
10.5686
  0
LINE
  8
0
 10
134.691
 20
10.5686
 11
133
 21
9.33975
  0
LINE
  8
0
 10
133
 20
9.33975
 11
131.09
 21
8.48944
  0
LINE
  8
0
 10
131.09
 20
8.48944
 11
129.045
 21
8.05478
  0
LINE
  8
0
 10
129.045
 20
8.05478
 11
126.955
 21
8.05478
  0
LINE
  8
0
 10
126.955
 20
8.05478
 11
124.91
 21
8.48944
  0
LINE
  8
0
 10
124.91
 20
8.48944
 11
123
 21
9.33975
  0
LINE
  8
0
 10
123
 20
9.33975
 11
121.309
 21
10.5686
  0
LINE
  8
0
 10
121.309
 20
10.5686
 11
119.91
 21
12.1221
  0
LINE
  8
0
 10
119.91
 20
12.1221
 11
118.865
 21
13.9326
  0
LINE
  8
0
 10
118.865
 20
13.9326
 11
118.219
 21
15.9209
  0
LINE
  8
0
 10
118.219
 20
15.9209
 11
118
 21
18
  0
LINE
  8
0
 10
115.25
 20
100
 11
115.529
 21
97.3491
  0
LINE
  8
0
 10
115.529
 20
97.3491
 11
116.352
 21
94.8141
  0
LINE
  8
0
 10
116.352
 20
94.8141
 11
117.685
 21
92.5057
  0
LINE
  8
0
 10
117.685
 20
92.5057
 11
119.469
 21
90.5249
  0
LINE
  8
0
 10
119.469
 20
90.5249
 11
121.625
 21
88.9582
  0
LINE
  8
0
 10
121.625
 20
88.9582
 11
124.06
 21
87.874
  0
LINE
  8
0
 10
124.06
 20
87.874
 11
126.667
 21
87.3198
  0
LINE
  8
0
 10
126.667
 20
87.3198
 11
129.333
 21
87.3198
  0
LINE
  8
0
 10
129.333
 20
87.3198
 11
131.94
 21
87.874
  0
LINE
  8
0
 10
131.94
 20
87.874
 11
134.375
 21
88.9582
  0
LINE
  8
0
 10
134.375
 20
88.9582
 11
136.531
 21
90.5249
  0
LINE
  8
0
 10
136.531
 20
90.5249
 11
138.315
 21
92.5057
  0
LINE
  8
0
 10
138.315
 20
92.5057
 11
139.648
 21
94.8141
  0
LINE
  8
0
 10
139.648
 20
94.8141
 11
140.471
 21
97.3491
  0
LINE
  8
0
 10
140.471
 20
97.3491
 11
140.75
 21
100
  0
LINE
  8
0
 10
140.75
 20
100
 11
138
 21
100
  0
LINE
  8
0
 10
138
 20
100
 11
137.781
 21
97.9209
  0
LINE
  8
0
 10
137.781
 20
97.9209
 11
137.135
 21
95.9326
  0
LINE
  8
0
 10
137.135
 20
95.9326
 11
136.09
 21
94.1221
  0
LINE
  8
0
 10
136.09
 20
94.1221
 11
134.691
 21
92.5686
  0
LINE
  8
0
 10
134.691
 20
92.5686
 11
133
 21
91.3397
  0
LINE
  8
0
 10
133
 20
91.3397
 11
131.09
 21
90.4894
  0
LINE
  8
0
 10
131.09
 20
90.4894
 11
129.045
 21
90.0548
  0
LINE
  8
0
 10
129.045
 20
90.0548
 11
126.955
 21
90.0548
  0
LINE
  8
0
 10
126.955
 20
90.0548
 11
124.91
 21
90.4894
  0
LINE
  8
0
 10
124.91
 20
90.4894
 11
123
 21
91.3397
  0
LINE
  8
0
 10
123
 20
91.3397
 11
121.309
 21
92.5686
  0
LINE
  8
0
 10
121.309
 20
92.5686
 11
119.91
 21
94.1221
  0
LINE
  8
0
 10
119.91
 20
94.1221
 11
118.865
 21
95.9326
  0
LINE
  8
0
 10
118.865
 20
95.9326
 11
118.219
 21
97.9209
  0
LINE
  8
0
 10
118.219
 20
97.9209
 11
118
 21
100
  0
LINE
  8
0
 10
118
 20
100
 11
118.219
 21
102.079
  0
LINE
  8
0
 10
118.219
 20
102.079
 11
118.865
 21
104.067
  0
LINE
  8
0
 10
118.865
 20
104.067
 11
119.91
 21
105.878
  0
LINE
  8
0
 10
119.91
 20
105.878
 11
121.309
 21
107.431
  0
LINE
  8
0
 10
121.309
 20
107.431
 11
123
 21
108.66
  0
LINE
  8
0
 10
123
 20
108.66
 11
124.91
 21
109.511
  0
LINE
  8
0
 10
124.91
 20
109.511
 11
126.955
 21
109.945
  0
LINE
  8
0
 10
126.955
 20
109.945
 11
128
 21
109.945
  0
LINE
  8
0
 10
128
 20
109.945
 11
128
 21
112.68
  0
LINE
  8
0
 10
128
 20
112.68
 11
126.667
 21
112.68
  0
LINE
  8
0
 10
126.667
 20
112.68
 11
124.06
 21
112.126
  0
LINE
  8
0
 10
124.06
 20
112.126
 11
121.625
 21
111.042
  0
LINE
  8
0
 10
121.625
 20
111.042
 11
119.469
 21
109.475
  0
LINE
  8
0
 10
119.469
 20
109.475
 11
117.685
 21
107.494
  0
LINE
  8
0
 10
117.685
 20
107.494
 11
116.352
 21
105.186
  0
LINE
  8
0
 10
116.352
 20
105.186
 11
115.529
 21
102.651
  0
LINE
  8
0
 10
115.529
 20
102.651
 11
115.25
 21
100
  0
LINE
  8
0
 10
115.25
 20
135
 11
115.529
 21
132.349
  0
LINE
  8
0
 10
115.529
 20
132.349
 11
116.352
 21
129.814
  0
LINE
  8
0
 10
116.352
 20
129.814
 11
117.685
 21
127.506
  0
LINE
  8
0
 10
117.685
 20
127.506
 11
119.469
 21
125.525
  0
LINE
  8
0
 10
119.469
 20
125.525
 11
121.625
 21
123.958
  0
LINE
  8
0
 10
121.625
 20
123.958
 11
124.06
 21
122.874
  0
LINE
  8
0
 10
124.06
 20
122.874
 11
126.667
 21
122.32
  0
LINE
  8
0
 10
126.667
 20
122.32
 11
129.333
 21
122.32
  0
LINE
  8
0
 10
129.333
 20
122.32
 11
131.94
 21
122.874
  0
LINE
  8
0
 10
131.94
 20
122.874
 11
134.375
 21
123.958
  0
LINE
  8
0
 10
134.375
 20
123.958
 11
136.531
 21
125.525
  0
LINE
  8
0
 10
136.531
 20
125.525
 11
138.315
 21
127.506
  0
LINE
  8
0
 10
138.315
 20
127.506
 11
139.648
 21
129.814
  0
LINE
  8
0
 10
139.648
 20
129.814
 11
140.471
 21
132.349
  0
LINE
  8
0
 10
140.471
 20
132.349
 11
140.75
 21
135
  0
LINE
  8
0
 10
140.75
 20
135
 11
134.5
 21
135
  0
LINE
  8
0
 10
134.5
 20
135
 11
134.211
 21
133.084
  0
LINE
  8
0
 10
134.211
 20
133.084
 11
133.371
 21
131.338
  0
LINE
  8
0
 10
133.371
 20
131.338
 11
132.053
 21
129.918
  0
LINE
  8
0
 10
132.053
 20
129.918
 11
130.375
 21
128.949
  0
LINE
  8
0
 10
130.375
 20
128.949
 11
128.486
 21
128.518
  0
LINE
  8
0
 10
128.486
 20
128.518
 11
126.554
 21
128.663
  0
LINE
  8
0
 10
126.554
 20
128.663
 11
124.75
 21
129.371
  0
LINE
  8
0
 10
124.75
 20
129.371
 11
123.235
 21
130.579
  0
LINE
  8
0
 10
123.235
 20
130.579
 11
122.144
 21
132.18
  0
LINE
  8
0
 10
122.144
 20
132.18
 11
121.573
 21
134.031
  0
LINE
  8
0
 10
121.573
 20
134.031
 11
121.573
 21
135.969
  0
LINE
  8
0
 10
121.573
 20
135.969
 11
122.144
 21
137.82
  0
LINE
  8
0
 10
122.144
 20
137.82
 11
123.235
 21
139.421
  0
LINE
  8
0
 10
123.235
 20
139.421
 11
124.75
 21
140.629
  0
LINE
  8
0
 10
124.75
 20
140.629
 11
126.554
 21
141.337
  0
LINE
  8
0
 10
126.554
 20
141.337
 11
128
 21
141.445
  0
LINE
  8
0
 10
128
 20
141.445
 11
128
 21
147.68
  0
LINE
  8
0
 10
128
 20
147.68
 11
126.667
 21
147.68
  0
LINE
  8
0
 10
126.667
 20
147.68
 11
124.06
 21
147.126
  0
LINE
  8
0
 10
124.06
 20
147.126
 11
121.625
 21
146.042
  0
LINE
  8
0
 10
121.625
 20
146.042
 11
119.469
 21
144.475
  0
LINE
  8
0
 10
119.469
 20
144.475
 11
117.685
 21
142.494
  0
LINE
  8
0
 10
117.685
 20
142.494
 11
116.352
 21
140.186
  0
LINE
  8
0
 10
116.352
 20
140.186
 11
115.529
 21
137.651
  0
LINE
  8
0
 10
115.529
 20
137.651
 11
115.25
 21
135
  0
ENDSEC
  0
SECTION
  2
OBJECTS
  0
DICTIONARY
  0
ENDSEC
  0
EOF
